<svg xmlns="http://www.w3.org/2000/svg" xmlns:xlink="http://www.w3.org/1999/xlink" width="32" height="29" viewBox="0 0 32 29"><defs><clipPath id="a"><rect width="32" height="29" fill="none"/></clipPath></defs><g clip-path="url(#a)"><path d="M28,0H13A4.005,4.005,0,0,0,9,4V6h2V4a2.006,2.006,0,0,1,2-2H28a1.955,1.955,0,0,1,1.41.59,1.916,1.916,0,0,1,.5.82A1.871,1.871,0,0,1,30,4V18a2,2,0,0,1-2,2H24v2h4a4,4,0,0,0,4-4V4a4.005,4.005,0,0,0-4-4" fill="#43414c"/><path d="M18,8H4a4,4,0,0,0-4,4V25a4,4,0,0,0,4,4H18a4,4,0,0,0,4-4V12a4.006,4.006,0,0,0-4-4m2,14v3a1.984,1.984,0,0,1-.08.532c-.006.021,0,.045-.01.066a.72.72,0,0,1-.052.13c-.01.026-.018.052-.03.078l-.008.022c-.008.018-.021.032-.031.05a1.934,1.934,0,0,1-.192.315c-.01.014-.016.032-.027.045a1.76,1.76,0,0,1-.136.152A1.989,1.989,0,0,1,18,27H4a1.993,1.993,0,0,1-1.924-1.485A1.964,1.964,0,0,1,2,25V12a1.969,1.969,0,0,1,.143-.729A1.994,1.994,0,0,1,4,10H18a1.96,1.96,0,0,1,1.115.342,2,2,0,0,1,.58.61.11.11,0,0,1,.014.018c.01.015.014.034.024.05a2.041,2.041,0,0,1,.149.329c.007.021.021.039.028.061s.015.072.024.106c.015.061.026.122.036.185a.68.68,0,0,1,.009.069.342.342,0,0,1,.011.11.465.465,0,0,1,.008.1L20,12V22Z" fill="#43414c"/></g></svg>