<svg xmlns="http://www.w3.org/2000/svg" width="31.685" height="31.677" viewBox="0 0 31.685 31.677"><path d="M404.692,92.69a8.121,8.121,0,1,0,8.121,8.121,8.108,8.108,0,0,0-8.121-8.121m0,13.4a5.28,5.28,0,1,1,5.28-5.28,5.29,5.29,0,0,1-5.28,5.28M415.04,92.358a1.894,1.894,0,1,1-1.894-1.894,1.889,1.889,0,0,1,1.894,1.894m5.379,1.922a8.773,8.773,0,0,0-9.2-9.2c-2.615-.148-10.454-.148-13.07,0a8.764,8.764,0,0,0-9.2,9.189c-.149,2.616-.149,10.455,0,13.07a8.774,8.774,0,0,0,9.2,9.2c2.616.148,10.455.148,13.07,0a8.773,8.773,0,0,0,9.2-9.2c.148-2.615.148-10.447,0-13.063m-3.378,15.869a5.345,5.345,0,0,1-3.011,3.011c-2.086.827-7.033.636-9.338.636s-7.26.184-9.338-.636a5.346,5.346,0,0,1-3.011-3.011c-.827-2.086-.636-7.033-.636-9.338s-.184-7.26.636-9.338a5.343,5.343,0,0,1,3.011-3.011c2.085-.827,7.033-.636,9.338-.636s7.259-.184,9.338.636a5.345,5.345,0,0,1,3.011,3.011c.827,2.086.636,7.033.636,9.338s.191,7.26-.636,9.338" transform="translate(-388.846 -84.973)" fill="#43414c"/></svg>