<svg xmlns="http://www.w3.org/2000/svg" width="29.18" height="29.18" viewBox="0 0 29.18 29.18"><path d="M3.242,29.18h22.7a3.242,3.242,0,0,0,3.242-3.242V3.242A3.242,3.242,0,0,0,25.938,0H3.242A3.242,3.242,0,0,0,0,3.242v22.7A3.242,3.242,0,0,0,3.242,29.18Z" fill="#43414c" fill-rule="evenodd"/><path d="M31.273,31.273H26.9V23.829c0-2.041-.776-3.182-2.391-3.182-1.758,0-2.676,1.187-2.676,3.182v7.445H17.623V17.091h4.212V19a4.948,4.948,0,0,1,4.276-2.344c3.008,0,5.162,1.837,5.162,5.636ZM12.6,15.234a2.617,2.617,0,1,1,2.6-2.617A2.607,2.607,0,0,1,12.6,15.234ZM10.422,31.273h4.392V17.091H10.422Z" transform="translate(-6.047 -6.047)" fill="#fff" fill-rule="evenodd"/></svg>