<svg xmlns="http://www.w3.org/2000/svg" width="31.686" height="31.686" viewBox="0 0 31.686 31.686"><path d="M15.843,0A15.846,15.846,0,0,0,10.07,30.6a15.223,15.223,0,0,1,.055-4.55c.288-1.236,1.858-7.875,1.858-7.875a5.721,5.721,0,0,1-.474-2.352c0-2.2,1.277-3.848,2.867-3.848a1.99,1.99,0,0,1,2,2.232c0,1.359-.865,3.392-1.312,5.275a2.3,2.3,0,0,0,2.346,2.863c2.816,0,4.98-2.969,4.98-7.255a6.254,6.254,0,0,0-6.618-6.446,6.858,6.858,0,0,0-7.154,6.875A6.163,6.163,0,0,0,9.8,19.137a.473.473,0,0,1,.11.454c-.12.5-.388,1.577-.44,1.8-.069.29-.23.352-.53.212-1.979-.921-3.216-3.814-3.216-6.138,0-5,3.631-9.587,10.468-9.587,5.5,0,9.767,3.916,9.767,9.15,0,5.46-3.443,9.854-8.221,9.854a4.24,4.24,0,0,1-3.631-1.819s-.794,3.025-.987,3.766a17.711,17.711,0,0,1-1.969,4.153A15.845,15.845,0,1,0,15.843,0" fill="#43414c"/></svg>