<svg xmlns="http://www.w3.org/2000/svg" xmlns:xlink="http://www.w3.org/1999/xlink" width="32" height="32.154" viewBox="0 0 32 32.154"><defs><clipPath id="a"><rect width="32" height="32.154" fill="#43414c"/></clipPath></defs><g clip-path="url(#a)"><path d="M27.337,4.672A15.937,15.937,0,0,0,2.261,23.9L0,32.154l8.447-2.216a15.912,15.912,0,0,0,7.614,1.939h.007a15.94,15.94,0,0,0,11.27-27.2ZM16.067,29.187h-.005a13.226,13.226,0,0,1-6.741-1.846l-.484-.287L3.825,28.369l1.338-4.887-.315-.5a13.243,13.243,0,1,1,11.219,6.206Zm7.264-9.918c-.4-.2-2.355-1.162-2.721-1.295s-.63-.2-.9.2-1.028,1.3-1.261,1.561-.465.3-.863.1a10.885,10.885,0,0,1-3.2-1.976A12,12,0,0,1,12.176,15.1c-.232-.4-.024-.614.174-.812.179-.179.4-.465.6-.7a2.712,2.712,0,0,0,.4-.664.733.733,0,0,0-.033-.7c-.1-.2-.9-2.159-1.228-2.956-.323-.776-.652-.671-.9-.684s-.5-.014-.763-.014a1.462,1.462,0,0,0-1.062.5,4.465,4.465,0,0,0-1.394,3.321A7.746,7.746,0,0,0,9.6,16.513c.2.266,2.808,4.287,6.8,6.012a22.835,22.835,0,0,0,2.27.839,5.454,5.454,0,0,0,2.507.158,4.1,4.1,0,0,0,2.687-1.893,3.332,3.332,0,0,0,.232-1.893c-.1-.166-.365-.266-.763-.465Z" fill="#43414c" fill-rule="evenodd"/></g></svg>