<?xml version="1.0" standalone="no"?>
<!DOCTYPE svg PUBLIC "-//W3C//DTD SVG 20010904//EN"
 "http://www.w3.org/TR/2001/REC-SVG-20010904/DTD/svg10.dtd">
<svg version="1.0" xmlns="http://www.w3.org/2000/svg"
 width="700.000000pt" height="700.000000pt" viewBox="0 0 700.000000 700.000000"
 preserveAspectRatio="xMidYMid meet">
<metadata>
Created by potrace 1.11, written by Peter Selinger 2001-2013
</metadata>
<g transform="translate(0.000000,700.000000) scale(0.100000,-0.100000)"
fill="#000000" stroke="none">
<path d="M3200 6579 c-136 -15 -326 -48 -451 -79 -1180 -296 -2072 -1250
-2293 -2452 -43 -233 -59 -595 -35 -834 70 -724 381 -1388 889 -1894 302 -302
609 -507 1025 -685 82 -35 302 -106 414 -135 281 -70 520 -95 843 -87 289 6
493 37 756 113 250 73 568 214 780 348 758 478 1275 1252 1421 2126 48 288 53
678 13 945 -81 529 -276 997 -586 1409 -494 655 -1209 1081 -2031 1206 -159
25 -594 36 -745 19z m993 -1937 c114 -41 179 -84 287 -190 203 -199 409 -349
642 -467 168 -86 292 -134 528 -204 23 -7 26 -14 31 -82 64 -766 -266 -1495
-884 -1956 -289 -215 -605 -345 -992 -409 -143 -24 -450 -24 -610 1 -896 135
-1605 776 -1819 1646 -46 188 -59 307 -59 529 1 113 5 218 10 234 8 27 15 31
108 52 208 47 458 145 1020 399 560 253 940 390 1240 444 154 29 165 29 310
26 101 -2 143 -7 188 -23z"/>
</g>
</svg>
