<svg xmlns="http://www.w3.org/2000/svg" viewBox="0 0 50 50"><defs><style>.a{fill:#595769;}.b,.c{fill:none;}.c{stroke:#dad9e5;}</style></defs><path class="a" d="M14.23,24.41a1.06,1.06,0,0,0-1.06,1,1,1,0,0,0,1,1.06c1.65-.16,3.31-.25,5-.3a94.59,94.59,0,0,1,10.24.2,1,1,0,0,0,.07-2.05l-1-.07a97.15,97.15,0,0,0-14.17.17Zm17.22-3.66A23.7,23.7,0,0,1,37,24.63a1,1,0,0,1,0,1.45q-3,2.36-6.19,4.53a1,1,0,0,1-1.38-.41,1.05,1.05,0,0,1,.41-1.39c2-1.35,3.88-2.77,5.76-4.23L35.54,26a21.81,21.81,0,0,0-5.18-3.54A1,1,0,0,1,30,21.07a1,1,0,0,1,1.41-.32Z"/><path class="b" d="M25,0h0A25,25,0,0,1,50,25h0A25,25,0,0,1,25,50h0A25,25,0,0,1,0,25H0A25,25,0,0,1,25,0Z"/><path class="c" d="M25,.5h0A24.5,24.5,0,0,1,49.5,25h0A24.5,24.5,0,0,1,25,49.5h0A24.5,24.5,0,0,1,.5,25h0A24.5,24.5,0,0,1,25,.5Z"/></svg>