<svg xmlns="http://www.w3.org/2000/svg" viewBox="0 0 50 50"><defs><style>.a{fill:#595769;}.b,.c{fill:none;}.c{stroke:#dad9e5;}</style></defs><path class="a" d="M36.35,24.23a1,1,0,1,1,.07,2c-1.65-.15-3.31-.25-5-.3a94.59,94.59,0,0,0-10.24.2,1,1,0,0,1-1.06-1,1.06,1.06,0,0,1,1-1.06l1-.06a94.42,94.42,0,0,1,14.17.17ZM19.13,20.57a23.66,23.66,0,0,0-5.59,3.87,1,1,0,0,0,.05,1.45q3,2.36,6.19,4.54A1,1,0,0,0,21.16,30a1.05,1.05,0,0,0-.41-1.39q-2.94-2-5.76-4.23l0,1.45a21.65,21.65,0,0,1,5.18-3.55,1,1,0,0,0,.32-1.41,1.06,1.06,0,0,0-1.41-.32Z"/><path class="b" d="M25,0h0A25,25,0,0,1,50,25h0A25,25,0,0,1,25,50h0A25,25,0,0,1,0,25H0A25,25,0,0,1,25,0Z"/><path class="c" d="M25,.5h0A24.5,24.5,0,0,1,49.5,25h0A24.5,24.5,0,0,1,25,49.5h0A24.5,24.5,0,0,1,.5,25h0A24.5,24.5,0,0,1,25,.5Z"/></svg>