<svg xmlns="http://www.w3.org/2000/svg" viewBox="0 0 12 25"><defs><style>.a{fill:#595769;}</style></defs><path class="a" d="M5.32,1.46a1.05,1.05,0,0,1,1-1,1,1,0,0,1,1,1c-.21,1.64-.37,3.3-.47,5a94.72,94.72,0,0,0-.17,10.25,1,1,0,0,1-1,1,1,1,0,0,1-1-1c0-.35,0-.7,0-1A95.73,95.73,0,0,1,5.32,1.46ZM1.06,18.54a23.35,23.35,0,0,0,3.68,5.73,1,1,0,0,0,1.45,0c1.64-2,3.22-4,4.75-6a1,1,0,0,0-.37-1.4,1,1,0,0,0-1.4.37Q7,20.08,4.74,22.82H6.19a21.71,21.71,0,0,1-3.37-5.31,1,1,0,0,0-1.4-.37,1.05,1.05,0,0,0-.36,1.4Z"/></svg>