<svg xmlns="http://www.w3.org/2000/svg" viewBox="0 0 30 30"><defs><style>.a,.b{fill:none;}.b{stroke:#23b573;}.c{fill:#23b573;}</style></defs><path class="a" d="M15,0h0A15,15,0,0,1,30,15h0A15,15,0,0,1,15,30h0A15,15,0,0,1,0,15H0A15,15,0,0,1,15,0Z"/><path class="b" d="M15,.5h0A14.5,14.5,0,0,1,29.5,15h0A14.5,14.5,0,0,1,15,29.5h0A14.5,14.5,0,0,1,.5,15h0A14.5,14.5,0,0,1,15,.5Z"/><path class="c" d="M21.35,11.12a46.71,46.71,0,0,0-10.22,6.93,10.75,10.75,0,0,1,.36-3.43,1.05,1.05,0,0,0-2-.56,13,13,0,0,0-.12,6.39,1.06,1.06,0,0,0,1.31.72,1,1,0,0,0,.44-.26,47.19,47.19,0,0,1,11.32-8C23.62,12.34,22.56,10.52,21.35,11.12Z"/></svg>