<svg xmlns="http://www.w3.org/2000/svg" viewBox="0 0 63.17 38.75"><defs><style>.a{fill:#9693a3;}</style></defs><path class="a" d="M39.9,17.69a3.42,3.42,0,0,1,3.51-3.41,6.51,6.51,0,0,1,1,.06v.88h-.07c0-.16-.32-.32-.89-.32a2.77,2.77,0,0,0-2.87,2.79,2.81,2.81,0,0,0,2.93,2.79c.56,0,.79-.1.83-.25h.07V21a3.72,3.72,0,0,1-.88.09,3.42,3.42,0,0,1-3.65-3.44M44,12.85l.27.4-1.17.83h0l-1.17-.79.31-.41.86.63Zm4,7.51H46.3V17.75H48c.1,0,.33,0,.33.16h.05v-1H48.3c0,.14-.23.16-.33.16H46.3V15H48c.1,0,.33,0,.33.15h.05v-.81H45.46v.06c.13,0,.15.23.15.32v5.91c0,.09,0,.32-.15.32V21h2.89v-.81H48.3c0,.13-.23.15-.33.15m2.63.78a1.81,1.81,0,0,0,2-1.8c0-1.66-2.35-2.54-2.35-3.65a.86.86,0,0,1,.95-.85c.69,0,1,.24,1,.36h.06v-.86a4,4,0,0,0-1.05-.13,1.46,1.46,0,0,0-1.63,1.5c0,1.59,2.34,2.36,2.34,3.68,0,.64-.48,1.12-1.36,1.12-.71,0-1-.33-1-.39h-.06V21a4.13,4.13,0,0,0,1.11.15M53.54,21V21c.13,0,.15-.23.15-.32V14.73c0-.09,0-.32-.15-.32v-.06h1v.06c-.13,0-.15.23-.15.32v5.91c0,.09,0,.32.15.32V21h-1m2.85-6.29c.11-.17.12-.32,0-.32v-.06h1.17v.06c-.13,0-.29.23-.35.32l-1.64,2.49-.1.13a.54.54,0,0,1,.09.12l1.92,3.17c0,.09.22.32.35.32V21H56.63V21c.15,0,0-.23,0-.32l-1.83-3a.43.43,0,0,0-.19-.16Zm6.55,5.93-1.84-5.9c0-.12-.05-.32,0-.35v-.06H59.6v.06c.09,0,.07.23,0,.35l-2,5.9c-.05.18-.16.3-.23.3V21h1.05V21c-.11,0-.14-.15-.09-.29l.53-1.62h2.75l.5,1.62c0,.14,0,.29-.1.29V21h1.09V21C63.07,21,63,20.78,62.94,20.66Zm-3.81-2.22,1.11-3.35c0-.1.06-.19.09-.38h0a3.68,3.68,0,0,0,.09.38l1,3.35Zm2-5.57.22.55-1.76.64-.21-.43ZM16,28.78a2.33,2.33,0,0,0-.28-.59L13,23.69c-.16-.28-.17-.37-.13-.44v0H11.47v.06c.13,0,.15.23.15.33v5.9c0,.1,0,.33-.15.33v.05h1v-.05c-.14,0-.16-.23-.16-.33V24a2.44,2.44,0,0,0,0-.28h0a1.83,1.83,0,0,0,.18.42l3.26,5.5a.46.46,0,0,1,.08.23h.85V23.6c0-.1,0-.33.15-.33v-.06h-1v.06c.13,0,.15.23.15.33v4.89a2.53,2.53,0,0,0,0,.29h0m6.84.74L21,23.62c0-.12-.05-.32,0-.35v-.06H19.48v.06c.09,0,.07.23,0,.35l-2,5.9c-.05.18-.16.31-.23.31v.05h1.05v-.05c-.11,0-.14-.16-.09-.3l.53-1.62h2.75l.5,1.62c.05.14,0,.3-.1.3v.05h1.09v-.05C23,29.83,22.86,29.65,22.82,29.52ZM19,27.3,20.12,24c0-.1.06-.18.09-.37h0a3.34,3.34,0,0,0,.09.37l1,3.35Zm2-5.57.22.55-1.76.64-.21-.43ZM27.6,29.5l-1.1-1.78a2.37,2.37,0,0,0-.73-.86v0a1.79,1.79,0,0,0,1.38-1.75A1.92,1.92,0,0,0,25,23.21H23.68v.06c.13,0,.15.23.15.33v5.9c0,.1,0,.33-.15.33v.05h1v-.05c-.14,0-.16-.23-.16-.33V27h.28c.45,0,.66.32.92.77l1.1,1.82a.48.48,0,0,1,.05.28h1v-.05C27.84,29.83,27.66,29.6,27.6,29.5ZM25,26.41h-.48V23.87h.58a1.26,1.26,0,0,1,1.36,1.25A1.32,1.32,0,0,1,25,26.41Zm6.58-3.34a3.48,3.48,0,0,0-3.48,3.48,3.48,3.48,0,1,0,3.48-3.48Zm0,6.28a2.8,2.8,0,1,1,2.8-2.8A2.79,2.79,0,0,1,31.58,29.35Zm5.91-6.14H36.06v.06c.14,0,.16.23.16.33v5.9c0,.1,0,.33-.16.33v.05h1.12c2.23,0,3.78-1.22,3.78-3.33A3.17,3.17,0,0,0,37.49,23.21Zm-.2,6h-.36V23.84h.64a2.53,2.53,0,0,1,2.68,2.71A2.73,2.73,0,0,1,37.29,29.25Zm9.15-.47a2.48,2.48,0,0,0-.29-.59l-2.66-4.5c-.17-.28-.18-.37-.13-.44v0H41.92v.06c.14,0,.16.23.16.33v5.9c0,.1,0,.33-.16.33v.05h1v-.05c-.13,0-.15-.23-.15-.33V24a2.44,2.44,0,0,0,0-.28h0a1.47,1.47,0,0,0,.18.42l3.26,5.5a.43.43,0,0,1,.07.23h.85V23.6c0-.1,0-.33.15-.33v-.06h-1v.06c.14,0,.16.23.16.33v4.89a2.53,2.53,0,0,0,0,.29h0m4-7,.22.55-1.76.64-.21-.43,1.75-.76m-.79,7.77c0,.1,0,.33.15.33v.05h-1v-.05c.14,0,.16-.23.16-.33V23.6c0-.1,0-.33-.16-.33v-.06h1v.06c-.13,0-.15.23-.15.33ZM13.72,35.19v0a1.36,1.36,0,0,0,1.2-1.44,1.74,1.74,0,0,0-1.86-1.64H11.47v.05c.13,0,.15.23.15.33v5.9c0,.1,0,.33-.15.33v.06h1.59a1.86,1.86,0,0,0,2-1.86A1.66,1.66,0,0,0,13.72,35.19Zm-1.41-2.48h.77a1.05,1.05,0,0,1,1.12,1.07,1.09,1.09,0,0,1-1.12,1h-.77Zm.77,5.41h-.77V35.48h.53a1.4,1.4,0,0,1,1.53,1.32A1.18,1.18,0,0,1,13.08,38.12Zm7.81.26-1.84-5.89c0-.13-.05-.33,0-.36v-.05H17.55v.05c.09,0,.08.23,0,.36l-2,5.89c-.06.18-.17.31-.23.31v.06h1v-.06c-.11,0-.14-.15-.09-.3l.53-1.62h2.76l.49,1.62c.05.15,0,.3-.09.3v.06h1.08v-.06C21,38.69,20.93,38.51,20.89,38.38Zm-3.81-2.22,1.11-3.35a2,2,0,0,0,.09-.37h0a1.82,1.82,0,0,0,.1.37l1,3.35Zm9.22,1.48a2.92,2.92,0,0,0-.29-.59l-2.67-4.5c-.16-.27-.17-.37-.12-.43v0H21.78v.05c.13,0,.15.23.15.33v5.9c0,.1,0,.33-.15.33v.06h1v-.06c-.13,0-.15-.23-.15-.33V32.87a2.44,2.44,0,0,0,0-.28h0a1.16,1.16,0,0,0,.18.42l3.26,5.5a.55.55,0,0,1,.07.24H27V32.46c0-.1,0-.33.15-.33v-.05h-1v.05c.13,0,.15.23.15.33v4.89a2.53,2.53,0,0,0,0,.29h0m2.36,1.11v-.06c.13,0,.15-.23.15-.33v-5.9c0-.1,0-.33-.15-.33v-.05h1v.05c-.13,0-.15.23-.15.33v5.9c0,.1,0,.33.15.33v.06h-1m2.85-6.29c.11-.17.12-.33,0-.33v-.05h1.17v.05c-.13,0-.29.23-.35.33l-1.64,2.48a1.34,1.34,0,0,1-.11.14.52.52,0,0,1,.1.11l1.91,3.17c.06.1.22.33.36.33v.06H31.75v-.06c.15,0,0-.23,0-.33l-1.83-3a.46.46,0,0,0-.19-.17Zm6.55,5.92-1.84-5.89c0-.13-.06-.33,0-.36v-.05H34.72v.05c.09,0,.07.23,0,.36l-2,5.89c-.06.18-.16.31-.23.31v.06h1v-.06c-.11,0-.14-.15-.1-.3l.54-1.62H36.8l.5,1.62c0,.15,0,.3-.1.3v.06h1.09v-.06C38.19,38.69,38.1,38.51,38.06,38.38Zm-3.81-2.22,1.1-3.35a1.82,1.82,0,0,0,.1-.37h0a2,2,0,0,0,.09.37l1,3.35ZM4.8,1.34,8.22,3.8H8A8.2,8.2,0,0,0,2.2,6.5,8.93,8.93,0,0,0,0,12.67a8.58,8.58,0,0,0,5.48,7.7A13.8,13.8,0,0,0,10.1,21h4.65v-.21c-.29-.1-.42-.1-.42-.57l0-13h.14a5.14,5.14,0,0,0,.55,1L22.85,21h2.73V3.82H22.36V4a.65.65,0,0,1,.48.6V15.79h-.14a3.81,3.81,0,0,0-.55-1.05L15.42,3.8H11.17V4a.68.68,0,0,1,.46.65l0,13.91c-1.61-.07-3.57.12-5.07-.42A6.35,6.35,0,0,1,2.69,12.3,6.14,6.14,0,0,1,6,6.91a7.13,7.13,0,0,1,3.93-.67c.32.08.44.14.55.4h.21V3.79H9l3.48-2.32L11.44,0,8.62,1.94,5.94,0,4.8,1.34M36.41,13.43A4.28,4.28,0,0,0,34,11.91v-.07a3.78,3.78,0,0,0,2.68-3.55c0-2.74-2.41-4.47-5-4.48H26.09l0,17.21h5.17a6.88,6.88,0,0,0,3.8-1,4.91,4.91,0,0,0,2.18-3.86A4.24,4.24,0,0,0,36.41,13.43Zm-5,5.15H28.78V6.24H31.4c1,0,2.62.4,2.64,2.15,0,1.12-.83,2.11-2.54,2.33v2.46c1.68.12,3.07,1.16,3.05,2.67S33.48,18.58,31.37,18.58Z"/></svg>