<svg id="Layer_1" data-name="Layer 1" xmlns="http://www.w3.org/2000/svg" viewBox="0 0 32 32"><defs><style>.cls-1{fill:#f6c57c;}.cls-2{fill:#43414c;}</style></defs><path class="cls-1" d="M26,16.47a8.81,8.81,0,0,0,0-.89c0-.27,0-.54-.07-.81h0a11.7,11.7,0,0,1-5.38-3,2.91,2.91,0,0,0-2.09-1.09c-3.85-.12-9.29,3.64-12.39,4.1,0,.15,0,.31,0,.46s0,.52,0,.79A10,10,0,0,0,16,26h.47A10.08,10.08,0,0,0,26,16.47Z"/><path class="cls-2" d="M26.23,6.24A14.14,14.14,0,1,0,16,30.14l.66,0A14.22,14.22,0,0,0,30.12,16.66,14,14,0,0,0,26.23,6.24ZM16.47,26H16A10,10,0,0,1,6,16a10.36,10.36,0,0,1,.08-1.25c3.1-.46,8.54-4.22,12.39-4.1a2.91,2.91,0,0,1,2.09,1.09,11.7,11.7,0,0,0,5.38,3,10.65,10.65,0,0,1,.07,1.7A10.08,10.08,0,0,1,16.47,26Z"/></svg>