<svg xmlns="http://www.w3.org/2000/svg" viewBox="0 0 48 15"><defs><style>.a{fill:#43414c;}</style></defs><path class="a" d="M11.88,2.56A6.67,6.67,0,1,0,7.06,13.83h.31a6.71,6.71,0,0,0,6.35-6.35A6.62,6.62,0,0,0,11.88,2.56Zm-4.6,9.32H7.06A4.72,4.72,0,0,1,2.33,7.16h0c0-.2,0-.39,0-.59,1.47-.21,4-2,5.85-1.93a1.36,1.36,0,0,1,1,.51,5.46,5.46,0,0,0,2.54,1.43,4.7,4.7,0,0,1-4,5.27l-.42,0Z"/><path class="a" d="M28.06,3a6.42,6.42,0,1,0-4.64,10.86h.3a6.45,6.45,0,0,0,6.11-6.11A6.36,6.36,0,0,0,28.06,3Zm-4.43,8.91h-.21a4.48,4.48,0,0,1-3.25-7.56,12.64,12.64,0,0,0,6.52,0,4.48,4.48,0,0,1-3.06,7.53Z"/><path class="a" d="M47.59,12.51A21,21,0,0,0,46.09,5a6.67,6.67,0,1,0-6.32,8.79h.32A6.51,6.51,0,0,0,43,13c-.06.48-.08,1,.4,1.24a3.37,3.37,0,0,0,1.9.27A3.72,3.72,0,0,0,47,14.18,1.88,1.88,0,0,0,47.59,12.51ZM40,11.88h-.23a4.72,4.72,0,0,1-1.9-9A7.39,7.39,0,0,1,40.54,4a4.31,4.31,0,0,1,1.67,2.51c.17.81,0,1.65.15,2.47a12.67,12.67,0,0,0,.47,1.81A4.64,4.64,0,0,1,40,11.88Z"/></svg>