<svg xmlns="http://www.w3.org/2000/svg" viewBox="0 0 50 50"><defs><style>.a,.b{fill:none;}.b{stroke:#dad9e5;}.c{fill:#595769;}</style></defs><path class="a" d="M25,0h0A25,25,0,0,1,50,25h0A25,25,0,0,1,25,50h0A25,25,0,0,1,0,25H0A25,25,0,0,1,25,0Z"/><path class="b" d="M25,.5h0A24.5,24.5,0,0,1,49.5,25h0A24.5,24.5,0,0,1,25,49.5h0A24.5,24.5,0,0,1,.5,25h0A24.5,24.5,0,0,1,25,.5Z"/><path class="c" d="M18,22.47q-.18,4.53,0,9.06c0,.53,0,1.2.55,1.44a5.6,5.6,0,0,0,2,0c1.5-.05,3,0,4.5,0a.62.62,0,0,0,.6-.6c.05-2.18.09-4.38,0-6.57l-.6.6c1.2,0,2.4,0,3.59,0l-.6-.6c.09,1,0,2.05.07,3.06,0,1.18.06,2.37,0,3.55a.6.6,0,0,0,.6.6c.56,0,1.12-.06,1.69-.06.41,0,.9.1,1.23-.21s.26-.88.28-1.29c0-.6,0-1.2.05-1.8.05-2.39,0-4.79-.14-7.18,0-.77-1.24-.77-1.2,0,.08,1.63.14,3.27.15,4.9,0,.76,0,1.52,0,2.28q0,.6,0,1.2a4.46,4.46,0,0,1,0,1.16l.35-.27a4.41,4.41,0,0,1-1.15,0c-.39,0-.79,0-1.18.05l.6.6c0-1.18,0-2.37,0-3.55,0-1,0-2.05-.07-3.06a.61.61,0,0,0-.6-.6c-1.19,0-2.39,0-3.59,0a.62.62,0,0,0-.6.6c.11,2.19.07,4.39,0,6.57l.6-.6c-1.05,0-2.11-.07-3.17-.06l-1.44,0a5.19,5.19,0,0,1-1.57,0l.36.27a3.2,3.2,0,0,1,0-1c0-.39,0-.79-.05-1.18,0-.82,0-1.65-.05-2.47,0-1.64,0-3.29.08-4.93,0-.77-1.17-.77-1.2,0Z"/><path class="c" d="M16,24.54a29.84,29.84,0,0,0,4.86-3.36,27.6,27.6,0,0,0,4.58-3.91h-.85a28,28,0,0,0,4.58,3.91A29.5,29.5,0,0,0,34,24.54c.69.34,1.3-.7.6-1A28.86,28.86,0,0,1,30,20.28a27.3,27.3,0,0,1-4.52-3.85.59.59,0,0,0-.85,0,27.3,27.3,0,0,1-4.52,3.85,28.86,28.86,0,0,1-4.68,3.23c-.69.33-.09,1.37.61,1Z"/></svg>