<svg xmlns="http://www.w3.org/2000/svg" viewBox="0 0 45.14 20.22"><defs><style>.a{fill:#9693a3;fill-rule:evenodd;}</style></defs><path class="a" d="M17.14,10c-.29,0-1.39-.15-2.77-.17V9.74a20.59,20.59,0,0,0-.54-4.13,23.77,23.77,0,0,0,2.66-.18c.61-.07.57-.24,0-.31-.29,0-1.42-.15-2.84-.17A17.48,17.48,0,0,0,12,.87c.21,0,.41.07.62.12A10.55,10.55,0,0,1,14,1.41a9.52,9.52,0,0,1,1.61.69s.52.28.8.46.15-.51-.66-1A10.18,10.18,0,0,0,11,0,10.29,10.29,0,0,0,.28,7.72,9.87,9.87,0,0,0,2.2,16.27,10.49,10.49,0,0,0,9.7,20.2a11.21,11.21,0,0,0,3.64-.38,3.49,3.49,0,0,0,2.17-1.53,9.83,9.83,0,0,1-3.31,1.16,19.39,19.39,0,0,0,1.53-4.09c1.16,0,2-.14,2.47-.19.61-.07.57-.24,0-.31-.26,0-1.16-.12-2.32-.16a19.82,19.82,0,0,0,.48-4.2c.93,0,1.85-.08,2.76-.19.61-.07.57-.24,0-.31m-3.46-.24v.06H8.93c0-.12,0-.24,0-.35A24.83,24.83,0,0,1,9.3,5.62h3.82a20,20,0,0,1,.56,4.14M9.58.83l.1-.07.34,0A19.17,19.17,0,0,0,8.73,4.93H5.78A8.88,8.88,0,0,1,9.58.83m-1,4.79a25.85,25.85,0,0,0-.35,3.83v.37H4.61a12.84,12.84,0,0,1,.86-4.2ZM8.25,10.5a29.41,29.41,0,0,0,.39,4.19H5.5a11.26,11.26,0,0,1-.9-4.2ZM11.12.76a16.29,16.29,0,0,1,1.81,4.17H9.43A18.77,18.77,0,0,1,10.77.74l.35,0m-5.23,1A8.53,8.53,0,0,1,8,1,10.14,10.14,0,0,0,5,4.93H2.32A9.32,9.32,0,0,1,5.89,1.79m-4,3.82H4.73a13.42,13.42,0,0,0-.8,4.2H.76A9.07,9.07,0,0,1,1.28,7,10,10,0,0,1,1.9,5.61m-1,5.93v0a8.77,8.77,0,0,1-.11-1H3.92a11.85,11.85,0,0,0,.83,4.2H2.05A9.4,9.4,0,0,1,1,12.1c0-.18-.09-.37-.12-.56m1.86,4.2,0-.05,0,0-.19-.28H5a13.27,13.27,0,0,0,2.61,3.73,9.81,9.81,0,0,1-4.91-3.38M9,19.45a12.6,12.6,0,0,1-3.21-4.07H8.76a26.41,26.41,0,0,0,1.1,4.17c-.28,0-.55-.06-.83-.1m1.57.13a27.73,27.73,0,0,1-1.14-4.2H13a18.07,18.07,0,0,1-1.64,4.18c-.26,0-.51,0-.77,0m2.18-4.9H9.34a27.91,27.91,0,0,1-.4-4.19h4.75a19.76,19.76,0,0,1-.51,4.19h-.4m6.65,5h4.42V6.45H19.43V19.68Zm21.29,0h4.42V.57H40.72V19.68ZM33.08,6.16a8.78,8.78,0,0,0-2.79.42v-6H25.9V19L26,19a11.79,11.79,0,0,0,5.46,1,8.26,8.26,0,0,0,5.81-1.92,7,7,0,0,0,2.06-5.37A6.58,6.58,0,0,0,37.6,8a6,6,0,0,0-4.52-1.83m1,10.07a2.68,2.68,0,0,1-2.37,1.2,4.05,4.05,0,0,1-1.38-.2V8.89a4.46,4.46,0,0,1,1.62-.24c2,0,2.93,1.4,2.93,4.28a5.83,5.83,0,0,1-.8,3.3M21.64.57A2.39,2.39,0,1,0,24,3,2.38,2.38,0,0,0,21.64.57"/></svg>