<svg xmlns="http://www.w3.org/2000/svg" viewBox="0 0 144.1 19.38"><defs><style>.a{fill:#9693a3;}</style></defs><path class="a" d="M42.34,4.61a5,5,0,0,0-4.88,5.08,4.88,4.88,0,1,0,9.76,0A5,5,0,0,0,42.34,4.61Zm0,8.67c-1.15,0-3-.85-3-3.59s1.79-3.63,3-3.63,2.95.88,2.95,3.63S43.5,13.28,42.35,13.28Zm75.17-8.67a5,5,0,0,0-4.88,5.08,4.88,4.88,0,1,0,9.76,0A5,5,0,0,0,117.52,4.61Zm0,8.67c-1.15,0-3-.85-3-3.59s1.79-3.63,3-3.63,3,.88,3,3.63S118.68,13.28,117.53,13.28ZM28.18,4.84H30v9.69H28.18Zm31.5,0h1.84v9.69H59.68Zm9.81,1.34h.77l.09-1.3a9.33,9.33,0,0,0-1.07-.06c-3.74,0-6.16,2-6.16,4.87s2.42,4.86,6.16,4.86a9.33,9.33,0,0,0,1.07-.06l-.09-1.3h-.77c-2.55,0-4.33-1.23-4.33-3.49S66.92,6.18,69.49,6.18ZM55.76,10.63s0,0,0,0A17.32,17.32,0,0,0,50,4.84H48.75v9.69h1.74l-.07-7.48s0,0,0,0a16.14,16.14,0,0,1,5.47,7.51h1.54V4.84H55.69S55.76,10.62,55.76,10.63Zm53.66,0s0,0,0,0a17.32,17.32,0,0,0-5.72-5.8h-1.28v9.69h1.74l-.07-7.48s0,0,0,0a16.15,16.15,0,0,1,5.48,7.51h1.53V4.84h-1.75S109.42,10.62,109.42,10.63ZM98.35,4.84h1.84v9.69H98.35ZM70.9,14.53h1.74s2.61-6.15,2.71-6.36c.12.22,3.22,6.36,3.22,6.36h2.07l-5.26-10Zm67.93-10-4.48,10h1.75s2.61-6.15,2.71-6.36c.12.22,3.22,6.36,3.22,6.36h2.07ZM33.16,8.78C34.19,7.72,37,4.84,37,4.84h-2.2l-4,4.24a11.79,11.79,0,0,1,4.55,5.45H37.2A12.07,12.07,0,0,0,33.16,8.78Zm92.62-3.94h-1.85v9.69h5.61V13.14h-3.76Zm9.68,0H128.7V6.23h2.46v8.3H133V6.23h2.46ZM91.19,9.38c-.17.34-.42,1.11-.59,1.56h0c-.17-.44-.42-1.21-.59-1.55a24.22,24.22,0,0,0-3-4.86c-.47.86-2.31,8.38-2.7,10h1.84s1.4-6.42,1.4-6.44,0,0,0,0A29.71,29.71,0,0,1,90,13.67h1.17a29.83,29.83,0,0,1,2.5-5.56s0,0,0,0,1.4,6.41,1.4,6.41h1.85c-.39-1.62-2.24-9.14-2.7-10A24,24,0,0,0,91.19,9.38ZM0,9.55l0,0c0-.3,0-.62.07-.95a.13.13,0,0,1,0-.06h0a.11.11,0,0,1,.08,0H.35c1.11.06,7.53.5,10.83.49h0C14.5,9,21,8.54,22,8.47h.14a.11.11,0,0,1,.08,0h0a.21.21,0,0,1,0,.06c0,.33.06.65.07.95l0,0h0l-.06,0h-.06c-.79,0-7.68-.33-11-.33h0c-3.25,0-9.81.31-10.94.33H.1L0,9.56ZM.17,8.23l.07,0c.09,0,8.61-.24,11-.24h0c2.33,0,10.85.24,10.94.24l.07,0,0,0a.06.06,0,0,0,0-.06,9.48,9.48,0,0,0-.24-1s0,0,0,0v0s0,0-.05,0l-10.71.63h-.12L.47,7.11s0,0,0,0v0s0,0,0,0a9.48,9.48,0,0,0-.24,1,.06.06,0,0,0,0,.06ZM.53,6.85a.11.11,0,0,0,.09,0H21.75a.11.11,0,0,0,.09,0s0,0,0,0a.16.16,0,0,0,0-.07C20.42,2.85,16.19,0,11.19,0S2,2.85.52,6.76a.11.11,0,0,0,0,.06S.52,6.84.53,6.85Zm21.81,3-.06,0h-.06c-.79,0-7.68.33-11,.32-2.37,0-6.5-.16-9-.26H2.11l-.87,0-1,0a.68.68,0,0,0-.15,0L0,9.82H0a.05.05,0,0,0,0,0c0,.29,0,.62.07.94a.09.09,0,0,0,0,.06s0,0,0,0l.08,0c.32,0,7-.49,10.64-.5h.35c3.53,0,10.66.49,11,.5l.08,0s0,0,0,0a.16.16,0,0,0,0-.06c0-.32.06-.65.07-.94a.05.05,0,0,0,0,0Zm-.14,1.33-.06,0h0c-.07,0-5.28.14-8.68.2l-.77,0h-2c-2.87,0-10.36-.23-10.44-.23h0l-.06,0,0,0a0,0,0,0,0,0,.05,8.9,8.9,0,0,0,.24,1l0,0H.47l10.6-.63h.12l10.71.63H22l0,0a8.9,8.9,0,0,0,.24-1,0,0,0,0,0,0-.05S22.21,11.15,22.2,11.15Zm-.36,1.38a.11.11,0,0,0-.09,0H.62a.11.11,0,0,0-.09,0s0,0,0,0a.16.16,0,0,0,0,.07C2,16.53,6.18,19.38,11.19,19.38s9.23-2.85,10.66-6.76a.08.08,0,0,0,0-.07S21.85,12.53,21.84,12.53Z"/></svg>