<svg xmlns="http://www.w3.org/2000/svg" viewBox="0 0 344.01 48.68"><defs><style>.cls-1{fill:#fff;}.cls-2{fill:#ce173c;}</style></defs><title>Asset 2</title><g id="Layer_2" data-name="Layer 2"><g id="Layer_2-2" data-name="Layer 2"><path class="cls-1" d="M344,45.31H332.47l-1-1.91-3-5.74h0L324,29.44h0L313.6,9.73,301.85,34.6h0l-1.45,3.06h0l-3.59,7.65H287.4V42h-4.3V3.37H294V43.72L313.14,3.37h8.69Zm-71.76-3.05H283.1v3.05H235.73l-2.89-5.42-1.18-2.23h0l-4.38-8.22h0L216.84,9.73,205.09,34.6h0l-1.44,3.06h-.07L200,45.31H187L185.06,9,168.88,45.31H156.36l-21-38.73V9.31a24.34,24.34,0,0,1-34.21,34.14v1.86H86.56l-33-36v36H39.26l-4-7.65h0L30.8,29.44,20.4,9.73,11.09,29.44,7.21,37.66h0L3.58,45.31H0L20,3.37h8.69L50.1,44V3.37H62.16L97.77,41.64V40.17A24.33,24.33,0,0,1,132,5.78V3.37h13.62L166.71,42,184.33,3.37H195l1.71,41.41,19.7-41.41h8.68l21.44,40.54V3.78c0-.15,0-.27,0-.41h9.85c-.06,4.87-.33,25.91-.29,38.89ZM134.9,24.34A18.65,18.65,0,1,0,116.25,43,18.64,18.64,0,0,0,134.9,24.34Z"/><circle class="cls-2" cx="116.25" cy="27.18" r="5.71"/></g></g></svg>