<svg xmlns="http://www.w3.org/2000/svg" viewBox="0 0 56.18 56.29"><defs><style>.a{fill:#9693a3;}</style></defs><path class="a" d="M10.45,22.65l17.2,17.2,17.2-17.2L27.65,5.45Zm25.31,8.17a11.66,11.66,0,1,1,0-16.5A11.65,11.65,0,0,1,35.76,30.82ZM10.4,17.2,27.6,34.4,44.8,17.2,27.6,0Zm25.32,8.18a11.66,11.66,0,1,1,0-16.49A11.66,11.66,0,0,1,35.72,25.38ZM10.4,28.08l17.2,17.2,17.2-17.2L27.6,10.9Zm25.32,8.19a11.67,11.67,0,1,1,0-16.5A11.68,11.68,0,0,1,35.72,36.27ZM4.65,52.76c0,1.24-1,1.89-2.25,1.89H1.27v1.53H0V50.93H2.48C3.8,50.93,4.65,51.61,4.65,52.76ZM2.42,52H1.27V53.6H2.43c.59,0,.9-.26.9-.79S3,52,2.42,52Zm4.71-1.09H9.6c1.33,0,2.18.68,2.18,1.83a1.68,1.68,0,0,1-.87,1.56v.12l1.17,1.66v.08H10.64l-1-1.53H8.39v1.53H7.13ZM9.55,52H8.39V53.6H9.56c.58,0,.9-.26.9-.79S10.13,52,9.55,52Zm7-1.09h.21l2.75,5.25H18.1l-.29-.62H15.53l-.28.62H13.83Zm.13,2.22h-.07L16,54.52l-.08.15h1.51l-.08-.15Zm7.16-.09h2.64v.58A2.38,2.38,0,0,1,24,56.29a2.74,2.74,0,1,1,0-5.48,2.68,2.68,0,0,1,2,.66l-.75,1A2.15,2.15,0,0,0,24,52a1.51,1.51,0,0,0,0,3,1,1,0,0,0,1.17-1V54H23.86v-1Zm4.85.49a2.81,2.81,0,1,1,2.79,2.74A2.65,2.65,0,0,1,28.72,53.55Zm4.3,0A1.46,1.46,0,0,0,31.51,52,1.51,1.51,0,1,0,33,53.55ZM38.8,54h.05l.39-.93,1-2.15h1.44l-2.75,5.25h-.22L36,50.93h1.42l1,2.15Zm6.33-.82,2.14-2.26h1.55v.12l-2,2.14,2,2.86v.12H47.29c-.46-.68-.9-1.38-1.36-2.07l-.79.84v1.22H43.88V50.91h1.26v2.28Zm8.09-2.26h.21l2.75,5.25H54.75l-.3-.62H52.18l-.29.62h-1.4Zm.14,2.22h-.07l-.64,1.37-.09.15h1.52L54,54.52Z"/></svg>