<svg xmlns="http://www.w3.org/2000/svg" viewBox="0 0 110.35 28.02"><defs><style>.a{fill:#9693a3;}</style></defs><path class="a" d="M102.82,0a2.16,2.16,0,0,1,1.59.68,2.27,2.27,0,0,1,.68,1.63A2.27,2.27,0,0,1,104.42,4a2.16,2.16,0,0,1-1.6.68,2.1,2.1,0,0,1-1.6-.68,2.23,2.23,0,0,1-.67-1.64,2.25,2.25,0,0,1,.66-1.62A2.15,2.15,0,0,1,102.82,0m7.53,9.18V7.77a2.41,2.41,0,0,0-2.41-2.41H97.69a2.41,2.41,0,0,0-2.41,2.41v5.3h11.43v.8H95.28v1.41a2.41,2.41,0,0,0,2.41,2.41h10.25a2.41,2.41,0,0,0,2.41-2.41V10H98.92v-.8ZM4.14,5.26C6.7,5.26,8,5.55,8,6.75V8H4.53c-1,0-1.22.25-1.22.75,0,1.48,5.36,1.18,5.36,5.34,0,2-1.14,3.74-4.6,3.74C1.79,17.79,0,17.42,0,16.3V15.09H4.14c.85,0,1.25-.27,1.25-.87C5.39,12.6.06,12.91.06,8.63c0-1.88,1.25-3.37,4.08-3.37M10,6.46c0-.74.33-1.1,1.06-1.1h2v9.73h4.72v1.52a1,1,0,0,1-1.1,1.08H11.08c-.73,0-1.06-.37-1.06-1.1V6.46Zm8.09,5.06c0-4.39,1.85-6.26,5.21-6.26s5.2,1.87,5.2,6.26-1.87,6.27-5.2,6.27-5.21-1.87-5.21-6.27m3.18,0c0,2.84.68,3.76,2,3.76s2-.92,2-3.76-.7-3.75-2-3.75-2,.92-2,3.75m12.89,3h.08l2-8.73c.09-.42.25-.46.77-.46h2.5a2.4,2.4,0,0,1-.06.48L36.53,17.23c-.11.44-.36.5-.9.5H32.74c-.52,0-.77-.06-.89-.5L29,5.84a2.24,2.24,0,0,1-.06-.48h2.53c.52,0,.67,0,.77.46Zm6.19-8.09c0-.74.33-1.1,1.06-1.1h6.74V6.88A1,1,0,0,1,47.07,8H43.45v2.22h4v2.5h-4v2.41h4.82v1.52a1,1,0,0,1-1.1,1.08H41.43c-.73,0-1.06-.37-1.06-1.1Zm16.84,6.87a28,28,0,0,1-.27-4.12V5.36h2.79v11.4a.88.88,0,0,1-1,1H57c-.56,0-.77-.06-1-.54L52.14,9.71h-.07a34.21,34.21,0,0,1,.25,4.13v3.85h-2.8V6.38A1,1,0,0,1,50.6,5.32h1.64c.54,0,.77.06,1,.54l3.85,7.47Zm8-8.07c2.56,0,3.89.29,3.89,1.49V8H65.61c-.94,0-1.21.25-1.21.75,0,1.48,5.35,1.18,5.35,5.34,0,2-1.13,3.74-4.6,3.74-2.27,0-4.07-.37-4.07-1.49V15.09h4.15c.84,0,1.25-.27,1.25-.87,0-1.62-5.34-1.31-5.34-5.59,0-1.88,1.25-3.37,4.09-3.37m9,5.74,3.08-5.08c.29-.5.46-.56.87-.56H81a.94.94,0,0,1-.16.54l-3.54,5.41,3.72,5.84a1.11,1.11,0,0,1,.17.54H78.43c-.58,0-.75,0-1.08-.56l-3.16-5.07v5.63H71.11V6.46c0-.74.32-1.1,1-1.1h2V11Zm14-5.68c.52,0,.77.06.88.5L92,17.21a2.17,2.17,0,0,1,.06.48H89.49c-.52,0-.68,0-.77-.46l-.6-2.47H85.25l-.56,2.47c-.1.42-.25.46-.77.46H81.41a2.32,2.32,0,0,1,.06-.48L84.34,5.82c.12-.44.37-.5.89-.5Zm-2.49,7.13h1.91L86.69,8.5h-.07Zm2-8a.67.67,0,0,1-.61.28h-1.2A.4.4,0,0,1,86,4.42l1.54-2a.64.64,0,0,1,.58-.33h1.17c.14,0,.22.06.22.14s0,.15-.2.35ZM1.81,21.7c.85,0,1.43,0,1.43.45v.25H1.79c-.44,0-.72.19-.72.5,0,1,2.43.71,2.43,2.33,0,.79-.52,1.39-1.88,1.39-.79,0-1.52,0-1.52-.42v-.27H1.72c.58,0,.85-.2.85-.63,0-.92-2.42-.74-2.42-2.35,0-.77.62-1.25,1.66-1.25M5,28H4.17V21.75h.44c.31,0,.43.16.43.41v.15a1.64,1.64,0,0,1,1.25-.61c1.14,0,1.67.94,1.67,2.46s-.53,2.46-1.67,2.46A1.64,1.64,0,0,1,5,26ZM6,22.4a1.44,1.44,0,0,0-1,.4v2.7a1.45,1.45,0,0,0,1,.41c.76,0,1.06-.62,1.06-1.75S6.76,22.4,6,22.4m2.58,1.76c0-1.35.44-2.46,1.95-2.46s2,1.11,2,2.46-.43,2.46-2,2.46-1.95-1.11-1.95-2.46m3,0c0-1.18-.23-1.81-1.06-1.81S9.47,23,9.47,24.16,9.71,26,10.53,26s1.06-.62,1.06-1.81m1.72,2.41V21.75h.43c.29,0,.42.23.43.6a1.57,1.57,0,0,1,1.25-.65c.16,0,.34,0,.34.24v.62h-.25a1.87,1.87,0,0,0-1.34.41v3.6ZM17,21.21h-.87v-.55c0-.29.1-.45.39-.45H17Zm-.87.54h.46c.3,0,.41.16.41.45v4.37h-.87Zm3,0h1.05v.65H19.16v2.94c0,.41.05.56.36.56h.69v.23c0,.37-.35.46-.83.46-1,0-1.08-.54-1.08-1.25V22.4h-.61v-.49l.61-.16.31-.77c.09-.2.16-.29.33-.29h.22ZM24,25.93v.23c0,.37-.51.46-1.57.46-1.5,0-2-1.11-2-2.46S21,21.7,22.43,21.7a1.65,1.65,0,0,1,1.8,1.79,8.59,8.59,0,0,1,0,.89H21.38c0,1.12.38,1.55,1.16,1.55Zm-.66-2.15c0-.08,0-.27,0-.39,0-.46-.19-1-.92-1s-1,.42-1.06,1.43Zm2.47,2.79H25V20.65c0-.29.1-.44.38-.44h.42v6.36Zm1-5.35c0,.15-.15.15-.27.15h-.32l.1-1c0-.15.14-.16.25-.16h.3c.07,0,.13,0,.13.08a.78.78,0,0,1,0,.14Zm.63,5.35V21.75h.43c.31,0,.44.16.44.4v.16a1.79,1.79,0,0,1,1.35-.61,1.31,1.31,0,0,1,1.4,1.48v3.39H30.2V23.22c0-.57-.33-.81-.88-.81a1.62,1.62,0,0,0-1,.4v3.76Zm1.72-5.23c-.12,0-.18,0-.29-.17l-.77-.91a.23.23,0,0,1,0-.15h.38a.35.35,0,0,1,.31.15l.52.48.53-.48c.13-.13.18-.15.31-.15h.39a.23.23,0,0,1,0,.15l-.77.91c-.12.14-.18.17-.29.17Zm5.89,5.23c-.31,0-.42-.16-.42-.4V26a1.85,1.85,0,0,1-1.35.61,1.28,1.28,0,0,1-1.41-1.34c0-1.22,1.27-1.52,2.76-1.59v-.46c0-.65-.44-.83-1-.83H32.21v-.25c0-.43.5-.45,1.51-.45s1.77.49,1.77,1.5v3.37Zm-.42-2.33c-1.32,0-1.85.32-1.85.93s.37.72.87.72a1.51,1.51,0,0,0,1-.39V24.24Z"/></svg>