<svg xmlns="http://www.w3.org/2000/svg" viewBox="0 0 87.72 15.36"><defs><style>.a{fill:#9693a3;}</style></defs><path class="a" d="M40.1,14.77,33.94,6.9C33.4,6.21,33,5.64,32.59,5h-.05c.05.47.05,1.34.05,2v7.77H29.66V.59h3l5.94,7.57c.56.71,1,1.28,1.33,1.86H40c-.05-.68-.05-1.6-.05-2.2V.59h2.94V14.77H40.1M56.26.59H44.66V3h4.15V14.77h3V3h3.8Zm1.43,14.18h2.94V.59H57.69Zm12.45.11L76.43.61h-3L70.2,8.23c-.38.94-.7,1.77-.94,2.54h0c-.28-.79-.6-1.7-1-2.63L65.38.61H62.14L68,14.88h2.19m17.58,0L81.92.63H79.69L74.14,14.88H77l1.3-3.46h4.83l1.38,3.46ZM81.3,6.3l1,2.75H79.19l1.06-2.8a11.52,11.52,0,0,0,.52-1.7h0A15.94,15.94,0,0,0,81.3,6.3M24.51,8.12h2.88l0,.14a7.66,7.66,0,0,1-3.78,6.07,7.59,7.59,0,0,1-10.42-2.81A7.69,7.69,0,0,1,16,1,7.59,7.59,0,0,1,25.6,2.72a8.63,8.63,0,0,1,.78,1.12A9.67,9.67,0,0,1,26.91,5l0,.11L16.51,11.15a4.74,4.74,0,0,0,8-2.91l0-.12ZM15,7.69a4.92,4.92,0,0,0,.1,1L23,4.13A4.75,4.75,0,0,0,15,7.69M.41.59,1.12,3l6,0L0,14.77H11.66V12.36l-6.91.07L11.7.59Z"/></svg>