<svg xmlns="http://www.w3.org/2000/svg" xmlns:xlink="http://www.w3.org/1999/xlink" width="390.428" height="137.052" viewBox="0 0 390.428 137.052"><defs><clipPath id="a"><rect width="390.428" height="137.052" fill="none"/></clipPath></defs><g clip-path="url(#a)"><path d="M181.838.8c-24.195-4.587-47.013,12.171-70.817,12.046C79.935,14.609,51.594,18.287,20.9,32.288c-3.082,1.407-9.437,2.814-9.672,5.679-.393,4.775,7.594,11.6,12.854,14.541C35.5,60.133,48.642,62.526,60.648,68.417c14.542,6.6,20.541,16.362,38.213,10.135,31.591-9.507,63.692.613,94.8-13.026,6.392-2.352,12.791-4.815,19.358-6.023,15.174-2.79,30.713-4.529,45.624-8.424,8.071-2.108,15.808-5.146,23.576-8.042,6.064-2.261,12.371-4.7,14.425-11.069a15.244,15.244,0,0,0,.621-2.912c.358-3.079-.594-5.829-4-6.7-13.649-3.5-27.9-3.369-41.044-8.982C229.3,6.339,205.475,4.136,181.838.8" fill="#fcddd4"/><path d="M180.689,1.13c-23.827.933-34.922,21.583-55.332,23.26C56.336,30.06,20.089,48.609,20.816,50.091c.808,1.647,10.947,6.52,15.374,8.986C47.027,44.77,89.746,41.544,107.5,38.4c18.937-3.936,37.788,2.076,56.755-1.87a56.164,56.164,0,0,0,16.7-6.449c11.138-7.931,24-8.554,37.265-8.751,16.083-.586,32.218-.1,48.27-3.1-11.3-4.055-24.116-9.022-36.536-9.521-14.636.1-29.253-.274-43.861,1.2-21.142,7.845-14.464,21.271-47.089,18.233C155.128,22.156,170.169,11,186.75,6.908a124.741,124.741,0,0,1,18.332-2.84c-3.219-1.01-6.6-.994-9.888-1.607C190.371,2.04,185.528.687,180.689,1.13Zm103.4,19.257c-26.108,12.864-54.663,10.054-82.378,17.453-21.8,8.631-39,16.311-63.336,13.421-23.981-2.226-47.951,1.615-71.479,6.307-4.8,1.187-10.036,2.677-12.575,7.19,1.178,2.235,3.641,1.979,5.323,3.289l8.392,4.414c3.679-2.093,7-5.133,10.739-7.051,27.817-15.131,60.123-3.6,90.313-7.336,14.161-2.692,27.324-10.893,41.19-15.3C233.232,37.69,256.873,41.2,278,29.123c5.089-2.331,10.166-4.733,15.349-6.665a36.1,36.1,0,0,0-9.266-2.071" fill="#e1857e"/><path d="M204.8,10.759c-19.485,1.864-48.76,21.456-59.061,25.186S10.139,69.521,10.447,74.373c1.27,19.983,60.008,64.778,91.342,57.906,11.075-2.428,43.952-18.659,66.615-18.659s54.94-6.529,81.724-24.252S342.84,72.577,368.25,72.577c5.156,0,10.313.232,15.468.2,2.34-.015,8.184.538,6.365-3.475-6.834-15.075-23.313-25.851-37.342-33.611-16.084-8.894-33.643-15-51.493-19.225A279.975,279.975,0,0,0,204.8,10.759" fill="#fcddd4"/><path d="M235.525,8.922c-5.521-.039-11.3.719-16.612.927-7.881,2.692-15.24,5.33-20.292,7.442-17.856,7.462-20.6,17.723-37.085,27.052-20.115,8.482-41.346,14.312-62.449,19.748-12.754,3.286-25.607,6.171-38.423,9.2C49.4,75.954,37.778,78.2,27.071,82.672c-2.15.9-11.164,4.282-8.114,7.956a108.076,108.076,0,0,0,19.506,18.164C49.6,93.328,103.747,83.825,124.45,76.055c34.057-13.034,57.533.025,90.654-18.655,15.108-10.261,9.614-9.328,20.6-15.858,28.968-13.011,63.338-8.264,100.272-13.724-18.646-8.264-29.306-10.18-46.433-13.653-22.826,2.35-49.257,4.031-57.96,5.923-29.521,10.267-19.057,36.788-64.555,35.446,13.553-4.715,42.2-31.492,59.748-38.245a198.544,198.544,0,0,1,26.62-7.86s-12.062-.466-17.873-.507M360,39.976C330.349,42.987,266.4,50.333,252.875,57.4c-17.856,9.328-26.1,17.724-46.7,25.186s-55.625,4.665-71.42,9.329S92.4,101.21,75.105,110.464c-2.225,1.191-13.46,7.754-15.441,11.894,6.458,3.85,16.812,7.744,21.654,8.709C103.353,96.286,175.2,99.354,204.8,94.714c13.734-2.8,24.036-9.33,45.325-23.322s33.652-10.259,52.881-13.058c16.512-2.4,57.387-7.4,70.024-9-4-2.9-7.376-5.9-12.346-8.923Z" fill="#e1857e"/><path d="M239.339,91.643c-13.323-11.722-31.071-28.709-43.049-54.409-1.815-3.892-4.986-4.217-7.261-.578-5.493,8.774-15.426,25.212-23.806,42.129C154.752,99.929,146.7,121.82,152.78,130.438c13.223,18.759,98.4-7.315,104.336-17.36,2.694-4.552-5.736-10.849-17.777-21.435" fill="#ffb533"/><path d="M142.07,67.353v-.021c0-.114,0-.221-.006-.335v.01a46.418,46.418,0,0,0-2.97-15.927c-8.522-22.2-26.479-12.477-47.786,1.731C78.647,61.25,67.65,69.376,62.608,79.24a25.833,25.833,0,0,0-2.928,11c0-.014,0-.028,0-.042,0,.106,0,.212-.006.318s-.006.228-.007.342c0,.058,0,.117,0,.175a31.543,31.543,0,0,0,2.279,11.486c8.522,22.2,32.7,28.68,54,14.472,16.368-10.911,26.279-30.866,26.122-49.59v-.05" fill="#ffb533"/><path d="M50.419,106.01c3.308-.847,9.114-1.961,7.8-6.949-1.252-4.75-7.613-2.139-11.033-1.227-2.162.576-4.311,1.245-6.443,1.987-2.252.784-3.322.265-3.09-2.34.4-4.494,3.209-8.291,5.767-11.932,2.874-4.089,5.754-8.182,8.674-12.237,2.223-3.088,4.6-8.761-.616-9.5-3.1-.442-5.462,3.8-7.137,6.036-3.3,4.409-6.369,9.078-9.824,13.358,1.374-4.74,3.789-9.49,5.565-14.137.913-2.387,1.8-4.784,2.631-7.2.674-1.954,1.112-3.64-.4-5.094-2.153-2.078-5.326-1.156-6.854,1.656-1.667,3.069-2.655,6.626-3.979,9.846-1.454,3.538-2.908,7.077-4.336,10.625.7-4.947,1.188-9.9,1.9-14.845.545-3.606.191-9.762-5.046-7.522-3.5,1.5-3.664,6.607-4.053,9.716q-.526,4.213-1.076,8.427-.273,2.107-.545,4.214a19.338,19.338,0,0,1-.354,2.56c-.084.313-.134.8-.513.889-.331.081-.584-.215-.747-.459a12.907,12.907,0,0,1-.79-1.9c-.686-1.478-1.389-2.945-2.088-4.416-.935-1.97-1.792-3.992-2.8-5.925A13.082,13.082,0,0,0,9.3,66.989a2.826,2.826,0,0,0-3.586-.915,3.307,3.307,0,0,0-1.624,3.187c.666,6.127,4.26,11.658,5.3,17.775.825,4.875-.781,11.092-1.765,15.9-.842,4.11-4.173,5.737-6.737,8.706-4.07,4.714,7.065,15.8,9.921,15.962s5.47-2.038,7.66-3.941c3.222-2.8,6.086-6.218,9.674-8.661,3.5-2.382,7.682-2.833,11.495-4.485,3.581-1.553,6.975-3.529,10.784-4.5" fill="#fff"/><path d="M237.962,104.9c-3.4.367-9.223,1.361-9.742-3.771-.493-4.887,6.38-4.674,9.9-5.02,2.228-.219,4.475-.346,6.732-.4,2.383-.057,3.2-.918,2.073-3.276-1.95-4.069-5.915-6.638-9.588-9.15-4.125-2.821-8.258-5.643-12.415-8.416-3.165-2.112-7.383-6.59-2.758-9.116,2.751-1.5,6.448,1.639,8.8,3.148,4.637,2.971,9.15,6.266,13.886,9.063C241.9,74,237.975,70.4,234.681,66.674c-1.692-1.916-3.363-3.849-4.988-5.816-1.317-1.593-2.318-3.019-1.418-4.909,1.288-2.7,4.583-2.951,7-.854,2.638,2.289,4.811,5.273,7.18,7.824q3.906,4.206,7.788,8.429c-2.395-4.385-4.585-8.853-6.986-13.236-1.775-3.185-3.6-9.074,2.086-8.814,3.806.174,5.75,4.9,7.2,7.677q1.971,3.762,3.964,7.514l1.99,3.755a19.37,19.37,0,0,0,1.228,2.273c.189.263.406.7.794.652.338-.04.471-.406.538-.691a13.049,13.049,0,0,0,.074-2.054c.124-1.624.268-3.245.406-4.868.185-2.173.278-4.367.546-6.532a13.061,13.061,0,0,1,.689-3.092,2.825,2.825,0,0,1,3.037-2.116,3.305,3.305,0,0,1,2.638,2.415c1.527,5.971.1,12.412,1.278,18.5.938,4.854,4.623,10.113,7.231,14.268,2.23,3.553,5.92,3.909,9.363,5.789,5.465,2.986-1.074,17.272-3.691,18.428s-5.837.011-8.555-1c-4-1.493-7.881-3.688-12.1-4.717-4.113-1-8.187.043-12.338-.167-3.9-.2-7.77-.857-11.679-.435" fill="#fff"/><path d="M140.063,134.268h0v-.014a2.02,2.02,0,0,0-.13-.693c-.37-.966-1.152-.543-2.079.075a3.584,3.584,0,0,0-1.249,1.15,1.131,1.131,0,0,0-.127.479v.034a1.4,1.4,0,0,0,.1.5,1.492,1.492,0,0,0,2.35.63,2.642,2.642,0,0,0,1.137-2.158v0" fill="#ffb533"/><path d="M122.164,134.352c.035-.709-.634-.947-1.22-1a9.042,9.042,0,0,0-5.462,1.32c-.25.156-.526.413-.433.692.074.219.335.3.56.356l3.4.8a2.516,2.516,0,0,0,3.052-1.705,1.7,1.7,0,0,0,.1-.473" fill="#ffb533"/><path d="M145.133,125.517a.372.372,0,0,0,.113.292,7.093,7.093,0,0,0,1.449,1.362,1.267,1.267,0,0,0,.424.218c.462.107.908-.446,1.1-.8a1.191,1.191,0,0,0,.1-.927,1.166,1.166,0,0,0-.679-.672,2.054,2.054,0,0,0-.969-.108,3.354,3.354,0,0,0-1.343.43.372.372,0,0,0-.2.206" fill="#ffb533"/><path d="M254.358,121.395c-.15.183.205.352.285.409a1.623,1.623,0,0,0,.6.257c.138.031.361-.09.636-.289a3.423,3.423,0,0,0,.366-.312c.671-.654.676-1.1.012-1a3.366,3.366,0,0,0-.913.322,4.858,4.858,0,0,0-.99.613" fill="#ffb533"/><path d="M249.5,123.312a.131.131,0,0,0-.061.012.242.242,0,0,0-.1.128,3.959,3.959,0,0,0-.277.813,1.281,1.281,0,0,0,.059.9,1.077,1.077,0,0,0,.435.4c.448.247,1.723.516,1.7-.334-.025-.8-.967-1.565-1.612-1.877a.357.357,0,0,0-.136-.041" fill="#ffb533"/></g></svg>