<svg xmlns="http://www.w3.org/2000/svg" xmlns:xlink="http://www.w3.org/1999/xlink" width="265.483" height="210.357" viewBox="0 0 265.483 210.357"><defs><clipPath id="a"><rect width="265.483" height="210.357" fill="none"/></clipPath></defs><g clip-path="url(#a)"><path d="M55.6,141.943a72.535,72.535,0,0,1-12.826-14.617c-11.716-17.36-17.046-39.012-12.459-59.2s19.708-38.387,40.05-45.37c12.4-4.258,26.09-4.322,39-1.8,11.762,2.3,24.128,7.631,28.986,18.124,3.608,7.795,2.29,16.9-.609,24.962-8.119,22.571-7.21,32.965-18.528,54.241-2.189,4.115-14.31,19.89-14.31,19.89s-6.886,12.632-9.576,15.373c-5.364,5.467-22.745-1.3-28.665-4.233A53.726,53.726,0,0,1,55.6,141.943" fill="#f2d54c"/><path d="M77.79,36.956c-28.25,20.637-39.087,61.83-24.2,92.009s49.851,37.913,78.1,17.276,39.087-61.831,24.2-92.009-49.851-37.913-78.1-17.276m52.927,106.855c-27.058,19.765-60.548,12.357-74.8-16.546S52.039,58.907,79.1,39.142s60.548-12.357,74.8,16.546,3.876,68.358-23.182,88.123" fill="#f2d54c"/><path d="M98.9,78.36c2.165,4.451,3,6.748,4.435,6.594,1.119-.12,2.107-1.645,2.35-2.122a13.829,13.829,0,0,0,1.017-3.27c.682-3.01,1.464-6,2.246-8.992q.769-2.947,1.541-5.9c2.19-8.377,4.381-16.758,6.936-25.043a8.035,8.035,0,0,0,.8-3.973,5.584,5.584,0,0,0-2.786-3.74c-2.5-1.616-5.309-1.7-9.3-1.235,0,0-8.505.984-21.11,7.619a5.641,5.641,0,0,0-2.053,1.841,5.56,5.56,0,0,0-.718,3.924,13.322,13.322,0,0,0,1.294,3.583l3.834,8.062,2.931,6.164c.535,1.124,1.188,2.4,2.765,5.478,5.655,11.022,4.243,7.777,5.813,11.006" fill="#f7f180"/><path d="M107.488,86.072c.775.818,2.34.42,2.79.242a11.229,11.229,0,0,0,2.668-1.75c2.3-1.819,4.647-3.541,7-5.262l4.63-3.4c6.577-4.822,13.159-9.647,19.907-14.1a6.94,6.94,0,0,0,2.971-2.48,7.878,7.878,0,0,0,.583-5.222c-.557-3.308-2.265-5.664-5.047-8.55,0,0-5.932-6.154-17.941-11.193a3.938,3.938,0,0,0-2.429-.222,4.938,4.938,0,0,0-2.888,2.51,16.982,16.982,0,0,0-1.418,3.88l-2.614,9.484q-1,3.625-2,7.25c-.364,1.322-.751,2.865-1.676,6.574-3.315,13.3-2.181,9.592-3.206,13.418-1.414,5.274-2.323,7.763-1.326,8.815" fill="#fff56e"/><path d="M79.1,39.142C52.039,58.907,41.66,98.361,55.915,127.265s47.745,36.311,74.8,16.546S168.154,84.592,153.9,55.688,106.155,19.377,79.1,39.142m43.519-5a3.941,3.941,0,0,1,2.429.222c12.008,5.039,17.94,11.193,17.94,11.193,2.782,2.886,4.49,5.242,5.047,8.55a7.871,7.871,0,0,1-.583,5.222,6.935,6.935,0,0,1-2.971,2.48c-6.748,4.453-13.329,9.277-19.907,14.1l-4.63,3.394c-2.348,1.721-4.7,3.443-6.994,5.262a11.234,11.234,0,0,1-2.669,1.75c-.449.179-2.015.576-2.79-.242-1-1.052-.087-3.54,1.326-8.815,1.025-3.826-.109-.116,3.207-13.418.924-3.709,1.311-5.252,1.676-6.574l2-7.25,2.614-9.484a17.021,17.021,0,0,1,1.418-3.879,4.935,4.935,0,0,1,2.889-2.511M90.327,61.876,87.4,55.713q-1.917-4.032-3.835-8.063a13.326,13.326,0,0,1-1.293-3.582,5.567,5.567,0,0,1,.717-3.925,5.627,5.627,0,0,1,2.054-1.84c12.6-6.635,21.109-7.62,21.109-7.62,3.988-.462,6.8-.38,9.3,1.235a5.585,5.585,0,0,1,2.787,3.741,8.021,8.021,0,0,1-.8,3.972c-2.554,8.285-4.745,16.667-6.935,25.043l-1.542,5.9c-.782,2.99-1.564,5.981-2.245,8.991a13.829,13.829,0,0,1-1.017,3.27c-.243.478-1.231,2-2.351,2.122-1.44.154-2.27-2.143-4.434-6.594-1.571-3.229-.158.017-5.813-11.006C91.515,64.28,90.861,63,90.327,61.876M55.906,76.569a6.365,6.365,0,0,1,.475-2.825c5.817-14.422,11.912-21.97,11.912-21.97,2.858-3.538,5.127-5.779,8.1-6.8.935-.322,2.958-.986,4.524.069,1.282.864,1.577,2.536,1.837,3.138,3.136,7.264,6.619,14.292,10.1,21.317l2.45,4.944c1.242,2.507,2.485,5.016,3.819,7.454a10.555,10.555,0,0,1,1.231,2.874,4.455,4.455,0,0,1-.535,3.243c-1.04,1.27-3.123.509-7.6-.511-3.246-.739-.115.139-11.427-2.147-3.155-.637-4.466-.9-5.587-1.173l-6.143-1.466-8.037-1.918a9.979,9.979,0,0,1-3.247-1.187,4.061,4.061,0,0,1-1.874-3.039m.21,42.8c-4.378-13.761-4.262-23.45-4.262-23.45.054-4.543.45-7.794,2.158-10.857.538-.963,1.72-3.027,3.611-3.643a4.923,4.923,0,0,1,3.4.465c6.99,1.988,14.106,3.546,21.218,5.1l5.006,1.1c2.539.556,5.079,1.112,7.646,1.55a8.179,8.179,0,0,1,2.758.795,3.214,3.214,0,0,1,1.594,2.464c-.03,1.642-2.146,2.864-6.309,5.872-3.02,2.183,0,.181-10.348,7.97-2.884,2.172-4.085,3.074-5.135,3.82L71.7,114.642l-7.532,5.35a13.345,13.345,0,0,1-3.3,1.9,3.509,3.509,0,0,1-3.367-.374,4.6,4.6,0,0,1-1.382-2.154m30.343,29.283a3.947,3.947,0,0,1-2.429-.222c-12.009-5.039-17.941-11.193-17.941-11.193-2.782-2.886-4.49-5.243-5.047-8.551a7.875,7.875,0,0,1,.583-5.221,6.94,6.94,0,0,1,2.971-2.48c6.748-4.453,13.33-9.278,19.907-14.1l4.63-3.394c2.348-1.721,4.7-3.443,6.995-5.262a11.2,11.2,0,0,1,2.668-1.75c.45-.179,2.015-.576,2.79.242,1,1.052.088,3.54-1.326,8.814-1.025,3.827.109.116-3.206,13.419-.925,3.709-1.312,5.252-1.676,6.574q-1,3.625-2,7.25-1.306,4.742-2.614,9.484a16.973,16.973,0,0,1-1.418,3.879,4.937,4.937,0,0,1-2.888,2.511M118.5,120.262l2.931,6.163,3.834,8.063a13.327,13.327,0,0,1,1.294,3.582,5.563,5.563,0,0,1-.718,3.925,5.636,5.636,0,0,1-2.053,1.84c-12.605,6.635-21.109,7.62-21.109,7.62-3.988.462-6.8.38-9.3-1.235a5.584,5.584,0,0,1-2.786-3.741,8.021,8.021,0,0,1,.8-3.972c2.554-8.285,4.745-16.667,6.935-25.044l1.542-5.9c.781-2.99,1.564-5.982,2.245-8.992a13.836,13.836,0,0,1,1.017-3.269c.243-.478,1.231-2,2.35-2.122,1.44-.154,2.271,2.143,4.435,6.594,1.57,3.229.158-.017,5.813,11.006,1.577,3.073,2.231,4.354,2.765,5.478m34.333-14.189a6.368,6.368,0,0,1-.475,2.825c-5.817,14.422-11.913,21.969-11.913,21.969-2.858,3.539-5.127,5.78-8.1,6.8-.936.322-2.958.986-4.524-.069-1.283-.865-1.578-2.537-1.837-3.138-3.136-7.264-6.619-14.293-10.1-21.317l-2.45-4.944c-1.243-2.508-2.485-5.016-3.819-7.454a10.568,10.568,0,0,1-1.231-2.874,4.45,4.45,0,0,1,.535-3.243c1.04-1.27,3.123-.51,7.6.51,3.246.74.114-.139,11.427,2.147,3.154.638,4.466.906,5.587,1.173l6.143,1.466,8.037,1.919a10.009,10.009,0,0,1,3.247,1.186,4.061,4.061,0,0,1,1.874,3.04m4.709-19.637c-.054,4.543-.451,7.794-2.159,10.857-.537.963-1.719,3.027-3.611,3.643a4.923,4.923,0,0,1-3.4-.465c-6.989-1.988-14.1-3.546-21.217-5.1l-5.006-1.1c-2.539-.556-5.079-1.112-7.647-1.55a8.167,8.167,0,0,1-2.757-.795,3.215,3.215,0,0,1-1.6-2.464c.031-1.642,2.147-2.864,6.31-5.872,3.02-2.183,0-.181,10.348-7.97,2.884-2.172,4.085-3.074,5.135-3.82l5.757-4.089,7.532-5.35a13.339,13.339,0,0,1,3.3-1.9,3.511,3.511,0,0,1,3.368.374,4.588,4.588,0,0,1,1.381,2.154c4.379,13.761,4.263,23.45,4.263,23.45" fill="#fff9d9"/><path d="M151.9,60.832a3.511,3.511,0,0,0-3.368-.374,13.339,13.339,0,0,0-3.3,1.9l-7.532,5.35L131.945,71.8c-1.05.746-2.251,1.648-5.135,3.82-10.344,7.79-7.328,5.787-10.348,7.97-4.163,3.008-6.279,4.23-6.309,5.872a3.214,3.214,0,0,0,1.594,2.464,8.174,8.174,0,0,0,2.757.795c2.568.438,5.108.994,7.647,1.55l5.006,1.1c7.112,1.557,14.228,3.115,21.218,5.1a4.923,4.923,0,0,0,3.4.465c1.891-.616,3.073-2.679,3.61-3.643,1.709-3.063,2.105-6.314,2.159-10.857,0,0,.116-9.688-4.263-23.45a4.593,4.593,0,0,0-1.381-2.154" fill="#f7f180"/><path d="M147.715,101.846l-8.037-1.918-6.143-1.467c-1.121-.267-2.433-.535-5.587-1.173-11.313-2.286-8.181-1.406-11.427-2.147-4.474-1.019-6.557-1.78-7.6-.509a4.447,4.447,0,0,0-.535,3.242,10.537,10.537,0,0,0,1.231,2.874c1.333,2.438,2.576,4.946,3.819,7.454l2.45,4.944c3.48,7.025,6.963,14.053,10.1,21.318.259.6.554,2.273,1.837,3.138,1.566,1.054,3.588.39,4.523.069,2.973-1.025,5.242-3.266,8.1-6.8,0,0,6.1-7.548,11.913-21.97a6.379,6.379,0,0,0,.475-2.825,4.059,4.059,0,0,0-1.874-3.039,9.988,9.988,0,0,0-3.247-1.187" fill="#f7f180"/><path d="M109.925,103.777c-2.165-4.451-3-6.748-4.435-6.594-1.119.12-2.107,1.645-2.35,2.122a13.843,13.843,0,0,0-1.017,3.27c-.682,3.01-1.464,6-2.245,8.992l-1.542,5.9c-2.19,8.377-4.381,16.758-6.936,25.043a8.038,8.038,0,0,0-.8,3.973,5.584,5.584,0,0,0,2.786,3.74c2.5,1.616,5.309,1.7,9.3,1.235,0,0,8.5-.984,21.11-7.619a5.631,5.631,0,0,0,2.053-1.841,5.56,5.56,0,0,0,.718-3.924,13.322,13.322,0,0,0-1.294-3.583l-3.834-8.062-2.931-6.164c-.535-1.124-1.188-2.4-2.765-5.478-5.655-11.022-4.243-7.777-5.813-11.006" fill="#f7f180"/><path d="M93.379,132.776l2-7.25c.365-1.322.752-2.865,1.676-6.574,3.316-13.3,2.182-9.592,3.207-13.418,1.413-5.274,2.322-7.763,1.326-8.815-.775-.818-2.341-.42-2.79-.242a11.234,11.234,0,0,0-2.669,1.75c-2.3,1.819-4.646,3.541-6.994,5.263l-4.63,3.394c-6.578,4.822-13.159,9.647-19.907,14.1a6.93,6.93,0,0,0-2.972,2.479,7.876,7.876,0,0,0-.582,5.222c.557,3.308,2.265,5.664,5.047,8.55,0,0,5.932,6.154,17.94,11.193a3.941,3.941,0,0,0,2.429.222,4.937,4.937,0,0,0,2.889-2.51,17.028,17.028,0,0,0,1.418-3.88l2.614-9.484" fill="#f7f180"/><path d="M60.865,121.9a13.345,13.345,0,0,0,3.3-1.9l7.531-5.35,5.757-4.089c1.05-.746,2.252-1.648,5.136-3.82,10.344-7.789,7.327-5.787,10.348-7.97,4.162-3.008,6.278-4.23,6.309-5.872a3.215,3.215,0,0,0-1.6-2.464,8.167,8.167,0,0,0-2.757-.795c-2.568-.438-5.107-.994-7.647-1.55l-5.005-1.1c-7.113-1.557-14.229-3.115-21.218-5.1a4.923,4.923,0,0,0-3.4-.465c-1.891.616-3.074,2.68-3.611,3.643-1.708,3.064-2.1,6.314-2.159,10.857,0,0-.116,9.689,4.263,23.45a4.6,4.6,0,0,0,1.381,2.154,3.511,3.511,0,0,0,3.368.374" fill="#f7f180"/><path d="M61.026,80.794q4.019.96,8.037,1.918l6.143,1.467c1.121.267,2.433.535,5.587,1.173,11.313,2.286,8.181,1.407,11.427,2.147,4.474,1.02,6.558,1.78,7.6.51a4.45,4.45,0,0,0,.535-3.243,10.549,10.549,0,0,0-1.231-2.873c-1.333-2.439-2.576-4.947-3.819-7.455l-2.45-4.944c-3.48-7.025-6.963-14.053-10.1-21.317-.259-.6-.554-2.273-1.837-3.138-1.566-1.055-3.588-.391-4.523-.069-2.973,1.024-5.242,3.266-8.1,6.8,0,0-6.1,7.548-11.912,21.969a6.362,6.362,0,0,0-.476,2.825,4.058,4.058,0,0,0,1.874,3.039,9.988,9.988,0,0,0,3.247,1.187" fill="#f7f180"/><path d="M115.695,50.015l-2,7.25c-.365,1.322-.752,2.865-1.676,6.574-3.316,13.3-2.182,9.592-3.207,13.418-1.413,5.274-2.322,7.763-1.326,8.815.775.818,2.341.42,2.79.242a11.234,11.234,0,0,0,2.669-1.75c2.3-1.819,4.646-3.541,6.994-5.263l4.63-3.394c6.577-4.822,13.159-9.647,19.907-14.1a6.935,6.935,0,0,0,2.972-2.479,7.882,7.882,0,0,0,.582-5.222c-.557-3.308-2.265-5.664-5.046-8.55,0,0-5.933-6.154-17.941-11.193a3.941,3.941,0,0,0-2.429-.222,4.934,4.934,0,0,0-2.889,2.51,17.029,17.029,0,0,0-1.418,3.88l-2.614,9.484" fill="#f7f180"/><path d="M177.558,16.966c3.874-5.3,8.662-8.286,11.666-10.215A53.656,53.656,0,0,1,204.662,0a38.381,38.381,0,0,1,2.917,11.079,34.624,34.624,0,0,1-.185,9.677,40.7,40.7,0,0,1-20.329,28.372c-2.821,1.536-6,2.755-9.185,2.305-14.4-2.039-5.26-27.719-.322-34.467" fill="#73c04d"/><path d="M204.912,19.251c21.356-14.4,45.482-11.147,52.534-9.937-1.451,11.319-6.337,38.036-25.462,56-5.229,4.91-15.942,14.969-27.636,12.842a29.428,29.428,0,0,1-9.477-3.733c-4.673-2.779-12.717-7.985-14.919-13.292-2.193-5.285.414-10.291,2.85-15.53a67.855,67.855,0,0,1,22.11-26.346" fill="#4a9758"/><path d="M154.182,33.079c12.091-.485,36.763-1.474,59.648,15.238,27.7,20.225,32.308,51.431,33.062,57.378a83.119,83.119,0,0,1-4.117,38.407c-10.088,27.524-32.438,40.621-40.745,45.324a99.26,99.26,0,0,1-42.789,12.53,75.765,75.765,0,0,1-19.2-22.137s-13.3-34.079-10.063-95.616c.267-5.067.718-10.2-.269-15.178-.922-4.646-2.526-6.544-4.537-11.679a74.432,74.432,0,0,1-4.462-17.593,110.186,110.186,0,0,1,33.469-6.674" fill="#f2d54c"/><path d="M208.775,70.715c-18.825-8.829-36.494-5.631-42.665-4.207a52.658,52.658,0,0,0-40.446-7.957c-.16-.384-.323-.78-.489-1.2a74.478,74.478,0,0,1-4.462-17.594,110.186,110.186,0,0,1,33.469-6.674c12.091-.485,36.763-1.474,59.648,15.238,27.7,20.225,32.308,51.431,33.063,57.378a84.462,84.462,0,0,1-.354,23.606,65.177,65.177,0,0,0-2.1-14.643c-1.1-4.178-8.7-31.3-35.663-43.943" fill="#f2d54c"/><path d="M208.944,155.978c10.162-40.793-9.48-90.121-43.87-110.177S94.567,42.555,84.4,83.349s9.481,90.121,43.871,110.177,70.507,3.245,80.668-37.548M86.975,85.124c9.732-39.07,44.323-55.171,77.261-35.962s51.75,66.453,42.018,105.524-44.323,55.171-77.261,35.962S77.243,124.194,86.975,85.124" fill="#f2d54c"/><path d="M161.153,128.95c-5.045-2.979-7.4-4.72-8.551-3.549-.9.91-.683,3.149-.559,3.8a19.347,19.347,0,0,0,1.422,4.026c1.532,3.527,2.962,7.1,4.393,10.683q1.408,3.526,2.819,7.053c4.006,10.022,8.014,20.048,11.636,30.234.3.843.654,3.024,2.108,4.585a6.245,6.245,0,0,0,5.088,1.823c3.33-.124,5.852-2.023,9.021-5.3,0,0,6.757-6.989,13.11-22.586a7.229,7.229,0,0,0,.5-3.31,7.693,7.693,0,0,0-2.148-4.477,16.532,16.532,0,0,0-3.667-2.715l-9.064-5.458-6.928-4.173c-1.264-.761-2.742-1.6-6.3-3.6-12.753-7.172-9.22-4.883-12.88-7.044" fill="#f7f180"/><path d="M148.175,127.193c-1.257-.282-2.349,1.224-2.616,1.721a13.825,13.825,0,0,0-1.1,3.652c-.727,3.459-1.567,6.857-2.408,10.254l-1.656,6.7c-2.354,9.515-4.709,19.036-7.473,28.3a8.787,8.787,0,0,0-.85,4.6,10.8,10.8,0,0,0,3.182,5.695c2.829,2.956,5.993,4.137,10.472,5.1,0,0,9.552,2.049,23.641-1.313a3.991,3.991,0,0,0,2.285-1.487,6.3,6.3,0,0,0,.756-4.576,23.689,23.689,0,0,0-1.5-4.926q-2.208-5.721-4.417-11.441l-3.377-8.745c-.616-1.6-1.368-3.43-3.181-7.835-6.5-15.8-4.873-11.245-6.681-15.84-2.493-6.334-3.457-9.494-5.074-9.856" fill="#fff56e"/><path d="M206.254,154.686c9.733-39.071-9.08-86.315-42.018-105.524s-67.529-3.108-77.26,35.962,9.078,86.315,42.016,105.524,67.529,3.108,77.262-35.962m-34.6,35.726a3.985,3.985,0,0,1-2.285,1.487c-14.089,3.362-23.641,1.313-23.641,1.313-4.478-.961-7.642-2.142-10.472-5.1a10.811,10.811,0,0,1-3.181-5.7,8.779,8.779,0,0,1,.849-4.6c2.765-9.262,5.119-18.783,7.474-28.3l1.656-6.7c.84-3.4,1.681-6.8,2.407-10.254a13.789,13.789,0,0,1,1.1-3.652c.267-.5,1.359-2,2.616-1.721,1.616.363,2.581,3.522,5.073,9.856,1.808,4.6.177.04,6.681,15.84,1.813,4.4,2.565,6.239,3.181,7.835q1.691,4.373,3.377,8.745,2.208,5.721,4.418,11.441a23.891,23.891,0,0,1,1.5,4.926,6.307,6.307,0,0,1-.757,4.576m8.68-50.822q3.465,2.085,6.928,4.172l9.065,5.459a16.55,16.55,0,0,1,3.667,2.714,7.69,7.69,0,0,1,2.146,4.477,7.215,7.215,0,0,1-.5,3.31c-6.353,15.6-13.109,22.587-13.109,22.587-3.168,3.277-5.69,5.176-9.021,5.3a6.245,6.245,0,0,1-5.088-1.823c-1.455-1.561-1.808-3.741-2.107-4.585-3.623-10.185-7.63-20.212-11.636-30.233q-1.41-3.528-2.821-7.054c-1.429-3.578-2.86-7.156-4.392-10.683a19.278,19.278,0,0,1-1.421-4.025c-.125-.655-.338-2.895.559-3.8,1.152-1.17,3.5.57,8.551,3.549,3.66,2.162.127-.128,12.879,7.044,3.556,2,5.035,2.835,6.3,3.6M200.1,100.465a8.812,8.812,0,0,1,1.582,3.194c5.1,18.695,5.1,30.629,5.1,30.629,0,5.6-.4,9.462-2.285,12.593-.592.985-1.9,3.082-4.013,3.118-1.737.029-3.177-1.456-3.83-1.882-7.887-5.142-15.911-9.8-23.93-14.458l-5.645-3.278c-2.862-1.662-5.726-3.325-8.619-4.853a12.82,12.82,0,0,1-3.111-2.041,6.13,6.13,0,0,1-1.826-3.659c.013-2.018,2.377-2.717,7.02-4.837,3.368-1.539,0-.222,11.532-5.879,3.215-1.578,4.555-2.231,5.727-2.75l6.421-2.844,8.4-3.722a9.915,9.915,0,0,1,3.685-1.087,4.693,4.693,0,0,1,3.791,1.756M169.646,57.3c13.571,10.843,20.323,20.73,20.323,20.73,3.165,4.636,5.118,8.205,5.788,12.509.21,1.354.634,4.276-.588,6.232-1,1.6-2.685,1.683-3.308,1.925-7.533,2.913-14.87,6.35-22.2,9.786l-5.163,2.418c-2.619,1.226-5.238,2.453-7.8,3.819a8.12,8.12,0,0,1-2.979,1.139,3.666,3.666,0,0,1-3.139-1.371c-1.136-1.683-.145-4.41,1.375-10.389,1.1-4.337-.125-.185,3.431-15.358.991-4.23,1.407-5.989,1.8-7.484l2.153-8.195q1.407-5.361,2.817-10.722a16.148,16.148,0,0,1,1.543-4.251,3.58,3.58,0,0,1,3.216-1.995,5.324,5.324,0,0,1,2.735,1.207M122.34,49.039a3.99,3.99,0,0,1,2.286-1.487c14.089-3.362,23.642-1.313,23.642-1.313,4.477.961,7.642,2.142,10.47,5.1a10.8,10.8,0,0,1,3.183,5.695,8.789,8.789,0,0,1-.849,4.6c-2.765,9.262-5.12,18.783-7.474,28.3q-.828,3.35-1.657,6.7c-.841,3.4-1.681,6.8-2.407,10.255a13.793,13.793,0,0,1-1.1,3.651c-.267.5-1.358,2-2.616,1.721-1.617-.362-2.58-3.522-5.073-9.856-1.808-4.6-.178-.04-6.682-15.84-1.812-4.4-2.564-6.239-3.181-7.835q-1.687-4.373-3.376-8.745-2.208-5.721-4.417-11.441a23.689,23.689,0,0,1-1.5-4.926,6.3,6.3,0,0,1,.755-4.576m-8,51.312q-3.463-2.086-6.928-4.172L98.345,90.72a16.573,16.573,0,0,1-3.667-2.714,7.684,7.684,0,0,1-2.146-4.477,7.218,7.218,0,0,1,.5-3.31c6.353-15.6,13.109-22.587,13.111-22.587,3.168-3.277,5.689-5.176,9.02-5.3a6.241,6.241,0,0,1,5.087,1.822c1.454,1.562,1.808,3.742,2.108,4.586,3.623,10.185,7.631,20.212,11.637,30.233q1.41,3.526,2.819,7.054c1.431,3.577,2.861,7.156,4.392,10.683a19.285,19.285,0,0,1,1.423,4.025c.125.655.336,2.895-.56,3.805-1.153,1.17-3.5-.57-8.55-3.549-3.661-2.162-.127.127-12.881-7.044-3.555-2-5.033-2.835-6.3-3.6M94.285,138.9A8.848,8.848,0,0,1,92.7,135.71c-5.1-18.7-5.1-30.629-5.1-30.629,0-5.6.4-9.462,2.285-12.593.592-.985,1.895-3.082,4.013-3.118,1.737-.029,3.177,1.456,3.83,1.882,7.887,5.142,15.911,9.8,23.929,14.458l5.644,3.278c2.864,1.662,5.728,3.325,8.621,4.853a12.893,12.893,0,0,1,3.112,2.041,6.155,6.155,0,0,1,1.825,3.66c-.013,2.018-2.377,2.716-7.019,4.836-3.369,1.539,0,.222-11.534,5.879-3.216,1.578-4.554,2.231-5.725,2.75l-6.422,2.845-8.4,3.721a9.915,9.915,0,0,1-3.685,1.087,4.7,4.7,0,0,1-3.792-1.755m9.764,23.192c-3.167-4.636-5.119-8.205-5.789-12.509-.21-1.354-.633-4.276.589-6.232,1-1.6,2.685-1.683,3.309-1.925,7.53-2.913,14.869-6.35,22.205-9.786l5.162-2.418c2.618-1.226,5.237-2.453,7.8-3.819a8.127,8.127,0,0,1,2.979-1.139,3.669,3.669,0,0,1,3.14,1.37c1.135,1.684.146,4.411-1.376,10.39-1.1,4.337.124.185-3.431,15.358-.991,4.23-1.406,5.989-1.8,7.484q-1.077,4.1-2.153,8.195-1.409,5.361-2.815,10.722a16.151,16.151,0,0,1-1.545,4.251,3.581,3.581,0,0,1-3.216,1.995,5.324,5.324,0,0,1-2.735-1.207c-13.571-10.843-20.322-20.73-20.322-20.73" fill="#fff9d9"/><path d="M127.106,184.034a3.58,3.58,0,0,0,3.216-1.995,16.1,16.1,0,0,0,1.544-4.251q1.408-5.361,2.816-10.722l2.153-8.195c.393-1.495.808-3.254,1.8-7.484,3.555-15.173,2.328-11.021,3.431-15.358,1.521-5.978,2.511-8.706,1.376-10.389a3.668,3.668,0,0,0-3.14-1.371,8.113,8.113,0,0,0-2.979,1.139c-2.56,1.366-5.179,2.593-7.8,3.819l-5.162,2.418c-7.335,3.436-14.673,6.873-22.205,9.787-.624.241-2.309.322-3.309,1.924-1.222,1.957-.8,4.878-.587,6.232.669,4.3,2.622,7.873,5.787,12.509,0,0,6.752,9.888,20.323,20.73a5.324,5.324,0,0,0,2.735,1.207" fill="#f7f180"/><path d="M101.763,139.573l8.4-3.722,6.421-2.844c1.171-.519,2.51-1.172,5.725-2.75,11.532-5.658,8.166-4.34,11.534-5.879,4.643-2.12,7.006-2.819,7.019-4.837a6.141,6.141,0,0,0-1.825-3.659,12.825,12.825,0,0,0-3.112-2.041c-2.893-1.528-5.757-3.191-8.62-4.853l-5.644-3.278c-8.019-4.657-16.042-9.316-23.929-14.458-.653-.426-2.094-1.911-3.83-1.882-2.119.036-3.421,2.133-4.013,3.118-1.881,3.131-2.285,7-2.286,12.593,0,0,0,11.934,5.1,30.629a8.829,8.829,0,0,0,1.582,3.194,4.7,4.7,0,0,0,3.792,1.756,9.92,9.92,0,0,0,3.685-1.087" fill="#f7f180"/><path d="M133.516,110.991c5.045,2.979,7.4,4.72,8.551,3.549.9-.91.683-3.149.559-3.8a19.4,19.4,0,0,0-1.422-4.026c-1.532-3.527-2.962-7.1-4.393-10.683q-1.409-3.526-2.819-7.053c-4.006-10.022-8.014-20.048-11.636-30.234-.3-.843-.654-3.024-2.108-4.585a6.245,6.245,0,0,0-5.088-1.823c-3.33.124-5.852,2.023-9.021,5.3,0,0-6.757,6.989-13.11,22.586a7.229,7.229,0,0,0-.5,3.31,7.693,7.693,0,0,0,2.148,4.477,16.509,16.509,0,0,0,3.667,2.715l9.064,5.458,6.928,4.173c1.264.761,2.742,1.6,6.3,3.6,12.753,7.172,9.22,4.883,12.88,7.044" fill="#f7f180"/><path d="M127.5,69.982l3.377,8.745c.616,1.6,1.368,3.43,3.181,7.835,6.5,15.8,4.873,11.245,6.681,15.84,2.493,6.334,3.456,9.494,5.074,9.856,1.257.282,2.348-1.224,2.616-1.721a13.825,13.825,0,0,0,1.1-3.652c.727-3.459,1.567-6.857,2.407-10.254q.83-3.349,1.657-6.7c2.354-9.515,4.709-19.036,7.473-28.3a8.787,8.787,0,0,0,.85-4.6,10.8,10.8,0,0,0-3.183-5.695c-2.828-2.956-5.992-4.137-10.471-5.1,0,0-9.552-2.049-23.641,1.313a3.988,3.988,0,0,0-2.285,1.487,6.3,6.3,0,0,0-.756,4.576,23.746,23.746,0,0,0,1.5,4.926L127.5,69.982" fill="#f7f180"/><path d="M163.7,58.084a16.114,16.114,0,0,0-1.544,4.251q-1.408,5.361-2.816,10.722-1.077,4.1-2.153,8.2c-.393,1.5-.808,3.253-1.8,7.484-3.556,15.173-2.329,11.021-3.432,15.358-1.52,5.978-2.51,8.705-1.375,10.389a3.669,3.669,0,0,0,3.14,1.37,8.136,8.136,0,0,0,2.979-1.138c2.56-1.367,5.179-2.593,7.8-3.82l5.163-2.418c7.334-3.436,14.672-6.873,22.2-9.786.623-.241,2.307-.323,3.308-1.925,1.222-1.956.8-4.878.588-6.231-.67-4.3-2.623-7.874-5.788-12.51,0,0-6.752-9.887-20.324-20.729a5.308,5.308,0,0,0-2.734-1.208,3.58,3.58,0,0,0-3.216,1.995" fill="#f7f180"/><path d="M192.627,99.8l-8.4,3.722-6.421,2.844c-1.171.519-2.51,1.172-5.725,2.75-11.532,5.658-8.166,4.34-11.534,5.879-4.643,2.12-7.006,2.819-7.019,4.837a6.141,6.141,0,0,0,1.825,3.659,12.825,12.825,0,0,0,3.112,2.041c2.893,1.528,5.757,3.191,8.62,4.853l5.644,3.278c8.019,4.657,16.042,9.316,23.929,14.458.653.426,2.094,1.911,3.83,1.882,2.119-.036,3.421-2.133,4.013-3.118,1.881-3.131,2.285-7,2.286-12.593,0,0,0-11.934-5.1-30.629a8.829,8.829,0,0,0-1.582-3.194,4.7,4.7,0,0,0-3.792-1.756,9.92,9.92,0,0,0-3.685,1.087" fill="#f7f180"/><path d="M166.488,169.469l-3.377-8.745c-.616-1.6-1.368-3.43-3.181-7.835-6.5-15.8-4.873-11.245-6.681-15.84-2.493-6.334-3.456-9.493-5.074-9.856-1.257-.282-2.348,1.224-2.616,1.721a13.825,13.825,0,0,0-1.1,3.652c-.727,3.459-1.567,6.857-2.407,10.254q-.829,3.349-1.657,6.7c-2.354,9.515-4.709,19.036-7.473,28.3a8.787,8.787,0,0,0-.85,4.6,10.805,10.805,0,0,0,3.183,5.7c2.828,2.955,5.992,4.136,10.471,5.1,0,0,9.552,2.049,23.641-1.313a3.988,3.988,0,0,0,2.285-1.487,6.3,6.3,0,0,0,.756-4.576,23.747,23.747,0,0,0-1.5-4.926l-4.418-11.441" fill="#f7f180"/><path d="M48.28,117.88c3.2-.433,8.775-.843,8.087-5.671-.655-4.6-6.916-2.844-10.227-2.363-2.1.3-4.186.7-6.27,1.161-2.2.489-3.148-.116-2.646-2.537.868-4.177,3.924-7.435,6.726-10.574,3.146-3.525,6.3-7.053,9.487-10.541,2.427-2.657,5.283-7.724.464-8.994-2.866-.756-5.547,2.967-7.365,4.886-3.582,3.779-6.977,7.828-10.691,11.469,1.81-4.3,4.6-8.5,6.777-12.667,1.119-2.142,2.214-4.3,3.26-6.47.847-1.761,1.443-3.3.188-4.828-1.795-2.187-4.876-1.669-6.619.8-1.9,2.7-3.22,5.932-4.817,8.811Q32,85.112,29.4,89.869c1.2-4.568,2.2-9.166,3.411-13.734.907-3.326,1.25-9.147-3.914-7.617-3.454,1.022-4.166,5.8-4.872,8.68q-.957,3.9-1.935,7.8-.486,1.948-.974,3.9a18.327,18.327,0,0,1-.612,2.365c-.114.285-.214.733-.58.779-.32.04-.525-.266-.652-.513a12.294,12.294,0,0,1-.533-1.868c-.482-1.463-.982-2.918-1.477-4.377-.663-1.952-1.246-3.945-1.983-5.872a12.359,12.359,0,0,0-1.333-2.682,2.671,2.671,0,0,0-3.268-1.253A3.125,3.125,0,0,0,8.8,78.287c-.047,5.827,2.722,11.416,3.023,17.274.24,4.669-1.949,10.332-3.4,14.738-1.241,3.768-4.548,4.93-7.282,7.438-4.339,3.98,4.9,15.611,7.568,16.078s5.361-1.314,7.626-2.861c3.333-2.278,6.4-5.172,10.035-7.074,3.548-1.853,7.525-1.818,11.288-2.952,3.533-1.065,6.938-2.549,10.622-3.048" fill="#fff"/><path d="M217.124,196.05c-3.215-.293-8.8-.458-8.327-5.312.453-4.622,6.785-3.143,10.113-2.808,2.106.212,4.213.514,6.315.885,2.22.392,3.14-.253,2.532-2.65-1.049-4.135-4.246-7.256-7.182-10.269-3.3-3.385-6.6-6.771-9.94-10.116-2.541-2.548-5.616-7.485-.858-8.965,2.831-.88,5.672,2.722,7.572,4.559,3.744,3.619,7.314,7.514,11.183,10.99-2-4.218-4.966-8.288-7.324-12.359-1.212-2.091-2.4-4.194-3.541-6.32-.923-1.723-1.586-3.231-.4-4.815,1.7-2.264,4.8-1.882,6.648.513,2.019,2.613,3.477,5.785,5.2,8.591q2.837,4.626,5.648,9.265c-1.4-4.511-2.6-9.061-4.009-13.571-1.052-3.284-1.649-9.084,3.577-7.782,3.495.871,4.416,5.616,5.247,8.459q1.127,3.854,2.274,7.7.571,1.926,1.144,3.852a18.26,18.26,0,0,0,.716,2.336c.125.279.245.723.613.753.321.026.513-.289.629-.541a12.315,12.315,0,0,0,.45-1.89c.418-1.483.854-2.958,1.284-4.437.577-1.98,1.072-4,1.724-5.953a12.389,12.389,0,0,1,1.215-2.739,2.672,2.672,0,0,1,3.21-1.395,3.13,3.13,0,0,1,2,2.731c.3,5.82-2.221,11.524-2.265,17.39-.035,4.675,2.4,10.237,4.044,14.575,1.4,3.709,4.759,4.726,7.6,7.111,4.51,3.787-4.215,15.811-6.856,16.4s-5.413-1.078-7.744-2.525c-3.43-2.129-6.618-4.887-10.336-6.627-3.625-1.7-7.6-1.487-11.406-2.455-3.576-.909-7.042-2.243-10.745-2.58" fill="#fff"/></g></svg>