<svg xmlns="http://www.w3.org/2000/svg" width="15.938" height="28.125" viewBox="0 0 15.938 28.125"><path d="M.586,27.539a1.572,1.572,0,0,0,1.289.586,1.774,1.774,0,0,0,1.348-.586L15.352,15.41a1.852,1.852,0,0,0,.439-.644,1.684,1.684,0,0,0,.147-.7,1.72,1.72,0,0,0-.147-.7,1.892,1.892,0,0,0-.439-.644L3.223.586A1.732,1.732,0,0,0,1.875,0,1.587,1.587,0,0,0,.586.586,1.609,1.609,0,0,0,0,1.9,1.611,1.611,0,0,0,.586,3.223l10.84,10.839L.586,24.9a1.776,1.776,0,0,0,0,2.637" transform="translate(15.938 28.125) rotate(180)" fill="#7355ff"/></svg>