<svg xmlns="http://www.w3.org/2000/svg" xmlns:xlink="http://www.w3.org/1999/xlink" width="363.633" height="209.099" viewBox="0 0 363.633 209.099"><defs><clipPath id="a"><rect width="363.633" height="209.099" fill="none"/></clipPath><clipPath id="c"><rect width="2.95" height="1.873" transform="translate(32.436 175.625)" fill="none"/></clipPath><clipPath id="d"><rect width="4.764" height="1.072" transform="translate(57.407 182.624)" fill="none"/></clipPath><clipPath id="e"><rect width="3.994" height="0.426" transform="translate(89.53 185.577)" fill="none"/></clipPath><clipPath id="f"><rect width="4.813" height="20.129" transform="translate(158.573 169.925)" fill="none"/></clipPath><clipPath id="g"><rect width="2.767" height="2.546" transform="translate(103.35 154.331)" fill="none"/></clipPath><clipPath id="h"><rect width="4.512" height="2.216" transform="translate(125.908 167.328)" fill="none"/></clipPath><clipPath id="i"><rect width="3.941" height="1.399" transform="translate(156.272 178.186)" fill="none"/></clipPath></defs><g clip-path="url(#a)"><g clip-path="url(#a)"><path d="M202.107,1.908l26.765,79.25-.1,14.924,1.577,79.178s20.233,3.538,44.776-9.878c20.328-11.111,37.983-29.659,44.467-52.126,6.869-23.8-.309-49.367-13.794-68.869-15.87-22.949-41.933-37.771-69.485-42.5-11.072-1.9-23.1-3.077-34.209.019" fill="#ab3e68"/><path d="M173.067,129.855c-25.418-35.033-22.417-82.242,6.69-105.238s73.465-13.2,98.883,21.829,22.417,82.242-6.69,105.238-73.465,13.2-98.883-21.829" fill="#fff"/><path d="M278.564,160.8c-33.336,26.338-83.96,15.162-113.071-24.961s-25.687-94,7.65-120.338S257.1.338,286.214,40.462s25.686,94-7.65,120.338" fill="#fff"/><path d="M173.067,129.855c-25.418-35.033-22.417-82.242,6.69-105.238s73.465-13.2,98.883,21.829,22.417,82.242-6.69,105.238S198.485,164.888,173.067,129.855Z" fill="none" stroke="#ab3e68" stroke-miterlimit="10" stroke-width="0.869"/><path d="M286.214,40.462C257.1.339,206.479-10.837,173.143,15.5s-36.761,80.215-7.65,120.338,79.735,51.3,113.071,24.961S315.325,80.585,286.214,40.462ZM173.067,129.855c-25.418-35.032-22.416-82.242,6.69-105.238s73.465-13.2,98.883,21.829,22.417,82.242-6.69,105.238S198.485,164.888,173.067,129.855Z" fill="none" stroke="#ab3e68" stroke-miterlimit="10" stroke-width="1.39"/><path d="M171.23,131.306c-26.3-36.252-23.2-85.1,6.923-108.9S254.175,8.742,280.477,44.994s23.2,85.1-6.922,108.9S197.532,167.558,171.23,131.306Z" fill="none" stroke="#fff" stroke-miterlimit="10" stroke-width="1.845"/><path d="M180.641,123.871c-21.771-30.006-19.2-70.442,5.73-90.138s62.924-11.31,84.7,18.7,19.2,70.442-5.73,90.139S202.412,153.877,180.641,123.871Z" fill="none" stroke="#ab3e68" stroke-miterlimit="10" stroke-width="1.39"/><path d="M188.215,117.887c-18.124-24.979-15.984-58.642,4.77-75.038s52.383-9.415,70.507,15.564,15.984,58.642-4.77,75.039S206.339,142.866,188.215,117.887Z" fill="none" stroke="#ab3e68" stroke-miterlimit="10" stroke-width="1.39"/><path d="M195.789,111.9c-14.477-19.953-12.767-46.841,3.81-59.939s41.842-7.52,56.319,12.433,12.767,46.841-3.81,59.938S210.266,131.856,195.789,111.9Z" fill="none" stroke="#ab3e68" stroke-miterlimit="10" stroke-width="1.39"/><path d="M203.363,105.919c-10.83-14.926-9.551-35.041,2.85-44.839s31.3-5.625,42.131,9.3,9.551,35.041-2.85,44.838S214.193,120.845,203.363,105.919Z" fill="none" stroke="#ab3e68" stroke-miterlimit="10" stroke-width="1.39"/><path d="M210.937,99.935c-7.183-9.9-6.335-23.24,1.89-29.739s20.76-3.731,27.943,6.169,6.334,23.24-1.89,29.738S218.12,109.834,210.937,99.935Z" fill="none" stroke="#ab3e68" stroke-miterlimit="10" stroke-width="1.39"/><path d="M218.511,93.951c-3.536-4.873-3.118-11.44.931-14.639s10.218-1.836,13.754,3.037,3.118,11.439-.931,14.638S222.047,98.824,218.511,93.951Z" fill="none" stroke="#ab3e68" stroke-miterlimit="10" stroke-width="1.39"/><path d="M158.573,135.984c-4.109-2.318-11.357-3.533-16.677-4.831-5.046-1.232-12.149-3.217-17.763-3.935a263.83,263.83,0,0,0-38.483-2,279.273,279.273,0,0,0-36.9,3.731c-10.765,1.846-23.034,6.8-30.962,10.3C9.783,142.8,8.161,149.73,4.574,154.311-3.166,164.2,1.028,175.1,16.747,183.34c14.917,7.821,39.623,12.488,63.5,13.658a262.57,262.57,0,0,0,28.462-.175,190.982,190.982,0,0,0,28.448-3.733c20.919-4.532,36.427-12.745,41.106-22.213,2.977-6.026.429-23.547-19.688-34.893m10.172,31.592c-4.236,7.769-18.276,14.508-37.215,18.226a189.626,189.626,0,0,1-25.755,3.063c-8.472.467-17.264.521-25.768.144-21.616-.96-43.983-4.789-57.489-11.207C8.288,171.04,4.49,162.1,11.5,153.984c3.247-3.759,8.751-7.268,16-10.176,7.178-2.879,16.062-4.982,25.808-6.5a256.645,256.645,0,0,1,32.05-2.829A232.93,232.93,0,0,1,118.1,135.76a145.4,145.4,0,0,1,14.568,2.393A98.355,98.355,0,0,1,145.708,142c8.6,3.185,15.393,6.992,19.6,11.124,4.638,4.555,6.133,9.505,3.437,14.449" fill="#fff"/><path d="M92.793,197.654c-4.239,0-8.458-.1-12.565-.3-25.915-1.269-49.709-6.39-63.647-13.7-9.042-4.742-14.518-10.482-15.834-16.6C-.2,162.665,1,158.3,4.294,154.091a36.781,36.781,0,0,0,2.749-4.308c2.236-3.876,4.769-8.269,10.6-10.851,12.253-5.423,22.7-8.9,31.047-10.33a278.883,278.883,0,0,1,36.947-3.737,265.314,265.314,0,0,1,38.539,2,130.879,130.879,0,0,1,14.45,3.1c1.184.3,2.312.586,3.352.84,1.176.287,2.432.567,3.762.863,4.576,1.019,9.761,2.174,13.005,4,11.23,6.334,16.345,14.162,18.657,19.613,3.054,7.2,2.542,12.982,1.175,15.748-4.659,9.429-20.117,17.8-41.35,22.4a190.087,190.087,0,0,1-28.5,3.741c-5.22.317-10.594.476-15.936.476M91.316,125.5c-1.954,0-3.846.026-5.655.081A278.261,278.261,0,0,0,48.813,129.3c-8.29,1.422-18.68,4.881-30.878,10.28-5.622,2.488-7.987,6.589-10.274,10.555a37.445,37.445,0,0,1-2.806,4.393c-3.161,4.038-4.309,8.2-3.412,12.373,1.271,5.906,6.62,11.48,15.469,16.12,13.851,7.262,37.534,12.353,63.351,13.617a263.823,263.823,0,0,0,28.423-.174,189.592,189.592,0,0,0,28.393-3.726c21.023-4.554,36.3-12.787,40.862-22.023,1.4-2.838,1.578-8.625-1.192-15.154-2.269-5.349-7.295-13.034-18.351-19.27-3.152-1.778-8.283-2.921-12.81-3.929-1.333-.3-2.593-.578-3.776-.867-1.042-.254-2.172-.541-3.358-.842a130.215,130.215,0,0,0-14.366-3.085A272.333,272.333,0,0,0,91.316,125.5m.055,64.115c-3.839,0-7.66-.082-11.38-.247-23.463-1.041-45-5.244-57.625-11.24-8.354-3.97-13.342-8.787-14.424-13.93-.746-3.542.36-7.055,3.286-10.443,3.287-3.805,8.867-7.357,16.138-10.274,6.738-2.7,15.448-4.9,25.887-6.518a255.434,255.434,0,0,1,32.094-2.833,232.009,232.009,0,0,1,32.8,1.279,145.8,145.8,0,0,1,14.6,2.4,98.763,98.763,0,0,1,13.085,3.864c8.735,3.234,15.556,7.109,19.725,11.2,4.947,4.858,6.157,10,3.5,14.874-4.225,7.75-18.229,14.63-37.459,18.406a189.257,189.257,0,0,1-25.805,3.069c-4.723.26-9.587.39-14.423.39m1.367-54.875q-3.639,0-7.371.1a254.771,254.771,0,0,0-32,2.825c-10.386,1.614-19.043,3.793-25.731,6.475-7.166,2.875-12.651,6.36-15.864,10.078-2.773,3.211-3.825,6.518-3.128,9.831,1.035,4.918,5.887,9.563,14.032,13.433,12.539,5.958,33.979,10.135,57.351,11.172,8.383.372,17.282.323,25.733-.143a188.28,188.28,0,0,0,25.706-3.057c19.025-3.735,32.846-10.482,36.971-18.047l.313.171-.313-.171c2.524-4.629,1.389-9.347-3.374-14.025-4.1-4.024-10.832-7.843-19.474-11.044a98.046,98.046,0,0,0-12.991-3.835,144.689,144.689,0,0,0-14.532-2.388,221.007,221.007,0,0,0-25.323-1.377" fill="#ab3e68"/><path d="M174.967,157.863q-.241-.276-.494-.551-.728-.79-1.551-1.565a25.907,25.907,0,0,1-6.45,10.631c-4.722,4.78-10.918,7.817-17.038,10.4-13.621,5.747-28.375,8.453-43.074,9.407a215.908,215.908,0,0,1-44.785-1.95c-13.455-1.943-26.756-5.4-39.073-11.251C15.37,169.6,6.479,164.138,4.873,155.935c-2.346.344-3.689.768-3.816,1.283-.887,3.618-.481,8.267.011,11.517a13.685,13.685,0,0,0,.745,3.916l0,.017h0c1.817,5.286,6.89,10.371,15.167,14.718,14.9,7.821,39.565,12.488,63.4,13.657a262.069,262.069,0,0,0,28.421-.174,190.29,190.29,0,0,0,28.406-3.734c20.889-4.531,36.374-12.744,41.046-22.213a13.6,13.6,0,0,0,1.471-5.909h0V158.046s-1.705-.067-4.772-.183" fill="#a64787"/><path d="M92.924,201.878c-4.237,0-8.453-.1-12.559-.3-25.9-1.271-49.687-6.4-63.628-13.719-8.17-4.29-13.5-9.467-15.408-14.973a.447.447,0,0,1-.03-.087,14.191,14.191,0,0,1-.763-4.013c-.5-3.306-.9-8.008,0-11.7.14-.57.753-1.17,4.258-1.684a.532.532,0,0,1,.6.426c1.225,6.261,6.894,11.713,17.333,16.668,11.374,5.4,24.1,9.066,38.92,11.205a215.838,215.838,0,0,0,44.675,1.946c16.461-1.069,30.494-4.132,42.9-9.366,5.973-2.52,12.151-5.51,16.866-10.283a25.441,25.441,0,0,0,6.318-10.411.535.535,0,0,1,.879-.233c.561.53,1.092,1.065,1.576,1.591q.178.195.351.388c2.923.111,4.544.175,4.544.175a.534.534,0,0,1,.513.534v10.967a.552.552,0,0,1,0,.071,14.207,14.207,0,0,1-1.526,6.075c-4.676,9.477-20.157,17.887-41.412,22.5a189.709,189.709,0,0,1-28.487,3.744c-5.214.318-10.583.477-15.92.477" fill="#ab3e68"/><g opacity="0.6" style="mix-blend-mode:multiply;isolation:isolate"><g clip-path="url(#c)"><path d="M35.377,177.5l.009-.705q-1.484-.56-2.95-1.168c0,.273,0,.546,0,.819q1.463.543,2.937,1.054" fill="#aa4685"/></g></g><g opacity="0.6" style="mix-blend-mode:multiply;isolation:isolate"><g clip-path="url(#d)"><path d="M62.147,183.7c.008-.108.015-.216.023-.325q-2.382-.339-4.753-.747c0,.111-.008.221-.01.332v.008q2.365.393,4.74.732" fill="#aa4685"/></g></g><g opacity="0.6" style="mix-blend-mode:multiply;isolation:isolate"><g clip-path="url(#e)"><path d="M93.516,186c0-.108.005-.216.008-.324q-1.988-.036-3.975-.1c-.006.131-.012.262-.019.394q1.994.036,3.986.031" fill="#aa4685"/></g></g><g opacity="0.6" style="mix-blend-mode:multiply;isolation:isolate"><g clip-path="url(#f)"><path d="M162.619,174.647q-.151-2.362-.314-4.723a44.238,44.238,0,0,1-3.732,2.42c.089,1.137.177,2.274.254,3.413.32,4.757.528,9.526.575,14.3q2.084-.942,3.984-1.948c-.055-1.144-.11-2.288-.171-3.431q-.27-5.016-.6-10.027" fill="#aa4685"/></g></g><path d="M174.464,145.811c-4.647-5.035-12.15-9.675-21.649-13.556a100.958,100.958,0,0,0-14.4-4.692,146.9,146.9,0,0,0-16.092-2.918,233.337,233.337,0,0,0-36.168-1.556,257.342,257.342,0,0,0-35.4,3.448c-10.765,1.846-20.579,4.409-28.507,7.917C14.24,138,8.161,142.275,4.574,146.856c-7.74,9.888-3.546,20.787,12.173,29.029,14.917,7.821,39.623,12.488,63.5,13.658a262.566,262.566,0,0,0,28.462-.175,190.98,190.98,0,0,0,28.448-3.733c20.919-4.532,36.427-12.745,41.106-22.213,2.977-6.026,1.327-12.059-3.8-17.611m-5.719,14.31c-4.236,7.769-18.276,14.508-37.215,18.226a189.624,189.624,0,0,1-25.755,3.063c-8.472.467-17.264.521-25.768.144-21.616-.96-43.983-4.789-57.489-11.207C8.288,163.585,4.49,154.642,11.5,146.529c3.247-3.759,8.751-7.268,16-10.176,7.178-2.879,16.062-4.982,25.808-6.5a256.459,256.459,0,0,1,32.05-2.828A232.779,232.779,0,0,1,118.1,128.3,145.4,145.4,0,0,1,132.67,130.7a98.357,98.357,0,0,1,13.038,3.85c8.6,3.185,15.393,6.992,19.6,11.123,4.638,4.556,6.133,9.506,3.437,14.45" fill="#fff"/><path d="M92.794,190.2c-4.239,0-8.458-.1-12.565-.3-25.915-1.269-49.708-6.39-63.647-13.7C7.539,171.459,2.064,165.718.748,159.6c-.944-4.389.249-8.75,3.546-12.963,3.625-4.63,9.784-8.955,17.81-12.507,7.442-3.294,17.061-5.966,28.591-7.944a256.594,256.594,0,0,1,35.45-3.453,232.318,232.318,0,0,1,36.224,1.559,147.4,147.4,0,0,1,16.131,2.925,101.429,101.429,0,0,1,14.451,4.709c9.644,3.94,17.175,8.658,21.776,13.644,5.433,5.888,6.766,12.116,3.854,18.01-4.659,9.429-20.117,17.8-41.35,22.4a190.083,190.083,0,0,1-28.5,3.741c-5.22.317-10.593.476-15.935.476m1.514-66.879q-4.019,0-8.141.125a255.784,255.784,0,0,0-35.351,3.442c-11.473,1.968-21.036,4.623-28.424,7.893-7.919,3.505-13.984,7.757-17.537,12.3-3.16,4.038-4.308,8.2-3.411,12.374,1.27,5.9,6.619,11.479,15.469,16.119,13.852,7.263,37.535,12.353,63.35,13.617a263.821,263.821,0,0,0,28.423-.174,189.588,189.588,0,0,0,28.394-3.726c21.023-4.554,36.3-12.787,40.862-22.023,2.771-5.606,1.478-11.558-3.739-17.211-4.531-4.909-11.973-9.567-21.522-13.468a100.647,100.647,0,0,0-14.35-4.676A146.723,146.723,0,0,0,122.279,125a221.537,221.537,0,0,0-27.971-1.678M91.37,182.157c-3.839,0-7.659-.083-11.379-.248-23.461-1.041-45-5.243-57.625-11.24-8.354-3.97-13.341-8.787-14.423-13.93-.746-3.542.36-7.055,3.286-10.443,3.286-3.805,8.867-7.357,16.138-10.274,6.736-2.7,15.446-4.9,25.886-6.518a255.452,255.452,0,0,1,32.1-2.833,231.717,231.717,0,0,1,32.8,1.279,145.889,145.889,0,0,1,14.6,2.4,98.765,98.765,0,0,1,13.084,3.864c8.736,3.234,15.557,7.109,19.726,11.2,4.947,4.858,6.157,10,3.5,14.874l-.313-.17.313.17c-4.225,7.75-18.229,14.63-37.46,18.406a189.131,189.131,0,0,1-25.8,3.069c-4.725.26-9.59.391-14.425.391m1.369-54.876q-3.639,0-7.371.1a254.772,254.772,0,0,0-32,2.825c-10.387,1.615-19.045,3.793-25.731,6.475-7.166,2.875-12.652,6.36-15.864,10.078-2.773,3.211-3.825,6.518-3.128,9.831,1.035,4.918,5.887,9.563,14.032,13.433,12.54,5.959,33.98,10.135,57.351,11.172,8.38.373,17.279.323,25.733-.143A188.184,188.184,0,0,0,131.462,178c19.025-3.735,32.846-10.482,36.971-18.047,2.524-4.628,1.388-9.347-3.374-14.025-4.1-4.024-10.832-7.843-19.474-11.043a98.007,98.007,0,0,0-12.991-3.836,144.974,144.974,0,0,0-14.532-2.388,221.005,221.005,0,0,0-25.323-1.377" fill="#ab3e68"/><path d="M170.938,145.58c-4.479-4.686-11.712-9-20.868-12.615a99.818,99.818,0,0,0-13.88-4.366,146.035,146.035,0,0,0-15.511-2.715,232.783,232.783,0,0,0-34.861-1.448,256.65,256.65,0,0,0-34.123,3.208c-10.376,1.718-19.835,4.1-27.477,7.368-7.719,3.3-13.579,7.277-17.036,11.54-7.46,9.2-3.417,19.343,11.733,27.012,14.379,7.278,38.192,11.621,61.206,12.709a262.277,262.277,0,0,0,27.434-.162,190.314,190.314,0,0,0,27.421-3.474c20.164-4.217,35.111-11.859,39.621-20.67,2.87-5.607,1.279-11.221-3.659-16.387m-.483,14.524c-4.314,7.941-18.615,14.828-37.906,18.628a192.625,192.625,0,0,1-26.234,3.13c-8.629.478-17.584.533-26.246.147-22.017-.981-44.8-4.894-58.556-11.453-14.5-6.912-18.363-16.051-11.225-24.344,3.307-3.842,8.914-7.428,16.3-10.4,7.311-2.942,16.361-5.091,26.288-6.64a260.36,260.36,0,0,1,32.645-2.891,236.538,236.538,0,0,1,33.353,1.305,147.733,147.733,0,0,1,14.838,2.447,99.848,99.848,0,0,1,13.28,3.934c8.76,3.255,15.679,7.146,19.964,11.369,4.725,4.656,6.247,9.715,3.5,14.768" fill="#fff"/><path d="M235.585,147.335c-3.4-3.268-10.12-6.248-14.95-8.83-4.58-2.449-10.966-6.14-16.224-8.232a263.827,263.827,0,0,0-36.775-11.513,279.4,279.4,0,0,0-36.665-5.57c-10.886-.892-24,.848-32.552,2.273-8.638,1.439-11.934,7.746-16.548,11.29C71.913,134.4,73.262,146,86.435,157.9c12.5,11.288,35.267,21.958,58.1,29.034a262.734,262.734,0,0,0,27.61,6.915,190.742,190.742,0,0,0,28.481,3.465c21.389.819,38.453-3.275,45.342-11.282,4.383-5.1,6.276-22.7-10.383-38.695m1.988,33.13c-6.037,6.47-21.312,9.5-40.581,8.389a189.759,189.759,0,0,1-25.707-3.444c-8.321-1.657-16.849-3.793-24.993-6.275-20.7-6.31-41.406-15.586-52.889-25.164-12.1-10.091-13.551-19.7-4.745-25.811,4.081-2.833,10.285-4.861,18.03-5.873,7.669-1,16.8-.827,26.614.132a256.387,256.387,0,0,1,31.745,5.237,233.062,233.062,0,0,1,31.4,9.388,145.478,145.478,0,0,1,13.514,5.945,98.166,98.166,0,0,1,11.669,6.974c7.537,5.225,13.168,10.6,16.214,15.652,3.359,5.567,3.574,10.733-.267,14.85" fill="#fff"/><path d="M205.884,197.77q-2.586,0-5.271-.1a190.072,190.072,0,0,1-28.535-3.472,264.5,264.5,0,0,1-27.648-6.925c-24.783-7.679-46.553-18.561-58.233-29.109-7.578-6.843-11.453-13.765-11.2-20.019.178-4.486,2.419-8.413,6.661-11.673a36.526,36.526,0,0,0,3.736-3.489c3.13-3.2,6.677-6.821,12.971-7.869,13.217-2.2,24.2-2.969,32.64-2.278a279.041,279.041,0,0,1,36.714,5.578,265.234,265.234,0,0,1,36.828,11.53,130.576,130.576,0,0,1,13.224,6.6c1.072.586,2.093,1.144,3.037,1.648,1.068.571,2.215,1.155,3.428,1.772,4.178,2.126,8.914,4.536,11.6,7.116,9.3,8.93,12.3,17.784,13.188,23.64,1.166,7.732-.77,13.206-2.782,15.544-6.293,7.315-21.173,11.508-40.354,11.508M124.555,113.3a162.266,162.266,0,0,0-26.077,2.513c-6.064,1.011-9.376,4.394-12.579,7.666a37.2,37.2,0,0,1-3.81,3.555c-4.067,3.125-6.215,6.871-6.385,11.136-.239,6.036,3.554,12.765,10.97,19.462,11.608,10.482,33.278,21.307,57.967,28.958a264.109,264.109,0,0,0,27.572,6.906,189.555,189.555,0,0,0,28.428,3.459c21.494.825,38.338-3.349,45.057-11.158,2.065-2.4,3.675-7.961,2.618-14.974-.867-5.746-3.822-14.441-12.977-23.232-2.611-2.507-7.3-4.891-11.43-6.995-1.217-.619-2.367-1.2-3.441-1.778-.946-.506-1.969-1.065-3.043-1.651A130.007,130.007,0,0,0,204.28,130.6a264.42,264.42,0,0,0-36.722-11.5,278.179,278.179,0,0,0-36.615-5.562q-2.98-.244-6.388-.244m80,76.133q-3.668,0-7.584-.225a189.131,189.131,0,0,1-25.756-3.45c-8.325-1.657-16.979-3.83-25.027-6.283-22.465-6.85-42.283-16.282-53.013-25.232-7.1-5.923-10.735-11.83-10.5-17.081.16-3.616,2.106-6.743,5.783-9.3,4.129-2.867,10.418-4.919,18.187-5.933,7.2-.941,16.179-.9,26.694.13a255.541,255.541,0,0,1,31.79,5.245,231.836,231.836,0,0,1,31.445,9.4,145.981,145.981,0,0,1,13.547,5.96,98.782,98.782,0,0,1,11.711,7c7.656,5.308,13.3,10.758,16.316,15.761,3.582,5.937,3.474,11.22-.312,15.278l-.26-.243.26.243c-5.218,5.593-17.39,8.726-33.278,8.726m-86.4-67.462a88.88,88.88,0,0,0-11.42.668c-7.656,1-13.837,3.01-17.873,5.812-3.485,2.419-5.327,5.361-5.477,8.743-.222,5.02,3.321,10.726,10.247,16.5,10.661,8.891,30.386,18.273,52.765,25.1,8.026,2.447,16.656,4.614,24.958,6.266a188.353,188.353,0,0,0,25.658,3.438c19.354,1.117,34.422-1.976,40.3-8.277,3.6-3.854,3.671-8.707.223-14.423-2.967-4.917-8.538-10.292-16.112-15.543a98.155,98.155,0,0,0-11.627-6.949,145.211,145.211,0,0,0-13.481-5.93A231.144,231.144,0,0,0,164.969,128a254.881,254.881,0,0,0-31.7-5.23c-5.469-.534-10.519-.8-15.113-.8" fill="#ab3e68"/><path d="M246.016,172.606c-.11-.219-.224-.437-.342-.657q-.507-.945-1.112-1.9a25.919,25.919,0,0,1-8.893,8.692c-5.763,3.454-12.52,4.853-19.091,5.83-14.622,2.176-29.585,1.124-44.059-1.61a216.071,216.071,0,0,1-42.89-13.036c-12.548-5.232-24.569-11.894-35.043-20.623-6.065-5.055-13.317-12.555-12.83-20.9-2.359-.251-3.765-.175-4.015.293-1.761,3.282-2.524,7.886-2.856,11.157a13.669,13.669,0,0,0-.254,3.978v.018h0c.444,5.573,4.091,11.76,11.026,18.03,12.48,11.282,35.211,21.943,58.01,29.01a261.7,261.7,0,0,0,27.569,6.9,190.305,190.305,0,0,0,28.442,3.455c21.359.811,38.4-3.289,45.283-11.3a13.594,13.594,0,0,0,2.9-5.357h0l2.729-10.621s-1.635-.491-4.576-1.366" fill="#a64787"/><path d="M204.877,201.881q-2.561,0-5.217-.1a189.875,189.875,0,0,1-28.523-3.464,264.267,264.267,0,0,1-27.626-6.919c-24.77-7.678-46.531-18.565-58.21-29.125-6.845-6.187-10.715-12.527-11.2-18.334a.566.566,0,0,1-.008-.1,14.224,14.224,0,0,1,.26-4.07c.339-3.327,1.12-7.982,2.914-11.326.278-.518,1.021-.946,4.542-.572a.535.535,0,0,1,.478.562c-.372,6.369,3.762,13.061,12.638,20.458,9.672,8.062,21.09,14.781,34.907,20.541a215.767,215.767,0,0,0,42.783,13c16.211,3.062,30.565,3.588,43.882,1.607,6.412-.954,13.14-2.311,18.894-5.76a25.444,25.444,0,0,0,8.711-8.51.534.534,0,0,1,.452-.258.521.521,0,0,1,.457.25c.413.654.793,1.3,1.131,1.934q.124.231.243.462c2.8.835,4.358,1.3,4.358,1.3a.534.534,0,0,1,.364.645l-2.73,10.621a.453.453,0,0,1-.022.068,14.206,14.206,0,0,1-2.99,5.5c-6.326,7.361-21.26,11.582-40.491,11.583" fill="#ab3e68"/><g opacity="0.6" style="mix-blend-mode:multiply;isolation:isolate"><g clip-path="url(#g)"><path d="M105.933,156.877c.061-.227.123-.454.184-.681q-1.3-.91-2.566-1.865c-.068.264-.133.529-.2.794q1.281.89,2.582,1.752" fill="#aa4685"/></g></g><g opacity="0.6" style="mix-blend-mode:multiply;isolation:isolate"><g clip-path="url(#h)"><path d="M130.317,169.544c.035-.1.069-.206.1-.309q-2.222-.921-4.417-1.907c-.03.107-.063.213-.092.319l0,.009q2.195.967,4.409,1.888" fill="#aa4685"/></g></g><g opacity="0.6" style="mix-blend-mode:multiply;isolation:isolate"><g clip-path="url(#i)"><path d="M160.125,179.585c.03-.1.059-.208.088-.311q-1.915-.531-3.824-1.088c-.039.125-.077.251-.117.377q1.921.529,3.853,1.022" fill="#aa4685"/></g></g><path d="M248.53,160.808c-3.247-6.033-9.359-12.4-17.593-18.519a101.2,101.2,0,0,0-12.779-8.129,146.879,146.879,0,0,0-14.859-6.83,233.341,233.341,0,0,0-34.643-10.511,257.448,257.448,0,0,0-35.144-5.472c-10.886-.891-21.029-.852-29.581.573-8.637,1.439-15.59,4.068-20.2,7.612-9.958,7.65-8.608,19.25,4.564,31.145,12.5,11.288,35.267,21.958,58.1,29.033A262.739,262.739,0,0,0,174,186.626a190.744,190.744,0,0,0,28.481,3.465c21.39.819,38.453-3.276,45.342-11.282,4.383-5.1,4.286-11.348.706-18m-9.1,12.436c-6.037,6.47-21.312,9.5-40.581,8.389a189.777,189.777,0,0,1-25.707-3.444c-8.321-1.657-16.849-3.793-24.992-6.275-20.7-6.31-41.407-15.586-52.89-25.164-12.1-10.091-13.551-19.7-4.744-25.811,4.08-2.833,10.284-4.861,18.029-5.873,7.669-1,16.8-.827,26.614.132a256.387,256.387,0,0,1,31.745,5.237,232.917,232.917,0,0,1,31.4,9.388,145.611,145.611,0,0,1,13.515,5.945,98.226,98.226,0,0,1,11.668,6.974c7.537,5.225,13.169,10.6,16.215,15.652,3.358,5.566,3.573,10.733-.268,14.85" fill="#fff"/><path d="M207.741,190.55q-2.587,0-5.273-.1a190.088,190.088,0,0,1-28.535-3.472,264.543,264.543,0,0,1-27.647-6.925c-24.784-7.679-46.553-18.561-58.234-29.109-7.578-6.843-11.453-13.765-11.2-20.019.178-4.486,2.419-8.413,6.662-11.673,4.663-3.582,11.7-6.238,20.362-7.681,8.027-1.337,18.009-1.531,29.669-.577a256.567,256.567,0,0,1,35.193,5.481A232.114,232.114,0,0,1,203.43,127a147.2,147.2,0,0,1,14.9,6.848A101.476,101.476,0,0,1,231.149,142c8.361,6.218,14.479,12.662,17.694,18.636,3.8,7.055,3.538,13.419-.75,18.4-6.293,7.315-21.173,11.508-40.352,11.508M119.88,111.109a97.525,97.525,0,0,0-15.89,1.163c-8.543,1.423-15.475,4.032-20.046,7.543-4.067,3.125-6.215,6.871-6.384,11.136-.24,6.036,3.553,12.766,10.969,19.462,11.608,10.482,33.278,21.307,57.967,28.958a264.237,264.237,0,0,0,27.572,6.906,189.57,189.57,0,0,0,28.428,3.459c21.494.822,38.338-3.349,45.058-11.159,4.137-4.808,4.359-10.729.662-17.6-3.166-5.882-9.215-12.245-17.492-18.4a100.735,100.735,0,0,0-12.735-8.1,146.635,146.635,0,0,0-14.823-6.814,231.444,231.444,0,0,0-34.588-10.494,255.788,255.788,0,0,0-35.1-5.464q-7.248-.594-13.6-.594m86.531,71.105q-3.667,0-7.584-.225a189.078,189.078,0,0,1-25.756-3.45c-8.329-1.659-16.984-3.832-25.026-6.284-22.465-6.848-42.283-16.28-53.014-25.231-7.1-5.923-10.734-11.83-10.5-17.081.159-3.616,2.105-6.744,5.782-9.3,4.13-2.867,10.419-4.919,18.187-5.933,7.2-.941,16.179-.9,26.694.13a255.506,255.506,0,0,1,31.79,5.245,231.793,231.793,0,0,1,31.445,9.4,145.689,145.689,0,0,1,13.547,5.96,98.728,98.728,0,0,1,11.711,7c7.655,5.308,13.3,10.758,16.316,15.761,3.582,5.937,3.474,11.219-.312,15.278-5.218,5.593-17.39,8.726-33.278,8.726m-86.4-67.462a88.881,88.881,0,0,0-11.42.668c-7.656,1-13.836,3.01-17.873,5.812-3.485,2.419-5.327,5.361-5.477,8.742-.222,5.021,3.322,10.728,10.247,16.5,10.662,8.892,30.387,18.273,52.765,25.1,8.021,2.445,16.652,4.612,24.959,6.266a188.264,188.264,0,0,0,25.657,3.438c19.355,1.116,34.422-1.976,40.3-8.277l.261.243-.261-.243c3.6-3.854,3.671-8.707.223-14.423-2.967-4.918-8.539-10.292-16.112-15.543a98.1,98.1,0,0,0-11.627-6.949,145.037,145.037,0,0,0-13.481-5.93,231.1,231.1,0,0,0-31.347-9.373,254.849,254.849,0,0,0-31.7-5.23c-5.468-.534-10.519-.8-15.113-.8" fill="#ab3e68"/><path d="M245.172,159.707c-3.172-5.653-9.1-11.635-17.071-17.412a100,100,0,0,0-12.357-7.684,146.2,146.2,0,0,0-14.346-6.49,233,233,0,0,0-33.4-10.08,256.62,256.62,0,0,0-33.847-5.386c-10.478-.919-20.233-.964-28.447.3-8.3,1.273-14.962,3.668-19.372,6.937-9.516,7.054-8.125,17.883,4.641,29.082,12.114,10.628,34.1,20.762,56.115,27.544a261.93,261.93,0,0,0,26.611,6.671,190.12,190.12,0,0,0,27.423,3.461c20.579.935,36.958-2.745,43.519-10.157,4.175-4.716,4.032-10.549.535-16.782m-4.083,13.947c-6.155,6.617-21.72,9.728-41.35,8.606a192.578,192.578,0,0,1-26.187-3.5c-8.476-1.685-17.163-3.861-25.457-6.391-21.08-6.43-42.171-15.892-53.862-25.668-12.318-10.3-13.789-20.117-4.812-26.371,4.16-2.9,10.482-4.976,18.373-6.016,7.814-1.03,17.114-.859,27.114.112a260.32,260.32,0,0,1,32.337,5.326,236.377,236.377,0,0,1,31.978,9.566,147.684,147.684,0,0,1,13.763,6.063,99.907,99.907,0,0,1,11.882,7.116c7.674,5.333,13.407,10.824,16.506,15.98,3.417,5.686,3.632,10.965-.285,15.175" fill="#fff"/><path d="M317.138,81.761c-3.137.764-8.478,2.415-9.6-2.332-1.067-4.52,5.4-5.169,8.661-5.929,2.061-.481,4.152-.877,6.261-1.206,2.227-.347,2.89-1.256,1.539-3.327-2.332-3.573-6.366-5.492-10.119-7.393-4.216-2.135-8.439-4.269-12.678-6.355-3.229-1.588-7.736-5.265-3.712-8.205,2.393-1.749,6.247.74,8.639,1.863,4.714,2.213,9.352,4.744,14.137,6.781-3.254-3.345-7.38-6.236-10.929-9.324-1.823-1.587-3.628-3.192-5.395-4.835-1.431-1.331-2.546-2.544-1.935-4.427.873-2.692,3.931-3.332,6.456-1.665,2.756,1.819,5.161,4.349,7.7,6.447q4.181,3.459,8.342,6.939c-2.787-3.815-5.392-7.732-8.185-11.544-2.057-2.767-4.5-8.061.867-8.521,3.589-.307,6,3.885,7.7,6.306q2.313,3.283,4.645,6.555l2.328,3.274a18.333,18.333,0,0,0,1.433,1.978c.209.224.467.606.824.514.312-.079.392-.439.42-.715a12.32,12.32,0,0,0-.185-1.934c-.084-1.538-.15-3.075-.221-4.614-.1-2.059-.279-4.128-.295-6.19a12.4,12.4,0,0,1,.263-2.985,2.673,2.673,0,0,1,2.586-2.358,3.127,3.127,0,0,1,2.772,1.938c2.169,5.409,1.628,11.623,3.484,17.187,1.479,4.435,5.584,8.91,8.542,12.483,2.53,3.055,6.033,2.932,9.493,4.269,5.492,2.124,1.127,16.324-1.183,17.731s-5.471.732-8.144.117c-3.934-.9-7.843-2.483-11.924-2.926-3.98-.432-7.67,1.051-11.587,1.367-3.678.3-7.389.157-11,1.036" fill="#fff"/><path d="M137.594,174.321c2.471-2.078,6.961-5.408,3.8-9.119-3.015-3.533-7.364,1.3-9.9,3.478-1.606,1.378-3.162,2.83-4.674,4.336-1.6,1.591-2.722,1.588-3.593-.726-1.5-3.993-.665-8.381.021-12.532.772-4.662,1.548-9.33,2.373-13.982.628-3.543.328-9.352-4.422-7.846-2.825.9-3.1,5.475-3.606,8.069-1,5.11-1.705,10.347-2.892,15.41-.774-4.6-.664-9.639-1.056-14.327-.2-2.408-.428-4.814-.709-7.21-.227-1.941-.545-3.557-2.425-4.178-2.687-.888-5.012,1.2-5.161,4.221-.162,3.3.455,6.734.647,10.021.212,3.611.424,7.222.663,10.83-1.428-4.5-3.047-8.921-4.47-13.427-1.014-3.295-3.84-8.4-7.383-4.34-2.371,2.713-.413,7.133.531,9.941q1.278,3.806,2.538,7.621l1.263,3.814a18.313,18.313,0,0,1,.749,2.326c.057.3.212.734-.073.968-.249.2-.586.056-.825-.084a12.258,12.258,0,0,1-1.45-1.293c-1.191-.978-2.392-1.939-3.59-2.906-1.605-1.295-3.164-2.667-4.818-3.9a12.384,12.384,0,0,0-2.562-1.553,2.672,2.672,0,0,0-3.431.691,3.126,3.126,0,0,0-.077,3.381c3.08,4.948,8.41,8.186,11.8,12.974,2.7,3.815,3.883,9.771,5.015,14.269.968,3.847-1.2,6.6-2.17,10.18-1.536,5.685,12.5,10.563,15,9.531s3.825-3.978,4.91-6.5c1.6-3.708,2.635-7.793,4.691-11.346,2.005-3.465,5.383-5.563,7.955-8.535,2.414-2.791,4.5-5.866,7.341-8.26" fill="#fff"/></g></g></svg>