<svg xmlns="http://www.w3.org/2000/svg" xmlns:xlink="http://www.w3.org/1999/xlink" width="306.139" height="210.036" viewBox="0 0 306.139 210.036"><defs><clipPath id="a"><rect width="306.139" height="210.036" fill="none"/></clipPath></defs><g clip-path="url(#a)"><path d="M134.643,100.183a65.452,65.452,0,0,0,2.551,25.265A62.805,62.805,0,0,0,144.76,141.7c-.026,13.174,8.168,25.944,19.621,32.75,12.625,7.538,28.408,8.51,42.724,5.1a77.092,77.092,0,0,0,58.714-65.773c1.42-11.705.044-23.905-5.1-34.514a47.317,47.317,0,0,0-3.29-5.775l0-.013a44.479,44.479,0,0,0-19.581-16.534,64.728,64.728,0,0,0-40.623-13.953A62.539,62.539,0,0,0,180.7,45.276a64.834,64.834,0,0,0-42.723,39.835,61.939,61.939,0,0,0-3.332,15.072" fill="#835ba5"/><path d="M197.391,37.785c6.569,1.169,13.127-2.3,19.792-2.124,3.28.091,6.485,1.053,9.764,1.193,3.515.15,5.658-1.254,8.48-2.8,1.634,2.442.878,5.785,2.441,8.309a5.654,5.654,0,0,0,4.182,2.608,1.662,1.662,0,0,0,1.212-.242.711.711,0,0,0,.06-1.088,3.683,3.683,0,0,1-3.533-2.091,12.459,12.459,0,0,1-1.081-4.213,8.528,8.528,0,0,0-1.415-4.085,4.006,4.006,0,0,1-.735-1.069,2.919,2.919,0,0,1,.01-1.438C239.188,15.07,229.859,0,213.079,0c-8.759,0-16.711,3.3-24.8,6.221-6.465,2.339-13.2,1.6-20.067,1.383q1.644,1.867,3.234,3.8,4.227,5.1,8.034,10.536a76.578,76.578,0,0,0,7.46,9.764,19.746,19.746,0,0,0,10.451,6.077" fill="#7e952e"/><path d="M226.642,58.7c.352,2.46,3.305,3.86,5.738,3.385,2.442-.491,4.386-2.29,6.028-4.152a45.03,45.03,0,0,0,9.8-18.4l0-.013a11.3,11.3,0,0,0-3.247-2.662A37.645,37.645,0,0,1,231.711,52.1a19.631,19.631,0,0,0-3.531,2.62,4.948,4.948,0,0,0-1.538,3.974" fill="#432108"/><path d="M41.571,108.433c-2.4,23.584,4.871,48.281,20.839,65.792s40.66,27.125,64.076,23.515c11-1.7,21.834-6.359,29.211-14.677,0-.026.007-.038.032-.034a1.236,1.236,0,0,1,.1-.115c7.586-8.65,10.772-20.414,11.287-31.9,1.136-24.8-9.89-49.778-28.688-65.927-1.7-1.48-3.5-2.882-5.334-4.2-8.178-5.872-17.623-10.24-27.623-11.417-9.711-1.118-19.931.987-27.745,6.8l-.013,0c-7.673-3.971-18.153-1.62-24.636,4.5a30.286,30.286,0,0,0-5.391,6.863c-3.632,6.19-5.372,13.578-6.11,20.8" fill="#fcd295"/><path d="M47.686,87.626a78.929,78.929,0,0,0-17.673,47.516A75.111,75.111,0,0,0,53.6,191.178c15.338,14.174,37.151,21.177,57.814,18.171a68.664,68.664,0,0,0,44.287-26.3c-7.373,8.326-18.212,12.991-29.207,14.687-23.429,3.606-48.11-6-64.081-23.51s-23.25-42.22-20.837-65.795c.73-7.224,2.479-14.623,6.112-20.809" fill="#66408c"/><path d="M86.754,137.33a43.845,43.845,0,0,0,14.611,21.576c3.724,2.951,8.054,5.323,12.765,5.946,15.162,2.006,21.268-15.5,17.061-27.556-2.725-7.812-8.651-14.12-15.189-19.191s-13.8-9.129-20.465-14.032c-1.29-.949-3.036-1.956-4.361-1.057A3.678,3.678,0,0,0,90.1,104.4a43.774,43.774,0,0,0-4.271,29.3q.379,1.836.921,3.633" fill="#824d1d"/><path d="M259.224,162.268c-3.164.643-8.564,2.09-9.5-2.7-.894-4.557,5.6-4.96,8.881-5.6,2.078-.4,4.182-.718,6.3-.966,2.24-.262,2.935-1.145,1.664-3.266-2.193-3.659-6.151-5.731-9.829-7.773-4.131-2.294-8.27-4.588-12.427-6.834-3.165-1.711-7.529-5.557-3.4-8.341,2.458-1.656,6.215.978,8.563,2.192,4.626,2.39,9.164,5.1,13.868,7.314-3.124-3.467-7.137-6.512-10.566-9.733-1.761-1.655-3.5-3.329-5.206-5.038-1.38-1.384-2.448-2.639-1.766-4.5.976-2.657,4.056-3.18,6.515-1.418,2.685,1.923,4.992,4.542,7.447,6.736q4.045,3.617,8.071,7.252c-2.639-3.918-5.093-7.933-7.738-11.848-1.951-2.843-4.189-8.227,1.19-8.481,3.6-.171,5.844,4.11,7.456,6.6q2.187,3.367,4.392,6.726l2.2,3.361a18.424,18.424,0,0,0,1.357,2.032c.2.231.444.622.8.545.315-.068.408-.424.446-.7a12.1,12.1,0,0,0-.111-1.939c-.026-1.541-.032-3.079-.045-4.619-.016-2.062-.121-4.136-.059-6.2a12.394,12.394,0,0,1,.377-2.972,2.672,2.672,0,0,1,2.674-2.258,3.126,3.126,0,0,1,2.7,2.042c1.961,5.488,1.184,11.677,2.827,17.308,1.309,4.487,5.239,9.115,8.059,12.8,2.412,3.149,5.917,3.16,9.323,4.628,5.407,2.332.505,16.355-1.858,17.673s-5.494.523-8.142-.194c-3.9-1.054-7.743-2.78-11.8-3.378-3.96-.584-7.7.758-11.63.925-3.687.156-7.391-.125-11.034.615" fill="#6b49ff"/><path d="M41.679,126.111c2.75,1.692,7.323,4.908,9.85.736,2.406-3.972-3.55-6.582-6.416-8.307-1.813-1.092-3.68-2.113-5.585-3.075-2.013-1.016-2.363-2.084-.441-3.639,3.318-2.682,7.747-3.266,11.9-3.919,4.669-.734,9.344-1.465,14.019-2.145,3.561-.517,8.981-2.628,6.058-6.664-1.739-2.4-6.172-1.219-8.794-.886-5.166.654-10.358,1.635-15.538,2.1,4.126-2.181,8.942-3.66,13.269-5.506,2.223-.949,4.435-1.921,6.621-2.94,1.772-.826,3.206-1.637,3.2-3.616,0-2.83-2.714-4.381-5.63-3.572-3.182.883-6.249,2.549-9.309,3.765q-5.042,2-10.072,4.034c3.825-2.771,7.51-5.7,11.34-8.465,2.809-2,6.762-6.284,1.8-8.373-3.32-1.4-6.9,1.85-9.269,3.629q-3.211,2.412-6.437,4.807l-3.223,2.4a18.258,18.258,0,0,1-1.972,1.441c-.268.149-.63.433-.943.236-.272-.172-.237-.538-.179-.81a12.318,12.318,0,0,1,.771-1.783c.554-1.437,1.09-2.88,1.631-4.322.724-1.93,1.536-3.842,2.186-5.8a12.4,12.4,0,0,0,.668-2.92,2.672,2.672,0,0,0-1.734-3.04,3.128,3.128,0,0,0-3.234.99c-3.728,4.479-5.127,10.558-8.606,15.281-2.772,3.764-8.054,6.758-11.969,9.247C12.3,97.121,9,95.926,5.3,96.134c-5.879.329-6.1,15.184-4.332,17.234s4.98,2.38,7.713,2.618c4.021.35,8.226.051,12.246.886,3.919.813,6.973,3.361,10.6,4.867,3.408,1.415,6.982,2.424,10.149,4.372" fill="#6b49ff"/></g></svg>