<svg xmlns="http://www.w3.org/2000/svg" xmlns:xlink="http://www.w3.org/1999/xlink" width="266.132" height="219.601" viewBox="0 0 266.132 219.601"><defs><clipPath id="a"><rect width="266.132" height="219.601" fill="none"/></clipPath></defs><g clip-path="url(#a)"><path d="M265.261,146.411s-.3.468-.918,1.305c-6.662,9.079-50.006,61.572-142.173,31.516-64.3-20.968-79.9-59.318-79.34-90.761v0c.346-19.619,6.98-36.554,11.995-44.9A64.986,64.986,0,0,0,60.253,32.14c.328-.909.628-1.812.907-2.7C66.148,13.467,63.586.557,64.341.629A25.727,25.727,0,0,1,68.165.083C71.818-.191,77.375.061,81.6,3.2v0c.182.133.363.274.539.42A73.545,73.545,0,0,0,74,29.434c0,.017,0,.037-.007.054a60.352,60.352,0,0,0-.413,7.364,54.286,54.286,0,0,0,.685,8.366c3.559,21.938,25.957,60.54,50.585,71.755,58.726,26.742,116.812,17.864,133.942,20a17.024,17.024,0,0,1,2.45.461s.061.048.166.146a11.932,11.932,0,0,1,2.512,3.481,13.442,13.442,0,0,1,1.336,5.345" fill="#fcd02f"/><path d="M261.412,137.585c-.575.324-1.155.64-1.745.951-26.558,14.013-60.467,13.661-89.273,8.3-27.467-5.11-55.949-16.158-75.69-36.607C76.289,91.154,70.448,62.672,73.584,36.853a54.266,54.266,0,0,0,.686,8.365c3.559,21.939,25.957,60.54,50.584,71.755,58.726,26.743,116.812,17.864,133.943,20a17.148,17.148,0,0,1,2.449.461s.062.048.166.146" fill="#ffde51"/><path d="M265.261,146.411s-.3.468-.918,1.305c-22.2,30.2-61.825,42.782-98.126,40.392a180.861,180.861,0,0,1-44.047-8.876c-41.224-13.444-80.656-42.784-79.316-90.579-.139,4.971,3.636,12.007,5.559,16.509a113.313,113.313,0,0,0,8.449,16.059c18.263,28.864,50.549,44.46,83.352,50.092,20.684,3.551,42.635,4.034,63.263-1.183,19.628-4.965,37.954-14.221,54.823-25.275q1.766-1.156,3.513-2.343,1.053-.714,2.112-1.446a13.442,13.442,0,0,1,1.336,5.345" fill="#eabe1c"/><path d="M266.132,146.2a8.963,8.963,0,0,0-1.882,1.645,50.719,50.719,0,0,0-2.238-4.846c-1.114-1.951-3.33-5.619-3.6-6.063a13.023,13.023,0,0,1,2.97.4,15.477,15.477,0,0,1,3.156,4.081,9.2,9.2,0,0,1,1.6,4.786" fill="#995405"/><path d="M82.139,3.627A73.558,73.558,0,0,0,74,29.434c-.154-.022-.308-.041-.465-.061a53.936,53.936,0,0,0-9.5-.159c-1.033.061-2.006.139-2.878.222C66.148,13.467,63.586.557,64.34.629A25.921,25.921,0,0,1,68.165.083C71.818-.191,77.374.061,81.6,3.2v0c.183.133.364.274.54.42" fill="#995405"/><path d="M64.419,28.616c-.037.085-.339.513-.381.6a23.433,23.433,0,0,0-3.144,1.056,6.061,6.061,0,0,0,.266-.834C66.149,13.467,63.586.557,64.341.629A25.89,25.89,0,0,1,68.165.083c.435,5.5,1.184,17.981-3.746,28.533" fill="#784000"/><path d="M262.6,94.6s-.029.592-.149,1.69c-1.294,11.9-13.213,83.3-114.041,104.749C78.074,216,43.287,189.022,27.047,159.789v0c-10.135-18.239-13.053-37.357-12.882-47.7a69.1,69.1,0,0,0-1.1-13.413c-.182-1.012-.387-2-.606-2.972C8.545,78.345-.692,67.831.041,67.494a27.464,27.464,0,0,1,3.229-2.54c3.215-2.2,8.463-4.926,14.026-4.284v0c.239.024.48.058.72.1a78.2,78.2,0,0,0,6.264,28.082c.007.017.015.036.023.053a64.235,64.235,0,0,0,3.543,7,57.649,57.649,0,0,0,5.087,7.333c14.964,18.292,56.142,41.882,84.78,39.081C186,135.638,234.725,96.521,251.63,89.364a18.245,18.245,0,0,1,2.5-.881s.082.012.23.046a12.7,12.7,0,0,1,4.167,1.865A14.287,14.287,0,0,1,262.6,94.6" fill="#fcd02f"/><path d="M254.36,88.529c-.356.6-.723,1.2-1.1,1.805-16.973,27.045-48.366,44.786-77.73,55.2-28,9.931-60.094,14.939-89.156,6.639C59.267,144.432,38.717,121.333,27.847,95.9a57.556,57.556,0,0,0,5.088,7.333c14.963,18.292,56.141,41.882,84.779,39.081C186,135.638,234.725,96.521,251.63,89.365a18.129,18.129,0,0,1,2.5-.882s.082.012.23.046" fill="#ffde51"/><path d="M262.6,94.6s-.029.592-.149,1.69c-4.34,39.621-34.1,72.309-68.779,89.449a192.273,192.273,0,0,1-45.262,15.3c-45.1,9.592-97.016,3.6-121.248-41.095,2.52,4.648,9.743,9.111,13.911,12.229a120.541,120.541,0,0,0,16.331,10.278c32.185,16.831,70.2,13.982,103.391,1.687,20.926-7.753,41.384-19,57.586-34.794,15.418-15.026,27.35-33.308,36.984-52.467q1.008-2.005,1.985-4.027.588-1.219,1.173-2.457A14.287,14.287,0,0,1,262.6,94.6" fill="#eabe1c"/><path d="M263.291,93.94a9.49,9.49,0,0,0-.854,2.516,54.1,54.1,0,0,0-4.643-3.267c-2.064-1.2-6.057-3.4-6.546-3.659a13.8,13.8,0,0,1,2.945-1.217,16.407,16.407,0,0,1,5.079,2.073,9.789,9.789,0,0,1,4.019,3.554" fill="#995405"/><path d="M18.017,60.771a78.2,78.2,0,0,0,6.264,28.082c-.154.062-.307.127-.461.192a57.368,57.368,0,0,0-8.828,4.916c-.918.607-1.771,1.2-2.53,1.738C8.545,78.346-.692,67.831.041,67.5a27.464,27.464,0,0,1,3.229-2.54c3.215-2.2,8.463-4.927,14.026-4.285v0c.239.025.48.059.72.1" fill="#995405"/><path d="M15.024,93.207c.011.1-.039.653-.032.753a24.846,24.846,0,0,0-2.331,2.647,6.37,6.37,0,0,0-.2-.909C8.545,78.345-.692,67.831.041,67.494a27.464,27.464,0,0,1,3.229-2.54C6.6,69.782,13.939,80.871,15.024,93.207" fill="#784000"/><path d="M48.242,198.678c3.229.028,8.805.419,8.814-4.459.008-4.644-6.44-3.8-9.785-3.8-2.117,0-4.243.093-6.371.253-2.248.17-3.1-.563-2.257-2.888,1.455-4.011,4.945-6.8,8.166-9.5,3.618-3.04,7.244-6.081,10.9-9.079,2.781-2.283,6.331-6.89,1.743-8.835-2.728-1.157-5.913,2.144-7.987,3.784-4.085,3.229-8.023,6.751-12.219,9.825,2.406-4,5.765-7.754,8.516-11.57,1.413-1.96,2.805-3.935,4.15-5.938,1.09-1.622,1.9-3.057.875-4.751-1.464-2.422-4.587-2.349-6.665-.15-2.269,2.4-4.035,5.411-6.025,8.033q-3.282,4.321-6.541,8.658c1.844-4.35,3.487-8.758,5.337-13.106,1.373-3.163,2.543-8.875-2.786-8.1-3.565.52-4.952,5.15-6.062,7.9q-1.5,3.725-3.028,7.441l-1.521,3.719a18.141,18.141,0,0,1-.944,2.253c-.152.266-.316.7-.685.689-.322-.007-.481-.339-.571-.6a12.205,12.205,0,0,1-.261-1.925c-.269-1.517-.556-3.029-.837-4.543-.377-2.027-.67-4.083-1.124-6.1a12.4,12.4,0,0,0-.937-2.846,2.672,2.672,0,0,0-3.055-1.706,3.126,3.126,0,0,0-2.258,2.518c-.878,5.761,1.065,11.689.527,17.53-.429,4.655-3.4,9.947-5.471,14.1-1.767,3.551-5.205,4.23-8.269,6.322C-3.256,195.125,4.231,207.957,6.8,208.8s5.494-.535,7.957-1.744c3.624-1.778,7.07-4.205,10.942-5.567,3.776-1.329,7.708-.725,11.593-1.311,3.65-.549,7.231-1.532,10.949-1.5" fill="#fff"/><path d="M207.279,191.039c-2.857-1.5-7.953-3.8-5.651-8.1,2.192-4.094,7.472-.3,10.417,1.289,1.863,1,3.692,2.09,5.491,3.24,1.9,1.214,3,.972,3.356-1.475.618-4.221-1.136-8.33-2.691-12.239-1.747-4.391-3.5-8.787-5.3-13.156-1.369-3.328-2.313-9.067,2.648-8.608,2.952.274,4.193,4.69,5.243,7.116,2.068,4.779,3.869,9.746,6.108,14.44-.225-4.661-1.4-9.559-2.02-14.223-.317-2.4-.607-4.794-.843-7.2-.192-1.945-.225-3.592,1.479-4.6,2.436-1.44,5.153.1,5.942,3.025.861,3.188.99,6.676,1.5,9.928.562,3.573,1.124,7.147,1.66,10.723.436-4.7,1.076-9.365,1.507-14.071.288-3.435,1.963-9.02,6.289-5.813,2.894,2.146,1.923,6.881,1.6,9.825q-.439,3.991-.857,7.988-.212,2-.422,4a18.368,18.368,0,0,0-.236,2.432c.009.306-.051.762.278.931.286.147.584-.07.788-.258a12.336,12.336,0,0,0,1.141-1.573c.955-1.209,1.924-2.4,2.889-3.6,1.292-1.607,2.523-3.279,3.876-4.836a12.369,12.369,0,0,1,2.173-2.062,2.672,2.672,0,0,1,3.5-.057,3.129,3.129,0,0,1,.8,3.287c-1.955,5.491-6.474,9.791-8.766,15.19-1.826,4.3-1.712,10.374-1.86,15.01-.126,3.965,2.581,6.192,4.289,9.485,2.711,5.227-9.96,12.982-12.623,12.507s-4.585-3.073-6.182-5.3c-2.35-3.282-4.235-7.052-7-10.086-2.7-2.958-6.444-4.289-9.59-6.644-2.953-2.213-5.642-4.774-8.932-6.507" fill="#fff"/></g></svg>