<svg xmlns="http://www.w3.org/2000/svg" xmlns:xlink="http://www.w3.org/1999/xlink" width="370.296" height="202.227" viewBox="0 0 370.296 202.227"><defs><clipPath id="a"><rect width="370.296" height="202.227" fill="none"/></clipPath></defs><g clip-path="url(#a)"><path d="M131.642,159.689c-6.028-18.88-18.863-34.651-28.362-51.795-7.371-13.3-9.075-28.9.813-43.61,10.315-15.348,28.1-19.879,33.762-39.187,2.69-9.169,10.71-32.4,22.714-22.829,35.876,28.6,55.267,75.913,65.893,123.889,1.389,6.273-3.964,14.182-10.936,16.252L142,164.242c-4.831,1.434-9.034-.406-10.358-4.553" fill="#0ea464"/><path d="M211.521,151.937c5.888-16.334,17.519-30.269,26.331-45.251,6.837-11.625-3.516-11.848-11.48-24.036-8.309-12.714-11.048-29.069-15.207-45.335-1.975-7.725-8.016-27.25-18.7-18.638-31.937,25.736-50.38,66.828-61.3,108.162-1.429,5.4,2.885,11.955,8.809,13.463l62.47,15.9c4.1,1.045,7.79-.681,9.083-4.269" fill="#0ea464"/><path d="M68.569,56.179c-.392-6.876,1.812-13.591,2.763-20.336.737-5.233,1.737-14.006-3.3-17.55-5.257-3.7-13.977.543-18.217-5.019C47.8,10.633,42.31,4.092,39.6,8.691c-8.085,13.743-8.494,31.508-5.976,48.4C33.957,59.3,36.678,61.2,39.2,61l26.576-2.059c1.746-.136,2.881-1.256,2.795-2.766" fill="#0ea464"/><path d="M363.765,113.567c-16.364,34.648-54.483,51.388-88.961,31.324-33.12-19.275-49.521-52.187-33.157-86.835s50.732-44.649,87.339-33.317c35.728,11.061,51.144,54.178,34.779,88.828" fill="#3d49a3"/><path d="M314.152,94.609,324.923,90.1a3.389,3.389,0,0,0,.745-5.824l-9.292-7.071a3.389,3.389,0,0,1-1.326-2.419l-.957-11.638a3.39,3.39,0,0,0-5.309-2.508l-9.6,6.654a3.391,3.391,0,0,1-2.71.513l-11.359-2.685a3.39,3.39,0,0,0-4.026,4.274l3.359,11.188a3.392,3.392,0,0,1-.35,2.736L278.029,93.3a3.389,3.389,0,0,0,2.82,5.149l11.681.264a3.385,3.385,0,0,1,2.493,1.177l7.613,8.847a3.39,3.39,0,0,0,5.769-1.092l3.856-11.026a3.388,3.388,0,0,1,1.891-2.008" fill="#28356e"/><path d="M311.535,89.079a11.7,11.7,0,1,1-5.581-15.569,11.7,11.7,0,0,1,5.581,15.569" fill="#13204e"/><path d="M83.535,110.19c-22.716,16.492-51.139,14.062-69.78-5.371-19.684-20.52-18-50.26,3.489-68.885S65.059,20.811,86.52,39.466c20.946,18.208,20.026,54.018-2.985,70.724" fill="#3d49a3"/><path d="M54.588,80.065l8.663.165A2.515,2.515,0,0,0,65.5,76.5l-4.191-7.583a2.518,2.518,0,0,1-.176-2.04l2.835-8.188A2.515,2.515,0,0,0,61.114,55.4L52.6,57.038a2.514,2.514,0,0,1-1.993-.464L43.7,51.35a2.515,2.515,0,0,0-4.013,1.7l-1.069,8.6A2.515,2.515,0,0,1,37.56,63.4l-7.105,4.957a2.516,2.516,0,0,0,.372,4.341l7.853,3.677a2.518,2.518,0,0,1,1.34,1.546l2.52,8.286a2.515,2.515,0,0,0,4.244.986L52.7,80.862a2.513,2.513,0,0,1,1.885-.8" fill="#28356e"/><path d="M54.467,75.527a8.68,8.68,0,1,1,.872-12.242,8.682,8.682,0,0,1-.872,12.242" fill="#13204e"/><path d="M251.032,142.452c-15.492,47.437-62.4,70.473-109.837,54.982s-72.5-59.353-57-106.79,61.337-67.232,108.777-51.738,73.557,56.106,58.064,103.546" fill="#535dbe"/><path d="M185.936,117.872,197.5,108a4.414,4.414,0,0,0-1.393-7.519l-14.335-5.073a4.418,4.418,0,0,1-2.606-2.473L173.35,78.883a4.414,4.414,0,0,0-7.581-1l-9.263,12.071a4.416,4.416,0,0,1-3.157,1.714l-15.155,1.189a4.414,4.414,0,0,0-3.293,6.9l8.616,12.538a4.413,4.413,0,0,1,.654,3.532l-3.554,14.784a4.415,4.415,0,0,0,5.546,5.264l14.591-4.319a4.414,4.414,0,0,1,3.56.469l12.96,7.943a4.414,4.414,0,0,0,6.719-3.649l.4-15.206a4.416,4.416,0,0,1,1.547-3.243" fill="#28356e"/><path d="M179.815,111.966a14.552,14.552,0,1,1-12.526-16.322,14.555,14.555,0,0,1,12.526,16.322" fill="#13204e"/><path d="M258.213,51.979c-.362,3.208-.647,8.791-5.489,8.211-4.612-.552-3-6.85-2.59-10.171.257-2.1.6-4.2,1.02-6.294.439-2.211-.186-3.145-2.6-2.589-4.157.961-7.346,4.089-10.421,6.96-3.455,3.225-6.911,6.457-10.327,9.72-2.6,2.486-7.6,5.454-8.982.665-.819-2.848,2.843-5.611,4.721-7.472,3.7-3.665,7.67-7.15,11.227-10.944-4.26,1.905-8.393,4.787-12.513,7.057-2.116,1.167-4.245,2.31-6.4,3.4-1.742.886-3.264,1.517-4.822.295-2.228-1.745-1.778-4.837.656-6.635,2.656-1.962,5.858-3.352,8.7-5.012q4.684-2.736,9.383-5.448c-4.54,1.306-9.114,2.4-13.654,3.717-3.3.981-9.117,1.454-7.7-3.743.946-3.476,5.709-4.3,8.57-5.065q3.878-1.042,7.751-2.108l3.876-1.061a18.389,18.389,0,0,0,2.35-.665c.282-.119.729-.23.766-.6.033-.321-.277-.519-.527-.64a12.254,12.254,0,0,0-1.88-.491c-1.473-.45-2.939-.917-4.408-1.379-1.967-.619-3.973-1.158-5.915-1.851a12.392,12.392,0,0,1-2.712-1.274,2.672,2.672,0,0,1-1.326-3.239,3.128,3.128,0,0,1,2.773-1.936c5.825-.177,11.474,2.467,17.338,2.637,4.673.135,10.286-2.18,14.658-3.73,3.739-1.325,4.828-4.657,7.273-7.446,3.883-4.427,15.717,4.554,16.244,7.207s-1.194,5.389-2.691,7.688c-2.2,3.383-5.028,6.511-6.847,10.191-1.775,3.588-1.65,7.564-2.7,11.35-.986,3.557-2.393,6.993-2.81,10.688" fill="#fff"/><path d="M93.811,144.517c2.471-2.078,6.961-5.408,3.8-9.119-3.015-3.533-7.364,1.3-9.9,3.478-1.606,1.378-3.162,2.83-4.674,4.336-1.6,1.591-2.722,1.588-3.593-.726-1.5-3.993-.665-8.381.021-12.532.772-4.662,1.548-9.33,2.373-13.982.628-3.543.328-9.352-4.422-7.846-2.825.9-3.1,5.475-3.606,8.069-1,5.11-1.705,10.347-2.892,15.41-.774-4.6-.664-9.639-1.056-14.327-.2-2.408-.428-4.814-.709-7.21-.227-1.941-.545-3.557-2.425-4.178-2.687-.888-5.012,1.2-5.161,4.221-.162,3.3.455,6.734.647,10.021.212,3.611.424,7.222.663,10.83-1.428-4.5-3.047-8.921-4.47-13.427-1.014-3.3-3.84-8.4-7.383-4.34-2.371,2.713-.413,7.133.531,9.941q1.278,3.805,2.538,7.621l1.263,3.814A18.314,18.314,0,0,1,56.1,136.9c.057.3.212.734-.073.968-.249.205-.586.056-.825-.084a12.258,12.258,0,0,1-1.45-1.293c-1.191-.978-2.392-1.939-3.59-2.906-1.6-1.295-3.164-2.667-4.818-3.9a12.384,12.384,0,0,0-2.562-1.553,2.672,2.672,0,0,0-3.431.691,3.126,3.126,0,0,0-.077,3.381c3.08,4.947,8.41,8.186,11.8,12.974,2.7,3.815,3.883,9.771,5.015,14.269.968,3.847-1.2,6.6-2.17,10.18-1.536,5.685,12.5,10.563,15,9.531s3.825-3.978,4.91-6.5c1.6-3.708,2.635-7.793,4.691-11.346,2-3.465,5.383-5.563,7.955-8.535,2.414-2.791,4.5-5.866,7.341-8.26" fill="#fff"/></g></svg>