<svg xmlns="http://www.w3.org/2000/svg" xmlns:xlink="http://www.w3.org/1999/xlink" width="337.883" height="171.334" viewBox="0 0 337.883 171.334"><defs><clipPath id="a"><rect width="337.883" height="171.334" fill="none"/></clipPath></defs><g clip-path="url(#a)"><path d="M275.441,88.477c2.584-12.438,2.4-25.332-2.623-36.11C267.882,41.774,252,41.4,240.059,36.843a159.831,159.831,0,0,0-74.1-9.24C138.739,30.666,112.847,40.761,90.7,55.009c-12.587,8.1-24.116,17.563-37.7,24.292-5.179,2.564-10.654,4.729-15.385,7.891-5.432,3.631-10.225,6.8-13.76,11.931-8.88,12.888-12.925,30.09-9.923,44.925.709,3.5,1.387,7.749,4.851,9.586,5.658,3,7.817,2.959,11.649.763a4.93,4.93,0,0,0,2.535-3.644c-.014,5.3,5.887,12.466,12.142,14.683a112.267,112.267,0,0,0,34.839,5.9c17.21.016,36.52-5.237,53.717-3.787,37.293,3.143,85.951.7,116.719-20.983,12.588-8.871,16.93-22.286,20.772-35.519,1.8-6.192,2.96-16.151,4.293-22.568" fill="#f9c7a5"/><path d="M35.753,135.55c.2-1.608,3.631-4.362,3.631-4.362,10.06,1.988,20.494-1.205,29.731-5.234A143.887,143.887,0,0,0,99.35,108.172c7.971-6.138,15.368-13.415,18.345-22.356a4.566,4.566,0,0,0,.143-3.44c-1.1-2.246-4.691-2.239-7.411-1.733-21.064,3.919-39.307,15.063-57,25.854-10.784,6.579-22.153,13.7-27.148,24.376-3.133,6.7-3.7,14.91-3.538,22.149.1,4.219,4.423,3.178,7.679,1.375,3.275-1.813,2.669-5.719,2.952-9.051.335-3.947,1.956-6.392,2.378-9.8" fill="#b54f37"/><path d="M276.531,80.1c2.144-13.616-1.741-27.123-9.89-38.759-8.6-12.277-21.14-22.187-35.688-28.773C216.3,5.934,199.839,2.341,183.511.8A183.193,183.193,0,0,0,137.33,2.318,172.348,172.348,0,0,0,93.395,15.461,97.43,97.43,0,0,0,73.507,27.134,71.884,71.884,0,0,0,58.325,44.149c-4.538,6.786-8.717,13.768-13.03,20.666L31.846,86.325Q28.54,91.612,25.237,96.9A97.076,97.076,0,0,0,19.3,107.214c-2.822,6.07-5.908,12.4-1.713,18.226a15.429,15.429,0,0,0,5.38,4.58c4.291,2.178,9.71-1.615,13.416-3.332a153.921,153.921,0,0,0,14.894-7.776c6.623-4,12.978-8.33,19.495-12.461,2.474-1.568,4.972-3.108,7.515-4.59,1.347-.785,2.708-1.552,4.072-2.316,11.379-6.3,23.335-11.853,34.031-19.066,2.246-1.514,4.431-3.1,6.531-4.766,3.78-3,7.291-6.28,11.325-9.016a29.6,29.6,0,0,1,13.78-5.4c3.145-.28,7.105.716,7.644,3.454.445,2.257-1.748,4.211-3.874,5.535-8.142,5.071-18,7.424-27.217,10.776-24.941,9.071-45.474,25.259-67.35,38.747-3.963,2.444-7.908,4.91-11.88,7.341-3.429,2.1-7.431,4.108-9.243,7.592a4.05,4.05,0,0,0-.378,3.35c.556,1.377,1.973,2.041,3.478,2.454a102.029,102.029,0,0,0,24.537,3.239c17.733.416,41.121-2.972,58.846-3.458,33.7-.924,60.316,2.158,92.824-7,14.513-4.089,28.99-9.574,40.431-18.64A55.45,55.45,0,0,0,276.531,80.1" fill="#f37047"/><path d="M149.031,77.9a50.841,50.841,0,0,0,7.592-5.975c.216-.2.425-.407.639-.609a15.9,15.9,0,0,0,1.831-3.276,8.21,8.21,0,0,0,.566-4.728,4.992,4.992,0,0,0-.741-1.974,4.369,4.369,0,0,0-1.479-1.284A10.7,10.7,0,0,0,152.777,59a33.72,33.72,0,0,0-5.924.361c-3.531.481-6.973,1.315-10.426,2.1a62.1,62.1,0,0,0-9.911,4.418A58.314,58.314,0,0,0,113,76.183a48.792,48.792,0,0,0-5.211,6.331c-.763,1.108-1.8,2.449-1.333,3.808a3.235,3.235,0,0,0,2.86,1.841,13.423,13.423,0,0,0,4.409-.4q2.86-.562,5.717-1.131c3.616-.721,7.233-1.44,10.84-2.194,6.557-1.37,13.2-3.039,18.752-6.53" fill="#f9c7a5"/><path d="M143.808,74.514q.613-.371,1.2-.777c2.722-1.9,7.39-6.11,3.693-9.049a4.667,4.667,0,0,0-2.422-.869c-5.75-.578-12.019,1.744-16.543,4.33A32.889,32.889,0,0,0,122,74.212c-1.06,1.135-6.038,5.739-2.4,6.778a4.548,4.548,0,0,0,1.63.082c3.943-.343,8.051-1.63,11.84-2.547a38.11,38.11,0,0,0,10.731-4.011" fill="#b54f37"/><path d="M281.388,113.195c1.352-1.126,4.2-3.122,4.893-3.657a77.02,77.02,0,0,0,9.062-8.167,47.8,47.8,0,0,0,3.358-4.12c1.73-2.132,3.891-4.8,6.386-5.957a.256.256,0,0,1,.233.046.922.922,0,0,1,.918.57l.086.235a.978.978,0,0,1-.772,1.3c-.95,1.257-.822,3.617-1.091,4.979-.414,2.077-1.109,4.144-1.7,6.178-1.2,4.189-1.845,7.811-5.677,10.337-1.6,1.051-3.6,1.587-5.32,2.432a57.469,57.469,0,0,1-5.254,2.374,7.543,7.543,0,0,1-8.255-1.569c-1.622-1.488,1.325-3.474,3.131-4.979" fill="#ffffef"/><path d="M336.569,109.278c.026-2.265-.037-4.53-.206-6.786-.334-4.464-1.337-8.841-1.716-13.3a59.325,59.325,0,0,0-1.755-9.427,75.15,75.15,0,0,0-2.5-9.285c-.651-1.63-1.328-3.666-2.829-4.709-.3-.207-1.148-.1-1.208-.171-.3-.362-4.877,6.08-8.239,10.861a60.527,60.527,0,0,1-5.075,6.155c-1.791,1.937-3.746,3.749-5.64,5.587-3.306,3.2-6.964,6.484-9.43,10.38-1.042,1.644-.708,4.459-1.288,6.334-.19.614-.394,1.214-.582,1.817a11.778,11.778,0,0,1-3.45,3.461,13.769,13.769,0,0,1-6.045,2.39c-.948.108-1.9-.229-2.812-.1a8.588,8.588,0,0,0-2.407.713c-3.294,1.508-6.126,3.811-9.1,5.837-3.144,2.14-6.422,4.116-9.642,6.142q-3.615,2.274-7.267,4.492c-2.191,1.325-4.772,2.273-6.806,3.811-1.261.956-4.307,2.524-4.217,2.818a.416.416,0,0,1,.022.094c-1.282,7.275,2.107,14.952,4.565,21.724,1.3,3.585,2.7,4.712,6.071,6.4,3.693,1.853,7.5,3.626,11.575,4.2a89.376,89.376,0,0,0,14.012.685,37.114,37.114,0,0,0,6.427-.73,43.865,43.865,0,0,0,10.566-1.822c5.268-1.581,10.283-3.071,15.128-5.786a45.542,45.542,0,0,0,12.267-10.536c5.885-7.38,6.487-11.036,8.611-17.8,2.312-7.363,2.884-15.77,2.971-23.445" fill="#f4df78"/><path d="M336.016,128.439c1.867-8.078,2.1-16.513,1.707-24.775a110.38,110.38,0,0,0-4.36-24.386c-1.131-4.036-2.264-9.973-5.3-13.069-2.789-2.84-5.542,4.165-6.7,5.655.951-.77,1.474-1.6,2.626-2.068,1.322-.535,2.375,2.5,2.7,3.24.681,1.507,1.348,2.795.48,4.347a2.98,2.98,0,0,1-.446.659c-1.142,1.442-3.081,2.49-4.473,3.533-5.1,3.835-25.659,22.31-25.772,22.8,3.09-1.438,6.069-4.121,8.619-6.223,3.373-2.777,6.5-5.829,9.846-8.64a67.061,67.061,0,0,1,7-5.163c1.729-1.112,4-2.566,6.15-2.277,1.982.26,2.67,2.531,3.007,4.2a71.4,71.4,0,0,1,1.026,9.086c.177,2.458.721,5.249-1.558,6.948-1.312.979-3.048.979-4.612,1.008-1.889.036-3.78.164-5.668.273-4.836.281-9.68.564-14.506.963-3.137.259-8.229.924-11.334.977,0,0,8.014.184,8.706.195,5.791.092,11.668-.486,17.457-.748,2.655,0,5.244-.311,7.9-.087,2.535.217,3.5,1.014,3.927,3.44.5,2.845-.177,5.758-.579,8.57-.3,2.054-.308,5.048-2.55,6-1.493.637-3.283-.146-4.713-.639q-2.7-.928-5.341-1.991a124.072,124.072,0,0,1-11.978-5.521c-2.612-1.381-5.077-3.021-7.7-4.393-1.484-.776-3.637-2.106-5.018-3.018-.258.3,4.752,3.863,7.606,5.65A121.153,121.153,0,0,0,315,119.389a108.24,108.24,0,0,1,10.979,5.4c2.652,1.605,2.98,4.223,2.049,7.013a48.177,48.177,0,0,1-3.915,8.158,20.531,20.531,0,0,1-3.985,5.466c-1.358,1.2-2.89,1.7-4.261.27a11.192,11.192,0,0,1-1.957-3.72,54.776,54.776,0,0,0-2.841-6.02,142.458,142.458,0,0,0-9.135-14.256c-2.834-4-9.237-12.532-9.434-12.392a45.616,45.616,0,0,1,3.522,5.134l.665.959c1.89,2.646,3.782,5.307,5.507,8.042,2.386,3.784,4.645,7.677,6.932,11.52a69.731,69.731,0,0,1,4.8,9.511c.807,2.006,1.594,4.69,0,6.513-1.791,2.04-5.048,2.591-7.505,3.453a25.569,25.569,0,0,1-7,1.736c-2.067.117-3.257-.7-3.683-2.726a25.775,25.775,0,0,1-.293-4.148c-.079-1.737-.235-3.479-.331-5.214q-.333-5.933-.675-11.867a98.232,98.232,0,0,0-1.6-11.946c-.57-3.123-2.583-9.848-3.044-9.646.17.521.7,2,.85,2.525a49.568,49.568,0,0,1,1.086,6.441,125.639,125.639,0,0,1,1.6,13.02c.211,4.618.126,9.277.51,13.88a33.038,33.038,0,0,1,.346,5.855,2.463,2.463,0,0,1-1.363,2.282,7.65,7.65,0,0,1-3.346.131,29.14,29.14,0,0,1-6.026-.821c-2.661-.717-5.5-1.334-7.7-3.089-2.329-1.859-1.861-4.636-1.043-7.157,1.235-3.8,2.945-7.483,4.371-11.213,1.3-3.393,3-6.614,4.358-9.981,1.159-2.876,2.253-6.146,3.433-9.275.054-.144.208-1.487.074-1.413a9.333,9.333,0,0,0-.641,1c-1.256,2.548-2.359,5.168-3.528,7.756a16.353,16.353,0,0,0-1.143,2.436q-.625,1.286-1.279,2.557c-.852,1.66-1.737,3.3-2.532,4.989-1.9,4.038-3.445,8.259-5.132,12.386-.8,1.95-1.9,4.21-4.383,4.02-2.308-.174-4.342-1.737-6.1-3.115-3.484-2.735-7.506-4.943-10.382-8.379a3.555,3.555,0,0,1-.8-3.51c-.206.1-2.276,1.189-2.715,1.4a34.722,34.722,0,0,0-3.493,1.819,1.253,1.253,0,0,0-.45,1.115.429.429,0,0,1,.022.094c-1.282,7.276,2.013,14.341,4.471,21.113,1.3,3.585,3.076,4.622,6.451,6.314,3.693,1.852,7.217,4.328,11.289,4.9a89.377,89.377,0,0,0,14.012.685,37.017,37.017,0,0,0,6.427-.731,43.864,43.864,0,0,0,10.566-1.821c5.268-1.582,10.283-3.071,15.128-5.787,4.478-2.514,7.73-5.864,11.1-9.63a51.375,51.375,0,0,0,10.127-16.044,56.322,56.322,0,0,0,2.072-6.949" fill="#ffffef"/><path d="M244.27,135.806a1.67,1.67,0,0,1,1.345-.91c.9-.1,1.481.806,1.986,1.4.868,1.018,1.721,2.038,2.655,2.994s1.884,1.877,2.871,2.767a73.981,73.981,0,0,0,9.754,7.431c12.077,7.713,30.206,15.751,44.736,11.613,8.6-2.448,16.24-9.267,21.475-16.306a45.688,45.688,0,0,1-7.381,9.651c-9.2,8.777-21.547,13.4-34.049,14.77a81.474,81.474,0,0,1-18.871-.206c-6.008-.746-12.8-1.529-17.584-5.613-4.267-3.645-5.862-9.63-6.671-14.96a43.148,43.148,0,0,1-.6-11.527,3.109,3.109,0,0,1,.33-1.1" fill="#ffce00"/><path d="M188.561,118.395c.1-.177-.038-.389-.17-.5a18.693,18.693,0,0,0-7.633-3.64,63.858,63.858,0,0,0-9.077-1.379q-2.133-.216-4.273-.328A120.677,120.677,0,0,0,178.3,106.9a73.4,73.4,0,0,0,10.575-7.325,28.394,28.394,0,0,0,4.158-4.421,9.219,9.219,0,0,0,1.469-2.423c.25-.725.4-1.94-.445-2.349a1.267,1.267,0,0,0-1.27.269,15.046,15.046,0,0,0-1.264.911,30.6,30.6,0,0,0-2.389,2.194c-1.523,1.513-3.064,3-4.691,4.4a91.338,91.338,0,0,1-10.383,7.672c-.451.289-.917.556-1.381.824-.132.077-.015.229.108.25a46.65,46.65,0,0,1-4.959,2.29,37.576,37.576,0,0,0-4.241,1.88,13.011,13.011,0,0,0-1.932,1.245,1.509,1.509,0,0,0-.636,1.64,2.6,2.6,0,0,0,1.4,1.392,11.424,11.424,0,0,0,2.067.728,38.811,38.811,0,0,0,4.474.837c3.25.487,6.506.924,9.765,1.338q2.733.348,5.468.68a21.1,21.1,0,0,0,2.579.274,1.914,1.914,0,0,0,1.789-.815" fill="#376e34"/><path d="M195.559,115.069a1.806,1.806,0,0,0,1.514-.738c.362-.724-.332-1.358-.934-1.625a13.106,13.106,0,0,0-2.333-.669q-1.239-.287-2.5-.476a39.185,39.185,0,0,0-5.005-.4c-1.972-.039-3.94.039-5.906.173,2.972-.653,5.969-1.2,8.948-1.814a65.7,65.7,0,0,0,12.931-3.784,29.739,29.739,0,0,0,5.753-3.16,1.64,1.64,0,0,0,.72-.97,1.149,1.149,0,0,0-.442-1.062,3.931,3.931,0,0,0-2.841-.385,29.124,29.124,0,0,0-6.572,1.6c-2.222.75-4.438,1.51-6.678,2.2-3.036.942-6.1,1.793-9.179,2.574q1.6-.607,3.175-1.266a58.261,58.261,0,0,0,8.575-4.361c.989-.622,3.106-1.722,2.381-3.222a.64.64,0,0,0-.624-.367c-4.42.716-8.226,3.273-12.132,5.295a106.774,106.774,0,0,1-12.3,5.407c-2.356.864-4.729,1.679-7.145,2.359-.1.029-.134.094-.118.166-2.57.64-5.209,1.023-7.825,1.421-2.118.323-4.237.658-6.324,1.15-1.012.239-2.016.51-3,.836a13.852,13.852,0,0,0-2.822,1.144,1.311,1.311,0,0,0-.684.915,1.7,1.7,0,0,0,.437,1.23,4.03,4.03,0,0,0,2.249,1.261,27.515,27.515,0,0,0,6.026.6c4.158.059,8.311-.393,12.469-.217,2.205.093,4.4.328,6.6.537,1.078.1,2.156.2,3.236.268a7.806,7.806,0,0,0,2.848-.056,1.352,1.352,0,0,0,.827-.694c.106-.226-.05-.419-.229-.547a13.508,13.508,0,0,0-5.588-2.209q8.343-.389,16.683-.823c1.935-.1,3.883-.14,5.813-.3" fill="#7ab43f"/><path d="M175.352,121.754c2.158.44,4.328.829,6.516,1.1a.349.349,0,0,0,.374-.506c-1.456-2.418-4.131-3.625-6.663-4.6a43.062,43.062,0,0,0-8.416-2.3l-.013,0,4.254-.231c2.942-.16,5.895-.28,8.824-.621a42.229,42.229,0,0,0,4.92-.85c.4-.1.295-.576-.028-.713-4.785-2.036-9.974-.965-14.931-.258,2.745-.646,5.472-1.365,8.17-2.19,2.222-.679,4.425-1.425,6.593-2.263q1.6-.618,3.174-1.3a21.9,21.9,0,0,0,2.853-1.43,10.52,10.52,0,0,0,1.244-.893,3.738,3.738,0,0,0,.966-1.067,1.03,1.03,0,0,0-.2-1.279,1.672,1.672,0,0,0-1.292-.354,9.66,9.66,0,0,0-3.172.98c-1.032.47-2.058.953-3.1,1.41a126.606,126.606,0,0,1-13,4.832q-3.663,1.153-7.392,2.113c1.67-.668,3.317-1.4,4.927-2.2a62.032,62.032,0,0,0,5.666-3.183,15.74,15.74,0,0,0,2.254-1.673,6.178,6.178,0,0,0,1.651-2.175,1.553,1.553,0,0,0,.026-1.22,1.333,1.333,0,0,0-1.032-.716,4.017,4.017,0,0,0-2.328.876c-1.948,1.1-3.9,2.181-5.879,3.214a122.987,122.987,0,0,1-14.77,6.694c-5.151,1.873-10.435,2.837-15.756,4.059a59.673,59.673,0,0,0-6.571,1.852.361.361,0,0,0-.153.505.716.716,0,0,0,.59.372,68.558,68.558,0,0,1,25.356,5.495,28.07,28.07,0,0,0,7.021,2.325.372.372,0,0,0,.319-.634c-2.819-3.12-6.707-4.868-10.618-6.2-.313-.106-.628-.206-.944-.309a52.864,52.864,0,0,1,9.153.948c3.823.692,7.594,1.625,11.4,2.4" fill="#3e7732"/><path d="M168.223,129.066a5.935,5.935,0,0,0-2.325-2.679,29.949,29.949,0,0,0-7.207-3.718,77.113,77.113,0,0,0-7.809-2.52,69.879,69.879,0,0,0-9.458-1.827c-1.5-.3-3.009-.545-4.527-.713,1.4-.111,2.8-.281,4.19-.454q1.077-.135,2.153-.287c1.47-.037,2.941-.032,4.41.005,4.878.122,9.742.556,14.612.833a33.768,33.768,0,0,0,3.907.132A3.239,3.239,0,0,0,169,116.432c.158-.287-.192-.572-.425-.641a38.14,38.14,0,0,0-12.97-1.257c-3.979.22-7.915.828-11.85,1.434-1,.016-1.992.046-2.988.1q-1.352.078-2.7.217l.416-.129q3.707-1.17,7.375-2.455,3.687-1.3,7.336-2.7a37.627,37.627,0,0,0,6.82-3.137,12.516,12.516,0,0,0,2.676-2.2c.613-.692,1.385-1.734.567-2.587a2.153,2.153,0,0,0-2.452-.195,14.119,14.119,0,0,0-2.847,2.021c-.937.771-1.876,1.533-2.882,2.213A34.149,34.149,0,0,1,152,108.948a61.709,61.709,0,0,1-6.671,2.982c-2.343.911-4.707,1.775-7.072,2.629q-2,.722-4.011,1.4l-.5.115c-.893.2-1.8.365-2.7.511a46.465,46.465,0,0,1-5.282.469c-3.617.165-7.243.218-10.863.2-.9,0-1.792-.01-2.687-.024q-.649-.009-1.3-.024c-.389-.009-.938-.135-1.269.116-1.063.807-.329,2.443.56,3.028,1.382.909,3.183.373,4.687.141,1.808-.279,3.622-.517,5.436-.751,2.06-.266,4.124-.5,6.19-.714q.9-.093,1.795-.193a.863.863,0,0,0,.484.137,44.227,44.227,0,0,1,15.9,2.182c2.624.778,5.228,1.645,7.8,2.577a28.541,28.541,0,0,1,7.419,3.759c1.175.871,2.274,1.835,3.393,2.775a4.241,4.241,0,0,0,3.4,1.312,1.878,1.878,0,0,0,1.509-2.5" fill="#7ab43f"/><path d="M44.256,117.974c2.973,1.258,7.979,3.748,9.848-.757,1.78-4.289-4.5-5.971-7.594-7.246-1.957-.806-3.957-1.533-5.985-2.2-2.143-.7-2.65-1.7-.984-3.531,2.876-3.152,7.166-4.4,11.176-5.668,4.505-1.429,9.017-2.857,13.536-4.233,3.442-1.048,8.482-3.951,4.984-7.5-2.08-2.111-6.284-.275-8.827.449-5.008,1.425-9.993,3.177-15.044,4.417,3.75-2.778,8.288-4.966,12.287-7.443,2.055-1.272,4.1-2.567,6.1-3.9,1.627-1.083,2.923-2.1,2.623-4.057-.429-2.8-3.344-3.922-6.1-2.683-3.012,1.354-5.794,3.462-8.634,5.125q-4.683,2.742-9.35,5.507c3.364-3.317,6.566-6.765,9.935-10.077,2.476-2.4,5.738-7.233.516-8.55-3.493-.88-6.543,2.87-8.617,4.985q-2.81,2.868-5.638,5.722L35.66,79.188a18.28,18.28,0,0,1-1.732,1.722c-.243.188-.558.522-.9.375-.3-.129-.316-.5-.3-.774a12.283,12.283,0,0,1,.493-1.879c.331-1.5.643-3.011.961-4.517.425-2.019.939-4.03,1.287-6.064a12.332,12.332,0,0,0,.22-2.987,2.673,2.673,0,0,0-2.172-2.744,3.126,3.126,0,0,0-3.048,1.466C27.463,68.776,27,75,24.27,80.189c-2.174,4.139-6.944,7.9-10.439,10.945-2.989,2.609-6.426,1.925-10.056,2.688-5.762,1.213-3.74,15.929-1.685,17.69s5.281,1.6,8.019,1.426c4.028-.261,8.14-1.188,12.239-.97,4,.213,7.4,2.271,11.216,3.214,3.582.884,7.268,1.343,10.692,2.792" fill="#fff"/><path d="M276.623,65.785c-2.918,1.381-7.815,4.079-9.871-.345-1.958-4.211,4.247-6.154,7.285-7.556,1.922-.887,3.889-1.7,5.888-2.446,2.112-.79,2.577-1.812.835-3.569-3-3.029-7.343-4.093-11.4-5.2-4.56-1.241-9.127-2.478-13.7-3.665-3.483-.9-8.64-3.593-5.293-7.285,1.99-2.2,6.267-.537,8.838.08,5.063,1.215,10.117,2.756,15.215,3.784-3.862-2.618-8.488-4.616-12.587-6.924-2.106-1.186-4.2-2.393-6.26-3.645-1.671-1.015-3.008-1.978-2.79-3.944.312-2.814,3.177-4.058,5.987-2.935,3.066,1.224,5.933,3.216,8.841,4.759q4.793,2.542,9.572,5.11c-3.5-3.173-6.843-6.484-10.348-9.653-2.574-2.293-6.035-6.986-.872-8.52,3.453-1.026,6.657,2.6,8.817,4.621q2.928,2.748,5.873,5.482l2.942,2.736a18.017,18.017,0,0,0,1.8,1.648c.25.177.579.5.911.338.289-.141.294-.51.266-.786A12.209,12.209,0,0,0,286,26.018c-.393-1.491-.767-2.982-1.148-4.474-.509-2-1.107-3.987-1.539-6a12.4,12.4,0,0,1-.345-2.977,2.674,2.674,0,0,1,2.056-2.832,3.126,3.126,0,0,1,3.106,1.339c3.217,4.86,3.943,11.054,6.884,16.13,2.345,4.043,7.268,7.6,10.887,10.5,3.1,2.481,6.5,1.653,10.159,2.265,5.808.97,4.4,15.759,2.423,17.6s-5.21,1.821-7.953,1.759c-4.036-.092-8.183-.848-12.269-.458-3.985.382-7.3,2.58-11.072,3.68-3.542,1.033-7.2,1.647-10.566,3.236" fill="#fff"/></g></svg>