<svg xmlns="http://www.w3.org/2000/svg" xmlns:xlink="http://www.w3.org/1999/xlink" width="298.447" height="180.473" viewBox="0 0 298.447 180.473"><defs><clipPath id="a"><rect width="298.447" height="180.473" fill="none"/></clipPath><clipPath id="c"><path d="M151.671,41.517l-4.777,1.228-7.791-.6c-4.818-.371-9.264.145-10.4,1.207l-1.839,1.716-7.447.19c-4.605.117-7.389,1.085-6.512,2.265l1.417,1.908-5.814.946c-3.6.585-4.236,1.839-1.5,2.932l4.428,1.77-3.177,1.539c-1.965.951-.351,2.273,3.776,3.092l6.673,1.326.01,1.864c.006,1.154,3.6,2.315,8.4,2.718l7.765.652,3.2,1.869c1.976,1.157,6.919,1.957,11.565,1.874l7.513-.135,5.829,1.55a36.058,36.058,0,0,0,12.733.706l5.963-.9,7.453.963c4.609.6,9.611.346,11.7-.585l3.382-1.5,7.789.209c4.817.13,8.512-.629,8.645-1.774l.216-1.854,6.779-.58c4.192-.359,5.942-1.494,4.094-2.657l-2.988-1.88,4.6-1.27c2.842-.785,2.344-2.1-1.165-3.08l-5.674-1.582,1.618-1.74c1-1.075-1.658-2.345-6.222-2.97l-7.38-1.01-1.638-1.909c-1.013-1.181-5.375-2.184-10.2-2.347l-7.81-.264-4.612-1.748c-2.852-1.081-8.161-1.644-12.421-1.318l-6.889.528-6.788-1.285a38.307,38.307,0,0,0-6.9-.614,23.844,23.844,0,0,0-5.591.553" fill="none"/></clipPath><linearGradient id="d" x1="-3.857" y1="1.426" x2="-3.831" y2="1.426" gradientUnits="objectBoundingBox"><stop offset="0" stop-color="#ffae47"/><stop offset="0.966" stop-color="#ff9537"/><stop offset="1" stop-color="#ff9537"/></linearGradient><clipPath id="f"><path d="M116.239,34.4S153.9,59.184,224.476,42.832c0,0-26.522-16.1-64.186-16.1A129.859,129.859,0,0,0,116.239,34.4" fill="none"/></clipPath><linearGradient id="g" x1="-3.938" y1="1.751" x2="-3.912" y2="1.751" gradientUnits="objectBoundingBox"><stop offset="0" stop-color="#ffeed2"/><stop offset="1" stop-color="#ffe0d8"/></linearGradient><clipPath id="i"><path d="M66.262,24.993C28.108,28.573,18.044,47.91,18.044,47.91s23.921,22.5,62.291,25.52,56.484-33.347,56.484-33.347S109.837,24.538,76.127,24.537c-3.234,0-6.526.143-9.865.456" fill="none"/></clipPath><radialGradient id="j" cx="0.631" cy="0.308" r="0.759" gradientTransform="translate(-0.208 5.625) rotate(180) scale(0.466 1)" gradientUnits="objectBoundingBox"><stop offset="0" stop-color="#939500"/><stop offset="0.966" stop-color="#6b8100"/><stop offset="1" stop-color="#6b8100"/></radialGradient><clipPath id="k"><path d="M62.269,86.594c-15.57,29.355,25.885,85.6,78.458,68.994l-1.34-115.6C134.574,54.5,77.839,57.238,62.269,86.594" fill="none"/></clipPath><linearGradient id="l" x1="-0.449" y1="1.048" x2="-0.439" y2="1.048" gradientUnits="objectBoundingBox"><stop offset="0" stop-color="#7c9500"/><stop offset="0.034" stop-color="#7c9500"/><stop offset="1" stop-color="#939500"/></linearGradient><clipPath id="m"><path d="M16.96,43.908a1.789,1.789,0,0,0-.649,1.6c.427,3.272,4.167,13.181,33.921,12.066,35.573-1.332,66.718,9.618,69.653,21.636,0,0-1.765-10.166-13.6-17.733C96.7,55.349,48.911,53.277,28.692,49.3a4.992,4.992,0,0,1-1.959-8.946c39.619-29.166,96.111-7.993,105.994-1.62a1.794,1.794,0,0,1,.33,2.761,33.228,33.228,0,0,1-10.151,7,133.219,133.219,0,0,1-22.6,7.144,1.8,1.8,0,1,0,.962,3.455c2.3-.77,12.933-4.32,22.639-7.49,8.772-2.865,13.183-7.313,14.781-9.993a1.778,1.778,0,0,0-.637-2.435c-5.892-3.493-30.7-17.036-60.99-17.037-18.985,0-40.119,5.318-60.106,21.769" fill="none"/></clipPath><radialGradient id="n" cx="0.628" cy="0.431" r="0.577" gradientTransform="translate(-0.189 6.483) rotate(180) scale(0.578 1.739)" gradientUnits="objectBoundingBox"><stop offset="0" stop-color="#bdd800"/><stop offset="0.034" stop-color="#bdd800"/><stop offset="1" stop-color="#b5b300"/></radialGradient><clipPath id="p"><path d="M82.118,32.4c-16.546.11-38.958,11.48-38.76,14.33s6.775,5.524,6.775,5.524c18.183.854,41.4,5.038,41.4,5.038,6.688-.222,22.067-5.308,22.067-5.308l-1.249-9.807-3.6.677A38.783,38.783,0,0,0,82.372,32.4h-.254" fill="none"/></clipPath><radialGradient id="q" cx="0.628" cy="0.335" r="0.895" gradientTransform="translate(-0.83 10.884) rotate(180) scale(0.385 1)" gradientUnits="objectBoundingBox"><stop offset="0" stop-color="#939500"/><stop offset="0.966" stop-color="#8d9300"/><stop offset="1" stop-color="#8d9300"/></radialGradient><clipPath id="s"><rect width="56.067" height="47.951" transform="translate(83.959 55.905)" fill="none"/></clipPath><clipPath id="t"><rect width="53.249" height="43.394" transform="translate(87.43 110.125)" fill="none"/></clipPath><clipPath id="u"><rect width="85.551" height="50.05" transform="translate(17.289 57.794)" fill="none"/></clipPath><clipPath id="v"><rect width="83.773" height="45.826" transform="translate(21.812 106.233)" fill="none"/></clipPath><clipPath id="w"><path d="M46.738,47.587a14.638,14.638,0,0,0-1.2,2.471s1.648,2.271,10.819,2.879,25.893,2.408,35.177,4.353a67.587,67.587,0,0,0,18.94-4.747,20.211,20.211,0,0,0-1.917-3.986A31.407,31.407,0,0,0,92.705,35.642a35.106,35.106,0,0,0-12.484-2.024c-12.978,0-28.14,5.152-33.483,13.969" fill="none"/></clipPath><radialGradient id="x" cx="0.509" cy="0.502" r="0.453" gradientTransform="translate(-1.162 6.709) rotate(180) scale(0.79 1.224)" gradientUnits="objectBoundingBox"><stop offset="0" stop-color="#ffedd8"/><stop offset="0.011" stop-color="#ffedd8"/><stop offset="1" stop-color="#ffe9c4"/></radialGradient><clipPath id="z"><rect width="65.095" height="8.733" transform="translate(45.376 48.557)" fill="none"/></clipPath><clipPath id="aa"><path d="M70.352,26.251a7.2,7.2,0,1,0,.267,0c-.089,0-.177,0-.267,0" fill="none"/></clipPath><radialGradient id="ab" cx="0.5" cy="0.495" r="0.478" gradientTransform="translate(-8.248 20.494) rotate(180) scale(0.991 1)" gradientUnits="objectBoundingBox"><stop offset="0" stop-color="#ff2420"/><stop offset="0.011" stop-color="#ff241f"/><stop offset="0.417" stop-color="#ff440e"/><stop offset="0.761" stop-color="#ff5703"/><stop offset="1" stop-color="#ff5e00"/></radialGradient><clipPath id="ad"><rect width="13.075" height="8.147" transform="translate(64.398 26.271)" fill="none"/></clipPath><clipPath id="ae"><rect width="4.872" height="5.405" transform="translate(64.635 28.214)" fill="none"/></clipPath><clipPath id="af"><path d="M64.733,30.314A2.432,2.432,0,1,0,69.41,31.52a2.432,2.432,0,1,0-4.677-1.206" fill="none" clip-rule="evenodd"/></clipPath><radialGradient id="ag" cx="0.5" cy="0.5" r="0.358" gradientTransform="matrix(0, -1, 1.068, 0, -33.199, 13.755)" gradientUnits="objectBoundingBox"><stop offset="0" stop-color="#fffeb3"/><stop offset="0.006" stop-color="#fffeb3"/><stop offset="0.371" stop-color="#fdfcb1"/><stop offset="0.502" stop-color="#f6f5ac"/><stop offset="0.596" stop-color="#eae9a4"/><stop offset="0.672" stop-color="#d9d898"/><stop offset="0.737" stop-color="#c3c289"/><stop offset="0.794" stop-color="#a8a776"/><stop offset="0.846" stop-color="#87875f"/><stop offset="0.894" stop-color="#626144"/><stop offset="0.938" stop-color="#373626"/><stop offset="0.978" stop-color="#090906"/><stop offset="0.985"/><stop offset="1"/></radialGradient><clipPath id="ah"><rect width="55.852" height="12.592" transform="translate(50.466 33.662)" fill="none"/></clipPath><clipPath id="ai"><path d="M222.841,115.62l-8.669,1.629-8.794-.686c-5.438-.424-12.215.286-15.859,1.661l-5.891,2.224-9.97.323c-6.166.2-11.735,1.474-13.03,2.979l-2.1,2.435-9.423,1.277c-5.827.789-9.225,2.406-7.948,3.781l2.063,2.224-7.247,2.01c-4.482,1.242-5.119,2.923-1.492,3.93l5.866,1.629-3.818,2.4c-2.361,1.48-.129,2.934,5.222,3.4l8.653.752.273,2.366c.168,1.463,4.883,2.438,11.033,2.28l9.944-.254,4.315,1.928c2.668,1.193,9.053,1.52,14.937.768l9.516-1.217,7.612,1.157a46.029,46.029,0,0,0,16.257-.879l7.442-1.969,9.593.185c5.931.114,12.242-.9,14.767-2.372l4.082-2.381,9.914-.818c6.131-.506,10.714-1.983,10.723-3.456l.016-2.381,8.522-1.68c5.27-1.039,7.332-2.724,4.825-3.942l-4.052-1.969,5.655-2.252c3.5-1.393,2.683-2.994-1.907-3.746l-7.42-1.218,1.811-2.433c1.121-1.505-2.43-2.746-8.309-2.9l-9.506-.254-2.345-2.195c-1.45-1.357-7.124-2.023-13.275-1.558l-9.947.752-6.1-1.577a30.659,30.659,0,0,0-7.2-.715,48.916,48.916,0,0,0-8.744.772" fill="none"/></clipPath><linearGradient id="aj" x1="-0.762" y1="1.414" x2="-0.757" y2="1.414" xlink:href="#d"/><clipPath id="al"><path d="M145.839,117.118c90.069,21,138.194-10.574,138.194-10.574a165.764,165.764,0,0,0-56.45-9.87c-47.963,0-81.744,20.444-81.744,20.444" fill="none"/></clipPath><linearGradient id="am" x1="-1.033" y1="1.791" x2="-1.026" y2="1.791" xlink:href="#g"/></defs><g clip-path="url(#a)"><g clip-path="url(#a)"><path d="M170.313,54.373l-6.677-1.279c-4.128-.79-9.38-.812-12.286-.049l-4.7,1.232-7.664-.592c-4.739-.366-9.112.153-10.232,1.216l-1.81,1.718-7.325.2c-4.53.122-7.269,1.093-6.408,2.272l1.392,1.906-5.72.951c-3.538.588-4.169,1.842-1.476,2.934l4.354,1.765-3.127,1.542c-1.933.953-.347,2.273,3.712,3.089l6.563,1.319.008,1.865c0,1.153,3.534,2.312,8.257,2.71l7.637.645,3.142,1.866c1.942,1.154,6.8,1.951,11.374,1.863l7.391-.142,5.731,1.545a34.883,34.883,0,0,0,12.526.694l5.867-.9,7.33.956c4.533.592,9.453.337,11.511-.6l3.328-1.509,7.662.2c4.738.125,8.373-.637,8.5-1.783l.214-1.852,6.669-.587c4.124-.363,5.846-1.5,4.03-2.661l-2.938-1.877,4.523-1.274c2.8-.788,2.308-2.1-1.143-3.078L224.952,67.1l1.594-1.741c.986-1.077-1.629-2.344-6.118-2.965l-7.259-1-1.609-1.908c-1-1.179-5.285-2.179-10.035-2.338l-7.683-.257-4.535-1.743c-2.805-1.079-8.026-1.637-12.217-1.307Z" fill="#ec6318" fill-rule="evenodd"/><path d="M105.746,63.4l-.418-11.71,129.825,7.185L233.468,70.86Z" fill="#ec6318" fill-rule="evenodd"/></g><g clip-path="url(#c)"><rect width="39.073" height="133.475" transform="translate(102.516 72.698) rotate(-86.832)" fill="url(#d)"/></g><g clip-path="url(#a)"><path d="M107.47,57.322l.4,11.981s1.5,1.907,11.041,3.29l-.2-11.556s-9.228-1.7-11.24-3.715" fill="#ec6318" fill-rule="evenodd"/><path d="M230.8,75.753l1.516-11s-2.124,1.868-11.455,1.935l-1.473,11.464s11.092-.076,11.412-2.4" fill="#ec6318" fill-rule="evenodd"/><path d="M224.487,42.962l.042,0-.57,15.053a2.224,2.224,0,0,1-.455,1.538,2.2,2.2,0,0,1-1.171.477c-18.525,3.544-37.525,3.528-56.252,1.829-9.335-.847-18.628-2.11-27.886-3.561-4.743-.744-9.478-1.54-14.208-2.356-3.314-.572-8.855.028-8.6-4.536l.939-16.9c34.351,12.164,71.835,11.352,108.162,8.459" fill="#ffbba0"/></g><g clip-path="url(#f)"><rect width="38.385" height="109.865" transform="translate(114.448 59.085) rotate(-86.832)" fill="url(#g)"/></g><g clip-path="url(#a)"><path d="M211.033,38.819s-44.609,5.022-87.072-6.286c0,0,7-30.3,40.951-32.451s46.121,38.737,46.121,38.737" fill="#f93f0f" fill-rule="evenodd"/></g><g clip-path="url(#i)"><rect width="120.589" height="56.208" transform="translate(16.153 24.606) rotate(-2.089)" fill="url(#j)"/></g><g clip-path="url(#k)"><rect width="98.785" height="135.549" transform="translate(41.883 40.165) rotate(-2.089)" fill="url(#l)"/></g><g clip-path="url(#m)"><rect width="125.362" height="72.459" transform="translate(13.754 11.277) rotate(-2.089)" fill="url(#n)"/></g><g clip-path="url(#a)"><path d="M41.126,51.2C26.591,48.854,55.691,31.466,76.432,30.16s33.421,5.344,35.92,12.021L109.939,43.5S99.218,29.124,75.513,33.065,42.438,45.552,43.184,47.78s6.949,4.478,6.949,4.478Z" fill="#b5b302" fill-rule="evenodd"/></g><g clip-path="url(#p)"><rect width="71.302" height="27.444" transform="matrix(0.999, -0.036, 0.036, 0.999, 42.253, 32.436)" fill="url(#q)"/></g><g clip-path="url(#a)"><path d="M95.606,147.121c11.927,8.731,26.267,8.319,35.518,6.7.016.016.016.016.032,0a54.873,54.873,0,0,0,9.523-2.455l-.483-41.244-.127-11.364L139.576,55.9l-.105-9c-6.92,11.223-24.617,5.849-58.372,25.14-33.74,19.274-4.884,60.9,14.507,75.079" fill="#b5bb00" fill-rule="evenodd"/><g opacity="0.5" style="mix-blend-mode:multiply;isolation:isolate"><g clip-path="url(#s)"><path d="M86.8,92.624c6.737,8.184,21.09,9.814,30.955,10.864,5.4.575,11.12.675,16.3-1.186,6.767-2.433,5.982-6.509,5.91-12.8q-.081-7.082-.163-14.165-.112-9.717-.224-19.435a40.958,40.958,0,0,1-3.791,4.194c-5.275,5.542-14.924,9.284-22.45,10.1-5.386.581-10.81,1.91-16.179,2.787-4.111.672-8.415,2.153-10.822,5.553-3.721,5.257-2.685,10.258.468,14.089" fill="#adb200" fill-rule="evenodd"/></g></g><g opacity="0.5" style="mix-blend-mode:multiply;isolation:isolate"><g clip-path="url(#t)"><path d="M87.787,132.827c1.989,8.9,10.578,12.69,18.323,15.766,10.783,4.281,23.449,7.081,34.569,2.776l-.483-41.244a61.2,61.2,0,0,1-6.051,2.2c-8.954,2.737-18.583,1.859-27.837,2.516-6.8.472-15.388,2.749-17.954,9.885a13.9,13.9,0,0,0-.567,8.1" fill="#a6af02" fill-rule="evenodd"/></g></g><path d="M16.27,44.481c3.579,20.512,97.252-4.294,104.868,39.474s-36.611,98.91-96.567,72.074Z" fill="#92ad02" fill-rule="evenodd"/><path d="M16.776,51.378l.314,4.236,3.748,50.21.822,11.148,2.382,32.041v.016l.183,2.4s45.732,16.168,67.584-3.3c21.854-19.447,31.019-60.6,15.226-77.249-15.777-16.654-84.077-11.1-90.26-19.51" fill="#c1cd2e" fill-rule="evenodd"/><g opacity="0.5" style="mix-blend-mode:multiply;isolation:isolate"><g clip-path="url(#u)"><path d="M17.289,57.794q1.516,21.714,3.254,43.412a8.2,8.2,0,0,0,1.2,4.374c1.443,1.916,4.174,2.179,6.573,2.228a172.924,172.924,0,0,0,42.631-4.453,134.33,134.33,0,0,0,18.872-5.368c4.278-1.69,8.385-4.256,10.875-8.123s3.03-9.213.444-13.016c-2.061-3.03-5.643-4.611-9.118-5.775-24.085-8.065-51.406-3.23-74.733-13.279" fill="#cdc62c" fill-rule="evenodd"/></g></g><g opacity="0.5" style="mix-blend-mode:multiply;isolation:isolate"><g clip-path="url(#v)"><path d="M21.937,119.017a112.063,112.063,0,0,0,2.2,27.991,3.893,3.893,0,0,0,.8,1.938,3.875,3.875,0,0,0,2.066.92c21.966,4.815,48.985,2.31,66.138-13.634,7.039-6.542,12-15.609,12.434-25.208.081-1.764-.236-3.92-1.87-4.591a4.658,4.658,0,0,0-2.625-.014c-26.3,4.994-52.377,12.685-79.141,12.6" fill="#d0c72d" fill-rule="evenodd"/></g></g></g><g clip-path="url(#w)"><rect width="67.881" height="53.643" transform="matrix(0.858, -0.513, 0.513, 0.858, 35.108, 39.853)" fill="url(#x)"/></g><g clip-path="url(#a)"><g opacity="0.3" style="mix-blend-mode:multiply;isolation:isolate"><g clip-path="url(#z)"><path d="M45.534,50.058s1.648,2.271,10.819,2.879S82.246,55.345,91.53,57.29a67.556,67.556,0,0,0,18.941-4.747,20.167,20.167,0,0,0-1.918-3.985c-1.519,3.9-8.059,9.735-32.4,5.944C51.8,50.728,45.534,50.058,45.534,50.058c-.482.8.32-.858,0,0" fill="#a60051"/></g></g></g><g clip-path="url(#aa)"><rect width="15.212" height="15.077" transform="matrix(0.999, -0.036, 0.036, 0.999, 62.74, 26.265)" fill="url(#ab)"/></g><g clip-path="url(#a)"><g opacity="0.5" style="mix-blend-mode:multiply;isolation:isolate"><g clip-path="url(#ad)"><path d="M77.467,32.768c-.195,4.46-8.486-1.624-10.709-.832s-2.726,1.566-2.129-1.224,3.019-5.34,7.417-4.135,5.515,4.034,5.421,6.191" fill="#ff0051" fill-rule="evenodd"/></g></g><g opacity="0.75" style="mix-blend-mode:screen;isolation:isolate"><g clip-path="url(#ae)"><g clip-path="url(#af)"><rect width="7.1" height="6.737" transform="translate(62.923 33.513) rotate(-75.544)" fill="url(#ag)"/></g></g></g><path d="M56.009,28.359A7.205,7.205,0,1,0,62.947,20.9a7.2,7.2,0,0,0-6.938,7.463" fill="#ff5d01" fill-rule="evenodd"/><path d="M63.308,20.883a7.2,7.2,0,1,0,6.938-7.463,7.206,7.206,0,0,0-6.938,7.463" fill="#ff5d01" fill-rule="evenodd"/><path d="M73.874,20.5a7.2,7.2,0,1,0,6.938-7.463A7.2,7.2,0,0,0,73.874,20.5" fill="#ff5d01" fill-rule="evenodd"/><path d="M70.841,29.73a7.205,7.205,0,1,0,6.938-7.463,7.2,7.2,0,0,0-6.938,7.463" fill="#ff5d01" fill-rule="evenodd"/><g opacity="0.5" style="mix-blend-mode:multiply;isolation:isolate"><g clip-path="url(#ah)"><path d="M106.318,45.372s-8.2,1.91-21.672.111c-15.505-2.071-22.411,1.82-26.8.417s-7.378-2.666-7.378-2.666,8.006-9.31,26.248-9.566,27.369,8.518,29.6,11.7" fill="#de0038" fill-rule="evenodd"/></g></g><path d="M82.44,29.307a7.2,7.2,0,1,0,6.938-7.463,7.2,7.2,0,0,0-6.938,7.463" fill="#ff5d01" fill-rule="evenodd"/><path d="M64.76,34.544A7.2,7.2,0,1,0,71.7,27.081a7.2,7.2,0,0,0-6.938,7.463" fill="#f01417" fill-rule="evenodd"/><path d="M75.172,29.572a7.205,7.205,0,1,0,6.938-7.463,7.2,7.2,0,0,0-6.938,7.463" fill="#f01417" fill-rule="evenodd"/><path d="M87.926,38.362A7.2,7.2,0,1,0,94.864,30.9a7.2,7.2,0,0,0-6.938,7.463" fill="#f01417" fill-rule="evenodd"/><path d="M79.288,37.52a7.2,7.2,0,1,0,6.938-7.463,7.2,7.2,0,0,0-6.938,7.463" fill="#f01417" fill-rule="evenodd"/><path d="M53.814,38.449a7.205,7.205,0,1,0,6.938-7.463,7.2,7.2,0,0,0-6.938,7.463" fill="#f01417" fill-rule="evenodd"/><path d="M214.966,131.944l8.526-1.621c5.272-1,11.976-1.02,15.686-.042l6,1.581,9.784-.743c6.051-.459,11.633.212,13.06,1.57l2.309,2.2,9.351.263c5.783.163,9.278,1.406,8.176,2.91l-1.78,2.432,7.3,1.224c4.515.757,5.318,2.359,1.879,3.748l-5.562,2.246,3.989,1.973c2.467,1.22.44,2.9-4.743,3.938l-8.381,1.672-.014,2.381c-.008,1.473-4.515,2.945-10.545,3.446l-9.752.81-4.013,2.377c-2.482,1.47-8.689,2.478-14.525,2.359l-9.435-.194-7.319,1.963a44.528,44.528,0,0,1-15.992.864l-7.488-1.163-9.36,1.208c-5.788.747-12.068.414-14.694-.781l-4.246-1.931-9.782.245c-6.049.152-10.688-.827-10.855-2.29l-.27-2.366-8.512-.76c-5.264-.47-7.461-1.925-5.14-3.4l3.753-2.392-5.771-1.634c-3.569-1.011-2.943-2.69,1.464-3.928l7.127-2-2.032-2.226c-1.257-1.377,2.084-2.99,7.815-3.774l9.269-1.269L162.3,138.4c1.273-1.5,6.75-2.772,12.816-2.967l9.807-.315,5.793-2.218c3.582-1.372,10.25-2.076,15.6-1.647Z" fill="#ec6318" fill-rule="evenodd"/><path d="M297.379,143.574l.553-14.949-165.751,8.951,2.132,15.307Z" fill="#ec6318" fill-rule="evenodd"/></g><g clip-path="url(#ai)"><rect width="170.365" height="49.597" transform="matrix(0.999, -0.054, 0.054, 0.999, 128.673, 114.966)" fill="url(#aj)"/></g><g clip-path="url(#a)"><path d="M295.188,135.816l-.529,15.295s-1.921,2.431-14.1,4.181l.274-14.753s11.784-2.159,14.356-4.723" fill="#ec6318" fill-rule="evenodd"/><path d="M137.7,159.135l-1.916-14.042s2.708,2.389,14.62,2.49l1.861,14.638s-14.16-.116-14.565-3.086" fill="#ec6318" fill-rule="evenodd"/><path d="M145.825,117.284l-.054,0q.351,9.609.7,19.218a2.829,2.829,0,0,0,.578,1.964,2.8,2.8,0,0,0,1.493.611c23.644,4.556,47.9,4.569,71.81,2.432,11.919-1.065,23.785-2.662,35.607-4.5,6.056-.941,12.1-1.949,18.143-2.984,4.231-.724,11.3.052,10.988-5.776l-1.17-21.576c-43.875,15.47-91.727,14.369-138.1,10.614" fill="#ffbba0"/></g><g clip-path="url(#al)"><rect width="140.228" height="48.834" transform="translate(143.607 96.793) rotate(-3.091)" fill="url(#am)"/></g><g clip-path="url(#a)"><path d="M163.008,112.018s56.941,6.487,111.17-7.876c0,0-8.883-38.688-52.225-41.5s-58.945,49.374-58.945,49.374" fill="#f93f0f" fill-rule="evenodd"/><path d="M48.28,164.462c3.2-.433,8.775-.843,8.087-5.671-.655-4.6-6.916-2.844-10.227-2.363-2.1.3-4.186.7-6.27,1.161-2.2.489-3.148-.116-2.646-2.537.868-4.177,3.924-7.435,6.726-10.574,3.146-3.525,6.3-7.053,9.487-10.541,2.427-2.657,5.283-7.724.464-8.994-2.866-.756-5.547,2.967-7.365,4.886-3.582,3.779-6.977,7.828-10.691,11.469,1.81-4.3,4.6-8.5,6.777-12.667,1.119-2.142,2.214-4.3,3.26-6.47.847-1.761,1.443-3.3.188-4.828-1.795-2.187-4.876-1.669-6.619.8-1.9,2.7-3.22,5.932-4.817,8.811q-2.631,4.746-5.237,9.5c1.2-4.568,2.2-9.166,3.411-13.734.907-3.326,1.25-9.147-3.914-7.617-3.454,1.022-4.166,5.8-4.872,8.68q-.957,3.9-1.935,7.8-.486,1.949-.974,3.9a18.326,18.326,0,0,1-.612,2.365c-.114.285-.214.733-.58.779-.32.04-.525-.266-.652-.513a12.294,12.294,0,0,1-.533-1.868c-.482-1.463-.982-2.918-1.477-4.377-.663-1.952-1.246-3.945-1.983-5.872a12.359,12.359,0,0,0-1.333-2.682,2.671,2.671,0,0,0-3.268-1.253A3.125,3.125,0,0,0,8.8,124.869c-.047,5.827,2.722,11.416,3.023,17.274.24,4.669-1.949,10.332-3.4,14.738-1.241,3.768-4.548,4.93-7.282,7.438C-3.2,168.3,6.045,179.93,8.709,180.4s5.361-1.314,7.626-2.861c3.333-2.278,6.4-5.172,10.035-7.074,3.548-1.853,7.525-1.818,11.288-2.952,3.533-1.065,6.938-2.549,10.622-3.048" fill="#fff"/><path d="M257.887,82.416c-2.643,1.854-7.015,5.338-9.788,1.326-2.64-3.821,3.148-6.783,5.906-8.678,1.744-1.2,3.546-2.329,5.391-3.4,1.948-1.135,2.233-2.222.221-3.659-3.473-2.478-7.929-2.795-12.117-3.2-4.7-.452-9.415-.9-14.122-1.3-3.585-.3-9.122-2.085-6.447-6.289,1.592-2.5,6.088-1.587,8.725-1.412,5.2.343,10.437,1.01,15.636,1.163-4.249-1.929-9.145-3.118-13.575-4.7-2.276-.813-4.542-1.65-6.786-2.537-1.818-.718-3.3-1.441-3.415-3.417-.167-2.825,2.447-4.536,5.406-3.9,3.229.69,6.391,2.169,9.517,3.2,3.436,1.133,6.871,2.266,10.3,3.423-3.985-2.537-7.838-5.237-11.828-7.769-2.924-1.827-7.127-5.868-2.3-8.25,3.231-1.594,7,1.433,9.47,3.066q3.35,2.214,6.714,4.412l3.361,2.2a18.4,18.4,0,0,0,2.055,1.321c.277.132.655.394.955.178.262-.187.205-.551.13-.818a12.048,12.048,0,0,0-.877-1.734c-.639-1.4-1.259-2.81-1.886-4.217-.839-1.883-1.764-3.742-2.531-5.657a12.462,12.462,0,0,1-.842-2.875,2.674,2.674,0,0,1,1.549-3.139,3.128,3.128,0,0,1,3.287.8c3.991,4.247,5.752,10.231,9.508,14.737,2.992,3.59,8.445,6.262,12.5,8.512,3.469,1.924,6.686.533,10.4.518,5.888-.023,7,14.791,5.358,16.943s-4.828,2.675-7.542,3.076c-3.993.591-8.208.545-12.17,1.619-3.864,1.047-6.76,3.774-10.292,5.5-3.318,1.617-6.825,2.838-9.869,4.973" fill="#fff"/></g></g></svg>