<svg xmlns="http://www.w3.org/2000/svg" xmlns:xlink="http://www.w3.org/1999/xlink" width="347.221" height="207.22" viewBox="0 0 347.221 207.22"><defs><clipPath id="a"><rect width="347.221" height="207.22" fill="none"/></clipPath></defs><g clip-path="url(#a)"><path d="M37.733,48.175C46.111,26.488,65.669,9.923,88.778,3.2a82.922,82.922,0,0,1,8.145-1.93,73.864,73.864,0,0,1,40.016,3.558c12.632,4.832,21.083,15.782,32.021,23.2C194.111,45.085,210.621,66.209,220.3,95c.671,2,1.377,4.112,2.063,6.309,2.253,7.209,4.3,15.291,4.245,22.921l3.479,1.562,65.9,34.678c7.583-2,16.929-6.021,24.512-8.028a78.407,78.407,0,0,1,19.74-2.935q.434.236.858.505c5.579,3.558,4.222,9.723,1.236,15.628-2.678,5.293-7.346,8.449-9.3,14.049-2.277,6.521,1.4,12.583-1.931,18.63-3.293,5.974-9.991,6.779-15.829,3.251s-6.376-8.819-9.656-14.8a51.83,51.83,0,0,0-7.715-10.784c-1.092-1.153-5.742-3.879-6.987-4.848l-78.044-22.882c-13.613,8.483-36.629,17.613-51.559,15.462-26.963-3.891-56.609-5.467-81.323-17.945C53.387,132.344,34.3,103.547,33.394,73.6a64.8,64.8,0,0,1,4.339-25.423" fill="#e26c38"/><path d="M215.738,146.385c8.086-5.552,10.81-13.566,10.872-22.153l3.479,1.562L296.723,155.7q11.373-3.006,22.747-6.016c6.863-1.816,14.627-3.508,20.77-.175q.435.235.858.506a13.974,13.974,0,0,1,4.785,17.466c-2.678,5.293-8.661,8.534-10.618,14.134-2.277,6.52,1.612,14.341-1.723,20.388-3.295,5.973-12.218,6.572-18.056,3.043s-9.329-9.817-12.61-15.8c-2.123-3.873-4.316-7.89-7.375-11.12a31.366,31.366,0,0,0-3.619-3.056l-79.011-26.815c1.009-.63,1.968-1.255,2.867-1.873" fill="#e5e1d5"/><path d="M320.272,171a10.566,10.566,0,0,1-6.573-.468,6.612,6.612,0,0,1-3.944-5.051c-.836-7.4,12.221-14.7,18.261-10.539,7.843,5.4-1.5,14.689-7.744,16.058" fill="#e5e1d5"/><path d="M69.516,80.437A54.261,54.261,0,0,1,89.359,43.859a53.639,53.639,0,0,1,17.772-9.337c4.364-1.338,14.689-4.553,18.606-1.6C101.046,40.9,80.09,55.952,69.516,80.437" fill="#b4432b"/><path d="M145.743,84.871a53.655,53.655,0,0,1,17.771-9.338c4.364-1.337,14.69-4.552,18.607-1.6-24.458,7.9-45.251,22.745-55.919,46.825q-.153.342-.3.688.036-.354.076-.707a54.278,54.278,0,0,1,19.767-35.871" fill="#b4432b"/><path d="M98.606,93.1c1.167-13.741,9.215-26.172,20.541-33.819a47.95,47.95,0,0,1,19.567-7.122,52.745,52.745,0,0,1,10.91-.474c2.724.167,9.354,1.45,9.354,1.45S113.752,59.608,98.606,93.1" fill="#b4432b"/><path d="M111.049,174.879c-4.737,4.3-12.508,11.659-20.84,12.115-16.1.881-39.682-12.825-56.629-31.5-15.373-16.939-24.564-35.6-25.135-50.41-.495-12.83,1.684-18,13.336-28.571,15.16-13.758,42.047,2,66.7,29.159s37.73,55.448,22.57,69.206" fill="#c28f0f"/><path d="M111.049,174.879c-15.16,13.758-47.433,2.891-72.084-24.271S6.621,90.272,21.781,76.514s47.432-2.891,72.083,24.272,32.345,60.335,17.185,74.093" fill="#ffee6f"/><path d="M160.872,173.615c-4.32,4.719-11.377,12.764-19.632,13.988-15.95,2.364-40.7-9.1-59.3-26.135C65.073,146.021,54.2,128.286,52.26,113.6c-1.677-12.729.015-18.075,10.641-29.68,13.824-15.1,42.052-1.9,69.106,22.874s42.69,51.727,28.865,66.826" fill="#c28f0f"/><path d="M160.872,173.615c-13.825,15.1-46.963,7.259-74.017-17.511S49.076,99.014,62.9,83.915s46.963-7.26,74.017,17.51,37.779,57.091,23.954,72.19" fill="#ffee6f"/><path d="M201.351,189.862c-4.737,4.3-12.508,11.659-20.84,12.115-16.1.881-39.682-12.825-56.629-31.5-15.373-16.939-24.564-35.6-25.135-50.41-.5-12.83,1.684-18,13.336-28.571,15.16-13.758,42.047,2,66.7,29.159s37.73,55.448,22.57,69.206" fill="#c28f0f"/><path d="M201.351,189.862c-15.16,13.758-47.433,2.891-72.084-24.271S96.923,105.255,112.083,91.5s47.432-2.891,72.083,24.272,32.345,60.335,17.185,74.093" fill="#ffee6f"/><path d="M58.061,91.143c-.115.11-.059.3.015.412a14.567,14.567,0,0,0,4.889,4.426,49.613,49.613,0,0,0,6.473,3.058q1.543.639,3.118,1.2a94.169,94.169,0,0,0-9.4,1.783,57.226,57.226,0,0,0-9.537,3.109,22.162,22.162,0,0,0-4.1,2.373,7.186,7.186,0,0,0-1.638,1.482c-.349.486-.732,1.36-.193,1.854a.991.991,0,0,0,1.009.084,11.874,11.874,0,0,0,1.147-.4,23.867,23.867,0,0,0,2.276-1.105c1.476-.789,2.959-1.556,4.488-2.241a71.27,71.27,0,0,1,9.471-3.41c.4-.116.81-.211,1.217-.307.115-.028.061-.168-.025-.211a36.137,36.137,0,0,1,4.216-.6,29.466,29.466,0,0,0,3.589-.457,10,10,0,0,0,1.721-.5,1.176,1.176,0,0,0,.842-1.082,2.03,2.03,0,0,0-.737-1.353,8.915,8.915,0,0,0-1.381-1.006,30.312,30.312,0,0,0-3.155-1.626c-2.319-1.09-4.654-2.144-7-3.182q-1.963-.87-3.933-1.73a16.512,16.512,0,0,0-1.865-.781,1.5,1.5,0,0,0-1.519.209" fill="#376e34"/><path d="M52.09,92.063a1.412,1.412,0,0,0-1.3.213c-.432.46-.056,1.09.334,1.424a10.274,10.274,0,0,0,1.594,1.02c.574.328,1.16.634,1.759.913a30.306,30.306,0,0,0,3.65,1.417c1.464.471,2.952.852,4.45,1.192-2.366-.177-4.726-.44-7.09-.646a51.238,51.238,0,0,0-10.506-.063,23.163,23.163,0,0,0-5,1.075,1.284,1.284,0,0,0-.755.564.892.892,0,0,0,.093.892,3.061,3.061,0,0,0,2.036.922,22.594,22.594,0,0,0,5.267.275c1.827-.063,3.653-.137,5.482-.155,2.478-.025,4.956.024,7.432.129q-1.329.1-2.655.236a45.484,45.484,0,0,0-7.38,1.342c-.878.244-2.706.591-2.5,1.875a.5.5,0,0,0,.384.413c3.462.453,6.877-.607,10.246-1.244a83,83,0,0,1,10.4-1.29c1.953-.119,3.908-.2,5.865-.166.084,0,.121-.04.125-.1,2.062.1,4.12.4,6.163.689,1.655.231,3.313.455,4.982.554.809.047,1.62.07,2.431.046a10.827,10.827,0,0,0,2.364-.223,1.024,1.024,0,0,0,.715-.53,1.326,1.326,0,0,0-.052-1.017,3.142,3.142,0,0,0-1.4-1.446,21.574,21.574,0,0,0-4.366-1.8c-3.094-.973-6.3-1.563-9.364-2.625-1.627-.561-3.214-1.228-4.809-1.875-.782-.318-1.566-.629-2.357-.923a6.051,6.051,0,0,0-2.14-.594,1.046,1.046,0,0,0-.773.333c-.13.145-.057.323.049.459a10.538,10.538,0,0,0,3.68,2.9q-6.32-1.576-12.647-3.115c-1.467-.357-2.931-.762-4.409-1.076" fill="#7ab43f"/><path d="M68.68,91.586c-1.514-.811-3.049-1.587-4.622-2.278a.273.273,0,0,0-.393.294c.547,2.132,2.276,3.631,3.949,4.926a33.509,33.509,0,0,0,5.775,3.6l.009,0-3.23-.778c-2.235-.538-4.466-1.108-6.73-1.509a32.859,32.859,0,0,0-3.866-.464c-.322-.019-.35.364-.139.539,3.12,2.59,7.235,2.949,11.1,3.529-2.195-.131-4.392-.2-6.593-.19-1.812.011-3.623.076-5.43.217q-1.333.1-2.662.265a17.093,17.093,0,0,0-2.452.43,8.315,8.315,0,0,0-1.129.389,2.934,2.934,0,0,0-.961.582.8.8,0,0,0-.138,1,1.3,1.3,0,0,0,.886.554,7.524,7.524,0,0,0,2.588-.024c.876-.12,1.751-.252,2.628-.361a98.8,98.8,0,0,1,10.791-.705q2.994-.042,6,.075-2.1.188-4.174.544a48.508,48.508,0,0,0-4.944,1.112,12.266,12.266,0,0,0-2.057.746,4.813,4.813,0,0,0-1.72,1.255,1.217,1.217,0,0,0-.293.906,1.04,1.04,0,0,0,.612.766,3.142,3.142,0,0,0,1.935-.134c1.7-.384,3.4-.758,5.11-1.087a95.994,95.994,0,0,1,12.53-1.7,102.407,102.407,0,0,1,12.677.49,46.572,46.572,0,0,0,5.323.085.282.282,0,0,0,.228-.343.559.559,0,0,0-.358-.41,53.444,53.444,0,0,1-17.714-9.772,21.9,21.9,0,0,0-4.725-3.307.29.29,0,0,0-.38.4c1.409,2.961,3.922,5.136,6.546,7.006.21.15.423.295.636.442a41.2,41.2,0,0,1-6.627-2.754c-2.7-1.371-5.309-2.911-7.977-4.341" fill="#3e7732"/><path d="M75.64,87.717a4.622,4.622,0,0,0,1.138,2.521,23.377,23.377,0,0,0,4.553,4.388A60.35,60.35,0,0,0,86.6,98.255a54.637,54.637,0,0,0,6.657,3.478c1.052.561,2.126,1.08,3.223,1.544-1.073-.23-2.157-.415-3.232-.6-.557-.094-1.115-.182-1.673-.268-1.106-.3-2.2-.633-3.293-.989-3.617-1.181-7.154-2.593-10.73-3.888a26.42,26.42,0,0,0-2.889-.972,2.529,2.529,0,0,0-2.427.419c-.182.179.016.47.175.573a29.722,29.722,0,0,0,9.408,3.838c3.022.725,6.1,1.151,9.173,1.577.748.211,1.5.412,2.256.591q1.026.245,2.061.44l-.339,0c-2.021.031-4.04.089-6.059.186s-4.058.225-6.084.381a29.3,29.3,0,0,0-5.8.818,9.776,9.776,0,0,0-2.492,1.048c-.613.38-1.422.986-1,1.807a1.678,1.678,0,0,0,1.788.693,11.019,11.019,0,0,0,2.579-.873c.872-.367,1.744-.726,2.647-1.01a26.8,26.8,0,0,1,2.707-.684,47.9,47.9,0,0,1,5.65-.737c1.954-.157,3.913-.275,5.871-.384,1.1-.061,2.205-.112,3.308-.147l.4.027c.712.05,1.426.13,2.133.222a36.314,36.314,0,0,1,4.051.83c2.739.685,5.46,1.457,8.16,2.281.668.2,1.336.407,2,.618q.481.151.963.308c.288.094.671.31.974.2.974-.366.792-1.751.259-2.387-.83-.989-2.295-.991-3.47-1.153-1.413-.2-2.822-.423-4.229-.654-1.6-.262-3.193-.55-4.784-.851q-.692-.13-1.385-.256a.66.66,0,0,0-.33-.211A34.487,34.487,0,0,1,91.442,98.89c-1.786-1.167-3.538-2.4-5.252-3.669a22.267,22.267,0,0,1-4.7-4.466c-.683-.913-1.289-1.879-1.915-2.831a3.3,3.3,0,0,0-2.246-1.74,1.463,1.463,0,0,0-1.687,1.533" fill="#7ab43f"/><path d="M47.946,175.28c3.157-.677,8.685-1.511,7.629-6.273-1-4.534-7.113-2.306-10.377-1.573-2.065.463-4.12,1.015-6.163,1.636-2.157.656-3.148.126-2.832-2.327.545-4.231,3.344-7.713,5.9-11.057,2.868-3.756,5.743-7.514,8.654-11.236,2.216-2.834,4.676-8.1-.225-9-2.916-.534-5.3,3.383-6.97,5.435-3.282,4.042-6.358,8.338-9.783,12.253,1.476-4.427,3.936-8.825,5.788-13.148.952-2.222,1.88-4.453,2.756-6.7.71-1.82,1.187-3.4-.182-4.827-1.957-2.045-4.989-1.292-6.538,1.307-1.69,2.837-2.757,6.161-4.128,9.153q-2.26,4.933-4.5,9.876c.851-4.647,1.493-9.308,2.35-13.955.65-3.385.547-9.215-4.485-7.295-3.366,1.284-3.71,6.1-4.194,9.027q-.656,3.961-1.333,7.922-.336,1.98-.673,3.961a18.3,18.3,0,0,1-.43,2.4c-.091.293-.157.748-.519.821-.315.064-.543-.225-.688-.461a12.252,12.252,0,0,1-.675-1.822c-.593-1.422-1.2-2.835-1.807-4.251-.81-1.9-1.544-3.839-2.426-5.7a12.341,12.341,0,0,0-1.535-2.573,2.672,2.672,0,0,0-3.354-1,3.126,3.126,0,0,0-1.653,2.95c.4,5.815,3.587,11.175,4.335,16.994.6,4.636-1.153,10.45-2.264,14.954-.95,3.851-4.158,5.264-6.692,7.973-4.022,4.3,6.083,15.19,8.776,15.452s5.244-1.719,7.384-3.436c3.15-2.525,5.983-5.646,9.465-7.82,3.4-2.12,7.364-2.388,11.029-3.806,3.441-1.333,6.723-3.072,10.358-3.852" fill="#fff"/><path d="M230.506,101.678c-2.54,1.994-6.717,5.708-9.7,1.851-2.843-3.673,2.778-6.942,5.429-8.983,1.677-1.291,3.416-2.517,5.2-3.69,1.884-1.238,2.111-2.339.024-3.665-3.6-2.288-8.068-2.364-12.272-2.541-4.721-.2-9.449-.392-14.172-.536-3.6-.11-9.221-1.591-6.776-5.932,1.455-2.583,5.993-1.913,8.636-1.881,5.207.063,10.477.447,15.676.32-4.347-1.7-9.3-2.621-13.808-3.963-2.317-.689-4.625-1.4-6.913-2.168-1.854-.619-3.371-1.261-3.594-3.228-.32-2.812,2.2-4.661,5.187-4.189,3.262.516,6.5,1.822,9.676,2.682,3.492.946,6.983,1.892,10.467,2.863-4.117-2.319-8.11-4.806-12.23-7.12-3.018-1.667-7.433-5.475-2.738-8.115,3.14-1.766,7.066,1.054,9.621,2.552q3.465,2.029,6.942,4.043l3.475,2.016a18.24,18.24,0,0,0,2.123,1.208c.284.118.676.358.964.127.251-.2.174-.562.085-.824a12.141,12.141,0,0,0-.969-1.684c-.713-1.366-1.409-2.738-2.111-4.109-.939-1.836-1.963-3.642-2.831-5.513a12.369,12.369,0,0,1-1-2.826,2.672,2.672,0,0,1,1.377-3.217,3.13,3.13,0,0,1,3.326.616c4.213,4.026,6.294,9.907,10.287,14.2,3.182,3.424,8.771,5.8,12.943,7.826,3.568,1.734,6.7.171,10.409-.043,5.878-.341,7.784,14.392,6.263,16.63s-4.677,2.93-7.365,3.477c-3.956.805-8.167.987-12.066,2.273-3.8,1.254-6.546,4.132-9.981,6.042-3.225,1.792-6.661,3.2-9.586,5.5" fill="#fff"/></g></svg>