<svg xmlns="http://www.w3.org/2000/svg" xmlns:xlink="http://www.w3.org/1999/xlink" width="252.923" height="235.607" viewBox="0 0 252.923 235.607"><defs><clipPath id="a"><rect width="252.923" height="235.607" fill="none"/></clipPath></defs><g clip-path="url(#a)"><path d="M150.543,101.886a8.206,8.206,0,0,1,8.12-7.01h88.244a6.016,6.016,0,0,1,5.951,6.894L241.04,193.362a6.015,6.015,0,0,1-5.951,5.139h-90a6.016,6.016,0,0,1-5.951-6.891Z" fill="#fff"/><path d="M238.19,119.373H221.259a3.223,3.223,0,0,1-3.187-3.7l1.334-8.891a3.221,3.221,0,0,1,3.186-2.745H239.3a3.223,3.223,0,0,1,3.2,3.623l-1.113,8.891a3.221,3.221,0,0,1-3.2,2.822" fill="#fff441"/><path d="M159.559,110.265c1.629,0,1.629,2.589,3.259,2.589s1.63-2.589,3.26-2.589,1.63,2.589,3.261,2.589,1.63-2.589,3.26-2.589,1.631,2.589,3.261,2.589" fill="none" stroke="#41414b" stroke-linecap="round" stroke-miterlimit="10" stroke-width="1.105"/><path d="M157.634,121.346c1.629,0,1.629,2.589,3.259,2.589s1.63-2.589,3.26-2.589,1.63,2.589,3.261,2.589,1.63-2.589,3.26-2.589,1.631,2.589,3.261,2.589" fill="none" stroke="#41414b" stroke-linecap="round" stroke-miterlimit="10" stroke-width="1.105"/><path d="M168.05,182.5c1.629,0,1.629,2.589,3.259,2.589s1.63-2.589,3.26-2.589,1.63,2.589,3.261,2.589,1.63-2.589,3.26-2.589,1.631,2.589,3.261,2.589" fill="none" stroke="#41414b" stroke-linecap="round" stroke-miterlimit="10" stroke-width="1.105"/><path d="M209.885,182.5c1.629,0,1.629,2.589,3.259,2.589s1.63-2.589,3.26-2.589,1.63,2.589,3.261,2.589,1.63-2.589,3.26-2.589,1.631,2.589,3.261,2.589" fill="none" stroke="#41414b" stroke-linecap="round" stroke-miterlimit="10" stroke-width="1.105"/><path d="M150.656,169.523c1.558,0,1.558,2.588,3.116,2.588s1.558-2.588,3.116-2.588,1.558,2.588,3.116,2.588,1.558-2.588,3.116-2.588,1.559,2.588,3.117,2.588,1.558-2.588,3.117-2.588,1.556,2.588,3.113,2.588,1.558-2.588,3.117-2.588,1.557,2.588,3.114,2.588,1.558-2.588,3.116-2.588,1.559,2.588,3.118,2.588,1.558-2.588,3.117-2.588,1.559,2.588,3.118,2.588,1.558-2.588,3.116-2.588,1.559,2.588,3.117,2.588,1.56-2.588,3.12-2.588,1.561,2.588,3.122,2.588,1.561-2.588,3.122-2.588" fill="none" stroke="#41414b" stroke-linecap="round" stroke-miterlimit="10" stroke-width="1.105"/><path d="M155.41,135.608c1.558,0,1.558,2.589,3.116,2.589s1.558-2.589,3.116-2.589,1.558,2.589,3.116,2.589,1.558-2.589,3.116-2.589,1.559,2.589,3.117,2.589,1.558-2.589,3.117-2.589,1.556,2.589,3.113,2.589,1.558-2.589,3.117-2.589,1.557,2.589,3.114,2.589,1.558-2.589,3.116-2.589,1.559,2.589,3.118,2.589,1.558-2.589,3.117-2.589,1.559,2.589,3.118,2.589,1.558-2.589,3.116-2.589,1.559,2.589,3.117,2.589,1.56-2.589,3.12-2.589,1.561,2.589,3.122,2.589,1.561-2.589,3.122-2.589" fill="none" stroke="#41414b" stroke-linecap="round" stroke-miterlimit="10" stroke-width="1.105"/><path d="M151.7,159.054c1.558,0,1.558,2.588,3.116,2.588s1.558-2.588,3.116-2.588,1.558,2.588,3.116,2.588,1.558-2.588,3.116-2.588,1.559,2.588,3.117,2.588,1.559-2.588,3.117-2.588,1.557,2.588,3.113,2.588,1.558-2.588,3.117-2.588,1.557,2.588,3.114,2.588,1.558-2.588,3.116-2.588,1.559,2.588,3.118,2.588,1.559-2.588,3.117-2.588,1.559,2.588,3.118,2.588,1.558-2.588,3.116-2.588,1.559,2.588,3.117,2.588,1.56-2.588,3.12-2.588,1.561,2.588,3.122,2.588,1.561-2.588,3.122-2.588" fill="none" stroke="#41414b" stroke-linecap="round" stroke-miterlimit="10" stroke-width="1.105"/><path d="M178.71,147.371c1.558,0,1.558,2.588,3.116,2.588s1.558-2.588,3.116-2.588,1.558,2.588,3.116,2.588,1.558-2.588,3.116-2.588,1.559,2.588,3.117,2.588,1.559-2.588,3.117-2.588,1.557,2.588,3.113,2.588,1.558-2.588,3.117-2.588,1.557,2.588,3.114,2.588,1.558-2.588,3.116-2.588,1.559,2.588,3.118,2.588,1.559-2.588,3.117-2.588,1.559,2.588,3.118,2.588,1.558-2.588,3.116-2.588,1.559,2.588,3.117,2.588,1.56-2.588,3.12-2.588,1.561,2.588,3.122,2.588,1.561-2.588,3.122-2.588" fill="none" stroke="#41414b" stroke-linecap="round" stroke-miterlimit="10" stroke-width="1.105"/><path d="M119.491,138.992a8.206,8.206,0,0,1,8.12-7.01h88.244a6.016,6.016,0,0,1,5.951,6.894l-11.818,91.592a6.015,6.015,0,0,1-5.951,5.139h-90a6.016,6.016,0,0,1-5.951-6.891Z" fill="#fff"/><path d="M207.137,156.479H190.206a3.221,3.221,0,0,1-3.186-3.7l1.334-8.891a3.219,3.219,0,0,1,3.185-2.745h16.71a3.222,3.222,0,0,1,3.2,3.623l-1.112,8.891a3.223,3.223,0,0,1-3.2,2.822" fill="#fff441"/><path d="M128.507,147.371c1.629,0,1.629,2.589,3.259,2.589s1.63-2.589,3.26-2.589,1.63,2.589,3.261,2.589,1.63-2.589,3.26-2.589,1.631,2.589,3.261,2.589" fill="none" stroke="#41414b" stroke-linecap="round" stroke-miterlimit="10" stroke-width="1.105"/><path d="M126.582,158.452c1.629,0,1.629,2.589,3.259,2.589s1.63-2.589,3.26-2.589,1.63,2.589,3.261,2.589,1.63-2.589,3.26-2.589,1.631,2.589,3.261,2.589" fill="none" stroke="#41414b" stroke-linecap="round" stroke-miterlimit="10" stroke-width="1.105"/><path d="M137,219.606c1.629,0,1.629,2.589,3.26,2.589s1.63-2.589,3.259-2.589,1.63,2.589,3.261,2.589,1.631-2.589,3.26-2.589,1.632,2.589,3.261,2.589" fill="none" stroke="#41414b" stroke-linecap="round" stroke-miterlimit="10" stroke-width="1.105"/><path d="M178.833,219.606c1.629,0,1.629,2.589,3.259,2.589s1.63-2.589,3.26-2.589,1.63,2.589,3.261,2.589,1.63-2.589,3.26-2.589,1.631,2.589,3.261,2.589" fill="none" stroke="#41414b" stroke-linecap="round" stroke-miterlimit="10" stroke-width="1.105"/><path d="M119.6,206.629c1.558,0,1.558,2.588,3.116,2.588s1.558-2.588,3.116-2.588,1.558,2.588,3.116,2.588,1.558-2.588,3.116-2.588,1.559,2.588,3.117,2.588,1.558-2.588,3.117-2.588,1.557,2.588,3.113,2.588,1.558-2.588,3.117-2.588,1.557,2.588,3.114,2.588,1.558-2.588,3.116-2.588,1.559,2.588,3.118,2.588,1.558-2.588,3.117-2.588,1.559,2.588,3.118,2.588,1.558-2.588,3.116-2.588,1.559,2.588,3.117,2.588,1.56-2.588,3.12-2.588,1.561,2.588,3.122,2.588,1.561-2.588,3.122-2.588" fill="none" stroke="#41414b" stroke-linecap="round" stroke-miterlimit="10" stroke-width="1.105"/><path d="M124.358,172.714c1.558,0,1.558,2.589,3.116,2.589s1.558-2.589,3.116-2.589,1.558,2.589,3.116,2.589,1.558-2.589,3.116-2.589,1.559,2.589,3.117,2.589,1.558-2.589,3.117-2.589,1.556,2.589,3.113,2.589,1.558-2.589,3.117-2.589,1.557,2.589,3.114,2.589,1.558-2.589,3.116-2.589,1.559,2.589,3.118,2.589,1.558-2.589,3.117-2.589,1.559,2.589,3.118,2.589,1.558-2.589,3.116-2.589,1.559,2.589,3.117,2.589,1.56-2.589,3.12-2.589,1.561,2.589,3.122,2.589,1.561-2.589,3.122-2.589" fill="none" stroke="#41414b" stroke-linecap="round" stroke-miterlimit="10" stroke-width="1.105"/><path d="M120.648,196.16c1.558,0,1.558,2.588,3.116,2.588s1.558-2.588,3.116-2.588,1.558,2.588,3.116,2.588,1.558-2.588,3.116-2.588,1.559,2.588,3.117,2.588,1.559-2.588,3.117-2.588,1.557,2.588,3.113,2.588,1.558-2.588,3.117-2.588,1.557,2.588,3.114,2.588,1.558-2.588,3.116-2.588,1.559,2.588,3.118,2.588,1.559-2.588,3.117-2.588,1.559,2.588,3.118,2.588,1.558-2.588,3.116-2.588,1.559,2.588,3.117,2.588,1.56-2.588,3.12-2.588,1.561,2.588,3.122,2.588,1.561-2.588,3.122-2.588" fill="none" stroke="#41414b" stroke-linecap="round" stroke-miterlimit="10" stroke-width="1.105"/><path d="M147.658,184.477c1.558,0,1.558,2.588,3.116,2.588s1.558-2.588,3.116-2.588,1.558,2.588,3.116,2.588,1.558-2.588,3.116-2.588,1.559,2.588,3.117,2.588,1.559-2.588,3.117-2.588,1.557,2.588,3.113,2.588,1.558-2.588,3.117-2.588,1.557,2.588,3.114,2.588,1.558-2.588,3.116-2.588,1.559,2.588,3.118,2.588,1.559-2.588,3.117-2.588,1.559,2.588,3.118,2.588,1.558-2.588,3.116-2.588,1.559,2.588,3.117,2.588,1.56-2.588,3.12-2.588,1.561,2.588,3.122,2.588,1.561-2.588,3.122-2.588" fill="none" stroke="#41414b" stroke-linecap="round" stroke-miterlimit="10" stroke-width="1.105"/><path d="M67.3,127.229a8.206,8.206,0,0,1,8.12-7.01h88.244a6.015,6.015,0,0,1,5.951,6.894L157.8,218.705a6.015,6.015,0,0,1-5.951,5.139h-90a6.016,6.016,0,0,1-5.951-6.891Z" fill="#fff"/><path d="M154.95,144.715H138.019a3.223,3.223,0,0,1-3.187-3.7l1.334-8.891a3.221,3.221,0,0,1,3.186-2.745h16.71a3.223,3.223,0,0,1,3.2,3.623l-1.113,8.891a3.221,3.221,0,0,1-3.2,2.822" fill="#fff441"/><path d="M76.319,135.608c1.629,0,1.629,2.589,3.259,2.589s1.63-2.589,3.26-2.589,1.63,2.589,3.261,2.589,1.63-2.589,3.26-2.589S90.99,138.2,92.62,138.2" fill="none" stroke="#41414b" stroke-linecap="round" stroke-miterlimit="10" stroke-width="1.105"/><path d="M74.394,146.688c1.629,0,1.629,2.589,3.259,2.589s1.63-2.589,3.26-2.589,1.63,2.589,3.261,2.589,1.63-2.589,3.26-2.589,1.631,2.589,3.261,2.589" fill="none" stroke="#41414b" stroke-linecap="round" stroke-miterlimit="10" stroke-width="1.105"/><path d="M84.81,207.843c1.629,0,1.629,2.589,3.259,2.589s1.63-2.589,3.26-2.589,1.63,2.589,3.261,2.589,1.63-2.589,3.26-2.589,1.631,2.589,3.261,2.589" fill="none" stroke="#41414b" stroke-linecap="round" stroke-miterlimit="10" stroke-width="1.105"/><path d="M126.645,207.843c1.629,0,1.629,2.589,3.259,2.589s1.63-2.589,3.26-2.589,1.63,2.589,3.261,2.589,1.63-2.589,3.26-2.589,1.631,2.589,3.261,2.589" fill="none" stroke="#41414b" stroke-linecap="round" stroke-miterlimit="10" stroke-width="1.105"/><path d="M67.416,194.866c1.558,0,1.558,2.588,3.116,2.588s1.558-2.588,3.116-2.588,1.558,2.588,3.116,2.588,1.558-2.588,3.116-2.588,1.559,2.588,3.117,2.588,1.558-2.588,3.117-2.588,1.557,2.588,3.113,2.588,1.558-2.588,3.117-2.588,1.557,2.588,3.114,2.588,1.558-2.588,3.116-2.588,1.559,2.588,3.118,2.588,1.558-2.588,3.117-2.588,1.559,2.588,3.118,2.588,1.558-2.588,3.116-2.588,1.559,2.588,3.117,2.588,1.56-2.588,3.12-2.588,1.561,2.588,3.122,2.588,1.561-2.588,3.122-2.588" fill="none" stroke="#41414b" stroke-linecap="round" stroke-miterlimit="10" stroke-width="1.105"/><path d="M72.171,160.951c1.558,0,1.558,2.589,3.116,2.589s1.558-2.589,3.116-2.589,1.558,2.589,3.116,2.589,1.558-2.589,3.116-2.589,1.559,2.589,3.117,2.589,1.558-2.589,3.117-2.589,1.556,2.589,3.113,2.589,1.558-2.589,3.117-2.589,1.557,2.589,3.114,2.589,1.558-2.589,3.116-2.589,1.559,2.589,3.118,2.589,1.558-2.589,3.117-2.589,1.559,2.589,3.118,2.589,1.558-2.589,3.116-2.589,1.559,2.589,3.117,2.589,1.56-2.589,3.12-2.589,1.561,2.589,3.122,2.589,1.561-2.589,3.122-2.589" fill="none" stroke="#41414b" stroke-linecap="round" stroke-miterlimit="10" stroke-width="1.105"/><path d="M68.46,184.4c1.558,0,1.558,2.588,3.116,2.588s1.558-2.588,3.116-2.588,1.558,2.588,3.116,2.588,1.558-2.588,3.116-2.588,1.559,2.588,3.117,2.588S85.6,184.4,87.158,184.4s1.557,2.588,3.113,2.588,1.558-2.588,3.117-2.588,1.557,2.588,3.114,2.588,1.558-2.588,3.116-2.588,1.559,2.588,3.118,2.588,1.559-2.588,3.117-2.588,1.559,2.588,3.118,2.588,1.558-2.588,3.116-2.588,1.559,2.588,3.117,2.588,1.56-2.588,3.12-2.588,1.561,2.588,3.122,2.588,1.561-2.588,3.122-2.588" fill="none" stroke="#41414b" stroke-linecap="round" stroke-miterlimit="10" stroke-width="1.105"/><path d="M95.47,172.714c1.558,0,1.558,2.588,3.116,2.588s1.558-2.588,3.116-2.588,1.558,2.588,3.116,2.588,1.558-2.588,3.116-2.588,1.559,2.588,3.117,2.588,1.559-2.588,3.117-2.588,1.557,2.588,3.113,2.588,1.558-2.588,3.117-2.588,1.557,2.588,3.114,2.588,1.558-2.588,3.116-2.588,1.559,2.588,3.118,2.588,1.559-2.588,3.117-2.588,1.559,2.588,3.118,2.588,1.558-2.588,3.116-2.588,1.559,2.588,3.117,2.588,1.56-2.588,3.12-2.588,1.561,2.588,3.122,2.588,1.561-2.588,3.122-2.588" fill="none" stroke="#41414b" stroke-linecap="round" stroke-miterlimit="10" stroke-width="1.105"/><path d="M99.279,8.927c-9.115,33.007-16.5,40.4-49.51,49.511,33.006,9.114,40.4,16.5,49.51,49.509,9.114-33.006,16.5-40.395,49.51-49.509-33.008-9.115-40.4-16.5-49.51-49.511" fill="#fff441"/><path d="M45.525,85.185c-4.191,15.175-7.588,18.572-22.762,22.763,15.174,4.19,18.571,7.587,22.762,22.762,4.19-15.175,7.587-18.572,22.761-22.762-15.174-4.191-18.571-7.588-22.761-22.763" fill="#fff441"/><path d="M22.762,0C18.571,15.175,15.174,18.572,0,22.763c15.174,4.19,18.571,7.587,22.762,22.762,4.19-15.175,7.587-18.572,22.762-22.762C30.349,18.572,26.952,15.175,22.762,0" fill="#fff441"/></g></svg>