<svg xmlns="http://www.w3.org/2000/svg" xmlns:xlink="http://www.w3.org/1999/xlink" width="350.387" height="204.235" viewBox="0 0 350.387 204.235"><defs><clipPath id="a"><rect width="350.387" height="204.235" fill="none"/></clipPath></defs><g clip-path="url(#a)"><path d="M339.021,37.71a7.626,7.626,0,0,0-4.307-6.863c2.952-1.286-133.745-1.532-130.986-.171a7.62,7.62,0,0,0,.267,14.151,7.6,7.6,0,0,0-.568,13.987A7.592,7.592,0,0,0,204.645,73a7.614,7.614,0,0,0,8.852,11.64A7.4,7.4,0,0,0,227.135,86,7.43,7.43,0,0,0,241.1,87.807a7.408,7.408,0,0,0,13.816,1.435,7.426,7.426,0,0,0,14.127.917,7.426,7.426,0,0,0,14.127-.917,7.408,7.408,0,0,0,13.816-1.435A7.43,7.43,0,0,0,310.953,86a7.4,7.4,0,0,0,13.638-1.357,7.525,7.525,0,0,0,2.723.508A7.605,7.605,0,0,0,333.443,73a7.591,7.591,0,0,0,1.217-14.189,7.6,7.6,0,0,0-.567-13.987,7.618,7.618,0,0,0,4.928-7.117" fill="#fff"/><path d="M350.387,48.8c0,21.987-36.26,16.247-80.988,16.247S188.41,70.784,188.41,48.8,224.67,8.987,269.4,8.987c32.058,0,59.766,9.156,72.891,22.438,5.188,5.25,8.1,11.144,8.1,17.372" fill="#e4543f"/><path d="M242.762,65.49c-14.964-5.444-25.136-16.014-25.136-28.136,0-9.868,6.743-18.7,17.321-24.588a118.377,118.377,0,0,0-12.838,3.723c-5.96,5.928-9.465,13.118-9.465,20.865,0,11.4,7.569,21.6,19.419,28.335,3.431-.039,7-.112,10.7-.2" fill="#f96648"/><path d="M243.571,37.353c0-12.3,10.476-23,25.8-28.366q-6.145,0-12.056.443c-11.445,6.736-18.724,16.751-18.724,27.923,0,11.112,7.2,21.079,18.541,27.814,3.411-.062,6.9-.1,10.433-.116-14.332-5.559-23.992-15.889-23.992-27.7" fill="#f96648"/><path d="M269.516,37.353c0-11.237,8.749-21.136,21.946-26.858q-4.127-.573-8.421-.935c-11.32,6.735-18.507,16.693-18.507,27.793,0,11.128,7.222,21.107,18.59,27.843,3.916.076,7.735.17,11.437.258-14.913-5.454-25.045-16-25.045-28.1" fill="#f96648"/><path d="M295.461,37.353c0-9,5.617-17.143,14.633-22.97q-2.908-.834-5.96-1.554c-8.482,6.5-13.655,15.1-13.655,24.524,0,11.413,7.588,21.624,19.463,28.36,3.805.015,7.422-.027,10.8-.17-15.045-5.428-25.283-16.028-25.283-28.19" fill="#f96648"/><path d="M321.406,37.353c0-5.85,2.38-11.334,6.514-16.06-1.437-.739-2.922-1.454-4.471-2.136a28.356,28.356,0,0,0-7.025,18.2c0,10.619,6.575,20.195,17.055,26.9a39.745,39.745,0,0,0,6.416-1.692c-11.245-5.872-18.489-14.986-18.489-25.21" fill="#f96648"/><path d="M239.011,92.149a12.1,12.1,0,0,0-6.835-10.891c4.684-2.04-212.246-2.432-207.867-.271a12.092,12.092,0,0,0,.422,22.456,12.058,12.058,0,0,0-.9,22.2,12.047,12.047,0,0,0,1.933,22.517,12.082,12.082,0,0,0,14.047,18.472,11.739,11.739,0,0,0,21.643,2.154,11.79,11.79,0,0,0,22.163,2.868,11.756,11.756,0,0,0,21.926,2.276,11.784,11.784,0,0,0,22.418,1.456,11.784,11.784,0,0,0,22.418-1.456,11.756,11.756,0,0,0,21.926-2.276,11.79,11.79,0,0,0,22.163-2.868,11.739,11.739,0,0,0,21.643-2.154,11.942,11.942,0,0,0,4.322.807,12.068,12.068,0,0,0,9.725-19.279,12.047,12.047,0,0,0,1.933-22.517,12.058,12.058,0,0,0-.9-22.2,12.089,12.089,0,0,0,7.821-11.294" fill="#fff"/><path d="M257.049,104.647c0,34.892-57.542,25.783-128.524,25.783S0,139.539,0,104.647,57.543,41.47,128.525,41.47s128.524,28.286,128.524,63.177" fill="#ff8f00"/><path d="M86.253,131.136c-23.746-8.639-39.89-25.413-39.89-44.651,0-15.658,10.7-29.681,27.487-39.018a188.315,188.315,0,0,0-20.373,5.907c-9.458,9.409-15.02,20.818-15.02,33.111,0,18.09,12.012,34.278,30.817,44.968,5.444-.062,11.113-.179,16.979-.317" fill="#ffaa4d"/><path d="M87.536,86.486c0-19.517,16.624-36.492,40.941-45.015q-9.755,0-19.133.7C91.181,52.864,79.63,68.757,79.63,86.486c0,17.634,11.429,33.451,29.424,44.139,5.412-.1,10.944-.165,16.556-.184-22.745-8.822-38.074-25.215-38.074-43.955" fill="#ffaa4d"/><path d="M128.71,86.486c0-17.833,13.883-33.541,34.827-42.623q-6.549-.909-13.364-1.482C132.21,53.069,120.8,68.87,120.8,86.486c0,17.659,11.461,33.5,29.5,44.185,6.214.121,12.275.27,18.15.41-23.666-8.655-39.745-25.4-39.745-44.595" fill="#ffaa4d"/><path d="M169.883,86.486c0-14.286,8.914-27.206,23.222-36.452-3.078-.882-6.225-1.711-9.458-2.466-13.461,10.322-21.67,23.969-21.67,38.918,0,18.112,12.042,34.316,30.887,45.006,6.037.023,11.778-.043,17.141-.27-23.874-8.614-40.122-25.436-40.122-44.736" fill="#ffaa4d"/><path d="M211.056,86.486c0-9.284,3.778-17.987,10.337-25.486-2.281-1.172-4.637-2.307-7.094-3.391-7.079,8.518-11.149,18.373-11.149,28.877,0,16.852,10.435,32.048,27.065,42.691a62.89,62.89,0,0,0,10.181-2.683c-17.843-9.319-29.34-23.783-29.34-40.008" fill="#ffaa4d"/><path d="M260.663,169.446c-2.47-2.079-6.959-5.411-3.792-9.12,3.016-3.532,7.363,1.3,9.9,3.482,1.606,1.378,3.161,2.83,4.673,4.337,1.6,1.592,2.721,1.589,3.593-.725,1.505-3.992.668-8.38-.017-12.531-.769-4.663-1.543-9.331-2.366-13.983-.627-3.543-.325-9.352,4.425-7.844,2.824.9,3.1,5.476,3.6,8.07,1,5.11,1.7,10.348,2.886,15.412.775-4.6.667-9.639,1.061-14.327.2-2.408.43-4.814.712-7.21.228-1.941.547-3.557,2.427-4.177,2.687-.887,5.012,1.2,5.159,4.223.161,3.3-.457,6.734-.651,10.021-.213,3.611-.427,7.222-.667,10.83,1.43-4.5,3.05-8.92,4.475-13.425,1.015-3.295,3.843-8.394,7.385-4.337,2.369,2.714.41,7.132-.535,9.94q-1.281,3.806-2.542,7.62-.632,1.907-1.264,3.814a18.247,18.247,0,0,0-.75,2.325c-.057.3-.212.734.073.969.248.2.585.056.825-.084a12.258,12.258,0,0,0,1.45-1.293c1.191-.977,2.393-1.938,3.592-2.9,1.6-1.294,3.165-2.665,4.819-3.9a12.409,12.409,0,0,1,2.563-1.551,2.672,2.672,0,0,1,3.431.692,3.128,3.128,0,0,1,.075,3.381c-3.082,4.946-8.414,8.183-11.8,12.969-2.7,3.814-3.887,9.769-5.021,14.268-.969,3.846,1.2,6.6,2.166,10.18,1.533,5.686-12.5,10.558-15,9.526s-3.823-3.981-4.907-6.5c-1.6-3.708-2.633-7.794-4.687-11.348-2-3.466-5.381-5.565-7.951-8.538-2.413-2.792-4.494-5.868-7.338-8.263" fill="#fff"/><path d="M56.958,51.561c1.59,2.81,4.04,7.835,8.268,5.4,4.026-2.315.073-7.477-1.6-10.373-1.06-1.832-2.2-3.627-3.405-5.39-1.271-1.862-1.062-2.967,1.373-3.4,4.2-.746,8.36.883,12.315,2.319,4.442,1.613,8.888,3.232,13.31,4.9,3.368,1.267,9.133,2.037,8.524-2.908-.363-2.942-4.815-4.049-7.272-5.025-4.839-1.923-9.858-3.573-14.618-5.669,4.666.084,9.6,1.115,14.277,1.589,2.4.244,4.811.462,7.218.625,1.95.133,3.6.117,4.552-1.617,1.366-2.479-.26-5.148-3.2-5.848-3.213-.764-6.7-.788-9.969-1.2-3.589-.454-7.178-.907-10.769-1.335,4.689-.578,9.329-1.359,14.019-1.931,3.425-.393,8.957-2.236,5.62-6.463-2.232-2.828-6.935-1.714-9.869-1.3q-3.977.56-7.958,1.1l-3.981.542a18.3,18.3,0,0,1-2.423.309c-.306,0-.76.074-.939-.249-.155-.282.053-.586.234-.8A12.381,12.381,0,0,1,72.2,13.65c1.18-.991,2.345-1.995,3.516-3,1.567-1.34,3.2-2.622,4.716-4.021a12.393,12.393,0,0,0,2-2.235,2.672,2.672,0,0,0-.05-3.5A3.127,3.127,0,0,0,79.064.2c-5.428,2.12-9.589,6.766-14.917,9.221C59.9,11.381,53.83,11.45,49.2,11.738c-3.959.246-6.267-2.392-9.61-4-5.306-2.551-12.675,10.349-12.119,13s3.21,4.489,5.488,6.018c3.352,2.249,7.177,4.02,10.293,6.692,3.039,2.606,4.482,6.312,6.932,9.385,2.3,2.885,4.943,5.495,6.774,8.731" fill="#fff"/></g></svg>