<svg xmlns="http://www.w3.org/2000/svg" xmlns:xlink="http://www.w3.org/1999/xlink" width="292.903" height="226.739" viewBox="0 0 292.903 226.739"><defs><clipPath id="a"><rect width="292.903" height="226.739" fill="none"/></clipPath></defs><g clip-path="url(#a)"><path d="M142.821,30.715a12.029,12.029,0,0,1,11.9-10.276H284.083a8.817,8.817,0,0,1,8.723,10.106L275.482,164.812a8.817,8.817,0,0,1-8.723,7.533H134.82a8.817,8.817,0,0,1-8.723-10.1Z" fill="#fff"/><path d="M271.3,56.349h-24.82a4.723,4.723,0,0,1-4.671-5.424l1.955-13.034a4.724,4.724,0,0,1,4.671-4.023h24.495a4.725,4.725,0,0,1,4.688,5.31l-1.631,13.034a4.724,4.724,0,0,1-4.687,4.137" fill="#6748ff"/><path d="M156.038,43c2.389,0,2.389,3.795,4.777,3.795S163.205,43,165.6,43s2.39,3.795,4.779,3.795S172.764,43,175.154,43s2.39,3.795,4.78,3.795" fill="none" stroke="#41414b" stroke-linecap="round" stroke-miterlimit="10" stroke-width="1.619"/><path d="M153.216,59.241c2.389,0,2.389,3.795,4.777,3.795s2.39-3.795,4.78-3.795,2.39,3.795,4.779,3.795,2.39-3.795,4.78-3.795,2.39,3.795,4.78,3.795" fill="none" stroke="#41414b" stroke-linecap="round" stroke-miterlimit="10" stroke-width="1.619"/><path d="M168.485,148.889c2.389,0,2.389,3.795,4.777,3.795s2.39-3.795,4.78-3.795,2.39,3.795,4.779,3.795,2.39-3.795,4.78-3.795,2.39,3.795,4.78,3.795" fill="none" stroke="#41414b" stroke-linecap="round" stroke-miterlimit="10" stroke-width="1.619"/><path d="M229.812,148.889c2.389,0,2.389,3.795,4.777,3.795s2.39-3.795,4.78-3.795,2.39,3.795,4.779,3.795,2.39-3.795,4.78-3.795,2.39,3.795,4.78,3.795" fill="none" stroke="#41414b" stroke-linecap="round" stroke-miterlimit="10" stroke-width="1.619"/><path d="M142.987,129.865c2.284,0,2.284,3.794,4.567,3.794s2.284-3.794,4.569-3.794,2.283,3.794,4.567,3.794,2.284-3.794,4.568-3.794,2.285,3.794,4.57,3.794,2.284-3.794,4.568-3.794,2.282,3.794,4.565,3.794,2.284-3.794,4.568-3.794,2.283,3.794,4.566,3.794,2.284-3.794,4.568-3.794,2.285,3.794,4.569,3.794,2.286-3.794,4.571-3.794,2.285,3.794,4.569,3.794,2.285-3.794,4.569-3.794,2.285,3.794,4.57,3.794,2.286-3.794,4.573-3.794,2.288,3.794,4.576,3.794,2.289-3.794,4.577-3.794" fill="none" stroke="#41414b" stroke-linecap="round" stroke-miterlimit="10" stroke-width="1.619"/><path d="M149.956,80.148c2.284,0,2.284,3.795,4.567,3.795s2.284-3.795,4.568-3.795,2.285,3.795,4.569,3.795,2.283-3.795,4.567-3.795,2.285,3.795,4.571,3.795,2.283-3.795,4.567-3.795,2.282,3.795,4.565,3.795,2.284-3.795,4.569-3.795,2.282,3.795,4.565,3.795,2.284-3.795,4.568-3.795,2.285,3.795,4.57,3.795,2.285-3.795,4.57-3.795,2.284,3.795,4.569,3.795,2.285-3.795,4.569-3.795,2.285,3.795,4.569,3.795,2.287-3.795,4.574-3.795,2.288,3.795,4.576,3.795,2.289-3.795,4.577-3.795" fill="none" stroke="#41414b" stroke-linecap="round" stroke-miterlimit="10" stroke-width="1.619"/><path d="M144.517,114.519c2.284,0,2.284,3.794,4.567,3.794s2.284-3.794,4.569-3.794,2.283,3.794,4.567,3.794,2.284-3.794,4.568-3.794,2.285,3.794,4.57,3.794,2.284-3.794,4.568-3.794,2.283,3.794,4.565,3.794,2.284-3.794,4.568-3.794,2.283,3.794,4.566,3.794,2.284-3.794,4.568-3.794,2.285,3.794,4.57,3.794,2.285-3.794,4.57-3.794,2.285,3.794,4.57,3.794,2.284-3.794,4.568-3.794,2.285,3.794,4.57,3.794,2.286-3.794,4.573-3.794,2.288,3.794,4.576,3.794,2.289-3.794,4.577-3.794" fill="none" stroke="#41414b" stroke-linecap="round" stroke-miterlimit="10" stroke-width="1.619"/><path d="M184.112,97.392c2.284,0,2.284,3.794,4.567,3.794s2.284-3.794,4.569-3.794,2.283,3.794,4.567,3.794,2.284-3.794,4.568-3.794,2.285,3.794,4.57,3.794,2.284-3.794,4.568-3.794,2.283,3.794,4.565,3.794,2.284-3.794,4.568-3.794,2.283,3.794,4.566,3.794,2.284-3.794,4.568-3.794,2.285,3.794,4.57,3.794,2.285-3.794,4.57-3.794,2.285,3.794,4.57,3.794,2.284-3.794,4.568-3.794,2.285,3.794,4.57,3.794,2.286-3.794,4.573-3.794,2.288,3.794,4.576,3.794,2.289-3.794,4.577-3.794" fill="none" stroke="#41414b" stroke-linecap="round" stroke-miterlimit="10" stroke-width="1.619"/><path d="M97.3,85.109a12.029,12.029,0,0,1,11.9-10.276H238.563a8.818,8.818,0,0,1,8.723,10.106L229.962,219.206a8.818,8.818,0,0,1-8.723,7.534H89.3a8.817,8.817,0,0,1-8.723-10.1Z" fill="#fff"/><path d="M225.784,110.743h-24.82a4.723,4.723,0,0,1-4.671-5.424l1.955-13.034a4.724,4.724,0,0,1,4.671-4.023h24.5a4.724,4.724,0,0,1,4.687,5.31l-1.631,13.034a4.724,4.724,0,0,1-4.687,4.137" fill="#6748ff"/><path d="M110.518,97.392c2.389,0,2.389,3.795,4.777,3.795s2.39-3.795,4.78-3.795,2.39,3.795,4.779,3.795,2.39-3.795,4.78-3.795,2.39,3.795,4.78,3.795" fill="none" stroke="#41414b" stroke-linecap="round" stroke-miterlimit="10" stroke-width="1.619"/><path d="M107.7,113.636c2.389,0,2.389,3.795,4.777,3.795s2.39-3.795,4.78-3.795,2.39,3.795,4.779,3.795,2.39-3.795,4.78-3.795,2.39,3.795,4.78,3.795" fill="none" stroke="#41414b" stroke-linecap="round" stroke-miterlimit="10" stroke-width="1.619"/><path d="M122.965,203.283c2.389,0,2.389,3.795,4.777,3.795s2.39-3.795,4.78-3.795,2.39,3.795,4.779,3.795,2.39-3.795,4.78-3.795,2.39,3.795,4.78,3.795" fill="none" stroke="#41414b" stroke-linecap="round" stroke-miterlimit="10" stroke-width="1.619"/><path d="M184.292,203.283c2.389,0,2.389,3.795,4.777,3.795s2.39-3.795,4.78-3.795,2.39,3.795,4.779,3.795,2.39-3.795,4.78-3.795,2.39,3.795,4.78,3.795" fill="none" stroke="#41414b" stroke-linecap="round" stroke-miterlimit="10" stroke-width="1.619"/><path d="M97.467,184.26c2.283,0,2.283,3.794,4.567,3.794s2.284-3.794,4.569-3.794,2.283,3.794,4.567,3.794,2.284-3.794,4.568-3.794,2.285,3.794,4.57,3.794,2.284-3.794,4.568-3.794,2.282,3.794,4.564,3.794,2.285-3.794,4.569-3.794,2.283,3.794,4.566,3.794,2.284-3.794,4.568-3.794,2.285,3.794,4.569,3.794,2.285-3.794,4.571-3.794,2.284,3.794,4.569,3.794,2.285-3.794,4.569-3.794,2.285,3.794,4.57,3.794,2.286-3.794,4.573-3.794,2.288,3.794,4.576,3.794,2.288-3.794,4.577-3.794" fill="none" stroke="#41414b" stroke-linecap="round" stroke-miterlimit="10" stroke-width="1.619"/><path d="M104.437,134.543c2.283,0,2.283,3.795,4.567,3.795s2.283-3.795,4.568-3.795,2.283,3.795,4.568,3.795,2.284-3.795,4.568-3.795,2.285,3.795,4.569,3.795,2.284-3.795,4.569-3.795,2.282,3.795,4.565,3.795,2.284-3.795,4.568-3.795,2.283,3.795,4.565,3.795,2.284-3.795,4.569-3.795,2.284,3.795,4.569,3.795,2.284-3.795,4.569-3.795,2.285,3.795,4.571,3.795,2.285-3.795,4.569-3.795,2.285,3.795,4.569,3.795,2.286-3.795,4.574-3.795,2.288,3.795,4.575,3.795,2.288-3.795,4.577-3.795" fill="none" stroke="#41414b" stroke-linecap="round" stroke-miterlimit="10" stroke-width="1.619"/><path d="M99,168.913c2.284,0,2.284,3.795,4.567,3.795s2.284-3.795,4.569-3.795,2.283,3.795,4.567,3.795,2.284-3.795,4.568-3.795,2.285,3.795,4.57,3.795,2.284-3.795,4.568-3.795,2.283,3.795,4.565,3.795,2.284-3.795,4.568-3.795,2.283,3.795,4.566,3.795,2.284-3.795,4.568-3.795,2.285,3.795,4.57,3.795,2.285-3.795,4.57-3.795,2.285,3.795,4.57,3.795,2.284-3.795,4.568-3.795,2.285,3.795,4.57,3.795,2.286-3.795,4.573-3.795,2.288,3.795,4.576,3.795,2.289-3.795,4.577-3.795" fill="none" stroke="#41414b" stroke-linecap="round" stroke-miterlimit="10" stroke-width="1.619"/><path d="M138.592,151.787c2.284,0,2.284,3.794,4.567,3.794s2.284-3.794,4.569-3.794,2.283,3.794,4.567,3.794,2.284-3.794,4.568-3.794,2.285,3.794,4.57,3.794,2.284-3.794,4.568-3.794,2.283,3.794,4.565,3.794,2.284-3.794,4.568-3.794,2.283,3.794,4.566,3.794,2.284-3.794,4.568-3.794,2.285,3.794,4.57,3.794,2.285-3.794,4.57-3.794,2.285,3.794,4.57,3.794,2.284-3.794,4.568-3.794,2.285,3.794,4.57,3.794,2.286-3.794,4.573-3.794,2.288,3.794,4.576,3.794,2.289-3.794,4.577-3.794" fill="none" stroke="#41414b" stroke-linecap="round" stroke-miterlimit="10" stroke-width="1.619"/><path d="M20.8,67.865A12.029,12.029,0,0,1,32.7,57.589H162.06a8.817,8.817,0,0,1,8.723,10.106L153.459,201.962a8.817,8.817,0,0,1-8.723,7.533H12.8a8.817,8.817,0,0,1-8.723-10.1Z" fill="#fff"/><path d="M149.281,93.5h-24.82a4.723,4.723,0,0,1-4.671-5.424l1.955-13.034a4.724,4.724,0,0,1,4.671-4.023h24.5a4.724,4.724,0,0,1,4.687,5.31l-1.631,13.034a4.724,4.724,0,0,1-4.687,4.137" fill="#6748ff"/><path d="M34.015,80.148c2.389,0,2.389,3.795,4.777,3.795s2.39-3.795,4.78-3.795,2.39,3.795,4.779,3.795,2.39-3.795,4.78-3.795,2.39,3.795,4.78,3.795" fill="none" stroke="#41414b" stroke-linecap="round" stroke-miterlimit="10" stroke-width="1.619"/><path d="M31.194,96.391c2.389,0,2.389,3.795,4.777,3.795s2.39-3.795,4.779-3.795,2.39,3.795,4.78,3.795,2.39-3.795,4.78-3.795,2.39,3.795,4.78,3.795" fill="none" stroke="#41414b" stroke-linecap="round" stroke-miterlimit="10" stroke-width="1.619"/><path d="M46.462,186.039c2.389,0,2.389,3.795,4.777,3.795s2.39-3.795,4.78-3.795,2.39,3.795,4.779,3.795,2.39-3.795,4.78-3.795,2.39,3.795,4.78,3.795" fill="none" stroke="#41414b" stroke-linecap="round" stroke-miterlimit="10" stroke-width="1.619"/><path d="M107.789,186.039c2.389,0,2.389,3.795,4.777,3.795s2.39-3.795,4.78-3.795,2.39,3.795,4.779,3.795,2.39-3.795,4.78-3.795,2.39,3.795,4.78,3.795" fill="none" stroke="#41414b" stroke-linecap="round" stroke-miterlimit="10" stroke-width="1.619"/><path d="M20.964,167.016c2.284,0,2.284,3.794,4.567,3.794s2.284-3.794,4.569-3.794,2.283,3.794,4.567,3.794,2.284-3.794,4.568-3.794,2.285,3.794,4.57,3.794,2.284-3.794,4.568-3.794,2.282,3.794,4.565,3.794,2.284-3.794,4.568-3.794,2.283,3.794,4.566,3.794,2.284-3.794,4.568-3.794,2.285,3.794,4.569,3.794,2.286-3.794,4.571-3.794,2.285,3.794,4.569,3.794,2.285-3.794,4.569-3.794,2.285,3.794,4.57,3.794,2.286-3.794,4.573-3.794,2.288,3.794,4.576,3.794,2.289-3.794,4.577-3.794" fill="none" stroke="#41414b" stroke-linecap="round" stroke-miterlimit="10" stroke-width="1.619"/><path d="M27.934,117.3c2.284,0,2.284,3.795,4.566,3.795s2.285-3.795,4.569-3.795,2.284,3.795,4.568,3.795S43.921,117.3,46.2,117.3s2.286,3.795,4.57,3.795,2.285-3.795,4.568-3.795,2.283,3.795,4.566,3.795,2.283-3.795,4.568-3.795,2.282,3.795,4.566,3.795,2.284-3.795,4.567-3.795,2.286,3.795,4.57,3.795,2.286-3.795,4.571-3.795,2.284,3.795,4.568,3.795S89.6,117.3,91.887,117.3s2.286,3.795,4.57,3.795,2.286-3.795,4.574-3.795,2.288,3.795,4.575,3.795,2.29-3.795,4.578-3.795" fill="none" stroke="#41414b" stroke-linecap="round" stroke-miterlimit="10" stroke-width="1.619"/><path d="M22.494,151.669c2.284,0,2.284,3.795,4.567,3.795s2.284-3.795,4.569-3.795,2.283,3.795,4.567,3.795,2.284-3.795,4.568-3.795,2.285,3.795,4.57,3.795,2.284-3.795,4.568-3.795,2.283,3.795,4.565,3.795,2.284-3.795,4.568-3.795,2.283,3.795,4.566,3.795,2.284-3.795,4.568-3.795,2.285,3.795,4.57,3.795,2.285-3.795,4.57-3.795,2.285,3.795,4.57,3.795,2.284-3.795,4.568-3.795,2.285,3.795,4.57,3.795,2.286-3.795,4.573-3.795,2.288,3.795,4.576,3.795,2.289-3.795,4.577-3.795" fill="none" stroke="#41414b" stroke-linecap="round" stroke-miterlimit="10" stroke-width="1.619"/><path d="M62.089,134.543c2.284,0,2.284,3.794,4.567,3.794s2.284-3.794,4.569-3.794,2.283,3.794,4.567,3.794,2.284-3.794,4.568-3.794,2.285,3.794,4.57,3.794,2.284-3.794,4.568-3.794,2.283,3.794,4.565,3.794,2.284-3.794,4.568-3.794,2.283,3.794,4.566,3.794,2.284-3.794,4.568-3.794,2.285,3.794,4.57,3.794,2.285-3.794,4.57-3.794,2.285,3.794,4.57,3.794,2.284-3.794,4.568-3.794,2.285,3.794,4.57,3.794,2.286-3.794,4.573-3.794,2.288,3.794,4.576,3.794,2.289-3.794,4.577-3.794" fill="none" stroke="#41414b" stroke-linecap="round" stroke-miterlimit="10" stroke-width="1.619"/><path d="M28.773,0c-3.427,12.412-6.206,15.19-18.617,18.618,12.411,3.427,15.19,6.2,18.617,18.617,3.427-12.412,6.2-15.19,18.617-18.617C34.978,15.19,32.2,12.412,28.773,0" fill="#6748ff"/><path d="M8.559,28.676C6.983,34.382,5.706,35.66,0,37.235c5.706,1.576,6.983,2.853,8.559,8.56,1.576-5.707,2.853-6.984,8.559-8.56-5.706-1.575-6.983-2.853-8.559-8.559" fill="#6748ff"/></g></svg>