<svg xmlns="http://www.w3.org/2000/svg" xmlns:xlink="http://www.w3.org/1999/xlink" width="292.903" height="226.739" viewBox="0 0 292.903 226.739"><defs><clipPath id="a"><rect width="292.903" height="226.739" fill="none"/></clipPath></defs><g clip-path="url(#a)"><path d="M142.821,30.715a12.029,12.029,0,0,1,11.9-10.276H284.083a8.817,8.817,0,0,1,8.723,10.106L275.482,164.812a8.817,8.817,0,0,1-8.723,7.533H134.82a8.817,8.817,0,0,1-8.723-10.1Z" fill="#fff"/><line x1="59.907" transform="translate(155.688 45.685)" fill="none" stroke="#41414b" stroke-linecap="round" stroke-miterlimit="10" stroke-width="1.619"/><line x1="52.882" transform="translate(150.672 70.589)" fill="none" stroke="#41414b" stroke-linecap="round" stroke-miterlimit="10" stroke-width="1.619"/><line x1="48.887" transform="translate(211.767 70.589)" fill="none" stroke="#41414b" stroke-linecap="round" stroke-miterlimit="10" stroke-width="1.619"/><line x1="26.181" transform="translate(149.266 82.046)" fill="none" stroke="#41414b" stroke-linecap="round" stroke-miterlimit="10" stroke-width="1.619"/><line x1="26.181" transform="translate(153.301 58.193)" fill="none" stroke="#41414b" stroke-linecap="round" stroke-miterlimit="10" stroke-width="1.619"/><line x1="82.066" transform="translate(189.838 82.046)" fill="none" stroke="#41414b" stroke-linecap="round" stroke-miterlimit="10" stroke-width="1.619"/><line x1="23.814" transform="translate(246.684 93.502)" fill="none" stroke="#41414b" stroke-linecap="round" stroke-miterlimit="10" stroke-width="1.619"/><line x1="122.496" transform="translate(145.047 116.416)" fill="none" stroke="#41414b" stroke-linecap="round" stroke-miterlimit="10" stroke-width="1.619"/><line x1="12.631" transform="translate(143.641 127.873)" fill="none" stroke="#41414b" stroke-linecap="round" stroke-miterlimit="10" stroke-width="1.619"/><line x1="103.923" transform="translate(162.356 127.873)" fill="none" stroke="#41414b" stroke-linecap="round" stroke-miterlimit="10" stroke-width="1.619"/><line x1="42.867" transform="translate(180.433 139.329)" fill="none" stroke="#41414b" stroke-linecap="round" stroke-miterlimit="10" stroke-width="1.619"/><line x1="34.002" transform="translate(230.871 139.329)" fill="none" stroke="#41414b" stroke-linecap="round" stroke-miterlimit="10" stroke-width="1.619"/><line x1="95.48" transform="translate(167.987 150.786)" fill="none" stroke="#41414b" stroke-linecap="round" stroke-miterlimit="10" stroke-width="1.619"/><path d="M271.3,56.349h-24.82a4.723,4.723,0,0,1-4.671-5.424l1.955-13.034a4.724,4.724,0,0,1,4.671-4.023h24.495a4.725,4.725,0,0,1,4.688,5.31l-1.631,13.034a4.724,4.724,0,0,1-4.687,4.137" fill="#f8cf5e"/><path d="M97.3,85.109a12.029,12.029,0,0,1,11.9-10.276H238.563a8.818,8.818,0,0,1,8.723,10.106L229.962,219.206a8.818,8.818,0,0,1-8.723,7.534H89.3a8.817,8.817,0,0,1-8.723-10.1Z" fill="#fff"/><line x1="59.907" transform="translate(110.168 100.08)" fill="none" stroke="#41414b" stroke-linecap="round" stroke-miterlimit="10" stroke-width="1.619"/><line x1="52.882" transform="translate(105.152 124.983)" fill="none" stroke="#41414b" stroke-linecap="round" stroke-miterlimit="10" stroke-width="1.619"/><line x1="48.887" transform="translate(166.247 124.983)" fill="none" stroke="#41414b" stroke-linecap="round" stroke-miterlimit="10" stroke-width="1.619"/><line x1="26.181" transform="translate(103.746 136.44)" fill="none" stroke="#41414b" stroke-linecap="round" stroke-miterlimit="10" stroke-width="1.619"/><line x1="26.181" transform="translate(107.781 112.588)" fill="none" stroke="#41414b" stroke-linecap="round" stroke-miterlimit="10" stroke-width="1.619"/><line x1="82.066" transform="translate(144.318 136.44)" fill="none" stroke="#41414b" stroke-linecap="round" stroke-miterlimit="10" stroke-width="1.619"/><line x1="23.814" transform="translate(201.164 147.897)" fill="none" stroke="#41414b" stroke-linecap="round" stroke-miterlimit="10" stroke-width="1.619"/><line x1="122.496" transform="translate(99.527 170.81)" fill="none" stroke="#41414b" stroke-linecap="round" stroke-miterlimit="10" stroke-width="1.619"/><line x1="12.631" transform="translate(98.121 182.267)" fill="none" stroke="#41414b" stroke-linecap="round" stroke-miterlimit="10" stroke-width="1.619"/><line x1="103.923" transform="translate(116.836 182.267)" fill="none" stroke="#41414b" stroke-linecap="round" stroke-miterlimit="10" stroke-width="1.619"/><line x1="42.867" transform="translate(134.913 193.724)" fill="none" stroke="#41414b" stroke-linecap="round" stroke-miterlimit="10" stroke-width="1.619"/><line x1="34.002" transform="translate(185.351 193.724)" fill="none" stroke="#41414b" stroke-linecap="round" stroke-miterlimit="10" stroke-width="1.619"/><line x1="95.48" transform="translate(122.467 205.181)" fill="none" stroke="#41414b" stroke-linecap="round" stroke-miterlimit="10" stroke-width="1.619"/><path d="M225.784,110.743h-24.82a4.723,4.723,0,0,1-4.671-5.424l1.955-13.034a4.724,4.724,0,0,1,4.671-4.023h24.5a4.724,4.724,0,0,1,4.687,5.31l-1.631,13.034a4.724,4.724,0,0,1-4.687,4.137" fill="#f8cf5e"/><path d="M20.8,67.865A12.029,12.029,0,0,1,32.7,57.589H162.06a8.817,8.817,0,0,1,8.723,10.106L153.459,201.962a8.817,8.817,0,0,1-8.723,7.533H12.8a8.817,8.817,0,0,1-8.723-10.1Z" fill="#fff"/><line x1="59.907" transform="translate(33.665 82.836)" fill="none" stroke="#41414b" stroke-linecap="round" stroke-miterlimit="10" stroke-width="1.619"/><line x1="52.882" transform="translate(28.649 107.739)" fill="none" stroke="#41414b" stroke-linecap="round" stroke-miterlimit="10" stroke-width="1.619"/><line x1="48.887" transform="translate(89.744 107.739)" fill="none" stroke="#41414b" stroke-linecap="round" stroke-miterlimit="10" stroke-width="1.619"/><line x1="26.181" transform="translate(27.243 119.196)" fill="none" stroke="#41414b" stroke-linecap="round" stroke-miterlimit="10" stroke-width="1.619"/><line x1="26.181" transform="translate(31.278 95.344)" fill="none" stroke="#41414b" stroke-linecap="round" stroke-miterlimit="10" stroke-width="1.619"/><line x1="82.066" transform="translate(67.815 119.196)" fill="none" stroke="#41414b" stroke-linecap="round" stroke-miterlimit="10" stroke-width="1.619"/><line x1="23.814" transform="translate(124.661 130.653)" fill="none" stroke="#41414b" stroke-linecap="round" stroke-miterlimit="10" stroke-width="1.619"/><line x1="122.496" transform="translate(23.024 153.566)" fill="none" stroke="#41414b" stroke-linecap="round" stroke-miterlimit="10" stroke-width="1.619"/><line x1="12.631" transform="translate(21.618 165.023)" fill="none" stroke="#41414b" stroke-linecap="round" stroke-miterlimit="10" stroke-width="1.619"/><line x1="103.923" transform="translate(40.333 165.023)" fill="none" stroke="#41414b" stroke-linecap="round" stroke-miterlimit="10" stroke-width="1.619"/><line x1="42.867" transform="translate(58.41 176.48)" fill="none" stroke="#41414b" stroke-linecap="round" stroke-miterlimit="10" stroke-width="1.619"/><line x1="34.002" transform="translate(108.848 176.48)" fill="none" stroke="#41414b" stroke-linecap="round" stroke-miterlimit="10" stroke-width="1.619"/><line x1="95.48" transform="translate(45.964 187.936)" fill="none" stroke="#41414b" stroke-linecap="round" stroke-miterlimit="10" stroke-width="1.619"/><path d="M149.281,93.5h-24.82a4.723,4.723,0,0,1-4.671-5.424l1.955-13.034a4.724,4.724,0,0,1,4.671-4.023h24.5a4.724,4.724,0,0,1,4.687,5.31l-1.631,13.034a4.724,4.724,0,0,1-4.687,4.137" fill="#f8cf5e"/><path d="M28.773,0c-3.427,12.412-6.206,15.19-18.617,18.618,12.411,3.427,15.19,6.2,18.617,18.617,3.427-12.412,6.2-15.19,18.617-18.617C34.978,15.19,32.2,12.412,28.773,0" fill="#f8cf5e"/><path d="M8.559,28.676C6.983,34.382,5.706,35.66,0,37.235c5.706,1.576,6.983,2.853,8.559,8.56,1.576-5.707,2.853-6.984,8.559-8.56-5.706-1.575-6.983-2.853-8.559-8.559" fill="#f8cf5e"/></g></svg>