<svg xmlns="http://www.w3.org/2000/svg" xmlns:xlink="http://www.w3.org/1999/xlink" width="208.876" height="209.492" viewBox="0 0 208.876 209.492"><defs><clipPath id="a"><rect width="208.876" height="209.492" fill="none"/></clipPath></defs><g clip-path="url(#a)"><path d="M156.721,77.036H134.962a15.119,15.119,0,0,0-3.772-10.48q-3.771-4.2-11.58-4.2a19.051,19.051,0,0,0-7.643,1.435,12.017,12.017,0,0,0-5.106,3.938,9.525,9.525,0,0,0-1.8,5.707,10.773,10.773,0,0,0,2.1,6.408,21.388,21.388,0,0,0,5.206,5.106,41.672,41.672,0,0,0,5.907,3.5l25.7,13.016a69.41,69.41,0,0,1,6.274,3.571,35.838,35.838,0,0,1,7.075,5.94,28.563,28.563,0,0,1,5.507,8.744,27.3,27.3,0,0,1,1.7,12.047,19.023,19.023,0,0,1-3.137,9.545,26.382,26.382,0,0,1-6.708,6.975,27.041,27.041,0,0,1-7.576,3.9l-.2.267a30.91,30.91,0,0,1,8.01,10.613,32.486,32.486,0,0,1,2.736,13.149q0,10.278-5.106,17.387a31.73,31.73,0,0,1-13.616,10.746,47.671,47.671,0,0,1-18.923,3.638,46.69,46.69,0,0,1-20.758-4.4A33.554,33.554,0,0,1,85.2,191.138a35.144,35.144,0,0,1-5.039-19.056h21.892q-.066,7.476,4.906,11.481t13.25,3.8a21.735,21.735,0,0,0,10.646-2.77,9.111,9.111,0,0,0,4.839-8.376,11.056,11.056,0,0,0-2.136-6.842,20.13,20.13,0,0,0-5.173-4.8q-3.039-1.97-5.707-3.371l-25.7-12.749a60.478,60.478,0,0,1-6.341-3.6,36.253,36.253,0,0,1-7.075-6.007A29.279,29.279,0,0,1,78.027,130a27.346,27.346,0,0,1-1.735-12.115,20,20,0,0,1,2.97-9.545,24.627,24.627,0,0,1,6.541-7.008,26.4,26.4,0,0,1,8.043-4.005v-.333A39.44,39.44,0,0,1,86.1,86.547a28.5,28.5,0,0,1-2.937-13.116,29.129,29.129,0,0,1,4.672-16.253A32.173,32.173,0,0,1,100.721,45.9a41.7,41.7,0,0,1,18.889-4.1,40.323,40.323,0,0,1,19.557,4.539,32.632,32.632,0,0,1,12.948,12.515A35.7,35.7,0,0,1,156.721,77.036ZM144.039,132.7a9.057,9.057,0,0,0-1.1-5.306,15.789,15.789,0,0,0-4.005-4.639,31.8,31.8,0,0,0-6.241-3.871l-23.628-11.815a6.63,6.63,0,0,0-5.373-.266,10.208,10.208,0,0,0-4.839,3.7,11.606,11.606,0,0,0-2.2,6.441,10.077,10.077,0,0,0,2.87,7.909A28.323,28.323,0,0,0,108.2,130.9l23.094,11.413a6.533,6.533,0,0,0,5.24.234,11.436,11.436,0,0,0,5.106-3.537A10.243,10.243,0,0,0,144.039,132.7Z" fill="none" stroke="#6748ff" stroke-miterlimit="10" stroke-width="3"/><path d="M90.427,39.591H65.982a16.982,16.982,0,0,0-4.237-11.772Q57.509,23.1,48.736,23.095a21.4,21.4,0,0,0-8.586,1.612,13.492,13.492,0,0,0-5.736,4.424,10.7,10.7,0,0,0-2.025,6.411,12.11,12.11,0,0,0,2.362,7.2A24.081,24.081,0,0,0,40.6,48.477a46.967,46.967,0,0,0,6.636,3.937L76.105,67.036a78.4,78.4,0,0,1,7.048,4.011A40.328,40.328,0,0,1,91.1,77.721a32.1,32.1,0,0,1,6.186,9.823A30.673,30.673,0,0,1,99.2,101.078,21.384,21.384,0,0,1,95.676,111.8a29.667,29.667,0,0,1-7.536,7.836,30.361,30.361,0,0,1-8.511,4.386l-.225.3a34.706,34.706,0,0,1,9,11.923,36.493,36.493,0,0,1,3.075,14.771q0,11.547-5.737,19.534a35.641,35.641,0,0,1-15.3,12.072,53.563,53.563,0,0,1-21.258,4.087,52.457,52.457,0,0,1-23.32-4.949,37.7,37.7,0,0,1-15.784-13.985Q4.42,158.74,4.42,146.369H29.015q-.075,8.4,5.511,12.9t14.885,4.274a24.43,24.43,0,0,0,11.96-3.112,10.236,10.236,0,0,0,5.436-9.411,12.414,12.414,0,0,0-2.4-7.685,22.627,22.627,0,0,0-5.812-5.4q-3.413-2.211-6.411-3.787L23.316,119.824a68.027,68.027,0,0,1-7.123-4.049,40.721,40.721,0,0,1-7.948-6.748,32.88,32.88,0,0,1-6.224-9.936A30.73,30.73,0,0,1,.071,85.482,22.478,22.478,0,0,1,3.408,74.759a27.655,27.655,0,0,1,7.349-7.874,29.677,29.677,0,0,1,9.035-4.5v-.374a44.311,44.311,0,0,1-8.7-11.735A32.031,32.031,0,0,1,7.8,35.542a32.725,32.725,0,0,1,5.248-18.258A36.132,36.132,0,0,1,27.516,4.612,46.824,46.824,0,0,1,48.736,0q12.6,0,21.97,5.1A36.655,36.655,0,0,1,85.253,19.158a40.12,40.12,0,0,1,5.174,20.433M76.18,102.128a10.171,10.171,0,0,0-1.237-5.961,17.756,17.756,0,0,0-4.5-5.212,35.825,35.825,0,0,0-7.011-4.349L36.888,73.334a7.446,7.446,0,0,0-6.036-.3A11.473,11.473,0,0,0,25.416,77.2a13.036,13.036,0,0,0-2.475,7.236,11.323,11.323,0,0,0,3.225,8.885,31.781,31.781,0,0,0,9.748,6.786l25.944,12.823a7.345,7.345,0,0,0,5.886.262,12.855,12.855,0,0,0,5.737-3.974,11.5,11.5,0,0,0,2.7-7.086" fill="#fff"/><path d="M190.258,16.7c-3.427,12.412-6.205,15.19-18.617,18.618,12.412,3.427,15.19,6.205,18.617,18.617,3.428-12.412,6.206-15.19,18.618-18.617-12.412-3.428-15.19-6.206-18.618-18.618" fill="#6748ff"/><path d="M170.045,45.38c-1.576,5.706-2.853,6.984-8.559,8.559,5.706,1.576,6.983,2.853,8.559,8.56,1.576-5.707,2.853-6.984,8.559-8.56-5.706-1.575-6.983-2.853-8.559-8.559" fill="#6748ff"/></g></svg>