<svg xmlns="http://www.w3.org/2000/svg" xmlns:xlink="http://www.w3.org/1999/xlink" width="165.602" height="193.022" viewBox="0 0 165.602 193.022"><defs><clipPath id="a"><rect width="165.602" height="193.022" fill="none"/></clipPath></defs><g clip-path="url(#a)"><path d="M130.506,139.569A65.079,65.079,0,1,1,12.436,90.423c.015-.022.03-.044.044-.067,9.273-14.481,19.263-26.86,27.107-40.25,6.1-10.413,9.159-20.593,15.3-31.128a.019.019,0,0,1,.008-.014c.387-.708.805-1.4,1.244-2.07.006-.01.011-.019.018-.029C63.553,5.559,77.985-.588,92.76,2.511s25.526,14.528,27.751,27.852c0,0,0,0,0,.011q.159,1.115.283,2.206c1.435,12.211.118,22.817,1.529,34.882,1.8,15.413,5.976,30.764,8.647,47.75,0,.026.009.052.014.078a64.942,64.942,0,0,1-.481,24.279" fill="#4ee6e2"/><path d="M124.666,116.377l-.028-.168c-1.14-7.246-2.578-14.287-3.97-21.1-1.883-9.22-3.663-17.929-4.713-26.908a157.831,157.831,0,0,1-.8-18.025,146.1,146.1,0,0,0-.731-16.863c-.022-.189-.044-.379-.068-.568l-.387-2.452C111.712,19.739,102.8,11.17,91.443,8.788c-11.714-2.457-23.7,2.162-29.857,11.5l-.071.111c-.2.3-.383.6-.555.886l-.006.029-.474.811-.658,1.2-.055.039C57.2,27.923,55.2,32.425,53.091,37.171A157.771,157.771,0,0,1,45.12,53.348c-4.569,7.8-9.7,15.059-15.128,22.744-4.01,5.677-8.157,11.546-12.112,17.723l-.088.134a58.666,58.666,0,1,0,106.874,22.428" fill="#d4ffce"/><path d="M53.1,191.591a66.845,66.845,0,0,1-42.1-102.117l.052-.079c4.035-6.3,8.235-12.246,12.3-18C28.67,63.858,33.7,56.735,38.1,49.234a151.335,151.335,0,0,0,7.557-15.37,156.572,156.572,0,0,1,7.74-15.745c.391-.714.818-1.423,1.3-2.168C62.677,3.742,78.108-2.326,93.114.822s26.68,14.884,29.092,29.216a.931.931,0,0,1,.016.092q.164,1.137.289,2.252a154.794,154.794,0,0,1,.786,17.761,151.079,151.079,0,0,0,.743,17.118c1.009,8.634,2.755,17.177,4.6,26.222,1.409,6.9,2.867,14.031,4.035,21.461l.01.057a66.843,66.843,0,0,1-79.59,76.59M56.4,19.826l-.012.022A153.683,153.683,0,0,0,48.81,35.266a154.06,154.06,0,0,1-7.734,15.713c-4.469,7.629-9.542,14.81-14.914,22.413-4.039,5.717-8.216,11.629-12.229,17.9,0,.006-.03.045-.033.051l-.031.046a63.353,63.353,0,1,0,115.415,24.2l-.017-.1c-1.156-7.352-2.6-14.446-4.007-21.306-1.863-9.119-3.623-17.732-4.65-26.512a153.983,153.983,0,0,1-.766-17.5,152.359,152.359,0,0,0-.762-17.377c-.082-.7-.171-1.412-.273-2.126v-.008C116.643,17.688,106.033,7.06,92.4,4.2S64.8,6.812,57.607,17.81l0,.005-.024.036c-.431.662-.816,1.3-1.167,1.942l-.018.033" fill="#3b3a3c"/><path d="M73.916,92.345a34.6,34.6,0,1,0,26.761,40.968A34.64,34.64,0,0,0,73.916,92.345" fill="#f6c57c"/><path d="M161.921,59.918l-91.3,91.3a11.4,11.4,0,0,1-16.13,0l-31.761-31.76a12.793,12.793,0,0,1-.025-18.143,12.565,12.565,0,0,1,17.6.172L62.56,123.738l81.59-81.591a12.566,12.566,0,0,1,17.771,17.771" fill="#6748ff"/></g></svg>