<svg xmlns="http://www.w3.org/2000/svg" xmlns:xlink="http://www.w3.org/1999/xlink" width="350.602" height="190.141" viewBox="0 0 350.602 190.141"><defs><clipPath id="a"><rect width="350.602" height="190.141" fill="none"/></clipPath></defs><g clip-path="url(#a)"><path d="M350.463,107.354c-.765-7.29-4.165-14.957-7.3-20.094-7.5-12.3-19.184-21.778-31.229-29.385-35.127-22.186-75.185-37.593-115.6-46.735a435.369,435.369,0,0,0-49.565-8.2c-14.9-1.6-30.741-5.257-45.494-.83C87.635,6.208,85.435,17.091,81.96,29.189a296.526,296.526,0,0,1-14.915,39.63c-11.755,26.135-25.921,51.134-36.966,77.6-4.484,10.745-13.616,22.474-14.941,34.232-.31,2.75.486,5.79,2.687,7.466,1.787,1.36,4.157,1.616,6.4,1.765,47.26,3.147,89.7-23.022,136.135-26.531,23.58-1.782,46.067-2.855,69.159-8.576,28.532-7.068,56.33-16.9,85.1-23.038q6.012-1.282,12.071-2.334c5.24-.9,10.629-1.686,15.3-4.229,6.808-3.708,9.253-10.4,8.475-17.817" fill="#fdeba4"/><path d="M346.98,112.614l-.341.05a1.286,1.286,0,0,1,.341-.05" fill="#fdeba4"/><path d="M234.09,113.493c.073.161.144.323.219.479a8.1,8.1,0,0,0,3.808,3.517c4.152,2.068,9.1,1.886,13.6.74s8.7-3.183,13.068-4.751a80.441,80.441,0,0,0,14.5-6.951c5.1-2.993,10.95-6.8,15.958-9.949,4.327-2.722,9.413-4.4,12.957-8.087.589-.612,7.773-9.464,8.731-9.291,2.556.462-4.19,8.454-4.8,9.418a25.351,25.351,0,0,1-7,6.924c-3.868,2.736-7.583,5.683-11.522,8.321A118.237,118.237,0,0,1,268,116.818c-2.992,1.08-6.025,2.029-9.083,2.9-6.412,1.8-13.341,3.789-19.95,1.811a16.8,16.8,0,0,1-5.674-2.961c-1.369-1.1-2.794-2.7-2.58-4.585.137-1.206,1.581-2.259,2.59-1.583a2.455,2.455,0,0,1,.788,1.09" fill="#d69140"/><path d="M130.059,107.974a2.117,2.117,0,0,0-1.7,1.342,4.126,4.126,0,0,0,.13,2.7c1.162,3.6,4.821,5.786,7.8,7.762a66.623,66.623,0,0,0,10.214,5.552c16.479,7.17,36.333,8.81,53.355,2.609,2.466-.9,5.328-1.633,7.133-3.66,1.518-1.706-.987-4.228-2.513-2.515a8.237,8.237,0,0,1-2.768,1.989,3.72,3.72,0,0,0,.268-1.107,15.361,15.361,0,0,0,2.091-2.992,1.794,1.794,0,0,0-1.062-2.61c-.561-.119-1.036-.418-1.6-.534a1.856,1.856,0,0,0-1.784,3,5.318,5.318,0,0,0-2.093.1c-1.891.444-3.6,1.354-5.439,1.951-2.291.745-5.271.616-7.833.917-1.862.222-3.7.62-5.545.955-1.668-.389-3.34-.765-5.031-1.058-3.434-.6-6.981-.105-10.4.318-3.5.434-5.612-1.441-9.113-2.19-3.562-.762-7.749-1.636-10.671-3.731-2.222-1.593-4.895-1.579-7.312-2.837-1.589-.826-4.572-2.073-4.384-4.242a1.586,1.586,0,0,0-1.742-1.717" fill="#d69140"/><path d="M109.7,54.127a4.992,4.992,0,0,1,2.384,1.521,1.744,1.744,0,0,1,.487.814,30.655,30.655,0,0,0,11.193,5.922c5.578,1.575,10.82.253,16.345-.781,5.432-1.017,10.8-1.431,16.1-3.122a56.312,56.312,0,0,0,8.005-3.594c2.353-1.177,4.124-3.229,6.86-3.489,2.282-.22,2.26,3.337,0,3.553-1.24.118-2.464,1.385-3.423,2.089a26.83,26.83,0,0,1-3.969,2.079,49.9,49.9,0,0,1-8.434,3.372c-5.66,1.649-11.548,1.977-17.3,3.154-5.566,1.139-10.76,1.516-16.266-.166A34.145,34.145,0,0,1,107.974,57.1a1.788,1.788,0,0,1,1.728-2.969" fill="#d69140"/><path d="M78.818,105.115c-3-.15-9.541-.609-9.221-5.021A1.781,1.781,0,0,1,70.9,98.381c2.9-.452,5.52.274,8.328.933.687.162,1.374.322,2.058.488.591-.063,1.185-.171,1.777-.263A1.875,1.875,0,0,1,84.7,98.317c2.331-.057,4.554-.414,6.871.064a1.534,1.534,0,0,1,1.146.968l.917-.055a22.4,22.4,0,0,0,7.8-1.545c2.791-1.271,4.856-3.661,7.046-5.726a26.5,26.5,0,0,0,3.7-4.063c.9-1.3,1.106-2.8,2.189-4.051a1.481,1.481,0,0,1,1.6-.52c.007-.119.014-.237.017-.356.052-2.29,3.607-2.295,3.555,0-.138,6.082-4.546,10.459-9.211,13.774a43.808,43.808,0,0,1-18.195,7.806,63.908,63.908,0,0,1-13.314.5" fill="#d69140"/><path d="M41.592,162.183a4.7,4.7,0,0,1,.16-3.767c.892-1.586,2.569-1.009,4.012-1.5.6-.2,1.077-.708,1.689-.89a1.811,1.811,0,0,1,1.878.666c.194.253.222.685.429.881.281.266.812.281,1.126.61.038.016.077.03.116.045a3.982,3.982,0,0,1,1.178-.2c2.866.005,5.812.309,7.4,3.014a1.766,1.766,0,0,1,.225.787c2.431.186,4.861.441,7.3.464a1.655,1.655,0,0,1,1.665,1.321c1.21-.1,2.425-.183,3.649-.214,3.052-.077,6.114.05,9.16-.129a23.152,23.152,0,0,0,3.823-1.8c1.912-1.118,4.122-2.842,6.289-3.377.79-.2,1.622-.371,2.433-.6a11.293,11.293,0,0,1,3.965-2.061,1.9,1.9,0,0,1,1.975,2.862c-.5.728-2.083,1.267-2.843,1.71-1.833,1.069-3.827,1.921-5.751,2.8a82.416,82.416,0,0,1-12.716,4.928,42.347,42.347,0,0,1-13.916,1.3A103.723,103.723,0,0,1,51.978,167.2q-2.234-.432-4.451-.934c-2.618-.59-5.132-1.834-5.935-4.081" fill="#d69140"/><path d="M306.885,70.683q.781.231,1.553.488c4.667,1.559,12.79,5.946,7.622,11.583-7.958,8.681-17.242,16.946-27.74,22.413-3.774,1.967-7.813,2.943-11.789,4.42a93.088,93.088,0,0,0-10.44,4.626c-3.182,1.651-6.242,3.365-9.75,4.25-7.821,1.971-21.329,2.784-26.306-5.8S233.59,82.219,253.5,76.8c10.422-2.837,20.857-5.952,31.559-7.561a51.108,51.108,0,0,1,21.83,1.445" fill="#c40900"/><path d="M82.16,58.583s6.4,8.532,0,17.063S68.652,92,68.652,97.685c0,0,27.016,10.673,44.078-6.75s-1.422-30.22-30.57-32.352" fill="#c40900"/><path d="M127.66,108.348S144.013,124.7,165.34,124.7s36.258,2.913,43.368-4.942c11.281-12.464,12.511-32.885-2.73-42.557-10.584-6.717-23.441-7.48-35.609-6.434-12.7,1.091-24.984,3.529-35.805,10.646-8.574,5.639-16.089,17.749-6.9,26.934" fill="#c40900"/><path d="M55.855,119.759s28.437-14.863,53.321-7.094c10.017,3.127,19.826,10.541,16.566,22.2-3.451,12.35-16.016,20.292-26.821,25.647-12.223,6.057-25.178,5.282-38.09,1.864-24.171-6.4-31.281-12.9-31.993-24.579s16.355-18.718,27.017-18.042" fill="#c40900"/><path d="M185.226,11.392c.481-.139,1.226-1.193,1.6-1.523a40.522,40.522,0,0,1,4.533-3.491A30.89,30.89,0,0,1,206.855.87c6.731-.3,12.991,2.468,18.028,6.811,7.92,6.828,14.5,14.9,22.823,21.377,2.088,1.626,4.408,3.719,4.8,6.481.4,2.844-1.449,5.495-3.414,7.59-8.98,9.575-21.552,13.048-34.149,14.895a116.92,116.92,0,0,1-40.8-.872c-8.44-1.782-17.212-4.79-23.73-10.656,0,0,3.786-26.106,34.816-35.1" fill="#c40900"/><path d="M133.563,12.1a98.18,98.18,0,0,1,17.116-3.587,120.222,120.222,0,0,1,17.7-.972c7.331.213,20.784,1.358,21.136,11.235.4,11.207-6.2,21.485-14.362,28.625-11.731,10.262-27.508,15.378-42.827,16.775-10.225.932-22.4.03-31.079-5.928-5.89-4.043-9-10.612-6.661-17.614,2.582-7.719,8.913-12.866,15.388-17.287A86.833,86.833,0,0,1,133.563,12.1" fill="#c40900"/><path d="M203.072,66.622c0,4.359,15.02,20.873,29.358,16.348C247.3,78.277,269.8,65.924,269.8,61.565s-16.035-13.751-32.747-2.983c-14.132,9.106-33.976,3.681-33.976,8.04" fill="#f9d68b"/><path d="M138.645,141.2c-1.187,3.355-4.386,5.223-6.6,7.812-.765.894-1.705,2.042-.778,3.185,1.324,1.636,3.946,1.816,5.876,2.023a61.186,61.186,0,0,0,7.922.693,12.472,12.472,0,0,0,6.284-1.656c1.86-1.15,3.577-2.621,5.762-3.117,2.756-.626,10.416,1.629,11.193-1.774,1.315-5.761-5.972-12.338-16.276-14.691-3.1-.706-7.1-1.39-9.9.577-2.425,1.7-2.59,4.444-3.476,6.948" fill="#f9d68b"/><path d="M119.476,71.543c-.435,2.151,3.016,4.42,4.2,5.78,1.834,2.109-3.476,2.711-.426,4.823a5.308,5.308,0,0,0,6.338-.583,23.3,23.3,0,0,1,7.681-4.94c2.972-1.048,6.624-1.567,8.872-3.979,1.245-1.335,1.6-3.611-.076-4.734-1.453-.973-3.554-.579-5.189-.536-3.131.083-6.248-.007-9.377.239-3.332.262-8.13.322-10.89,2.37a2.643,2.643,0,0,0-1.13,1.56" fill="#f9d68b"/><path d="M282.637,146.551c-2.653-1.84-7.433-4.739-4.626-8.727,2.673-3.8,7.453.611,10.184,2.544,1.727,1.223,3.411,2.523,5.057,3.883,1.738,1.436,2.857,1.328,3.51-1.057,1.126-4.115-.116-8.406-1.185-12.475-1.2-4.571-2.407-9.147-3.66-13.7-.954-3.469-1.2-9.281,3.674-8.222,2.9.629,3.592,5.164,4.34,7.7,1.473,4.995,2.657,10.144,4.31,15.075.343-4.654-.234-9.659-.279-14.363-.023-2.417-.02-4.833.037-7.244.045-1.954.212-3.593,2.027-4.386,2.593-1.133,5.1.729,5.53,3.724.468,3.269.172,6.747.286,10.037.124,3.616.248,7.231.346,10.845,1-4.616,2.205-9.165,3.2-13.783.7-3.375,3.044-8.716,6.949-5.007,2.612,2.481,1.073,7.063.394,9.947q-.92,3.909-1.82,7.824-.451,1.958-.9,3.915a18.4,18.4,0,0,0-.529,2.385c-.029.305-.143.75.163.958.266.18.588,0,.813-.161a12.289,12.289,0,0,0,1.324-1.422c1.1-1.084,2.2-2.153,3.3-3.227,1.477-1.438,2.9-2.949,4.435-4.329a12.368,12.368,0,0,1,2.407-1.784,2.672,2.672,0,0,1,3.48.369,3.126,3.126,0,0,1,.39,3.359c-2.607,5.213-7.614,8.932-10.545,14.014-2.335,4.049-2.959,10.089-3.668,14.673-.607,3.92,1.81,6.459,3.106,9.935,2.056,5.517-11.463,11.677-14.049,10.882s-4.178-3.607-5.492-6.015c-1.934-3.543-3.348-7.514-5.724-10.861-2.318-3.264-5.877-5.04-8.713-7.76-2.663-2.555-5.021-5.424-8.076-7.543" fill="#fff"/><path d="M47.063,135.236c3.173.6,8.593,1.965,9.462-2.834.827-4.57-5.668-4.878-8.962-5.465-2.083-.371-4.192-.657-6.315-.874-2.243-.229-2.952-1.1-1.712-3.241,2.139-3.691,6.066-5.82,9.714-7.916,4.1-2.355,8.2-4.708,12.326-7.015,3.14-1.756,7.447-5.666,3.275-8.389-2.482-1.621-6.2,1.068-8.53,2.316-4.59,2.458-9.088,5.23-13.76,7.516,3.073-3.512,7.042-6.616,10.423-9.887,1.737-1.68,3.455-3.379,5.132-5.113,1.359-1.4,2.409-2.674,1.7-4.522-1.014-2.642-4.1-3.121-6.535-1.323-2.656,1.962-4.925,4.615-7.348,6.844q-3.991,3.675-7.964,7.369c2.582-3.956,4.977-8.006,7.565-11.96,1.908-2.871,4.068-8.287-1.315-8.462-3.6-.118-5.783,4.195-7.359,6.7q-2.136,3.4-4.293,6.79l-2.153,3.392a18.51,18.51,0,0,1-1.326,2.052c-.2.234-.434.628-.8.556-.316-.063-.414-.418-.457-.692a12.355,12.355,0,0,1,.083-1.941c0-1.54-.013-3.079-.023-4.619-.013-2.062.061-4.137-.031-6.2a12.366,12.366,0,0,0-.421-2.967,2.672,2.672,0,0,0-2.706-2.219,3.128,3.128,0,0,0-2.666,2.081c-1.881,5.516-1.013,11.693-2.574,17.348-1.243,4.506-5.106,9.191-7.872,12.915-2.365,3.184-5.87,3.246-9.254,4.764-5.372,2.41-.266,16.361,2.116,17.644s5.5.442,8.139-.313c3.881-1.11,7.7-2.892,11.753-3.55,3.951-.642,7.714.646,11.642.755,3.689.1,7.388-.233,11.042.454" fill="#fff"/></g></svg>