<svg xmlns="http://www.w3.org/2000/svg" xmlns:xlink="http://www.w3.org/1999/xlink" width="338.766" height="224.503" viewBox="0 0 338.766 224.503"><defs><clipPath id="a"><rect width="338.766" height="224.503" fill="none"/></clipPath></defs><g clip-path="url(#a)"><path d="M154.827,58.158c-.479-.127-1.6-.128-3.191-.323-11.98-1.463-51.461-6.7-64.9,10.473C71.508,87.763,31.328,84.8,14.41,96.646s-25.8,38.064,13.112,47.791,42.716-2.96,64.709,15.226,117.155,38.488,142.109,8.46,49.7-12.478,65.133-27.915-21.147-35.1-21.147-43.14,32.989-5.921,16.494-22.415S169.207,61.964,154.827,58.158" fill="#fff"/><path d="M273.641,91.026c0,1.911,2.07,4.48,5.016,7.491a3.871,3.871,0,0,1-.332-1.449c0-8.035,32.99-5.92,16.495-22.415-.187-.186-.4-.367-.608-.548,4.484,10.623-20.571,9.918-20.571,16.921" fill="#fff"/><path d="M295.419,116.671c3.752,5.888,4.9,11.963-.631,17.5-15.437,15.438-40.179-2.114-65.133,27.915s-120.115,9.727-142.107-8.459-25.8-5.5-64.71-15.226c-9.731-2.433-16.473-5.9-20.847-9.91,3.342,6.528,11.177,12.363,25.531,15.952,38.91,9.728,42.716-2.96,64.709,15.226s117.155,38.488,142.108,8.459,49.7-12.477,65.133-27.915c7.456-7.455,2.778-15.9-4.053-23.537" fill="#fff"/><path d="M303.272,105.95s-11.836,9.094,2.122,15.015,31.086,1.9,27.279-7.507-21.372-12.583-29.4-7.508" fill="#fff1c5"/><path d="M240.261,87.366c0,17.852-27.546,22.178-61.538,22.178-24.73,0-46.046-2.283-55.828-10.416a14.661,14.661,0,0,1-5.71-11.762,17.536,17.536,0,0,1,1.192-6.332c5.583-14.833,30.478-29.182,60.346-29.182a115.113,115.113,0,0,1,12.9.711A102.447,102.447,0,0,1,203.135,54.5c21.849,4.948,37.126,19.552,37.126,32.862" fill="#ffce00"/><path d="M314.272,104.1s-12.745.863-13.264,5.941,10.923,9.356,15.691,9.2c3.216-.106,15.4-1.813,12.051-8.433s-14.478-6.707-14.478-6.707" fill="#fff"/><path d="M321.736,34.251a2.691,2.691,0,0,0-1.869.633,2.646,2.646,0,0,0-.608,2.412,10.515,10.515,0,0,0,.95,2.407,20.092,20.092,0,0,1,1.8,10.14,10.179,10.179,0,0,1-.957,3.8c-1,1.949-2.852,3.289-4.267,4.959-1.445,1.706-3.507,5.131-3,7.526.479,2.283,3.486,3.125,5.452,3.409a29.462,29.462,0,0,0,9.3-.146,6.437,6.437,0,0,0,3.932-1.8,6.407,6.407,0,0,0,.84-6.173c-.7-2.052-4.717-7.293-5.15-7.943a9.81,9.81,0,0,1-1.126-5.638c.351-2.753.9-5.567.291-8.274s-2.809-5.307-5.585-5.311" fill="#7ab43f"/><path d="M256.035,186.619c8.87-5.029,18.007-9.611,26.364-15.487a156.462,156.462,0,0,0,28.451-25.39q.25-.29.5-.581c16.608-19.414,27.661-44.272,27.413-69.819-.019-1.937-.163-4.038-1.428-5.505-1.149-1.334-2.966-1.839-4.671-2.277-7.111-1.826-15.194-3.514-21.359.472-3.689,2.385-6,6.483-7.137,10.726s-1.245,8.684-1.4,13.075c-.548,15.467-2,31.527-9.844,44.868-6.4,10.876-16.487,18.985-24.9,28.385-6.517,7.278-12.268,15.564-20.592,20.679-1.738,1.069-3.861,3.052-2.665,4.707,2.126,2.937,8.263-2.132,10.279-3.286q.5-.285,1-.567" fill="#ed1100"/><path d="M315.516,49.911c.036.163-.069.367-.326.53a27.526,27.526,0,0,0-3.248,2.265,8.132,8.132,0,0,0-2.357,3.137c-.976,2.516-.165,5.34-.357,8.031a5.361,5.361,0,0,1-.46,1.969,2.707,2.707,0,0,1-1.424,1.384,3.712,3.712,0,0,1-2.7-.3,17,17,0,0,1-4.028-2.5,9.038,9.038,0,0,1-1.961-2.031c-1.529-2.351-.37-4.944,2.041-6.039,1.379-.627,2.914-.873,4.261-1.566,1.624-.837,2.86-2.262,4.37-3.29a11.142,11.142,0,0,1,5.618-1.869c.337-.019.529.106.567.277" fill="#7ab43f"/><path d="M291.521,148.909q-.842-1.45-1.587-2.954a97.545,97.545,0,0,1-7.014-19.384,96.088,96.088,0,0,1-2.975-24.834,94.072,94.072,0,0,1,.976-12.49,65.912,65.912,0,0,1,2.75-12.132,58.2,58.2,0,0,1,5.665-11.8,14.871,14.871,0,0,1,2.937-3.335,6.466,6.466,0,0,1,3.289-1.493c1.379-.185,2.633.511,3.862,1.027a25.1,25.1,0,0,1,4.308,2.243,11.559,11.559,0,0,1,4.767,5.9c1.367,4.357-.866,8.963-3.207,12.884-5.085,8.515-11.132,16.831-12.985,26.574-2.473,13,2.941,26.21,2.744,39.443-.011.777-.233,1.86-1.021,2.222-.936.429-1.743-.579-2.159-1.276q-.177-.3-.35-.6" fill="#3e7732"/><path d="M278.387,48.064c.609,3.171,1.326,8.715,6.109,7.762,4.555-.908,2.457-7.063,1.794-10.342-.419-2.075-.927-4.141-1.5-6.2-.61-2.171-.059-3.15,2.386-2.782,4.219.636,7.641,3.508,10.929,6.132,3.694,2.947,7.39,5.9,11.049,8.891,2.786,2.276,8,4.848,9.006-.033.6-2.9-3.269-5.374-5.285-7.084-3.971-3.368-8.2-6.535-12.041-10.042,4.394,1.57,8.738,4.123,13.021,6.067,2.2,1,4.412,1.975,6.64,2.9,1.8.749,3.372,1.26,4.831-.078,2.085-1.913,1.4-4.961-1.168-6.565-2.8-1.75-6.1-2.888-9.063-4.323q-4.884-2.364-9.778-4.7c4.628.95,9.274,1.691,13.9,2.648,3.371.722,9.2.743,7.39-4.329-1.212-3.393-6.025-3.84-8.937-4.385q-3.947-.741-7.891-1.5l-3.946-.758a18.23,18.23,0,0,1-2.395-.481c-.291-.1-.744-.173-.81-.536-.057-.317.237-.538.476-.679a12.334,12.334,0,0,1,1.836-.635c1.434-.562,2.86-1.142,4.289-1.716,1.913-.77,3.871-1.462,5.753-2.3a12.341,12.341,0,0,0,2.6-1.48,2.67,2.67,0,0,0,1.071-3.331,3.126,3.126,0,0,0-2.914-1.717c-5.821.275-11.249,3.349-17.082,3.973-4.648.5-10.423-1.377-14.9-2.584-3.83-1.031-5.173-4.269-7.828-6.86-4.213-4.113-15.316,5.757-15.636,8.444s1.608,5.28,3.278,7.456c2.458,3.2,5.517,6.1,7.616,9.63,2.047,3.44,2.23,7.413,3.57,11.107,1.259,3.469,2.928,6.787,3.63,10.438" fill="#fff"/><path d="M68.229,167.658c2.628-1.875,6.972-5.4,9.777-1.4,2.671,3.8-3.093,6.808-5.835,8.725-1.735,1.213-3.528,2.358-5.363,3.448-1.939,1.151-2.216,2.24-.192,3.66,3.493,2.45,7.952,2.731,12.143,3.1,4.707.414,9.421.825,14.132,1.184,3.588.274,9.139,2.011,6.5,6.237-1.572,2.513-6.075,1.636-8.713,1.483-5.2-.3-10.446-.926-15.645-1.037,4.264,1.9,9.17,3.044,13.612,4.591,2.283.794,4.556,1.613,6.807,2.482,1.823.7,3.309,1.414,3.443,3.389.19,2.824-2.41,4.556-5.374,3.947-3.235-.664-6.409-2.117-9.544-3.122Q78.809,202.684,73.651,201c4.006,2.5,7.881,5.173,11.891,7.673,2.939,1.8,7.175,5.809,2.364,8.231-3.217,1.62-7.01-1.376-9.495-2.989q-3.368-2.187-6.749-4.357l-3.379-2.173a18.035,18.035,0,0,0-2.066-1.3c-.277-.13-.658-.389-.956-.171-.26.19-.2.553-.124.82a12.247,12.247,0,0,0,.891,1.726c.651,1.4,1.283,2.8,1.921,4.2.854,1.877,1.794,3.729,2.576,5.637a12.338,12.338,0,0,1,.866,2.868,2.673,2.673,0,0,1-1.523,3.151,3.126,3.126,0,0,1-3.294-.768c-4.025-4.214-5.834-10.184-9.627-14.659-3.022-3.566-8.5-6.193-12.571-8.41-3.485-1.9-6.69-.478-10.4-.433-5.887.071-7.117-14.734-5.5-16.9s4.806-2.713,7.516-3.137c3.989-.623,8.2-.612,12.157-1.718,3.855-1.078,6.729-3.828,10.247-5.578,3.3-1.643,6.8-2.894,9.828-5.053" fill="#fff"/></g></svg>