<svg xmlns="http://www.w3.org/2000/svg" xmlns:xlink="http://www.w3.org/1999/xlink" width="315.022" height="240.889" viewBox="0 0 315.022 240.889"><defs><clipPath id="a"><rect width="315.022" height="240.889" fill="none"/></clipPath></defs><g clip-path="url(#a)"><path d="M135.932.713c.181-.1.365-.193.548-.285.78-.392,1.848-.705,2.424-.049.25.284.347.708.674.9a2.1,2.1,0,0,0,1.046.09A2.4,2.4,0,0,1,142.7,3.692a7.159,7.159,0,0,1-.823,3.284,191.422,191.422,0,0,0-10.709,33.391c-1.088,4.9-1.964,10.12-.271,14.843.76,2.12.266,2.28-1.827,2.6a25.755,25.755,0,0,1-5.387.249.708.708,0,0,1-.827-.761c-.707-5.619,1.119-11.2,2.117-16.777a64.572,64.572,0,0,0,.945-12.71,10.212,10.212,0,0,1,.2-2.934,13.756,13.756,0,0,1,1.795-3.325c2.889-4.751,3.02-10.614,4.449-15.987a8.141,8.141,0,0,1,1.506-3.3A7.117,7.117,0,0,1,135.932.713" fill="#451e05"/><path d="M190.118,113.706c-.495,0-2.7-5.456-3.021-6.113l-3.147-6.367-6.295-12.735-12.588-25.47q-4.331-8.761-8.692-17.5l-6.333-12.67q-5.552,9.174-11.105,18.347a18.646,18.646,0,0,0-2.625,5.705c-.6,2.911.21,5.924.071,8.894-.1,2.2-.731,4.426-.293,6.589.563,2.783,2.751,4.891,4.369,7.224,2.508,3.617,3.752,8.019,6.447,11.5,2.291,2.96,5.511,5.093,7.828,8.033,1.536,1.948,2.737,4.3,4.9,5.527s4.885,1.078,7.018,2.336c2.356,1.389,4.115,4.465,6.827,4.1a24.992,24.992,0,0,0,2.572-.843,8.112,8.112,0,0,1,4.2.481l9.875,2.954" fill="#597419"/><path d="M190.135,113.155c-.195-.015-.436-.246-.748-.8-.83-1.475-1.51-3.059-2.259-4.577q-4.517-9.158-9.035-18.313-13.967-28.312-27.965-56.61c10.27.339,21.635,1.7,30.743,6.822,3.8,2.137,6.676,5.265,9.776,8.264,1.394,1.35,3.228,2.442,4.414,3.981,1.1,1.423.865,2.721.78,4.392-.238,4.685,2.324,8.957,3,13.494a79.3,79.3,0,0,1,.4,14.388c-.142,4.306-.3,8.708-1.862,12.725a55.948,55.948,0,0,1-2.628,5.339,60.654,60.654,0,0,0-3.61,8.551c-.311.933-.5,2.386-1.013,2.346" fill="#597419"/><path d="M96.779,74.232c-3.788,9.985-4.882,21.111-8.8,31.153-4.789,12.271-13.617,22.5-19.772,34.148-8.12,15.364-11.4,33.6-7.222,50.47S77.307,222,93.607,228.023c7.2,2.662,14.928,3.542,22.581,4.175,12.093,1,24.353,1.434,36.285-.776a68.185,68.185,0,0,0,19.377-6.558c5.347-2.817,11.709-6.882,15.709-11.414,9.35-10.594,14.894-25.015,15.96-39.016a69.237,69.237,0,0,0-11.787-43.95c-3.628-5.3-7.976-9.716-11.873-14.78a95.688,95.688,0,0,1-10.217-17.12c-3.363-7.018-6.19-14.273-9.281-21.411-2.731-6.31-5.94-12.546-11.771-16.565-5.376-3.705-11.338-4.316-17.639-4.672-6.673-.377-13.658-1.12-20.033,1.4-7.494,2.961-11.412,9.708-14.139,16.9" fill="#fad62c"/><path d="M178.653,91.75q.493,1.124.985,2.247c.99,2.263,2.275,4.657,3.255,6.925l2.708,5.085c.974,1.675,1.9,3.378,2.855,5.064l.243.428a19.277,19.277,0,0,0,1.419,2.24,2.721,2.721,0,0,0-.279-1q-1.734-4.084-3.642-8.092c-1.249-2.631-2.7-5.163-3.946-7.788-2.575-5.418-4.667-11.09-7.112-16.572-2.374-5.324-4.818-10.616-7.282-15.9C159.474,46.447,150.643,28.451,137.9,13.3c-1.841.693-2.354,3.218-1.6,5.037s2.351,3.116,3.8,4.447c5.14,4.72,8.962,10.679,12.515,16.685q5.165,8.731,9.792,17.768c3.1,6.014,6.053,12.1,8.907,18.237q3.768,8.1,7.343,16.279" fill="#678420"/><path d="M154.333,129c1.653.362-.23-.034,1.432.33s.961.234,2.625.6,8.6,1.585,10.265,1.949l4.992,1.092,5.381,1.177,5.382,1.177,5.382,1.177,5.384,1.178,1.655.362,1.657.362,1.658.363,1.657.362,3.452.755,3.452.755,6.263,1.37,6.263,1.37,3.75.82,3.751.821,2.624.574,2.625.574,1.046.229,1.048.229,1.046.228,1.047.229,4.582,1q2.291.5,4.581,1l4.582,1,4.581,1c2.126.465,2.74.765,4.865,1.23s9,2.188,11.126,2.653,1.013-.164,3.138.3l5.058,1.106c.4.088.811.153,1.209.261a10.777,10.777,0,0,1,1.053.383q1.056.405,2.1.837,2.008.833,3.97,1.77,1.859.893,3.663,1.89,1.71.948,3.36,2,1.566,1,3.064,2.1,1.425,1.051,2.775,2.2,1.285,1.1,2.49,2.285,1.152,1.139,2.213,2.364,1.018,1.178,1.941,2.434.888,1.212,1.675,2.5.76,1.243,1.415,2.55.636,1.272,1.161,2.6.515,1.3.914,2.633.393,1.315.672,2.662t.436,2.684c.106.9.175,1.795.206,2.7s.025,1.8-.018,2.7-.121,1.8-.235,2.7q-.112.884-.269,1.76c-2.937,16.43-17.564,31.888-37.666,37.883-14.063,4.194-30.8,3.759-48.1-4.219s-35.138-23.5-51.414-49.476c-1.785-2.847-6.67-6.513-11.952-10.481s-10.96-8.241-14.331-12.3c-6.45-7.768-7.175-14.22-5.512-19.6s5.715-9.7,8.826-13.184" fill="#fad62c"/><path d="M156.462,129.86a6.416,6.416,0,0,1,2.807.172l99.967,21.446c10.2,2.187,20.522,4.42,29.821,9.139s17.607,12.292,20.946,22.17c5.1,15.078-2.895,30.243-13.556,40.668-4.317,4.221-10.463,6.976-16.055,9.065a70.974,70.974,0,0,1-21.287,4.356,68.434,68.434,0,0,1-39.183-9.737c-22.406-13.85-34.942-39.282-55.112-56.225-4.1-3.448-8.542-6.559-12.076-10.59s-6.141-9.245-5.651-14.583c.477-5.2,3.747-9.669,6.9-13.837a5.439,5.439,0,0,1,2.038-1.9,2.983,2.983,0,0,1,.443-.146" fill="#fff5c7"/><path d="M241.36,149.372a.615.615,0,0,1,.087-.13,1.706,1.706,0,0,1,1.25-.424,42.668,42.668,0,0,1,11.209,1.465l17.792,3.955c2.467.549,5.017,1.134,7.041,2.648a8.355,8.355,0,0,1,3.163,4.8,7.257,7.257,0,0,1-1.036,5.615,10.3,10.3,0,0,1-4.495,3.368,21.6,21.6,0,0,1-11.365,1.638,22.419,22.419,0,0,1-12.189-5.715,37.339,37.339,0,0,1-6.484-8.424c-.939-1.555-1.834-3.134-2.756-4.7-.451-.763-.907-1.523-1.379-2.274-.282-.45-1.123-1.248-.838-1.827" fill="#fae88d"/><path d="M250.48,153.859c-.053.382.4.683.632.919.344.351.7.686,1.076,1.007a28.105,28.105,0,0,0,2.34,1.8,25.2,25.2,0,0,0,6.373,3.367,9.2,9.2,0,0,0,2.907.544c.96,0,3.582-.437,3.165-1.924a2.051,2.051,0,0,0-.706-.952,10.74,10.74,0,0,0-2.345-1.431,39.387,39.387,0,0,0-4.742-1.862,46.588,46.588,0,0,0-6.759-1.71,5.291,5.291,0,0,0-1.5-.1c-.262.031-.418.166-.442.342" fill="#612a1c"/><path d="M273.512,154.518q-3.355-.747-6.749-1.306c-.207-.034-.457-.053-.589.111-.156.192-.026.477.122.674a6.172,6.172,0,0,0,2.249,1.734c.856.424,1.761.74,2.631,1.135,2.325,1.059,4.387,2.688,6.817,3.475a4.059,4.059,0,0,0,2.013.223c.3-.059.592-.14.706-.448a1.463,1.463,0,0,0-.06-.881c-.11-.383-.16-.89.185-1.09.1-.058.221-.077.325-.13a.269.269,0,0,0,.167-.277c-.028-.109-.149-.16-.246-.218s-.187-.183-.122-.275c.053-.075.164-.065.249-.1a.335.335,0,0,0,.079-.5.966.966,0,0,0-.516-.274q-3.6-1.034-7.261-1.849" fill="#b7a142"/><path d="M212.948,114.624c-3.164.643-8.564,2.09-9.5-2.7-.894-4.557,5.6-4.96,8.881-5.6,2.078-.4,4.182-.718,6.3-.966,2.239-.262,2.935-1.145,1.664-3.266-2.193-3.659-6.151-5.731-9.829-7.773-4.131-2.294-8.27-4.588-12.427-6.834-3.165-1.711-7.529-5.556-3.4-8.341,2.458-1.656,6.215.978,8.563,2.192,4.626,2.39,9.164,5.1,13.868,7.314-3.124-3.467-7.137-6.512-10.566-9.733-1.761-1.655-3.5-3.329-5.206-5.038-1.38-1.384-2.448-2.639-1.766-4.5.976-2.657,4.056-3.18,6.515-1.418,2.685,1.923,4.992,4.542,7.447,6.736q4.046,3.617,8.071,7.252c-2.639-3.918-5.093-7.933-7.738-11.848-1.951-2.843-4.189-8.227,1.19-8.481,3.6-.171,5.844,4.11,7.456,6.595q2.187,3.368,4.392,6.726l2.2,3.361a18.422,18.422,0,0,0,1.357,2.032c.2.231.443.622.8.545.315-.068.408-.424.446-.7a12.213,12.213,0,0,0-.111-1.939c-.026-1.541-.032-3.079-.045-4.619-.016-2.062-.121-4.136-.059-6.2a12.4,12.4,0,0,1,.377-2.972,2.672,2.672,0,0,1,2.674-2.258,3.126,3.126,0,0,1,2.7,2.042c1.961,5.488,1.184,11.677,2.827,17.308,1.309,4.487,5.239,9.115,8.059,12.8,2.412,3.149,5.917,3.16,9.323,4.628,5.407,2.332.505,16.355-1.858,17.673s-5.494.523-8.142-.194c-3.9-1.054-7.743-2.78-11.8-3.378-3.96-.584-7.7.758-11.63.925-3.687.156-7.391-.125-11.034.615" fill="#fff"/><path d="M46.033,201.151c3.106.882,8.38,2.735,9.68-1.966,1.237-4.477-5.2-5.371-8.431-6.254-2.041-.558-4.115-1.033-6.21-1.442-2.213-.431-2.841-1.364-1.412-3.382,2.464-3.483,6.568-5.248,10.391-7,4.293-1.974,8.6-3.947,12.91-5.871,3.286-1.465,7.929-4.968,4.02-8.058-2.325-1.838-6.27.5-8.7,1.535-4.794,2.032-9.524,4.386-14.384,6.24,3.379-3.219,7.612-5.952,11.275-8.9,1.882-1.517,3.747-3.053,5.574-4.628,1.481-1.275,2.641-2.445,2.1-4.35-.771-2.723-3.8-3.479-6.389-1.909-2.823,1.714-5.322,4.151-7.936,6.152q-4.31,3.3-8.6,6.618c2.929-3.707,5.681-7.523,8.616-11.226,2.161-2.687,4.8-7.885-.544-8.548-3.575-.443-6.138,3.655-7.935,6.01q-2.436,3.193-4.89,6.374l-2.451,3.184a18.4,18.4,0,0,1-1.506,1.923c-.218.215-.489.587-.843.482-.309-.091-.375-.454-.393-.73a12.278,12.278,0,0,1,.259-1.926c.142-1.534.266-3.068.4-4.6.173-2.055.435-4.115.529-6.175a12.331,12.331,0,0,0-.15-2.992,2.671,2.671,0,0,0-2.494-2.455,3.128,3.128,0,0,0-2.844,1.831C23.3,154.4,23.6,160.631,21.536,166.122c-1.645,4.375-5.916,8.691-9.008,12.149-2.644,2.958-6.139,2.7-9.647,3.908-5.569,1.914-1.745,16.269.51,17.763s5.439.938,8.134.425c3.966-.755,7.932-2.184,12.026-2.473,3.993-.281,7.625,1.341,11.527,1.806,3.664.435,7.378.436,10.955,1.451" fill="#fff"/></g></svg>