<svg xmlns="http://www.w3.org/2000/svg" xmlns:xlink="http://www.w3.org/1999/xlink" width="347.46" height="215.719" viewBox="0 0 347.46 215.719"><defs><clipPath id="a"><rect width="347.46" height="215.719" fill="none"/></clipPath></defs><g clip-path="url(#a)"><path d="M65.734,131.256c22.858-4.584,52.2-10.142,74.669-16.316,23.871-6.559,54.728-15.6,69.314-19.312a668.085,668.085,0,0,0,93.006-31.789c-.514-9.064-1.079-21.022-1.74-30.235-58.122,26.949-128,48.2-193.3,63.488a349.609,349.609,0,0,1-35.826,6.885c-5.852.738-12.133,1.155-17.216-2.058a6.121,6.121,0,0,0-2.9-.989c-3.8-.218-6.869,5.011-7.155,8.77-.45,5.918-.188,10.618-.2,16.243v2.836a9.386,9.386,0,0,0,4.262,2.489,41.667,41.667,0,0,0,17.088-.012" fill="#47337f"/><path d="M289.669,29.264c-45.247-7.821-92.148-13.788-137.6-20.3-2.7-.387-5.5-.766-8.123-.011a19.149,19.149,0,0,0-6.3,3.738C105.71,37.812,80.111,69.714,51.085,98.143a29.375,29.375,0,0,0-5.858,8.642c-2.053,5.787,11.763,3.843,14.064,3.286,47.734-11.553,95.367-23.516,142.226-38.321q20.792-6.57,41.309-13.967c13.791-5,27.938-9.819,41.214-16.071,4-1.7,11.243-4.932,16.225-7.238a1.3,1.3,0,0,0,.755-1.216c-.022-.914-.178-2.236-.885-2.357s-8.12-1.231-10.466-1.637" fill="#5c3d7f"/><path d="M302.714,63.586c.016.808-48.575,17.379-62.416,21.689-31.609,9.841-63.065,20.1-95.139,28.295C127.84,118,77.921,128.878,68,130.189c-7.713,1.019-16.295,3.581-23.329-1.213-.083-.056-.29-.252-.29-.2-.16,11.445-.539,29.519-.488,42.034a4.429,4.429,0,0,0,.867,2.11c1.087,1.536,5.208,3.8,7.027,3.809,14.2.091,61.222-7.435,68.1-8.093,6.63-.635,63.247-14.245,95.446-22.817,52-13.844,86.223-27.618,86.255-28.2.835-15.848,1.638-39.941,1.122-54.041" fill="#f8ebc6"/><path d="M301.684,115.835c-.086,1.474-24.675,8.736-31.2,10.679-46.819,13.936-94.4,28.552-142.427,37.511q-13.629,2.543-27.318,4.742c-10.266,1.649-20.558,3.215-30.875,4.512a127.366,127.366,0,0,1-14.578,1.407c-2.472.022-11.262.236-11.386-3.872q.521,17.232,1.043,34.465c.091,3.01.322,6.349,2.495,8.432,2.388,2.288,6.131,2.144,9.424,1.837A1192.935,1192.935,0,0,0,202.639,192.5c18.06-3.981,36.091-8.27,53.784-13.666,10.466-3.177,22.223-5.959,31.958-11.009a16.209,16.209,0,0,0,4.53-3.231c2.353-2.531,3.208-6.073,3.9-9.458a272.2,272.2,0,0,0,4.868-39.3" fill="#d79f62"/><path d="M158,48.466c-1.7-5.793-5.5-10.688-8.267-15.977-2.149-4.1-2.557-8.865.56-13.275,3.251-4.6,8.7-5.853,10.562-11.693.885-2.773,3.494-9.79,7.081-6.79,10.722,8.967,16.288,23.515,19.181,38.2.378,1.92-1.309,4.29-3.447,4.871l-22.548,6.123A2.361,2.361,0,0,1,158,48.466" fill="#0ea464"/><path d="M182.386,46.677c1.91-4.932,5.552-9.093,8.343-13.593,2.165-3.491-.986-3.633-3.324-7.4-2.44-3.931-3.157-8.932-4.307-13.915-.546-2.367-2.246-8.356-5.562-5.81-9.911,7.609-15.822,19.992-19.444,32.5a3.643,3.643,0,0,0,2.586,4.164l18.911,5.29a2.2,2.2,0,0,0,2.8-1.235" fill="#0ea464"/><path d="M228.989,36.063a19.007,19.007,0,0,1-1.6,2.62c-6.994,9.6-22.76,10.35-31.132,2.2A20.119,20.119,0,0,1,190.834,22.1,19.9,19.9,0,0,1,204.317,7.97a22.961,22.961,0,0,1,12.9.26,20.349,20.349,0,0,1,9.548,5.781A18.75,18.75,0,0,1,231.14,24.89a21.182,21.182,0,0,1-2.151,11.173" fill="#3d49a3"/><path d="M224.835,26.577l3.313-1.294a1.033,1.033,0,0,0,.268-1.769l-2.779-2.22a1.038,1.038,0,0,1-.387-.746L225.042,17a1.033,1.033,0,0,0-1.6-.8l-2.972,1.957a1.025,1.025,0,0,1-.829.136l-3.44-.9a1.032,1.032,0,0,0-1.257,1.272l.943,3.431a1.029,1.029,0,0,1-.126.83l-1.919,3a1.033,1.033,0,0,0,.822,1.589l3.556.163a1.041,1.041,0,0,1,.751.377l2.255,2.75a1.034,1.034,0,0,0,1.765-.293l1.253-3.329a1.034,1.034,0,0,1,.59-.6" fill="#28356e"/><path d="M224.078,24.875a3.563,3.563,0,1,1-1.588-4.781,3.565,3.565,0,0,1,1.588,4.781" fill="#13204e"/><path d="M194.487,44.071c-3.442,9.757-9.448,12.73-18.991,15.5-4.17,1.209-10.274,2.079-14.853.463-14.337-5.058-21.654-18.594-16.6-32.93s19.161-20.036,33.5-14.978,22,17.613,16.942,31.95" fill="#535dbe"/><path d="M167.745,30.013l3.594-2.924a1.345,1.345,0,0,0-.372-2.3l-4.328-1.647a1.35,1.35,0,0,1-.776-.772l-1.672-4.321a1.343,1.343,0,0,0-2.3-.359l-2.909,3.61a1.345,1.345,0,0,1-.974.5l-4.624.253a1.345,1.345,0,0,0-1.051,2.078l2.534,3.881a1.337,1.337,0,0,1,.173,1.08l-1.188,4.477a1.345,1.345,0,0,0,1.651,1.643L159.979,34a1.34,1.34,0,0,1,1.08.168l3.89,2.512a1.344,1.344,0,0,0,2.072-1.063l.23-4.629a1.345,1.345,0,0,1,.494-.976" fill="#28356e"/><path d="M165.924,28.171a4.433,4.433,0,1,1-3.7-5.06,4.432,4.432,0,0,1,3.7,5.06" fill="#13204e"/><path d="M299.477,72.172c-3.221.218-8.765.936-9.061-3.932-.282-4.636,6.2-4.174,9.544-4.368,2.113-.122,4.241-.157,6.375-.122,2.254.037,3.061-.745,2.083-3.016-1.689-3.918-5.337-6.5-8.712-9.008-3.79-2.822-7.589-5.644-11.411-8.422-2.911-2.115-6.726-6.505-2.261-8.717,2.656-1.316,6.03,1.793,8.2,3.307,4.268,2.983,8.408,6.267,12.777,9.089-2.637-3.85-6.212-7.4-9.182-11.048-1.527-1.874-3.032-3.764-4.493-5.684-1.184-1.555-2.076-2.94-1.154-4.691,1.319-2.5,4.442-2.615,6.646-.542,2.4,2.262,4.345,5.164,6.487,7.664q3.531,4.121,7.039,8.258c-2.1-4.234-4-8.538-6.1-12.77-1.557-3.076-3.061-8.709,2.3-8.248,3.59.308,5.247,4.849,6.516,7.526q1.72,3.629,3.461,7.249l1.737,3.623a18.329,18.329,0,0,0,1.075,2.194c.168.256.357.675.725.646.321-.025.46-.366.535-.633a12.186,12.186,0,0,0,.147-1.937c.179-1.53.376-3.056.568-4.584.257-2.046.428-4.116.763-6.151a12.416,12.416,0,0,1,.768-2.9,2.672,2.672,0,0,1,2.95-1.883,3.127,3.127,0,0,1,2.4,2.381c1.216,5.7-.374,11.731.507,17.53.7,4.622,3.985,9.73,6.292,13.755,1.972,3.441,5.445,3.916,8.627,5.824,5.05,3.027-1.669,16.277-4.185,17.27s-5.516-.21-8.046-1.272c-3.722-1.561-7.3-3.782-11.251-4.914-3.848-1.1-7.737-.27-11.65-.625-3.675-.334-7.309-1.1-11.018-.853" fill="#fff"/><path d="M48.153,135.923c3.182-.549,8.738-1.161,7.876-5.961-.822-4.571-7.015-2.59-10.307-1.99-2.082.38-4.157.849-6.223,1.387-2.181.569-3.15,0-2.736-2.438.715-4.206,3.651-7.573,6.337-10.811,3.017-3.638,6.041-7.278,9.1-10.879,2.328-2.743,5-7.911.137-9.005-2.891-.651-5.435,3.167-7.183,5.15-3.442,3.907-6.688,8.076-10.267,11.85,1.652-4.364,4.287-8.659,6.312-12.9,1.04-2.182,2.057-4.373,3.023-6.584.783-1.791,1.323-3.347.012-4.831-1.873-2.121-4.933-1.492-6.585,1.043-1.8,2.767-3,6.045-4.493,8.98-1.638,3.225-3.276,6.451-4.889,9.687,1.037-4.609,1.866-9.24,2.91-13.849.786-3.357.917-9.186-4.188-7.47-3.415,1.147-3.953,5.951-4.554,8.852q-.814,3.931-1.65,7.861-.416,1.965-.832,3.931a18.5,18.5,0,0,1-.526,2.386c-.1.288-.187.741-.552.8-.318.051-.534-.247-.669-.489a12.193,12.193,0,0,1-.6-1.848c-.535-1.445-1.087-2.881-1.635-4.32-.733-1.927-1.388-3.9-2.194-5.8a12.36,12.36,0,0,0-1.431-2.633,2.672,2.672,0,0,0-3.311-1.133,3.128,3.128,0,0,0-1.771,2.881c.165,5.825,3.136,11.31,3.649,17.153.41,4.657-1.573,10.4-2.864,14.852-1.1,3.81-4.366,5.092-7.007,7.7-4.192,4.135,5.467,15.423,8.147,15.793s5.309-1.507,7.517-3.136c3.248-2.4,6.2-5.4,9.772-7.433,3.478-1.982,7.454-2.09,11.172-3.36,3.493-1.193,6.841-2.8,10.505-3.432" fill="#fff"/></g></svg>