<svg xmlns="http://www.w3.org/2000/svg" xmlns:xlink="http://www.w3.org/1999/xlink" width="286.852" height="201.701" viewBox="0 0 286.852 201.701"><defs><clipPath id="a"><rect width="286.852" height="201.701" fill="none"/></clipPath><clipPath id="c"><rect width="101.861" height="25.143" transform="translate(44.444 108.027)" fill="none"/></clipPath><clipPath id="d"><rect width="89.188" height="13.421" transform="translate(51.087 119.749)" fill="none"/></clipPath><clipPath id="e"><rect width="122.492" height="29.679" transform="translate(103.923 116.488)" fill="none"/></clipPath><clipPath id="f"><rect width="107.26" height="15.582" transform="translate(111.398 130.585)" fill="none"/></clipPath></defs><g clip-path="url(#a)"><g clip-path="url(#a)"><path d="M159.335,163.588l-.172-3.144-1.692.087c-6.8-5.2-31.748-8.048-61.273-6.526-29.562,1.525-54.112,6.934-60.3,12.816l-1.674.086.156,3.027h.029c.737,6.851,28.832,10.965,63.086,9.2,34.036-1.755,61.429-8.659,61.8-15.508Z" fill="#7e8286"/><path d="M159.154,160.465c.358,6.938-27.314,14.006-61.808,15.784s-62.745-2.4-63.1-9.343S61.557,152.9,96.05,151.122s62.746,2.4,63.1,9.343" fill="#5b606c"/><path d="M158.284,160.69c0-.054.007-.106,0-.159s-.013-.1-.02-.155L151.3,25.275,28.148,31.625l6.967,135.1a1.46,1.46,0,0,0,0,.162c0,.055.012.11.02.163l.007.134h.017c1.249,5.34,28.726,9.552,62.127,7.83s60.3-8.738,60.992-14.178h.017Z" fill="#ba0000"/><path d="M35.111,166.883c0,.055.013.11.021.163l.007.134h.017c1.248,5.34,28.726,9.552,62.126,7.83s60.3-8.738,60.992-14.178h.017l-.007-.14c0-.054.007-.106,0-.159a1.4,1.4,0,0,0-.02-.155l-.705-13.674c-17.452-2.42-38.437-3.28-60.936-2.12-23.294,1.2-44.755,4.389-62.2,8.826l.687,13.313a1.46,1.46,0,0,0,0,.162" fill="#ffd117"/><path d="M39.227,58.628s50.8,15.267,102.949-6c-4.734,10.365-4.255,25.038,2.389,32.876-14.3,5.036-64.005,19.107-105.808,4.347,3.584-7.8,4.117-25.032.47-31.222" fill="#50892e"/><path d="M47.377,54.7s13.2,15.623.8,42.262c27.706,8.6,78.472,2.5,87.083-4.146-8.753-12.806-8.8-33.758-4.355-41.046C118.628,57.4,71.7,62.226,47.377,54.7" fill="#fed144"/><path d="M87.193,86.365a12.467,12.467,0,1,1-9.582-14.8,12.471,12.471,0,0,1,9.582,14.8" fill="#fc3007"/><path d="M76.006,66.82s-.956-.107-.6.523,1.265,2.815.78,4.374a4,4,0,0,1-2.156-3.885,4.416,4.416,0,0,0,1.059,4.5s-3.993-.692-4.947-2.786c0,0-.23,2.753,4.2,3.539a5.611,5.611,0,0,0-2.462,3.581s1.786-3.008,4.355-2.981c0,0,1.255,3.431,6.136,2.715a4.825,4.825,0,0,1-3.642-2.637,6.738,6.738,0,0,1,6.024-1.026,5.7,5.7,0,0,0-6.032-.15s2.212-1.809,1.684-3.911c0,0-1.33,2.715-3.286,3.014,0,0,.846-4.221.063-4.617s-1.08-.231-1.08-.231Z" fill="#21a92f"/><path d="M119.721,77.559a13.169,13.169,0,1,1-16.8-8.046,13.172,13.172,0,0,1,16.8,8.046" fill="#fc3007"/><path d="M98.86,66.124s-.92.431-.252.8,2.692,1.837,3.115,3.51a4.228,4.228,0,0,1-4.085-2.312,4.665,4.665,0,0,0,3.435,3.469s-3.978,1.58-5.994.219c0,0,1.312,2.607,5.735.872a5.928,5.928,0,0,0-.242,4.585s-.051-3.7,2.278-5.089c0,0,3.024,2.4,7.026-.938,0,0-2.654,1.185-4.736-.367A7.117,7.117,0,0,1,110,66.628a6.022,6.022,0,0,0-5.517,3.193s.995-2.85-.639-4.453c0,0,.3,3.181-1.3,4.529,0,0-1.566-4.269-2.491-4.193s-1.1.387-1.1.387Z" fill="#21a92f"/><path d="M76.339,159.93l1.365,3.056s4.871,2.761,19.521,2.006,21.673-5.024,21.673-5.024l1-3.957Z" fill="#5b3411"/><path d="M146.3,117.653c-5.509,29.516-20.634,43.193-48.759,44.644s-45.857-8.23-53.093-39.392c-1.294-5.569,22.183-13.141,50.308-14.591s52.565,3.873,51.544,9.339" fill="#773b00"/><g opacity="0.5" style="mix-blend-mode:multiply;isolation:isolate"><g clip-path="url(#c)"><path d="M146.3,117.653c.342,6.609-22.149,13.809-50.275,15.259s-51.238-3.4-51.577-10.007,22.183-13.141,50.308-14.591,51.2,2.73,51.544,9.339" fill="#e0dbd3"/></g></g><g opacity="0.5" style="mix-blend-mode:multiply;isolation:isolate"><g clip-path="url(#d)"><path d="M140.275,123.921c-8.867-3.239-25.712-4.874-44.912-3.884s-35.788,4.349-44.277,8.483c8.879,3.437,25.74,5.383,44.94,4.393s35.772-4.66,44.249-8.992" fill="#e0dbd3"/></g></g><path d="M139.536,123.288c-8.854-2.984-24.973-4.241-44.174-3.251S60.231,124,51.73,127.874c8.864,3.168,25.05,5.136,44.25,4.146s35.065-4.669,43.556-8.732" fill="#e80a01"/><path d="M94.758,108.314c-28.126,1.451-50.651,7.983-50.31,14.591S67.9,134.363,96.026,132.912s50.616-8.65,50.275-15.259-23.417-10.789-51.543-9.339M95.979,132c-27.057,1.4-50.316-3.108-50.638-9.345s22.384-12.478,49.441-13.873,50.078,2.487,50.4,8.725S123.036,130.6,95.979,132" fill="#5b3411"/><path d="M153.812,77.288a137.119,137.119,0,0,0-22.975,14.175c-14.5,10.82-15.634,13.782-27.069,15.576-13,2.039-26.836,4.9-28.079,11.129a3.608,3.608,0,0,0,.1,1.757c2.1,2.959,6.912,6.363,17.851,4.547,12.129-3.037,16.087-8.14,22.424-15.326s13.407-10.414,24.857-14.923c6.051-2.475,10.67-4.511,13.464-5.776Z" fill="#eee"/><path d="M154.387,88.447c-2.795,1.265-7.413,3.3-13.464,5.776-11.45,4.509-18.52,7.738-24.857,14.924s-10.295,12.288-22.424,15.325c-10.94,1.816-15.757-1.587-17.852-4.547,1.735,5.812,16.706,11.732,28.566,4.2,7.293-4.581,8.273-8.348,14.138-15.985,4.805-5.43,10.464-7.581,24.263-13.084,6.205-2.556,10.166-4.485,11.7-5.257Z" fill="#afaeae"/><path d="M111.748,113.51c0-.045-.013-.087-.019-.131a2.429,2.429,0,0,0-.065-.312c-.013-.044-.028-.088-.043-.131a2.221,2.221,0,0,0-.129-.291c-.018-.034-.035-.069-.055-.1a2.435,2.435,0,0,0-.234-.326l-.023-.03a3.3,3.3,0,0,0-.8-.646l-.013-.007a4.72,4.72,0,0,0-.5-.256l-.033-.015c-3.631-1.6-11.926-.759-20.6,2.282-6.289,2.2-8.754,4.675-9.588,6.7h0a4.738,4.738,0,0,0-.371,1.915v.027c0,.109.009.215.019.316l0,.015c.01.09.022.178.036.263,0,.022.007.043.01.064.016.088.033.173.053.254a13.652,13.652,0,0,0,2.655,1.1,23.307,23.307,0,0,0,9.077.614c.8-.082,1.637-.193,2.514-.339,1.151-.288,2.228-.594,3.24-.92q.759-.243,1.471-.5a31.982,31.982,0,0,0,13.4-9.069,2.645,2.645,0,0,0,0-.471" fill="#fc3007"/><path d="M152.255,26.287l-.172-3.144-1.692.087c-6.8-5.2-31.748-8.048-61.273-6.526-29.562,1.525-54.112,6.933-60.3,12.816l-1.674.086.156,3.026h.029c.737,6.852,28.832,10.966,63.086,9.2,34.035-1.755,61.429-8.66,61.8-15.508Z" fill="#fff"/><path d="M152.255,26.287l-.172-3.144-1.692.087c-6.8-5.2-31.748-8.048-61.273-6.526-29.562,1.525-54.112,6.933-60.3,12.816l-1.674.086.156,3.026h.029c.737,6.852,28.832,10.966,63.086,9.2,34.035-1.755,61.429-8.66,61.8-15.508Z" fill="#7e8286"/><path d="M152.074,23.164c.358,6.938-27.314,14-61.808,15.784s-62.745-2.405-63.1-9.343,27.314-14,61.807-15.783,62.746,2.4,63.1,9.342" fill="#b2b6ba"/><path d="M149.518,22.967c.322,6.252-26.242,12.7-59.333,14.409s-60.177-1.978-60.5-8.23,26.241-12.7,59.333-14.409,60.178,1.979,60.5,8.23" fill="#73767a"/><path d="M148.113,23.551c.308,5.97-25.628,12.159-57.928,13.825s-58.736-1.824-59.043-7.793S56.768,17.423,89.07,15.758s58.735,1.824,59.043,7.793" fill="#d2d5d4"/><path d="M141.8,24.259c.244,4.733-22.44,9.75-50.667,11.206s-51.307-1.2-51.551-5.935,22.441-9.751,50.667-11.207,51.307,1.2,51.551,5.936" fill="#d2d5d4"/><path d="M133.455,24.691c.181,3.516-17.718,7.3-39.977,8.445s-40.452-.772-40.634-4.288,17.717-7.3,39.977-8.445,40.453.772,40.634,4.288" fill="#94989c"/><path d="M131.768,25.053c.167,3.245-16.98,6.768-38.3,7.867s-38.74-.64-38.907-3.886,16.98-6.767,38.3-7.866,38.74.639,38.907,3.885" fill="#d2d5d4"/><path d="M44.578,27.809c.112.891-1.217,1.789-2.966,2.009s-3.259-.326-3.37-1.216,1.217-1.79,2.967-2.01,3.258.325,3.369,1.217" fill="#fff"/><path d="M75.759,24.612c-1.3-2.569-3.694-3.623-6.418-3.935-5.484-.63-11.135.738-16.48,1.839-5.159,1.063-10.771,1.568-15.61,3.743-2.391,1.074-2.856,4.031-.771,5.089,3.074,1.56,18.959,2.683,23.179,2.748,2.316.035,4.634-.025,6.944-.218a19.7,19.7,0,0,0,5.708-1.206,6.132,6.132,0,0,0,3.6-2.938,7.527,7.527,0,0,0-.156-5.122M72.728,28.44c-.009.038-.019.076-.029.114-1.067,3.912-6.552,2.824-9.46,2.3a22.4,22.4,0,0,1-5.273-1.426A5.39,5.39,0,0,1,55.944,28a2.09,2.09,0,0,1-.47-.954,2.134,2.134,0,0,1,.27-1.314,4.806,4.806,0,0,1,2.145-1.991,11.961,11.961,0,0,1,2.824-.91,47.264,47.264,0,0,1,5.5-.885,6.678,6.678,0,0,1,4.2.555,5.091,5.091,0,0,1,1.889,2.39,5.714,5.714,0,0,1,.43,3.547" fill="#73767a"/><path d="M75.682,23.13c-1.3-2.57-3.693-3.623-6.417-3.936-5.485-.63-11.136.738-16.48,1.839C47.626,22.1,42.014,22.6,37.174,24.777c-2.391,1.074-2.856,4.031-.771,5.088,3.074,1.561,18.96,2.683,23.18,2.748,2.316.036,4.634-.025,6.943-.217a19.7,19.7,0,0,0,5.709-1.207,6.126,6.126,0,0,0,3.6-2.938,7.518,7.518,0,0,0-.156-5.121m-2.989,3.837a3.615,3.615,0,0,1-1.548,2.149,5.3,5.3,0,0,1-2.371.664,18.7,18.7,0,0,1-2.917-.033c-.818-.07-1.656-.214-2.469-.329C61.139,29.1,52.751,27.8,56.513,23.79c1.3-1.384,3.346-1.78,5.139-2.091,2.555-.442,5.294-1.16,7.868-.486A3.877,3.877,0,0,1,72.388,23.8a6.841,6.841,0,0,1,.305,3.171" fill="#b0b3b3"/><path d="M45.136,26.914c.08.951-1.369,1.849-3.236,2.007s-3.446-.486-3.526-1.436,1.368-1.849,3.236-2.007,3.446.486,3.526,1.436" fill="#73767a"/><path d="M45.1,26.308c.119.947-1.294,1.9-3.153,2.135s-3.463-.347-3.581-1.293,1.293-1.9,3.153-2.135,3.462.347,3.581,1.293" fill="#d2d5d4"/><path d="M238.1,188.29l.062-3.782-2.034-.04c-7.7-6.813-37.352-12.358-72.86-13.059-35.552-.7-65.43,3.681-73.351,10.2l-2.013-.039-.072,3.64h.035c.3,8.272,33.609,15.6,74.8,16.417,40.931.807,74.344-5.123,75.38-13.3Z" fill="#7e8286"/><path d="M238.154,184.533c-.165,8.344-33.926,14.446-75.409,13.628s-74.976-8.246-74.811-16.591,33.925-14.445,75.407-13.627,74.978,8.245,74.813,16.59" fill="#5b606c"/><path d="M237.092,184.728c.007-.064.017-.127.018-.19a1.72,1.72,0,0,0-.011-.188L240.3,21.875,92.2,18.954l-3.2,162.469a1.818,1.818,0,0,0-.019.194c0,.066.006.132.011.2l0,.161H89c1.039,6.505,33.6,13.9,73.771,14.693s73-5.314,74.293-11.773h.022Z" fill="#ba0000"/><path d="M88.975,181.617c0,.066.006.132.011.2l0,.161H89c1.039,6.505,33.6,13.9,73.771,14.694s73-5.315,74.293-11.774h.022l0-.169c.007-.064.017-.127.018-.19a1.72,1.72,0,0,0-.011-.188l.325-16.444c-20.705-4.392-45.776-7.217-72.833-7.751-28.014-.552-54,1.433-75.282,5.258l-.315,16.01a1.818,1.818,0,0,0-.019.194" fill="#ffd117"/><path d="M103.164,52.257s59.566,22.637,123.868,1.612c-6.559,12.015-7.239,29.637.051,39.6-17.564,4.812-78.325,17.423-127.152-3.838,4.961-9.035,7.074-29.641,3.233-37.37" fill="#50892e"/><path d="M113.265,48.246s14.484,19.849-2.653,50.708c32.462,12.678,93.813,9.7,104.7,2.478-9.393-16.094-7.659-41.2-1.709-49.555-15.194,5.692-71.838,7.468-100.337-3.631" fill="#fed144"/><path d="M158.266,89.593A14.976,14.976,0,1,1,148.05,71.04a14.981,14.981,0,0,1,10.216,18.553" fill="#fc3007"/><path d="M146.532,65.217s-1.136-.209-.765.576,1.275,3.48.56,5.307a4.809,4.809,0,0,1-2.25-4.84,5.3,5.3,0,0,0,.884,5.481s-4.726-1.171-5.689-3.762c0,0-.512,3.28,4.728,4.6a6.744,6.744,0,0,0-3.257,4.081s2.4-3.453,5.473-3.2c0,0,1.21,4.218,7.12,3.778,0,0-3.238-.658-4.138-3.472a8.091,8.091,0,0,1,7.305-.714,6.85,6.85,0,0,0-7.215-.7s2.806-1.978,2.353-4.542c0,0-1.826,3.14-4.2,3.33,0,0,1.375-4.984.47-5.525s-1.274-.37-1.274-.37Z" fill="#21a92f"/><path d="M197.994,81.823a15.82,15.82,0,1,1-19.438-11.076,15.822,15.822,0,0,1,19.438,11.076" fill="#fc3007"/><path d="M173.976,66.337s-1.139.438-.371.941,3.068,2.431,3.432,4.472a5.081,5.081,0,0,1-4.7-3.119,5.607,5.607,0,0,0,3.819,4.45s-4.9,1.552-7.2-.251c0,0,1.349,3.237,6.8,1.535a7.122,7.122,0,0,0-.682,5.473s.255-4.432,3.165-5.9c0,0,3.418,3.132,8.5-.524,0,0-3.28,1.193-5.643-.844a8.549,8.549,0,0,1,6.187-4.674,7.234,7.234,0,0,0-6.884,3.354s1.437-3.331-.385-5.39c0,0,.086,3.836-1.942,5.315,0,0-1.512-5.249-2.626-5.238s-1.35.371-1.35.371Z" fill="#21a92f"/><path d="M138.97,176.811l1.374,3.778s5.6,3.725,23.219,4.073,26.4-4.167,26.4-4.167l1.54-4.655Z" fill="#5b3411"/><path d="M226.414,132.137c-9.125,34.9-28.417,49.99-62.242,49.323s-54.242-13.782-60.249-51.739c-1.073-6.784,27.705-13.848,61.529-13.181s62.653,9.135,60.962,15.6" fill="#773b00"/><g opacity="0.5" style="mix-blend-mode:multiply;isolation:isolate"><g clip-path="url(#e)"><path d="M226.414,132.137c-.157,7.948-27.72,14.652-61.545,13.985s-61.1-8.453-60.946-16.4,27.705-13.848,61.529-13.181,61.119,7.649,60.962,15.6" fill="#e0dbd3"/></g></g><g opacity="0.5" style="mix-blend-mode:multiply;isolation:isolate"><g clip-path="url(#f)"><path d="M218.658,139.131c-10.348-4.639-30.393-8.039-53.483-8.494s-43.254,2.151-53.777,6.379c10.344,4.877,30.38,8.65,53.471,9.1s43.261-2.524,53.789-6.99" fill="#e0dbd3"/></g></g><path d="M217.826,138.309c-10.354-4.332-29.561-7.217-52.651-7.672s-42.434,1.739-52.951,5.66c10.35,4.553,29.575,8.295,52.666,8.751s42.415-2.6,52.936-6.739" fill="#e80a01"/><path d="M165.453,116.539c-33.825-.667-61.373,5.234-61.529,13.182s27.121,15.733,60.945,16.4,61.389-6.036,61.545-13.984-27.136-14.931-60.961-15.6m-.562,28.485c-32.539-.642-60.024-8.026-59.876-15.527S132.9,116.46,165.442,117.1s59.791,7.261,59.643,14.763-27.654,13.8-60.194,13.159" fill="#5b3411"/><path d="M238.865,84.413a164.733,164.733,0,0,0-28.741,15.02c-18.3,11.725-19.911,15.177-33.766,16.349-15.75,1.332-32.574,3.582-34.6,10.934a4.339,4.339,0,0,0-.028,2.114c2.257,3.725,7.738,8.215,21,6.975,14.792-2.6,19.971-8.378,28.179-16.446s16.954-11.333,31.059-15.757c7.463-2.448,13.17-4.492,16.627-5.769Z" fill="#eee"/><path d="M238.6,97.833c-3.457,1.277-9.164,3.321-16.627,5.769-14.105,4.424-22.852,7.689-31.06,15.757S177.527,133.2,162.734,135.8c-13.263,1.24-18.744-3.25-21-6.975,1.582,7.113,19.013,15.486,33.869,7.471,9.13-4.865,10.626-9.295,18.306-17.944,6.223-6.1,13.188-8.189,30.191-13.6,7.654-2.532,12.565-4.5,14.469-5.3Z" fill="#afaeae"/><path d="M185.366,124.218c0-.054-.008-.105-.012-.158a2.613,2.613,0,0,0-.051-.38c-.011-.054-.026-.108-.041-.161a2.56,2.56,0,0,0-.129-.359c-.019-.043-.036-.086-.057-.128a2.981,2.981,0,0,0-.253-.41c-.009-.012-.015-.025-.024-.037a3.972,3.972,0,0,0-.9-.843l-.015-.01a6.068,6.068,0,0,0-.574-.349l-.038-.02c-4.213-2.233-14.224-1.929-24.884.972-7.725,2.1-10.889,4.853-12.062,7.2v0a5.677,5.677,0,0,0-.608,2.262v.033c-.006.131-.007.258,0,.381v.017c0,.11.011.216.02.319,0,.026.005.052.007.078.012.106.025.21.041.308a16.373,16.373,0,0,0,3.088,1.544,27.967,27.967,0,0,0,10.824,1.511q1.448-.043,3.041-.19c1.4-.247,2.72-.522,3.961-.825q.93-.228,1.806-.476a38.442,38.442,0,0,0,16.825-9.722,3.221,3.221,0,0,0,.04-.564" fill="#fc3007"/><path d="M241.36,23.17l.062-3.782-2.034-.04c-7.7-6.814-37.352-12.358-72.86-13.059-35.552-.7-65.43,3.681-73.351,10.2l-2.013-.039-.072,3.639h.035c.3,8.272,33.609,15.6,74.805,16.417,40.931.807,74.344-5.123,75.38-13.3Z" fill="#fff"/><path d="M241.36,23.17l.062-3.782-2.034-.04c-7.7-6.814-37.352-12.358-72.86-13.059-35.552-.7-65.43,3.681-73.351,10.2l-2.013-.039-.072,3.639h.035c.3,8.272,33.609,15.6,74.805,16.417,40.931.807,74.344-5.123,75.38-13.3Z" fill="#7e8286"/><path d="M241.41,19.412c-.165,8.344-33.926,14.446-75.409,13.627S91.025,24.794,91.19,16.449,125.115,2,166.6,2.822s74.978,8.246,74.813,16.59" fill="#b2b6ba"/><path d="M238.364,18.957c-.148,7.519-32.53,12.977-72.325,12.192S94.1,23.634,94.251,16.115,126.779,3.138,166.576,3.923s71.936,7.516,71.788,15.034" fill="#73767a"/><path d="M236.631,19.537c-.142,7.179-31.747,12.378-70.592,11.612s-70.222-7.207-70.08-14.386S127.705,4.385,166.551,5.151s70.222,7.207,70.08,14.386" fill="#d2d5d4"/><path d="M229.011,19.846c-.112,5.692-27.722,9.764-61.668,9.095s-61.373-5.827-61.261-11.519,27.722-9.765,61.668-9.1,61.373,5.827,61.261,11.52" fill="#d2d5d4"/><path d="M218.971,19.65c-.083,4.229-21.853,7.229-48.623,6.7s-48.405-4.384-48.321-8.613,21.852-7.228,48.623-6.7,48.4,4.383,48.321,8.612" fill="#94989c"/><path d="M216.918,19.939c-.077,3.9-20.925,6.658-46.565,6.152s-46.364-4.08-46.287-7.983,20.925-6.657,46.565-6.151,46.364,4.079,46.287,7.982" fill="#d2d5d4"/><path d="M112.211,15.786c.058,1.077-1.611,2.041-3.726,2.154s-3.876-.67-3.933-1.746,1.609-2.041,3.726-2.154,3.876.669,3.933,1.746" fill="#fff"/><path d="M149.845,14.622c-1.334-3.189-4.116-4.657-7.353-5.265-6.518-1.224-13.406-.068-19.9.8-6.272.833-13.04.958-19.025,3.15-2.957,1.083-3.767,4.586-1.359,6.032,3.55,2.132,22.488,4.836,27.539,5.274,2.772.241,5.555.367,8.339.334a23.726,23.726,0,0,0,6.943-.958c1.806-.579,3.65-1.464,4.569-3.212a9.043,9.043,0,0,0,.251-6.15m-3.959,4.327q-.021.068-.045.135c-1.613,4.6-8.092,2.823-11.532,1.945a26.961,26.961,0,0,1-6.2-2.159,6.475,6.475,0,0,1-2.3-1.88,2.527,2.527,0,0,1-.482-1.184,2.57,2.57,0,0,1,.436-1.552,5.773,5.773,0,0,1,2.74-2.2,14.323,14.323,0,0,1,3.462-.848,56.973,56.973,0,0,1,6.664-.592,8.026,8.026,0,0,1,4.982,1.025,6.1,6.1,0,0,1,2.059,3.026,6.871,6.871,0,0,1,.212,4.286" fill="#73767a"/><path d="M149.88,12.84c-1.334-3.19-4.116-4.657-7.353-5.265-6.518-1.224-13.406-.067-19.9.8-6.272.832-13.04.957-19.025,3.151-2.956,1.082-3.766,4.584-1.359,6.03,3.55,2.133,22.489,4.836,27.539,5.275,2.772.24,5.555.365,8.339.334a23.726,23.726,0,0,0,6.943-.958c1.806-.58,3.65-1.464,4.569-3.212a9.044,9.044,0,0,0,.251-6.15m-3.91,4.342a4.334,4.334,0,0,1-2.038,2.442,6.376,6.376,0,0,1-2.9.593,22.454,22.454,0,0,1-3.492-.289c-.974-.153-1.965-.4-2.93-.6-2.667-.574-12.606-2.854-7.756-7.331,1.678-1.547,4.161-1.847,6.336-2.066,3.1-.312,6.443-.938,9.469.09a4.658,4.658,0,0,1,3.216,3.339,8.223,8.223,0,0,1,.094,3.827" fill="#b0b3b3"/><path d="M112.955,14.762c.015,1.146-1.8,2.1-4.049,2.128s-4.088-.877-4.1-2.022,1.8-2.1,4.049-2.128,4.087.877,4.1,2.022" fill="#73767a"/><path d="M112.961,14.032c.061,1.145-1.713,2.169-3.961,2.289s-4.119-.712-4.18-1.856,1.712-2.168,3.961-2.288,4.119.711,4.18,1.855" fill="#d2d5d4"/><path d="M241.309,54.52c-3.071,1-8.274,3.042-9.746-1.608-1.4-4.428,5-5.559,8.195-6.56,2.019-.633,4.074-1.185,6.153-1.67,2.2-.513,2.788-1.468,1.286-3.433-2.592-3.389-6.758-5-10.643-6.616-4.363-1.814-8.735-3.627-13.118-5.39-3.337-1.343-8.107-4.673-4.314-7.905,2.255-1.923,6.284.271,8.754,1.212,4.866,1.855,9.68,4.033,14.6,5.706-3.5-3.093-7.826-5.667-11.6-8.481-1.936-1.446-3.857-2.912-5.741-4.419-1.527-1.22-2.729-2.346-2.261-4.27.67-2.749,3.672-3.617,6.314-2.143,2.884,1.609,5.472,3.951,8.158,5.855q4.428,3.136,8.837,6.3c-3.064-3.6-5.954-7.308-9.024-10.9-2.258-2.605-5.089-7.7.228-8.561,3.556-.575,6.269,3.426,8.151,5.713q2.552,3.1,5.122,6.189l2.567,3.091a18.23,18.23,0,0,0,1.576,1.866c.226.208.511.569.861.451.3-.1.357-.467.365-.744a12.425,12.425,0,0,0-.329-1.915c-.2-1.528-.379-3.056-.565-4.585-.249-2.047-.587-4.1-.757-6.151a12.408,12.408,0,0,1,.039-3,2.673,2.673,0,0,1,2.4-2.545,3.128,3.128,0,0,1,2.909,1.725C262.3,6.963,262.23,13.2,264.5,18.611c1.807,4.311,6.234,8.467,9.451,11.809,2.751,2.858,6.235,2.473,9.785,3.549,5.635,1.707,2.344,16.194.145,17.77s-5.4,1.138-8.113.724c-3.99-.608-8.006-1.89-12.109-2.027-4-.134-7.569,1.621-11.452,2.229-3.646.571-7.357.709-10.894,1.855" fill="#fff"/><path d="M46.806,186.053c3.157.676,8.542,2.178,9.53-2.6.94-4.548-5.545-5.017-8.823-5.686-2.074-.423-4.175-.761-6.292-1.031-2.237-.285-2.924-1.175-1.631-3.283,2.231-3.636,6.21-5.667,9.909-7.671,4.154-2.252,8.317-4.5,12.5-6.706,3.183-1.678,7.586-5.479,3.483-8.306-2.441-1.681-6.224.914-8.585,2.1-4.65,2.343-9.216,5-13.943,7.171,3.16-3.434,7.2-6.439,10.666-9.624,1.778-1.637,3.538-3.292,5.258-4.984,1.394-1.37,2.475-2.613,1.811-4.479-.947-2.666-4.022-3.222-6.5-1.485-2.7,1.9-5.038,4.491-7.515,6.66q-4.083,3.573-8.146,7.168c2.68-3.891,5.175-7.88,7.86-11.768,1.98-2.822,4.274-8.183-1.1-8.493-3.6-.207-5.885,4.05-7.524,6.518q-2.22,3.347-4.46,6.681-1.118,1.67-2.237,3.338a18.362,18.362,0,0,1-1.377,2.018c-.2.229-.449.618-.81.536-.314-.07-.4-.428-.439-.7a12.336,12.336,0,0,1,.131-1.938c.042-1.54.064-3.079.093-4.618.037-2.062.164-4.135.122-6.2a12.36,12.36,0,0,0-.346-2.976,2.671,2.671,0,0,0-2.65-2.285,3.125,3.125,0,0,0-2.717,2.014c-2.018,5.467-1.3,11.664-3,17.278-1.355,4.474-5.333,9.061-8.191,12.715-2.444,3.125-5.949,3.1-9.37,4.533-5.431,2.275-.673,16.349,1.676,17.691s5.489.579,8.144-.11c3.908-1.014,7.771-2.7,11.838-3.257,3.966-.543,7.7.837,11.62,1.044,3.685.194,7.391-.049,11.027.729" fill="#fff"/></g></g></svg>