<svg xmlns="http://www.w3.org/2000/svg" xmlns:xlink="http://www.w3.org/1999/xlink" width="221.134" height="207.931" viewBox="0 0 221.134 207.931"><defs><clipPath id="a"><rect width="221.134" height="207.931" fill="none"/></clipPath></defs><g clip-path="url(#a)"><path d="M83.794,7.077A8.284,8.284,0,0,1,91.99,0h89.081a6.072,6.072,0,0,1,6.006,6.959L175.147,99.42a6.07,6.07,0,0,1-6.006,5.187H78.283a6.071,6.071,0,0,1-6.006-6.956Z" transform="translate(7.256 0)" fill="#fff"/><path d="M164.992,23.885H147.9a3.253,3.253,0,0,1-3.217-3.735l1.346-8.976a3.252,3.252,0,0,1,3.217-2.77h16.868a3.252,3.252,0,0,1,3.228,3.656l-1.122,8.976a3.253,3.253,0,0,1-3.228,2.849" transform="translate(14.535 0.844)" fill="#6b47ff"/><path d="M91.007,14.117c1.645,0,1.645,2.611,3.288,2.611s1.647-2.611,3.293-2.611,1.644,2.611,3.292,2.611,1.645-2.611,3.29-2.611,1.646,2.611,3.293,2.611" transform="translate(9.145 1.419)" fill="none" stroke="#41414b" stroke-linecap="round" stroke-miterlimit="10" stroke-width="1.013"/><path d="M89.241,24.281c1.645,0,1.645,2.613,3.289,2.613s1.646-2.613,3.292-2.613,1.645,2.613,3.292,2.613,1.645-2.613,3.292-2.613,1.645,2.613,3.292,2.613" transform="translate(8.967 2.44)" fill="none" stroke="#41414b" stroke-linecap="round" stroke-miterlimit="10" stroke-width="1.013"/><path d="M98.795,80.378c1.645,0,1.645,2.613,3.289,2.613s1.646-2.613,3.292-2.613,1.645,2.613,3.292,2.613,1.645-2.613,3.292-2.613,1.645,2.613,3.292,2.613" transform="translate(9.927 8.077)" fill="none" stroke="#41414b" stroke-linecap="round" stroke-miterlimit="10" stroke-width="1.013"/><path d="M137.17,80.378c1.645,0,1.645,2.613,3.289,2.613s1.646-2.613,3.292-2.613,1.645,2.613,3.292,2.613,1.645-2.613,3.292-2.613,1.645,2.613,3.292,2.613" transform="translate(13.783 8.077)" fill="none" stroke="#41414b" stroke-linecap="round" stroke-miterlimit="10" stroke-width="1.013"/><path d="M82.84,68.474c1.573,0,1.573,2.613,3.145,2.613s1.573-2.613,3.146-2.613,1.573,2.613,3.145,2.613,1.573-2.613,3.145-2.613S97,71.087,98.569,71.087s1.573-2.613,3.145-2.613,1.571,2.613,3.143,2.613,1.574-2.613,3.146-2.613,1.573,2.613,3.144,2.613,1.573-2.613,3.145-2.613,1.574,2.613,3.147,2.613,1.574-2.613,3.147-2.613,1.573,2.613,3.146,2.613,1.574-2.613,3.146-2.613,1.574,2.613,3.146,2.613,1.575-2.613,3.15-2.613,1.576,2.613,3.152,2.613,1.576-2.613,3.152-2.613" transform="translate(8.324 6.881)" fill="none" stroke="#41414b" stroke-linecap="round" stroke-miterlimit="10" stroke-width="1.013"/><path d="M87.2,37.363c1.573,0,1.573,2.613,3.145,2.613s1.573-2.613,3.146-2.613,1.573,2.613,3.144,2.613,1.574-2.613,3.146-2.613,1.574,2.613,3.146,2.613,1.574-2.613,3.146-2.613,1.571,2.613,3.143,2.613,1.574-2.613,3.146-2.613,1.573,2.613,3.144,2.613,1.573-2.613,3.145-2.613,1.574,2.613,3.147,2.613,1.574-2.613,3.147-2.613,1.573,2.613,3.146,2.613,1.574-2.613,3.146-2.613,1.574,2.613,3.146,2.613,1.575-2.613,3.15-2.613,1.576,2.613,3.152,2.613,1.576-2.613,3.152-2.613" transform="translate(8.762 3.754)" fill="none" stroke="#41414b" stroke-linecap="round" stroke-miterlimit="10" stroke-width="1.013"/><path d="M83.8,58.87c1.573,0,1.573,2.613,3.145,2.613s1.573-2.613,3.146-2.613,1.573,2.613,3.145,2.613,1.573-2.613,3.145-2.613,1.574,2.613,3.147,2.613,1.573-2.613,3.145-2.613,1.571,2.613,3.143,2.613,1.574-2.613,3.146-2.613,1.573,2.613,3.144,2.613,1.573-2.613,3.145-2.613,1.574,2.613,3.147,2.613,1.574-2.613,3.147-2.613,1.574,2.613,3.146,2.613,1.574-2.613,3.146-2.613,1.574,2.613,3.146,2.613,1.575-2.613,3.15-2.613,1.576,2.613,3.152,2.613,1.576-2.613,3.152-2.613" transform="translate(8.42 5.916)" fill="none" stroke="#41414b" stroke-linecap="round" stroke-miterlimit="10" stroke-width="1.013"/><path d="M108.574,48.154c1.573,0,1.573,2.613,3.145,2.613s1.573-2.613,3.146-2.613,1.573,2.613,3.145,2.613,1.573-2.613,3.145-2.613,1.574,2.613,3.147,2.613,1.573-2.613,3.145-2.613,1.571,2.613,3.143,2.613,1.574-2.613,3.146-2.613,1.573,2.613,3.144,2.613,1.573-2.613,3.145-2.613,1.574,2.613,3.147,2.613,1.574-2.613,3.147-2.613,1.574,2.613,3.146,2.613,1.574-2.613,3.146-2.613,1.574,2.613,3.146,2.613,1.575-2.613,3.15-2.613,1.576,2.613,3.152,2.613,1.576-2.613,3.152-2.613" transform="translate(10.91 4.839)" fill="none" stroke="#41414b" stroke-linecap="round" stroke-miterlimit="10" stroke-width="1.013"/><path d="M13.8,29.187a9.87,9.87,0,0,1,9.766-8.431H129.7a7.234,7.234,0,0,1,7.156,8.291L122.641,139.206a7.234,7.234,0,0,1-7.158,6.18H7.236A7.233,7.233,0,0,1,.079,137.1Z" transform="translate(0 2.086)" fill="#fff"/><path d="M110.541,49.211H90.178a3.875,3.875,0,0,1-3.832-4.45l1.6-10.693a3.876,3.876,0,0,1,3.833-3.3h20.1a3.876,3.876,0,0,1,3.845,4.357l-1.338,10.693a3.874,3.874,0,0,1-3.845,3.394" transform="translate(8.672 3.092)" fill="#6b47ff"/><path d="M22.394,37.574c1.96,0,1.96,3.113,3.92,3.113s1.96-3.113,3.921-3.113,1.96,3.113,3.921,3.113,1.961-3.113,3.921-3.113S40.038,40.687,42,40.687" transform="translate(2.25 3.776)" fill="none" stroke="#41414b" stroke-linecap="round" stroke-miterlimit="10" stroke-width="1.207"/><path d="M20.29,49.684c1.96,0,1.96,3.113,3.92,3.113s1.96-3.113,3.921-3.113,1.96,3.113,3.921,3.113,1.961-3.113,3.921-3.113S37.934,52.8,39.9,52.8" transform="translate(2.039 4.992)" fill="none" stroke="#41414b" stroke-linecap="round" stroke-miterlimit="10" stroke-width="1.207"/><path d="M31.673,116.519c1.96,0,1.96,3.113,3.92,3.113s1.96-3.113,3.921-3.113,1.96,3.113,3.921,3.113,1.961-3.113,3.921-3.113,1.961,3.113,3.922,3.113" transform="translate(3.183 11.708)" fill="none" stroke="#41414b" stroke-linecap="round" stroke-miterlimit="10" stroke-width="1.207"/><path d="M77.394,116.519c1.96,0,1.96,3.113,3.92,3.113s1.96-3.113,3.921-3.113,1.96,3.113,3.921,3.113,1.961-3.113,3.921-3.113,1.961,3.113,3.922,3.113" transform="translate(7.777 11.708)" fill="none" stroke="#41414b" stroke-linecap="round" stroke-miterlimit="10" stroke-width="1.207"/><path d="M12.664,102.336c1.873,0,1.873,3.113,3.747,3.113s1.874-3.113,3.748-3.113,1.873,3.113,3.747,3.113,1.874-3.113,3.748-3.113,1.874,3.113,3.748,3.113,1.874-3.113,3.748-3.113,1.873,3.113,3.745,3.113,1.874-3.113,3.748-3.113,1.873,3.113,3.746,3.113,1.874-3.113,3.747-3.113,1.875,3.113,3.749,3.113,1.875-3.113,3.75-3.113,1.874,3.113,3.748,3.113,1.875-3.113,3.749-3.113,1.874,3.113,3.748,3.113,1.876-3.113,3.753-3.113,1.877,3.113,3.755,3.113,1.876-3.113,3.754-3.113" transform="translate(1.273 10.283)" fill="none" stroke="#41414b" stroke-linecap="round" stroke-miterlimit="10" stroke-width="1.207"/><path d="M17.86,65.271c1.873,0,1.873,3.113,3.747,3.113s1.874-3.113,3.748-3.113,1.873,3.113,3.747,3.113,1.874-3.113,3.748-3.113,1.874,3.113,3.748,3.113,1.874-3.113,3.748-3.113,1.873,3.113,3.745,3.113,1.874-3.113,3.748-3.113,1.873,3.113,3.746,3.113,1.874-3.113,3.747-3.113,1.875,3.113,3.749,3.113,1.875-3.113,3.749-3.113,1.875,3.113,3.749,3.113,1.875-3.113,3.749-3.113,1.874,3.113,3.748,3.113,1.876-3.113,3.753-3.113,1.877,3.113,3.755,3.113,1.876-3.113,3.754-3.113" transform="translate(1.795 6.559)" fill="none" stroke="#41414b" stroke-linecap="round" stroke-miterlimit="10" stroke-width="1.207"/><path d="M13.8,90.895c1.873,0,1.873,3.113,3.747,3.113s1.874-3.113,3.748-3.113,1.873,3.113,3.747,3.113,1.874-3.113,3.748-3.113,1.874,3.113,3.749,3.113,1.874-3.113,3.747-3.113,1.873,3.113,3.745,3.113,1.874-3.113,3.748-3.113,1.873,3.113,3.746,3.113,1.874-3.113,3.747-3.113,1.875,3.113,3.749,3.113,1.875-3.113,3.75-3.113,1.874,3.113,3.749,3.113,1.874-3.113,3.748-3.113,1.874,3.113,3.748,3.113,1.876-3.113,3.753-3.113,1.877,3.113,3.755,3.113,1.877-3.113,3.754-3.113" transform="translate(1.387 9.134)" fill="none" stroke="#41414b" stroke-linecap="round" stroke-miterlimit="10" stroke-width="1.207"/><path d="M43.324,78.127c1.873,0,1.873,3.113,3.747,3.113s1.874-3.113,3.748-3.113,1.873,3.113,3.747,3.113,1.874-3.113,3.748-3.113,1.874,3.113,3.749,3.113,1.874-3.113,3.747-3.113,1.873,3.113,3.745,3.113,1.874-3.113,3.748-3.113,1.873,3.113,3.746,3.113,1.874-3.113,3.747-3.113,1.875,3.113,3.749,3.113,1.875-3.113,3.75-3.113,1.874,3.113,3.749,3.113,1.874-3.113,3.748-3.113,1.874,3.113,3.748,3.113,1.876-3.113,3.753-3.113,1.877,3.113,3.755,3.113,1.877-3.113,3.754-3.113" transform="translate(4.353 7.851)" fill="none" stroke="#41414b" stroke-linecap="round" stroke-miterlimit="10" stroke-width="1.207"/><path d="M102.07,17.689A70.633,70.633,0,0,1,203.457,75.514l.008.1c.727,7.874,1.083,15.558,1.427,22.987.451,9.747.877,18.953,2.082,28.06a160.341,160.341,0,0,0,3.673,17.722,165.017,165.017,0,0,1,3.767,18.151c.138.85.242,1.718.32,2.653,1.269,15.361-7.66,30.436-22.217,37.551s-31.907,4.9-43.222-5.48c-.024-.021-.048-.043-.072-.066q-.875-.844-1.7-1.69a163.8,163.8,0,0,1-12.183-14.3,159.5,159.5,0,0,0-11.73-13.791c-6.443-6.545-13.445-12.536-20.856-18.879-5.653-4.837-11.5-9.839-17.294-15.276l-.046-.041A70.635,70.635,0,0,1,102.07,17.689M210.8,163.059l0-.026a162.712,162.712,0,0,0-3.692-17.772,162.893,162.893,0,0,1-3.75-18.122c-1.224-9.262-1.655-18.543-2.111-28.369-.341-7.39-.7-15.03-1.417-22.859a.647.647,0,0,0-.005-.065l0-.058A66.944,66.944,0,1,0,87.874,130.521c.007,0,.074.067.079.073,5.736,5.379,11.548,10.354,17.17,15.166,7.473,6.394,14.532,12.434,21.085,19.089a162.577,162.577,0,0,1,12,14.1,160.854,160.854,0,0,0,11.915,14c.526.535,1.058,1.066,1.608,1.6l.007.006c10.216,9.4,25.96,11.378,39.179,4.916s21.329-20.1,20.185-33.933v-.006a.408.408,0,0,1,0-.045c-.069-.832-.164-1.616-.287-2.377l-.007-.04" transform="translate(6.279 1.058)" fill="#3b3a3c"/><path d="M205.391,165.259l-.012-.139c-.032-.383-.069-.747-.112-1.1l-.014-.029-.132-.984-.231-1.431.02-.068c-.819-5.465-2.072-10.518-3.393-15.844A166.671,166.671,0,0,1,197.664,127c-1.252-9.47-1.687-18.851-2.147-28.784-.341-7.336-.692-14.921-1.4-22.639l-.014-.169A61.992,61.992,0,1,0,90.424,126.074l.133.121c5.653,5.3,11.422,10.24,17,15.015,7.555,6.465,14.691,12.572,21.395,19.378A166.5,166.5,0,0,1,141.317,175.1a154.357,154.357,0,0,0,11.555,13.587q.211.216.425.43l1.914,1.794c8.738,7.338,21.733,8.7,32.747,3.315,11.364-5.554,18.358-17.184,17.434-28.967M157.674,132.27a57.818,57.818,0,1,1,26.555-77.334,57.884,57.884,0,0,1-26.555,77.334" transform="translate(7.064 1.843)" fill="#6b47ff"/><path d="M212.756,165.212h0l0-.036c-.072-.846-.169-1.691-.306-2.533a.02.02,0,0,0,0-.017c-1.713-12.774-5.771-23.248-7.443-35.89-2.149-16.256-1.853-33.064-3.52-51.157,0-.029,0-.056-.005-.085a68.769,68.769,0,1,0-115,56.208l.063.057c13.252,12.43,26.7,22.521,38.2,34.2,9.007,9.145,14.792,18.844,23.915,28.094q.814.829,1.668,1.656c.007,0,.007,0,.009.008,10.5,9.666,26.883,12.22,41.218,5.213s22.377-21.5,21.2-35.723m-54.461-32.321A57.818,57.818,0,1,1,184.85,55.556a57.884,57.884,0,0,1-26.555,77.334" transform="translate(6.443 1.222)" fill="#00e8e2"/></g></svg>