<svg xmlns="http://www.w3.org/2000/svg" xmlns:xlink="http://www.w3.org/1999/xlink" width="316.666" height="211.829" viewBox="0 0 316.666 211.829"><defs><clipPath id="a"><rect width="316.666" height="211.829" fill="none"/></clipPath></defs><g clip-path="url(#a)"><path d="M40.4,66.407C55.319,21.914,142.26,4.042,164.739.129A8.316,8.316,0,0,1,172.96,3.4l106.8,151.269c.92,1.173,1.388,3.468.886,3.456L43.278,72.589c-.987-.354-2.087.36-3.085.339-1.243-.027-.87-2.109-.755-2.894a18.106,18.106,0,0,1,.959-3.627" fill="#ffe657"/><path d="M39.181,72.54v52.041a2.549,2.549,0,0,0,1.743,2.373l237.651,84.772a1.655,1.655,0,0,0,2.255-1.463v-52.42c0-1.675-.576-1.66-1.446-1.97l-.716-.256-2.086-.744-3.36-1.2-4.542-1.621-5.63-2.008-6.625-2.363L248.9,145l-8.332-2.973-9.046-3.227-9.666-3.447-10.192-3.636-10.624-3.79-10.963-3.911-11.209-4-11.36-4.052-11.418-4.073-11.382-4.06-11.252-4.014-11.03-3.934-10.713-3.822-10.3-3.675-9.8-3.5-9.2-3.282L73.9,82.575l-7.724-2.756-6.846-2.441-5.873-2.1c-3.966-1.413-8.031-2.7-11.9-4.321-.5-.208-2.117-.928-2.117-.928a10.382,10.382,0,0,0-.256,2.507" fill="#ffc000"/><path d="M113.682,77.351c4.123,1.845,10.176,1.767,13.52-.175s2.716-5.011-1.405-6.858-10.176-1.766-13.521.178-2.714,5.011,1.406,6.855" fill="#ffc000"/><path d="M86.2,46.765c4.123,1.843,10.174,1.765,13.52-.177s2.714-5.011-1.407-6.856-10.174-1.766-13.519.176S82.08,44.92,86.2,46.765" fill="#ffc000"/><path d="M185.688,64.859c4.121,1.845,10.175,1.765,13.519-.177s2.716-5.011-1.4-6.856-10.175-1.765-13.521.177-2.714,5.011,1.407,6.856" fill="#ffc000"/><path d="M170.179,86.775c4.123,1.844,10.176,1.766,13.52-.177s2.716-5.012-1.4-6.856-10.174-1.767-13.52.177-2.714,5.011,1.4,6.856" fill="#ffc000"/><path d="M135.36,96.084c4.121,1.844,10.173,1.764,13.519-.178s2.714-5.012-1.407-6.855-10.173-1.767-13.519.175-2.716,5.011,1.407,6.858" fill="#ffc000"/><path d="M117.218,32.216c4.121,1.844,10.173,1.765,13.517-.177s2.718-5.011-1.4-6.856-10.173-1.766-13.519.177-2.716,5.011,1.407,6.856" fill="#ffc000"/><path d="M206.117,91.624c4.121,1.845,10.173,1.765,13.519-.177s2.714-5.011-1.407-6.856-10.173-1.766-13.519.177-2.716,5.011,1.407,6.856" fill="#ffc000"/><path d="M143.085,68.442c5.4,2.418,13.343,2.315,17.729-.233s3.562-6.571-1.842-8.991-13.344-2.314-17.731.231-3.562,6.572,1.844,8.993" fill="#ffc000"/><path d="M61.474,65.954c5.4,2.421,13.343,2.317,17.731-.23s3.56-6.572-1.846-8.993-13.342-2.315-17.729.234-3.56,6.571,1.844,8.989" fill="#ffc000"/><path d="M147.634,24.352c5.4,2.418,13.343,2.316,17.73-.231s3.56-6.573-1.845-8.993-13.342-2.314-17.729.232-3.561,6.573,1.844,8.992" fill="#ffc000"/><path d="M204.23,114.937c5.4,2.419,13.344,2.317,17.73-.23s3.561-6.573-1.843-8.991-13.344-2.317-17.73.23-3.562,6.573,1.843,8.991" fill="#ffc000"/><path d="M98.063,61.956c2.691,1.206,6.644,1.155,8.83-.114s1.772-3.274-.919-4.477-6.645-1.155-8.83.114-1.772,3.274.919,4.477" fill="#ffc000"/><path d="M122.652,55.622c2.691,1.2,6.644,1.153,8.83-.114s1.774-3.274-.919-4.478-6.644-1.155-8.83.114-1.772,3.272.919,4.478" fill="#ffc000"/><path d="M167.911,47.971c2.69,1.206,6.644,1.153,8.83-.116s1.772-3.272-.919-4.477-6.646-1.153-8.83.114-1.774,3.276.919,4.479" fill="#ffc000"/><path d="M235.159,128.469c2.692,1.205,6.646,1.155,8.83-.114s1.774-3.274-.918-4.478-6.646-1.153-8.829.114-1.774,3.274.917,4.478" fill="#ffc000"/><path d="M169.714,105.037c2.692,1.2,6.644,1.153,8.83-.116s1.772-3.273-.919-4.477-6.644-1.154-8.828.114-1.776,3.275.917,4.479" fill="#ffc000"/><path d="M76.8,78.393c2.693,1.205,6.647,1.153,8.83-.116S87.406,75,84.715,73.8s-6.644-1.154-8.83.116-1.772,3.273.919,4.477" fill="#ffc000"/><path d="M142.046,40.694c2.693,1.206,6.646,1.155,8.83-.114s1.772-3.274-.919-4.478-6.645-1.154-8.829.115-1.773,3.273.918,4.477" fill="#ffc000"/><path d="M123.873,68.536c8.57-4.122,18.621-8.036,28.7-7.612a27.819,27.819,0,0,1,13,3.584c3.692,2.261,5.176,5.541,7.638,8.352.79.006,1.385.44.881.935.038.034.071.072.106.105.186,0,.387.033.565.043a3.774,3.774,0,0,0,2.648,1.152,1.05,1.05,0,0,0-.172.636c-.445-.056-.876-.128-1.237-.189-.755-.132-1.481-.287-2.244-.414-.394-.066-.78-.232-1.183-.338-6.794,4.088-16.244,6.8-23.815,4.6-5.117-1.494-8.9-3.954-13.865-5.556-3.893-1.256-8.91-2.106-11.458-4.288-.336-.285-.146-.728.434-1" fill="#4a7006"/><path d="M169.408,66.723c4.27-3.694,12.321-6.52,19.195-8.414.84-.423,1.572-.8,2.153-1.1,1.206-.638,2.739-.057,2.385.715-1.629,3.529-2.765,7.058-5.4,10.542a16.069,16.069,0,0,1-9.655,5.872,3.016,3.016,0,0,1-.466.723,1.152,1.152,0,0,1-.415.293c4.912.823,4.193,5.039,2.321,7.753a28.965,28.965,0,0,1-12.543,9.624c-.939.381-1.906.277-2.238-.227-2.429-3.688-3.841-8.47-2.761-12.85a6.774,6.774,0,0,1,4.129-4.867,12.341,12.341,0,0,1,6.917-.608.713.713,0,0,1,.151-.285c.076-.092.142-.184.211-.275a.924.924,0,0,1,.213-.2,7.989,7.989,0,0,1-1.514-.6c-3.475-1.13-5.949-3.277-2.685-6.1" fill="#649015"/><path d="M188.6,58.309c.84-.423,1.572-.8,2.153-1.1,1.206-.638,2.739-.057,2.385.715-1.629,3.529-2.765,7.058-5.4,10.542a16.162,16.162,0,0,1-9.271,5.785,49.085,49.085,0,0,0-5.2-.345c-.029,0-.058-.013-.088-.02.073-.088.138-.177.205-.267a.946.946,0,0,1,.213-.2,8.016,8.016,0,0,1-1.514-.6c-3.475-1.13-5.948-3.277-2.685-6.1,4.27-3.694,12.321-6.52,19.195-8.414" fill="#7eb023"/><path d="M230.59,157.809a6.759,6.759,0,0,1-8.008,6.968,9.881,9.881,0,0,1-8.152-9.383,6.76,6.76,0,0,1,8.008-6.969,9.884,9.884,0,0,1,8.152,9.384" fill="#eead00"/><path d="M167.35,154.14a6.759,6.759,0,0,1-8.009,6.967,9.883,9.883,0,0,1-8.152-9.383,6.759,6.759,0,0,1,8.011-6.967,9.882,9.882,0,0,1,8.15,9.383" fill="#eead00"/><path d="M117.1,112.761a6.76,6.76,0,0,1-8.008,6.968,9.882,9.882,0,0,1-8.153-9.383,6.759,6.759,0,0,1,8.009-6.967,9.878,9.878,0,0,1,8.152,9.382" fill="#eead00"/><path d="M67.955,123.472a4.76,4.76,0,0,1-5.641,4.907,6.961,6.961,0,0,1-5.74-6.61,4.759,4.759,0,0,1,5.641-4.9,6.959,6.959,0,0,1,5.74,6.608" fill="#eead00"/><path d="M268.6,167.121a4.761,4.761,0,0,1-5.642,4.907,6.963,6.963,0,0,1-5.741-6.608,4.76,4.76,0,0,1,5.641-4.907,6.96,6.96,0,0,1,5.742,6.608" fill="#eead00"/><path d="M210.089,167.121a4.761,4.761,0,0,1-5.642,4.907,6.96,6.96,0,0,1-5.741-6.608,4.761,4.761,0,0,1,5.642-4.907,6.961,6.961,0,0,1,5.741,6.608" fill="#eead00"/><path d="M175.765,134.262a4.762,4.762,0,0,1-5.642,4.908,6.961,6.961,0,0,1-5.741-6.609,4.762,4.762,0,0,1,5.643-4.907,6.962,6.962,0,0,1,5.74,6.608" fill="#eead00"/><path d="M120.079,139.7a4.761,4.761,0,0,1-5.641,4.906,6.96,6.96,0,0,1-5.742-6.609,4.762,4.762,0,0,1,5.641-4.907,6.962,6.962,0,0,1,5.742,6.61" fill="#eead00"/><path d="M95.6,121.737a7.92,7.92,0,0,1-9.387,8.166,11.584,11.584,0,0,1-9.554-11,7.923,7.923,0,0,1,9.387-8.166,11.582,11.582,0,0,1,9.554,11" fill="#eead00"/><path d="M146.726,128.817a7.922,7.922,0,0,1-9.387,8.167,11.584,11.584,0,0,1-9.555-11,7.924,7.924,0,0,1,9.388-8.167,11.585,11.585,0,0,1,9.554,11" fill="#eead00"/><path d="M253.574,181.233a6.237,6.237,0,0,1-7.391,6.429A9.118,9.118,0,0,1,238.661,179a6.237,6.237,0,0,1,7.391-6.428,9.118,9.118,0,0,1,7.522,8.657" fill="#eead00"/><path d="M197.81,147.417a6.546,6.546,0,0,1-7.757,6.747,9.57,9.57,0,0,1-7.894-9.087,6.545,6.545,0,0,1,7.757-6.747,9.571,9.571,0,0,1,7.894,9.087" fill="#eead00"/><path d="M64.655,99.269a6.76,6.76,0,0,1-8.01,6.967,9.883,9.883,0,0,1-8.152-9.384A6.759,6.759,0,0,1,56.5,89.885a9.884,9.884,0,0,1,8.153,9.384" fill="#eead00"/><path d="M268.335,172.663c-3.228-.087-8.815.1-8.648-4.771.158-4.642,6.571-3.569,9.914-3.446,2.115.078,4.237.244,6.358.481,2.241.251,3.118-.452,2.359-2.805-1.311-4.061-4.7-6.972-7.821-9.792-3.507-3.168-7.021-6.337-10.563-9.463-2.7-2.381-6.081-7.112-1.427-8.892,2.769-1.059,5.834,2.355,7.847,4.068,3.967,3.373,7.777,7.034,11.859,10.256-2.261-4.082-5.483-7.955-8.1-11.867-1.343-2.01-2.663-4.034-3.936-6.083-1.031-1.66-1.788-3.123-.7-4.78,1.55-2.367,4.668-2.183,6.667.09,2.181,2.479,3.837,5.552,5.733,8.243q3.126,4.436,6.227,8.886c-1.688-4.412-3.172-8.877-4.865-13.289-1.258-3.209-2.223-8.96,3.075-7.993,3.544.647,4.764,5.323,5.775,8.108q1.368,3.775,2.759,7.544l1.387,3.771a18.189,18.189,0,0,0,.863,2.286c.143.271.291.706.66.712.322.006.493-.32.593-.579a12.4,12.4,0,0,0,.329-1.915c.323-1.507.664-3.007,1-4.51.45-2.012.816-4.056,1.342-6.051a12.4,12.4,0,0,1,1.038-2.81,2.672,2.672,0,0,1,3.114-1.6,3.128,3.128,0,0,1,2.166,2.6c.672,5.788-1.482,11.642-1.154,17.5.263,4.667,3.047,10.063,4.963,14.288,1.638,3.612,5.05,4.414,8.037,6.614,4.741,3.491-3.2,16.046-5.8,16.8s-5.471-.731-7.889-2.027c-3.558-1.907-6.915-4.456-10.736-5.956-3.726-1.463-7.677-1-11.539-1.725-3.627-.68-7.171-1.79-10.888-1.891" fill="#fff"/><path d="M48.3,104.1c3.2-.409,8.781-.777,8.129-5.61-.62-4.6-6.894-2.9-10.209-2.44-2.1.289-4.191.666-6.278,1.114-2.2.472-3.147-.139-2.627-2.557.9-4.17,3.98-7.405,6.805-10.523,3.173-3.5,6.354-7,9.567-10.469,2.446-2.639,5.34-7.684.531-8.991-2.86-.777-5.569,2.926-7.4,4.831-3.61,3.752-7.036,7.775-10.777,11.388,1.842-4.287,4.662-8.463,6.871-12.616,1.135-2.134,2.247-4.279,3.309-6.445.861-1.755,1.468-3.286.224-4.826-1.778-2.2-4.863-1.706-6.625.754-1.922,2.685-3.264,5.907-4.882,8.774q-2.667,4.727-5.309,9.464c1.239-4.559,2.27-9.15,3.515-13.708.932-3.319,1.318-9.137-3.857-7.647-3.462,1-4.21,5.772-4.937,8.644q-.985,3.893-1.993,7.782-.5,1.944-1,3.89a18.293,18.293,0,0,1-.63,2.361c-.116.284-.219.732-.586.774-.32.038-.523-.27-.648-.517a12.362,12.362,0,0,1-.519-1.872c-.471-1.467-.96-2.926-1.444-4.388-.648-1.958-1.216-3.955-1.938-5.887a12.394,12.394,0,0,0-1.314-2.693,2.671,2.671,0,0,0-3.258-1.277,3.125,3.125,0,0,0-1.895,2.8c-.091,5.827,2.636,11.436,2.893,17.3.2,4.67-2.027,10.317-3.512,14.711-1.269,3.759-4.585,4.9-7.337,7.383-4.369,3.948,4.786,15.648,7.447,16.135s5.37-1.273,7.647-2.8c3.35-2.252,6.436-5.124,10.088-7,3.562-1.827,7.538-1.761,11.309-2.867,3.541-1.038,6.957-2.5,10.645-2.968" fill="#fff"/></g></svg>