<svg xmlns="http://www.w3.org/2000/svg" xmlns:xlink="http://www.w3.org/1999/xlink" width="342.805" height="211.024" viewBox="0 0 342.805 211.024"><defs><clipPath id="a"><rect width="342.805" height="211.024" fill="none"/></clipPath></defs><g clip-path="url(#a)"><path d="M183.981,165.154a99.574,99.574,0,0,0,32.176,14.789c22.3,5.7,48.329,4.167,68.159-8.225,33.495-20.93,47.654-67.1,32.32-103.564-12.75-30.32-40.179-40.4-70.137-45.506q-1.275-.143-2.546-.26l-15.538-.5a114.971,114.971,0,0,0-11.548.916l-10.612,1.9a110.547,110.547,0,0,0-16.048,4.967c-2.467.977-4.9,2.02-7.254,3.167l-4.64,2.459A46.345,46.345,0,0,0,163.738,48c-24.636,33.739-18.611,85.369,13.58,112.085q3.222,2.675,6.663,5.073" fill="#ca241a"/><path d="M0,141.313H5.517a47.416,47.416,0,0,1,6.386-7.752c25.486-25.254,83.6-34.432,129.79-20.5,21.292,6.423,36.33,16.635,43.867,28.251h5.53v17.858c-.1,8.423-3.935,16.953-11.9,24.847C153.7,209.272,95.594,218.45,49.4,204.517,18.08,195.07.285,177.426.01,159.171H0Z" fill="#ca241a"/><path d="M11.9,117.1c-25.486,25.254-8.7,57.022,37.5,70.955s104.3,4.756,129.789-20.5,8.7-57.023-37.5-70.956S37.389,91.846,11.9,117.1" fill="#f96648"/><path d="M92.056,106.274c1.486-4.56,4.451-5.513,5.725-5.678a18.645,18.645,0,0,1,4.882.217c19.763,2.717,38.427,7.8,54.306,14.779,1.961.863,4.052,1.952,3.975,3.327-.057,1.021-1.129,1.815-1.884,2.281-8.417,5.2-31.565,11.121-31.565,11.121-18.355,4.694-18.74,5.616-18.6,5.984.108.275.815,1.021,17.947,1.3,10.839.172,21.659.647,32.5.776,4.342.051,9.13.068,11.929,1.895a5.035,5.035,0,0,1,2.208,4.693c.038,7.379-3.318,14.756-9.674,21.265a17.418,17.418,0,0,1-11.348,5.626c-1.092.084-5.119.221-13.705-3.9a67.087,67.087,0,0,1-14.338-9.424c-8.541-7.023-12.658-12.338-15.63-11.884a1.991,1.991,0,0,0-1.136.572c-5.314,5.079,27.414,29.472,18.683,34.687-.59.352-1.85.778-4.59.992a205.943,205.943,0,0,1-41.679-.988,29.561,29.561,0,0,1-8.518-1.991c-4.567-2.165-4.888-6.03-3.3-9.218,1.714-3.429,2.9-6.062,5.865-9.368C85.195,151,92.7,145.36,89.087,143.007a3.156,3.156,0,0,0-1.38-.568c-6.469-.97-15.961,15.932-37.154,23.627C42.6,168.953,38,168.8,35.569,168.172a16.554,16.554,0,0,1-5.076-2.4c-7.9-5.207-12.624-11.831-13.251-18.588-.169-1.817.144-3.877,2.687-5.051a16.825,16.825,0,0,1,6.448-1.157c7.05-.054,27.665-.865,55.9-2,2.507-1.158,2.771-1.856,2.575-2.275-1.653-3.531-43.891-4.133-58.66-5.817a14.584,14.584,0,0,1-6.139-1.871,3.655,3.655,0,0,1-1.493-4.063c1.178-5.865,8.53-10.735,15.77-15.11,8.162-4.933,18.429-9.014,26.335-7.556,12.775,2.356,15.982,19.406,31,34.03,0,0,2.125,2.071,3.142,1.863,2.829-.577-6.326-20.912-2.747-31.9" fill="#ca241a"/><path d="M110.51,116.607c-.091-1.042-.152-2.326,1.5-2.844a8.387,8.387,0,0,1,4.123.2,160.163,160.163,0,0,1,16.019,4.537c1.2.41,2.516.953,2.564,1.726.035.565-.637,1.062-1.3,1.494-7.2,4.682-18.031,8.593-18.93,14.689-.564,3.827,3.355,7.582,8.975,9.885s12.714,3.31,19.719,3.59c3.382.135,7.775.558,8.277,2.391a2.5,2.5,0,0,1-.711,1.946l-5.019,7.087q-10.945-4.5-22.69-8.382c-2.717-.9-5.851-1.8-8.918-1.352a9.208,9.208,0,0,0-6.33,3.929c-4.517,6.232-4.206,13.462.844,19.57a72.331,72.331,0,0,1-18.292-.505,9.106,9.106,0,0,1-4.024-1.3c-1.529-1.256-.157-2.911.978-4.286,5.722-6.925,4.462-15.437-3.222-21.769a7.21,7.21,0,0,0-3.642-1.761,11.749,11.749,0,0,0-6.313,1.332L46.51,158.965a28.377,28.377,0,0,1-6.762-7.209c-.46-.732-.868-1.525-.477-2.269.6-1.136,2.788-1.749,4.762-2.231l19.382-4.732c4.236-1.034,8.816-2.248,10.752-4.553,2.7-3.216-1.235-7.1-6.69-9.009S55.4,126.52,49.2,125.509c-1.184-.193-2.547-.516-2.768-1.181-.125-.372.166-.746.462-1.088a42.553,42.553,0,0,1,14.719-10.369L80.142,126.9c5.808,4.4,11.486,6.622,19.778,2.75,6.822-3.186,11.02-8.119,10.59-13.045" fill="#ffa276"/><path d="M162.76,142.561a4.79,4.79,0,0,1,2.8.4c2.017,1.159.354,2.485-2.074,2.825-.931.132-1.865.287-2.8.4a6.653,6.653,0,0,0-2.749.594c-.212.123-.6,0-.519-.161.4-.8.277-1.636,1.114-2.368a8.639,8.639,0,0,1,4.231-1.693" fill="#f9d68b"/><path d="M166.068,149.858c3.722.814,2.42,3.587-1.574,3.284-1.247-.1-2.463-.311-3.707-.428a10.045,10.045,0,0,1-3.154-.656c-.337-.152-.487-.471-.352-.695,1.033-1.737,6.086-2.1,8.787-1.505" fill="#f9d68b"/><path d="M157.025,157.182a23.658,23.658,0,0,1,3.8.532c1.217.2,2.466.315,3.684.5,3.4.518,2.04,3.357-1.388,2.9-1.269-.17-2.568-.475-3.791-.733a15.452,15.452,0,0,1-3.875-1.09c-1.38-.742-.408-2.119,1.566-2.106" fill="#f9d68b"/><path d="M149.016,164.946c2.424.446,4.039,1.916,5.963,2.791,3.146,1.429-1.413,4.038-4.47,2.506-2.112-1.058-4.907-2.759-4.106-4.462a2.658,2.658,0,0,1,2.613-.835" fill="#f9d68b"/><path d="M119.262,176.1a7.369,7.369,0,0,1,3.782,4.318c.311.889-.493,1.806-2.174,2.052-1.459.213-3.511-.288-3.752-1.189a26.856,26.856,0,0,0-1.951-3.872c-.6-1.3,2.318-2.21,4.1-1.309" fill="#f9d68b"/><path d="M105.009,177.724a4.452,4.452,0,0,1,3.382,4.207c.075,1.075-1.827,1.891-3.686,1.76-2.067-.146-3.055-1.156-2.75-2.213.333-1.149.088-2.353.953-3.433a2.372,2.372,0,0,1,2.1-.321" fill="#f9d68b"/><path d="M91.174,177.412c1.795.329,2.723,1.236,2.961,2.232a2.917,2.917,0,0,1-.786,2.672c-.7.841-3,1.142-4.387.67-1.63-.553-1.918-1.486-1.226-2.4-.247.326-.032,0,.007-.073.065-.119.136-.237.2-.357s.1-.235.15-.351c.018-.074.048-.2.092-.371.029-.132,0-.177,0-.022,0-.121.009-.244.018-.365a1.606,1.606,0,0,1,.546-1.074,3.13,3.13,0,0,1,2.43-.563" fill="#f9d68b"/><path d="M83.207,175.922c.764,2.18-.911,5.334-4.58,5.8-2,.253-3.772-.991-3.578-2.127.181-1.066,1.7-1.863,2.789-2.6a15.737,15.737,0,0,1,3.461-1.783,1.6,1.6,0,0,1,1.908.713" fill="#f9d68b"/><path d="M44.22,161.77c1.56-.228,3.5.632,2.857,1.556a9.162,9.162,0,0,1-3.058,2.3,14.434,14.434,0,0,1-4.38,1.853c-2.492.536-4.316-1.217-3.287-2.32a11.37,11.37,0,0,1,3.583-1.945,16.21,16.21,0,0,1,4.285-1.443" fill="#f9d68b"/><path d="M30.829,158a31.2,31.2,0,0,1,7.576-.982c1.9.086,2.777,1.2,1.548,2-1.6,1.046-4.376,1.724-6.621,2.263a5.74,5.74,0,0,1-3.951-.264c-.671-.378-.972-.765-.992-1.286-.033-.868,1.085-1.443,2.44-1.736" fill="#f9d68b"/><path d="M22.176,151.125c3.6-.46,7.851-.425,11.011.739,1.111.409,1.112,1.463-.382,1.647-2.987.369-6.081.458-9.1.766-3.722.38-5.318-2.669-1.534-3.152" fill="#f9d68b"/><path d="M23.865,143.255a32.749,32.749,0,0,1,3.939.869,24.637,24.637,0,0,1,3.27,1.171c1.364.554,1.115,1.882-.9,1.874a37.892,37.892,0,0,1-4.251-.17,36.79,36.79,0,0,1-4.32-.688c-1.375-.323-1.839-1.375-1.3-2.067a4.053,4.053,0,0,1,3.565-.989" fill="#f9d68b"/><path d="M28.412,124.629c3.824.486,8.18,1.35,10.456,3.189.872.7-.277,1.726-1.78,1.7-3.5-.066-6.947-.981-10.3-1.5-3.974-.615-2.4-3.9,1.624-3.387" fill="#f9d68b"/><path d="M35.45,117.212a8.223,8.223,0,0,1,7.1,5.515c.33,1.1-2.372,1.893-3.493.8-1.707-1.67-4.888-2.471-6.9-3.935-1.61-1.172,1.022-2.686,3.3-2.375" fill="#f9d68b"/><path d="M44.913,111.061A12.536,12.536,0,0,1,49.237,113c1.019.766,1.7,2.151-.478,2.556a7.741,7.741,0,0,1-3.694-.547c-1.043-.354-2.132-.662-3.172-1.019-1.408-.482-2.015-1.474-1.173-2.292.872-.848,2.678-1.022,4.193-.641" fill="#f9d68b"/><path d="M58.9,105.325c.583,1.3,1.623,3.185.791,4.493a2.016,2.016,0,0,1-2.137.5A6.662,6.662,0,0,1,53,106.183c-.812-2.085,4.961-2.96,5.9-.858" fill="#f9d68b"/><path d="M102.98,105.488c1.246,1.843,1.494,3.861,2.138,5.782.45,1.343-2.957,1.857-3.765.548-1.142-1.849-2.715-3.678-3.262-5.619-.494-1.753,3.748-2.4,4.889-.711" fill="#f9d68b"/><path d="M117.951,108.312a17.946,17.946,0,0,1-1.277,1.985c-.187.247-.351.5-.552.746-.174.213-.617.515-.709.692-.327.645-1.9.6-2.273,0-.1-.164-.588-.511-.753-.763a3.361,3.361,0,0,1-.4-1,3.614,3.614,0,0,1,.331-2.466c.989-1.984,6.75-1.147,5.634.807" fill="#f9d68b"/><path d="M134.65,111.022a20.509,20.509,0,0,1-6.8,3.59c-1.07.376-2.494-.242-2.157-.895a11.372,11.372,0,0,1,4.307-4.6c2.217-1.346,6.354.348,4.647,1.9" fill="#f9d68b"/><path d="M144.971,114.8c3.013-.478,5.053,2.034,2.159,2.834a28.387,28.387,0,0,1-8.216,1.317c-1.873-.1-2.858-1.211-1.561-2.023,1.735-1.087,5.146-1.736,7.618-2.128" fill="#f9d68b"/><path d="M106.423,132.484a1.153,1.153,0,0,1,.886,1.139c-.03,2.551-4.2,4.9-1.206,7.166,1.241.938,5.691,3.3,2.59,4.757-1.715.806-3.722.07-5.488.679a3.96,3.96,0,0,0-2.286,2.018c-.464.919-.487,2.226-1.586,2.674-4.764,1.944-5.324-6.55-8.381-8.028-2.741-1.326-6.025-.379-8.907-1.118a1.717,1.717,0,0,1-1.319-.972,1.532,1.532,0,0,1,.977-1.648c1.144-.563,4.613-.975,4.257-2.94-.2-1.113-1.661-1.237-2.433-1.762a1.338,1.338,0,0,1-.636-1.078c.053-2.6,7.851,1.884,8.88,2.19a10.726,10.726,0,0,0,9.229-1.2c1.648-1.016,3.305-2.582,5.423-1.878" fill="#ffccad"/><path d="M179.264,24.03c4.078-.266,8.7,1.534,12.407,2a35.117,35.117,0,0,0,6.054.285,25.031,25.031,0,0,0,3-.316c.276-.047,2.24-.66,2.444-.418-4.149-4.942-12.782-18.389-11.793-19.3.419-.387,8.039,4.508,8.716,4.9,4.125,2.367,8.014,5.208,12.321,7.245,2.43,1.15,5.449-2.438,6.873-3.912,1.367-1.414,2.717-4.546,5.005-4.571,1.785-.019,3.719,2.392,5.118,3.352,1.963,1.347,4.713,2.474,6.852.866,5.212-3.919,8.631-8.656,12-14.159-.006.01.829,2.3.875,2.512a33.687,33.687,0,0,1,.631,3.432,17.392,17.392,0,0,1-7.769,16.19,74.883,74.883,0,0,0,16.837-3.413c2.486-.81,5.726-1.539,7.292.555,1.5,2.005.047,4.875-1.711,6.657A21.039,21.039,0,0,1,253.4,31.791c.392-.074,1.338.5,1.71.66q.88.369,1.737.791a32.49,32.49,0,0,1,3.318,1.886c4.334,2.814,9.934,7.363,10.289,13.033.065,1.049.118,2.1.167,3.15,0,0-13.425-8.55-15.821-9.945-.478-.278-.964-.542-1.46-.788a17.775,17.775,0,0,0-12.021-1.7,16.453,16.453,0,0,0-9.934,7.795c-1.975,3.3-2.877,7.076-3.64,10.806-.6,2.924-1.357,5.81-2,8.724-.139.631-.276,1.264-.375,1.9a27.638,27.638,0,0,1-3.283-6.163,33,33,0,0,1-.644-17.592,59.662,59.662,0,0,1-15.317,9.373,31.238,31.238,0,0,1-17.672,1.9,42.681,42.681,0,0,0,23.152-18.141c-.91,1.868-3.525,1.9-5.578,1.587-11.191-1.716-32.548-12.411-32.548-12.411a8.2,8.2,0,0,1,5.779-2.633" fill="#3e8734"/><path d="M295.131,121.84c-3.128-.8-8.618-1.855-7.375-6.571,1.184-4.491,7.2-2.022,10.432-1.16,2.046.545,4.077,1.178,6.093,1.879,2.129.741,3.141.251,2.922-2.212-.377-4.25-3.035-7.84-5.454-11.283-2.716-3.866-5.44-7.736-8.2-11.57-2.1-2.92-4.351-8.284.582-8.987,2.935-.418,5.166,3.59,6.749,5.707,3.12,4.169,6.023,8.584,9.289,12.631-1.3-4.482-3.582-8.973-5.262-13.367-.863-2.258-1.7-4.524-2.488-6.8-.637-1.848-1.051-3.443.374-4.817,2.036-1.965,5.036-1.093,6.481,1.566,1.576,2.9,2.51,6.265,3.762,9.309,1.375,3.346,2.75,6.692,4.1,10.047-.667-4.677-1.124-9.36-1.8-14.037-.515-3.409-.18-9.23,4.771-7.112,3.313,1.416,3.465,6.247,3.833,9.187q.5,3.984,1.017,7.968l.516,3.985a18.237,18.237,0,0,0,.334,2.42c.079.3.127.753.486.841.313.076.552-.2.706-.434a12.137,12.137,0,0,0,.746-1.794c.649-1.4,1.314-2.784,1.975-4.176.885-1.862,1.7-3.774,2.65-5.6a12.4,12.4,0,0,1,1.636-2.51,2.673,2.673,0,0,1,3.391-.866,3.127,3.127,0,0,1,1.535,3.014c-.629,5.793-4.028,11.024-5.006,16.807-.78,4.609.738,10.489,1.669,15.033.8,3.886,3.946,5.424,6.37,8.232,3.849,4.456-6.68,14.937-9.381,15.092s-5.172-1.926-7.243-3.726c-3.046-2.649-5.754-5.879-9.147-8.189-3.309-2.253-7.263-2.679-10.869-4.242-3.386-1.467-6.6-3.336-10.2-4.259" fill="#fff"/><path d="M44.884,132.11c2.652,1.841,7.04,5.3,9.794,1.279,2.622-3.833-3.18-6.768-5.947-8.649q-2.625-1.785-5.407-3.379c-1.953-1.125-2.244-2.211-.238-3.657,3.461-2.5,7.915-2.833,12.1-3.256,4.7-.475,9.411-.946,14.116-1.366,3.584-.32,9.112-2.129,6.417-6.32-1.6-2.492-6.1-1.557-8.731-1.37-5.195.368-10.433,1.06-15.631,1.237,4.24-1.949,9.131-3.161,13.553-4.765,2.272-.824,4.534-1.672,6.773-2.569,1.815-.727,3.292-1.457,3.4-3.434.154-2.825-2.469-4.524-5.425-3.877-3.226.706-6.38,2.2-9.5,3.245-3.43,1.148-6.86,2.3-10.28,3.471,3.973-2.556,7.813-5.274,11.791-7.825,2.915-1.84,7.1-5.9,2.258-8.261-3.238-1.579-6.992,1.466-9.456,3.111q-3.339,2.23-6.692,4.443l-3.351,2.217a18.31,18.31,0,0,1-2.049,1.33c-.276.134-.653.4-.954.183-.263-.186-.207-.55-.134-.818a12.249,12.249,0,0,1,.868-1.738c.633-1.405,1.247-2.815,1.867-4.225.83-1.887,1.746-3.751,2.5-5.669a12.448,12.448,0,0,0,.828-2.88,2.673,2.673,0,0,0-1.564-3.131,3.127,3.127,0,0,0-3.283.81c-3.971,4.266-5.7,10.259-9.437,14.782-2.976,3.605-8.416,6.3-12.462,8.572-3.46,1.94-6.684.564-10.394.567-5.888,0-6.927,14.824-5.277,16.968s4.84,2.652,7.556,3.04c4,.572,8.211.507,12.178,1.562,3.868,1.029,6.777,3.741,10.318,5.446,3.325,1.6,6.838,2.806,9.892,4.926" fill="#fff"/></g></svg>