<svg xmlns="http://www.w3.org/2000/svg" xmlns:xlink="http://www.w3.org/1999/xlink" width="18.069" height="26" viewBox="0 0 18.069 26"><defs><clipPath id="a"><rect width="18.069" height="26" fill="none"/></clipPath></defs><g transform="translate(0 -0.003)"><g transform="translate(0 0.003)" clip-path="url(#a)"><path d="M33.252,34.674A8.8,8.8,0,1,1,17.54,27.453l.006-.009c1.324-1.911,2.735-3.535,3.86-5.305.876-1.377,1.339-2.738,2.221-4.131v0c.056-.094.116-.185.178-.274l0,0h0a4.846,4.846,0,0,1,8.628,2.14s0,0,0,0c.011.1.02.2.027.3.134,1.657-.1,3.084.035,4.721.168,2.091.656,4.186.934,6.494V31.4a8.78,8.78,0,0,1-.184,3.278" transform="translate(-15.677 -15.59)" fill="#d4ffce"/><path d="M91.14,90.11l0-.023c-.118-.985-.278-1.943-.433-2.87-.209-1.255-.407-2.44-.5-3.659a21.317,21.317,0,0,1-.019-2.439,19.792,19.792,0,0,0-.016-2.282c0-.026,0-.051-.006-.077l-.04-.333a3.987,3.987,0,0,0-7.029-1.61l-.01.015c-.028.04-.055.079-.079.117v0l-.068.107-.095.159-.008,0c-.369.6-.662,1.2-.97,1.832A21.31,21.31,0,0,1,80.7,81.2c-.656,1.031-1.384,1.987-2.156,3-.57.747-1.159,1.52-1.724,2.335l-.013.018A7.932,7.932,0,1,0,91.14,90.11" transform="translate(-74.241 -74.187)" fill="#4ee6e2"/><path d="M6.859,25.736a9.038,9.038,0,0,1-5.187-14l.007-.01c.576-.832,1.173-1.614,1.75-2.371.757-.993,1.472-1.93,2.1-2.923a20.456,20.456,0,0,0,1.1-2.04A21.182,21.182,0,0,1,7.752,2.3c.056-.095.117-.188.187-.286A4.983,4.983,0,0,1,13.2.157a4.983,4.983,0,0,1,3.787,4.091s0,.008,0,.012q.016.155.028.306a20.939,20.939,0,0,1,.019,2.4,20.43,20.43,0,0,0,.016,2.317c.094,1.172.288,2.334.493,3.566.156.939.318,1.91.44,2.92v.008A9.038,9.038,0,0,1,6.859,25.736M8.149,2.544l0,0a20.809,20.809,0,0,0-1.1,2.046A20.833,20.833,0,0,1,5.926,6.678C5.284,7.687,4.564,8.632,3.8,9.633c-.574.753-1.167,1.531-1.74,2.358l0,.007,0,.006A8.566,8.566,0,1,0,17.527,15.84l0-.014c-.12-1-.281-1.965-.437-2.9-.207-1.241-.4-2.414-.5-3.605a20.8,20.8,0,0,1-.017-2.369A20.572,20.572,0,0,0,16.555,4.6c-.008-.1-.016-.192-.026-.289h0A4.513,4.513,0,0,0,13.091.61,4.512,4.512,0,0,0,8.322,2.277h0l0,0c-.062.087-.117.172-.167.257l0,0" transform="translate(0 -0.003)" fill="#3b3a3c"/><path d="M303.91,841.271a4.678,4.678,0,1,0,3.414,5.667,4.684,4.684,0,0,0-3.414-5.667" transform="translate(-293.75 -828.845)" fill="#6349ed"/></g></g></svg>