<svg xmlns="http://www.w3.org/2000/svg" viewBox="0 0 68.77 36.25"><defs><style>.a{fill:#9693a3;}</style></defs><path class="a" d="M3.36,16.13v3.95a4.16,4.16,0,0,1,1.58-1.53,4.45,4.45,0,0,1,2.18-.5A4.62,4.62,0,0,1,10.93,20a8,8,0,0,1,1.48,5,8,8,0,0,1-1.48,5,4.24,4.24,0,0,1-2,1.36,7.84,7.84,0,0,1-2.49.42A8.22,8.22,0,0,1,2,30.51q-2-1.23-2-4.74V14.45H1.68a1.62,1.62,0,0,1,1.19.49A1.61,1.61,0,0,1,3.36,16.13ZM9,24.83a4.56,4.56,0,0,0-.74-2.77,2.37,2.37,0,0,0-2-1A2.51,2.51,0,0,0,4.1,22a4.79,4.79,0,0,0-.74,2.82,5.14,5.14,0,0,0,.69,3,2.43,2.43,0,0,0,2.08,1,2.48,2.48,0,0,0,2.13-1A5.16,5.16,0,0,0,9,24.83Zm13.8,2.62h2.47a5.43,5.43,0,0,1-2.08,3.16,6.28,6.28,0,0,1-3.85,1.14,5.5,5.5,0,0,1-4.4-1.83,7.39,7.39,0,0,1-1.59-5.09,7.32,7.32,0,0,1,1.54-4.95,5.5,5.5,0,0,1,4.4-1.83,5.93,5.93,0,0,1,4.59,1.78,7.52,7.52,0,0,1,1.58,5.1v.54a1,1,0,0,1,0,.35H16.86a3.4,3.4,0,0,0,.75,2.27,2.31,2.31,0,0,0,1.92.79A2.75,2.75,0,0,0,21,28.53a.65.65,0,0,0,.27-.17l.27-.27a1.12,1.12,0,0,1,.37-.4A1.53,1.53,0,0,1,22.8,27.45Zm-5.94-3.86h5.05a3.21,3.21,0,0,0-.7-2,2.35,2.35,0,0,0-1.83-.69,2.4,2.4,0,0,0-1.77.69A2.85,2.85,0,0,0,16.86,23.59Zm15,7.91a24.81,24.81,0,0,1-3.53-.05c-1.27-.1-1.91-.9-1.91-2.42V14.49h1.78a1.57,1.57,0,0,1,1.14.5,1.61,1.61,0,0,1,.5,1.18V18.4h2v.69a1.58,1.58,0,0,1-.49,1.21,1.64,1.64,0,0,1-1.19.47h-.34v7.32c0,.56.32.84,1,.84h1Zm.72-4.35h3.36a1.82,1.82,0,0,0,.75,1.48,3.48,3.48,0,0,0,2,.5,3.21,3.21,0,0,0,1.54-.35,1.05,1.05,0,0,0,.59-.94c0-.59-.69-1-2.08-1.33a9.49,9.49,0,0,1-1.33-.3,7.83,7.83,0,0,1-3.51-1.53,3.05,3.05,0,0,1-1-2.37,4,4,0,0,1,1.43-3.12,6.17,6.17,0,0,1,3.86-1.14,6.71,6.71,0,0,1,4.1,1.14,4.33,4.33,0,0,1,1.53,3.21H41.66a1.58,1.58,0,0,1-1.44-.84l-.39-.39a2.65,2.65,0,0,0-1.63-.45,2.87,2.87,0,0,0-1.48.3,1,1,0,0,0-.45.89c0,.53.86,1,2.57,1.34.2.06.37.11.52.14a1.6,1.6,0,0,0,.42.05,9.17,9.17,0,0,1,3.51,1.49,3.09,3.09,0,0,1,.94,2.37,4,4,0,0,1-1.58,3.36,7.47,7.47,0,0,1-4.45,1.09A6.5,6.5,0,0,1,34,30.61a4,4,0,0,1-1.44-3.31Zm13.73,9V33.43h.94A2.4,2.4,0,0,0,48.79,33c.38-.31.45-.82.22-1.51l-4.6-13.1h3.81l2.67,9.3,2.32-8.11a1.47,1.47,0,0,1,1.58-1.19h2.38l-5.05,15a5,5,0,0,1-1.48,2.32,5.35,5.35,0,0,1-2.91.6H47a1.58,1.58,0,0,0-.37-.08Zm10.81-9h3.36a1.82,1.82,0,0,0,.75,1.48,3.48,3.48,0,0,0,2,.5,3.21,3.21,0,0,0,1.54-.35,1.05,1.05,0,0,0,.59-.94c0-.59-.69-1-2.08-1.33a9.49,9.49,0,0,1-1.33-.3,7.83,7.83,0,0,1-3.51-1.53,3.05,3.05,0,0,1-1-2.37,4,4,0,0,1,1.43-3.12,6.17,6.17,0,0,1,3.86-1.14,6.71,6.71,0,0,1,4.1,1.14,4.37,4.37,0,0,1,1.54,3.21H66.2a1.55,1.55,0,0,1-1.43-.84l-.4-.39a2.65,2.65,0,0,0-1.63-.45,2.87,2.87,0,0,0-1.48.3,1,1,0,0,0-.45.89c0,.53.86,1,2.57,1.34.2.06.37.11.52.14a1.6,1.6,0,0,0,.42.05,9.17,9.17,0,0,1,3.51,1.49,3.09,3.09,0,0,1,.94,2.37,4,4,0,0,1-1.58,3.36,7.47,7.47,0,0,1-4.45,1.09,6.5,6.5,0,0,1-4.2-1.14A4,4,0,0,1,57.1,27.3Zm3.35-25.6A1.55,1.55,0,1,1,58.9,0,1.56,1.56,0,0,1,60.45,1.55Zm-3.13,2A1.47,1.47,0,1,0,58.79,5,1.47,1.47,0,0,0,57.32,3.5ZM55.64,6.44A1.4,1.4,0,1,0,57,7.83,1.39,1.39,0,0,0,55.64,6.44ZM53.45,8.61a1.33,1.33,0,1,0,1.33,1.32A1.33,1.33,0,0,0,53.45,8.61ZM50.84,9.93a1.2,1.2,0,1,0,0,2.39,1.2,1.2,0,0,0,0-2.39Zm-2.49.44a1.08,1.08,0,1,0,1.08,1.08A1.08,1.08,0,0,0,48.35,10.37ZM46,10.42a1,1,0,1,0,1,1A1,1,0,0,0,46,10.42Zm-2.22.19a.87.87,0,1,0,.87.87A.87.87,0,0,0,43.81,10.61ZM42,11.46a.7.7,0,1,0,.7.7A.7.7,0,0,0,42,11.46Zm-1.58.91a.49.49,0,0,0-.49.49.49.49,0,0,0,1,0A.49.49,0,0,0,40.39,12.37Zm-1.2,1.07a.4.4,0,0,0-.39.39.39.39,0,0,0,.39.39.38.38,0,0,0,.39-.39A.39.39,0,0,0,39.19,13.44Zm-1,1.21a.31.31,0,1,0,.31.31A.31.31,0,0,0,38.23,14.65ZM37.1,16a.16.16,0,0,0-.16.15.16.16,0,0,0,.16.16.16.16,0,0,0,.15-.16A.15.15,0,0,0,37.1,16Zm25-13.51A1.32,1.32,0,1,0,63.22,4,1.32,1.32,0,0,0,62.14,2.5ZM60.46,5.9a1.22,1.22,0,1,0,1,1.41A1.23,1.23,0,0,0,60.46,5.9Zm-2,2.72a1.19,1.19,0,1,0,1,1.37A1.18,1.18,0,0,0,58.51,8.62Zm-2.43,2A1.13,1.13,0,1,0,57,11.93,1.13,1.13,0,0,0,56.08,10.64Zm-2.57,1.3a1,1,0,1,0,.82,1.14A1,1,0,0,0,53.51,11.94Zm-2.79.79a.95.95,0,1,0,.78,1.09A1,1,0,0,0,50.72,12.73Zm-2.28-1.06a.83.83,0,1,0,.68.95A.82.82,0,0,0,48.44,11.67Zm-6.11-1.32a.5.5,0,0,0-.56.4.49.49,0,0,0,1,.16A.49.49,0,0,0,42.33,10.35Zm-1.72.11a.49.49,0,0,0-.56.4.49.49,0,0,0,.4.56A.47.47,0,0,0,41,11,.48.48,0,0,0,40.61,10.46Zm-1.32.71a.39.39,0,0,0-.44.32.39.39,0,1,0,.76.13A.39.39,0,0,0,39.29,11.17ZM38,12.37a.32.32,0,0,0-.36.26.31.31,0,0,0,.25.36.32.32,0,0,0,.36-.26A.31.31,0,0,0,38,12.37Zm-1.11,1.41a.15.15,0,0,0-.18.13.16.16,0,0,0,.13.18A.17.17,0,0,0,37,14,.16.16,0,0,0,36.86,13.78ZM35.93,15a.16.16,0,0,0-.18.13.15.15,0,1,0,.3.05A.16.16,0,0,0,35.93,15ZM64.84,5a1.11,1.11,0,1,0-.36,2.2,1.1,1.1,0,0,0,1.28-.91A1.12,1.12,0,0,0,64.84,5ZM63,8a1,1,0,1,0,.85,1.19A1,1,0,0,0,63,8Zm-1.94,2.74a1,1,0,1,0,.83,1.15A1,1,0,0,0,61.08,10.76ZM58.47,12.5a1,1,0,0,0-1.09.78,1,1,0,0,0,1.88.32A1,1,0,0,0,58.47,12.5Zm-2.7.92a.84.84,0,1,0,.69,1A.82.82,0,0,0,55.77,13.42Zm-2.93.88a.8.8,0,0,0-.26,1.58.8.8,0,1,0,.26-1.58Zm-11.13-5a.41.41,0,1,0,.34.47A.42.42,0,0,0,41.71,9.35Zm1.55.32a.4.4,0,0,0-.47.33.41.41,0,1,0,.81.14A.4.4,0,0,0,43.26,9.67Zm-5,.67a.33.33,0,1,0,.27.38A.33.33,0,0,0,38.26,10.34Zm-1.38,1.15a.26.26,0,0,0-.31.21.27.27,0,0,0,.22.31.26.26,0,0,0,.3-.22A.25.25,0,0,0,36.88,11.49Zm-1.15,1.38a.13.13,0,0,0-.15.11.13.13,0,0,0,.11.16.13.13,0,0,0,.15-.11A.14.14,0,0,0,35.73,12.87Zm-.94,1.24a.13.13,0,0,0,0,.26.13.13,0,0,0,.15-.11A.13.13,0,0,0,34.79,14.11ZM67.25,7.46a.89.89,0,1,0,.73,1A.88.88,0,0,0,67.25,7.46Zm-2,2.51a.83.83,0,1,0,.68.95A.83.83,0,0,0,65.25,10Zm-2,2.55A.8.8,0,1,0,63,14.09a.8.8,0,1,0,.26-1.57Zm-2.9,1.79a.76.76,0,1,0,.62.87A.76.76,0,0,0,60.32,14.31Zm-2.75,1a.67.67,0,1,0,.55.77A.67.67,0,0,0,57.57,15.32Zm-2.44.19a.63.63,0,1,0,.53.73A.63.63,0,0,0,55.13,15.51ZM39.66,8.44a.33.33,0,1,0,.27.38A.33.33,0,0,0,39.66,8.44Zm1.25.2a.33.33,0,1,0,.27.38A.33.33,0,0,0,40.91,8.64Zm-1.65.95a.33.33,0,0,0-.38.27.32.32,0,0,0,.27.37.33.33,0,0,0,.38-.27A.32.32,0,0,0,39.26,9.59Zm1.06-.13a.33.33,0,1,0-.11.65.34.34,0,0,0,.38-.27A.33.33,0,0,0,40.32,9.46Zm-2-.77a.32.32,0,0,0-.37.27.33.33,0,0,0,.27.38.32.32,0,0,0,.37-.27A.33.33,0,0,0,38.29,8.69Zm-1.16.91a.26.26,0,0,0-.31.21.28.28,0,0,0,.22.31.27.27,0,0,0,.3-.22A.25.25,0,0,0,37.13,9.6Zm-1.32,1.09a.21.21,0,0,0-.25.17.21.21,0,0,0,.42.07A.21.21,0,0,0,35.81,10.69ZM34.67,12a.11.11,0,0,0-.13.09.11.11,0,0,0,.09.12.11.11,0,0,0,0-.21Zm-.94,1.1a.1.1,0,1,0,0,.2.1.1,0,0,0,.12-.08A.1.1,0,0,0,33.73,13.05Z"/></svg>