<svg xmlns="http://www.w3.org/2000/svg" viewBox="0 0 89.6 30"><defs><style>.a{fill:#9693a3;}</style></defs><path class="a" d="M85,2.54,82.22,7.3,87,4.52ZM79.72,9.88c-6-6-13.31-9.36-20.16-9.88A42.06,42.06,0,0,1,78.39,11.21,42.13,42.13,0,0,1,89.6,30C89.07,23.15,85.69,15.85,79.72,9.88ZM28.06,18.31h-2.5V29.8h7.5V27.5h-5Zm9.12,0h-2.5V29.8h7.5V27.5h-5V18.31ZM8.23,23.79a2.45,2.45,0,0,0,.92-2.06c0-2-1.37-3.38-3.67-3.38H0V29.84H5.44c2.62,0,4.24-1.25,4.24-3.51A2.69,2.69,0,0,0,8.23,23.79ZM2.5,20.6H5.36c.81,0,1.33.37,1.33,1.13s-.52,1.13-1.33,1.13H2.5Zm3.23,6.9H2.5V25.12H5.73c.88,0,1.41.4,1.41,1.17S6.57,27.5,5.73,27.5Zm11.73-9.4a5.93,5.93,0,1,0,6,5.93A6,6,0,0,0,17.46,18.1Zm0,9.48A3.51,3.51,0,1,1,21,24.07,3.51,3.51,0,0,1,17.46,27.58ZM49.07,18.1A5.93,5.93,0,1,0,55,24,6,6,0,0,0,49.07,18.1Zm0,9.48a3.51,3.51,0,1,1,3.51-3.51A3.46,3.46,0,0,1,49.07,27.58Zm26.58-12.5a.72.72,0,0,0-.05-.93.79.79,0,0,0-1-.16,1.88,1.88,0,0,0-.53.49c-.56.68-1.09,1.37-1.65,2.09-.2.24-.4.53-.61.77H73.1c.65-.57,1.34-1.13,2-1.74A1.25,1.25,0,0,0,75.65,15.08Zm-9.36,7.14c0-2.46-1.69-3.91-4.52-3.91H57.26V29.8h2.5V26.13h2l2.34,3.67h3.07l-2.87-4.32A3.56,3.56,0,0,0,66.29,22.22Zm-2.54,0c0,.93-.77,1.57-2,1.57H59.72V20.65h2c1.25,0,2.06.52,2.06,1.61Zm5.36,7.54h8.43V27.5H71.61V25.2h5.33V22.9H71.61V20.6h5.93V18.31H69.11Z"/></svg>