<svg xmlns="http://www.w3.org/2000/svg" xmlns:xlink="http://www.w3.org/1999/xlink" width="110.434" height="23.097" viewBox="0 0 110.434 23.097"><defs><clipPath id="a"><rect width="110.434" height="23.097" fill="none"/></clipPath></defs><g transform="translate(0 0)" clip-path="url(#a)"><path d="M18.031,20.848A9.3,9.3,0,1,1,22.958,3.665L18.031,11.55l9.275-5.355a12.56,12.56,0,0,0-4.2-4.039A17.312,17.312,0,0,0,14.367,0C9.488,0,5.207,1.773,2.82,4.429A10.594,10.594,0,0,0,0,11.549a10.606,10.606,0,0,0,2.82,7.126C5.213,21.334,9.43,23.1,14.229,23.1s9.014-1.764,11.409-4.421c.131-.146.258-.294.378-.447l-.362-1.356a9.294,9.294,0,0,1-7.624,3.976" transform="translate(0 0)" fill="#9693a3"/><path d="M162.528,39.3l-3.893-14.522a5.494,5.494,0,0,0-7.185-3.74l-8.38,3.047h8.619l1.473,5.5a8.14,8.14,0,0,0-5.327-1.978c-4.046,0-7.322,2.711-7.322,6.056s3.276,6.06,7.322,6.06a8.724,8.724,0,0,0,7.077-3.617l.855,3.193Zm-11.874-2.256a3.38,3.38,0,1,1,3.381-3.381,3.379,3.379,0,0,1-3.381,3.381" transform="translate(-113.747 -16.763)" fill="#9693a3"/><path d="M262.316,20.72a3.346,3.346,0,0,0-1.425.315l-5.381,2.508a3.386,3.386,0,0,0-4.765-2.508L244.176,24.1H248.8V39.311h6.761V25.789a1.691,1.691,0,1,1,3.382,0V39.311H265.7V24.1a3.378,3.378,0,0,0-3.381-3.376" transform="translate(-197.663 -16.773)" fill="#9693a3"/><path d="M484.894,20.72a3.415,3.415,0,0,0-1.436.315l-5.375,2.508a3.386,3.386,0,0,0-4.765-2.508L466.751,24.1h4.617V39.311h6.76V25.789a1.69,1.69,0,1,1,3.381,0V39.311h6.764V24.1a3.379,3.379,0,0,0-3.379-3.376" transform="translate(-377.839 -16.773)" fill="#9693a3"/><path d="M391.1,30.3a9.577,9.577,0,1,1-9.573-9.576A9.574,9.574,0,0,1,391.1,30.3m-9.177-6.669a2.112,2.112,0,0,0-4.08,1.094l3.284,12.244a2.111,2.111,0,1,0,4.079-1.092Z" transform="translate(-301.091 -16.773)" fill="#9693a3"/></g></svg>