<svg xmlns="http://www.w3.org/2000/svg" viewBox="0 0 33.67 25.11"><defs><style>.a{fill:#bebcd3;}.b{fill:#23b573;}</style></defs><path class="a" d="M6.06,2.63l.08,0-.09,0Zm11.24,6a3.89,3.89,0,0,1-2.36,3.22,3.21,3.21,0,0,1-3.68-1.15,2.82,2.82,0,0,1-.34-.67l-.12.2A5.67,5.67,0,0,1,9.18,11.8a3.55,3.55,0,0,1-4.43-.06,4.67,4.67,0,0,1-.93-4.6A5.53,5.53,0,0,1,7.38,3.62a3.39,3.39,0,0,1,4,1.06A5.34,5.34,0,0,1,12,8.18a3.06,3.06,0,0,1,.64,1.05l.06.14s0,.11.07.14a.59.59,0,0,0,.16.2,1.45,1.45,0,0,0,.62.34,1.64,1.64,0,0,0,.44,0h0l.2-.05.11,0,.09,0,.13-.08h0v0l.17-.16.06-.07.07-.09s.07-.1.1-.16l.12-.25s.09-.23.1-.28a4.05,4.05,0,0,0,.12-.47c0-.07,0-.14,0-.2h0v0a7.06,7.06,0,0,0,0-.8l0-.42s0-.05,0-.08,0,0,0-.05c0-.23-.08-.46-.14-.68a5.68,5.68,0,0,0-.22-.7c0-.07-.17-.39,0-.12L14.87,5c-.09-.19-.2-.37-.31-.56l-.17-.24a.86.86,0,0,0-.07-.1,7.16,7.16,0,0,0-.81-.84l-.1-.08L13.18,3l-.49-.3-.52-.25-.11,0-.25-.08a7.85,7.85,0,0,0-1.18-.3l-.16,0-.23,0-.6,0A8.86,8.86,0,0,0,8.38,2h-.1l-.3,0-.6.13a10.22,10.22,0,0,0-1.19.37l-.06,0-.07,0h0L6,2.65l0,0-.26.12c-.18.09-.36.18-.53.28l-.57.34-.22.16-.1.08a8.55,8.55,0,0,0-.89.81l-.21.25-.09.11c-.1.14-.21.28-.31.44s-.22.37-.32.57-.09.18-.13.27,0,.07,0,.11A7.25,7.25,0,0,0,2,7.38s0,.09,0,.14a.12.12,0,0,1,0,.05L2,7.9c0,.23,0,.46,0,.68a5.77,5.77,0,0,0,.28,1.75c0,.17.11.33.17.5v0l.1.2a4.6,4.6,0,0,0,.39.68l.15.22.26.3.56.53,0,0h0l.19.14a2.82,2.82,0,0,0,.29.18c.21.13.43.23.65.34h0l.1,0,.14.05.37.12.75.18.19,0h0l.39,0c.25,0,.5,0,.75,0l.47,0,.2,0h0l.77-.16a1,1,0,0,1,.58,1.86H9.79a9.28,9.28,0,0,1-1.89.28,7.54,7.54,0,0,1-6.65-3.14A8.09,8.09,0,0,1,.54,5.54C2,1.79,6.26-.3,10.18,0a8,8,0,0,1,5.19,2.3A7.6,7.6,0,0,1,17.3,8.62ZM6.63,13.92,3.07,12Zm3.11-1.56.23.13M10.11,8a8,8,0,0,0,0-1.2v0a1.85,1.85,0,0,0,0-.23c0-.12-.06-.24-.1-.36A.69.69,0,0,0,9.92,6V6h0l-.15-.27,0,0h0l-.09-.1-.1-.09h0l-.16-.09-.26-.07H8.62l-.26,0a3.77,3.77,0,0,0-.8.27,4.18,4.18,0,0,0-.8.51l-.38.36c-.06.07-.11.14-.17.2l0,0,0,.06c-.11.16-.2.32-.3.49l0,.06-.06.17c0,.15-.09.3-.13.45a1.43,1.43,0,0,1,0,.22v.05a3.71,3.71,0,0,0,0,.58,1.93,1.93,0,0,0,0,.24s0,.11,0,.14.06.27.1.4l.06.18s0,0,0,.05,0,0,0,.06.1.16.14.24l0,0,0,0,.16.17,0,0,.2.13h0l.27.07a1.28,1.28,0,0,0,.39,0l.31-.07.17-.06h.06l0,0a3.84,3.84,0,0,0,.4-.21L8.39,10l.13-.11.13-.12A3.11,3.11,0,0,0,9,9.44s.1-.13.11-.13l0-.07a4.63,4.63,0,0,1,1-1.25Zm.62,1.62h0Z"/><path class="b" d="M31.67,9.62c-7.7,5-9.7,6-16.65,12a18.48,18.48,0,0,1,.8-5.94c.36-1.34-2.07-1.46-2.42-.13-.76,2.81-1.31,6-.37,8.75a1.29,1.29,0,0,0,2.19.36c5.88-6.45,10.59-8.3,18-13.46C34.46,10.31,33,8.78,31.67,9.62Z"/></svg>