<svg xmlns="http://www.w3.org/2000/svg" viewBox="0 0 50 50"><defs><style>.a,.b{fill:none;}.b{stroke:#dad9e5;}.c{fill:#595769;}</style></defs><path class="a" d="M25,0h0A25,25,0,0,1,50,25h0A25,25,0,0,1,25,50h0A25,25,0,0,1,0,25H0A25,25,0,0,1,25,0Z"/><path class="b" d="M25,.5h0A24.5,24.5,0,0,1,49.5,25h0A24.5,24.5,0,0,1,25,49.5h0A24.5,24.5,0,0,1,.5,25h0A24.5,24.5,0,0,1,25,.5Z"/><path class="c" d="M17.57,31.49a66,66,0,0,0,13.84.06,5.78,5.78,0,0,0,2.45-.45c.78-.5.8-1.33.87-2.16a40.79,40.79,0,0,0,.07-6.35,19.11,19.11,0,0,0-.35-3.2,1.61,1.61,0,0,0-1.3-1.26,12.13,12.13,0,0,0-2.81.23c-1.22.11-2.44.18-3.65.21q-3.42.09-6.82-.15a11.68,11.68,0,0,0-3-.19c-.83.19-1,.94-1.15,1.68a26,26,0,0,0-.17,7.16,26.35,26.35,0,0,0,.46,2.8,1.79,1.79,0,0,0,1.4,1.6c.75.17,1.08-1,.32-1.15s-.66-1.23-.76-1.79c-.13-.76-.24-1.52-.3-2.29a26.38,26.38,0,0,1,.09-5.18A5,5,0,0,1,17,19.73c.21-.44.55-.3,1-.26.93.08,1.85.16,2.79.21,1.8.1,3.61.14,5.41.1s3.55-.14,5.31-.32c.37,0,.76-.12,1.13-.13.74,0,.71.43.79,1.09.11.88.19,1.77.24,2.66a40,40,0,0,1,0,5c0,.39,0,.79-.1,1.18,0,.18,0,.59-.18.72s-.61.19-.88.24c-.9.14-1.84.19-2.75.26a65.43,65.43,0,0,1-12.12-.21C16.8,30.21,16.81,31.41,17.57,31.49Z"/><path class="c" d="M33.13,19A50.64,50.64,0,0,1,29,23.82,23.3,23.3,0,0,1,26.54,26c-.66.5-1.08.92-1.89.56a11.33,11.33,0,0,1-3.15-2.62,49.37,49.37,0,0,1-4.21-5.25c-.45-.62-1.49,0-1,.61a52.14,52.14,0,0,0,4.53,5.63,10.44,10.44,0,0,0,3.71,2.86,2.06,2.06,0,0,0,1.84-.18A18,18,0,0,0,29,25.45a43,43,0,0,0,5-5.64c.47-.6-.37-1.45-.84-.84Z"/><path class="c" d="M21.31,24.56a21.31,21.31,0,0,0-1.64,1.92c-.18.24-.35.48-.53.71l-.07.09,0,0-.21.27-.55.66a.62.62,0,0,0,0,.85.6.6,0,0,0,.85,0c.54-.64,1.05-1.3,1.55-2l.11-.15.07-.09c.07-.1-.09.11,0,0s.2-.26.31-.38c.32-.39.66-.75,1-1.12a.6.6,0,0,0-.85-.85Z"/><path class="c" d="M28.36,25.41c.35.37.69.73,1,1.12.11.12.21.25.31.38s-.08-.11,0,0l.06.08.12.16c.5.68,1,1.34,1.55,2a.6.6,0,0,0,.85,0,.62.62,0,0,0,0-.85l-.55-.66-.21-.27s-.12-.15-.06-.07,0-.06-.05-.07c-.18-.23-.35-.47-.53-.71a21.31,21.31,0,0,0-1.64-1.92.61.61,0,0,0-.85,0,.62.62,0,0,0,0,.85Z"/></svg>