<svg xmlns="http://www.w3.org/2000/svg" viewBox="0 0 20 17"><defs><style>.a{fill:#595769;}</style></defs><path class="a" d="M1.57,1.1a1.13,1.13,0,0,0-1.2,1A1.08,1.08,0,0,0,1.46,3.14C3.31,3,5.16,2.93,7,2.89q5.72-.14,11.43.29a1.12,1.12,0,0,0,1.19-1,1.11,1.11,0,0,0-1.09-1.07l-1.16-.07a119.15,119.15,0,0,0-15.81,0Z"/><path class="a" d="M1.57,7.6a1.13,1.13,0,0,0-1.2,1A1.08,1.08,0,0,0,1.46,9.64c1.85-.13,3.7-.21,5.55-.25q5.72-.13,11.43.29a1.12,1.12,0,0,0,1.19-1,1.11,1.11,0,0,0-1.09-1.07l-1.16-.07a119.15,119.15,0,0,0-15.81,0Z"/><path class="a" d="M1.57,14.1a1.13,1.13,0,0,0-1.2,1,1.08,1.08,0,0,0,1.09,1.06c1.85-.13,3.7-.21,5.55-.25q5.72-.13,11.43.29a1.12,1.12,0,0,0,1.19-1,1.11,1.11,0,0,0-1.09-1.07l-1.16-.07a119.15,119.15,0,0,0-15.81,0Z"/></svg>