<svg xmlns="http://www.w3.org/2000/svg" xmlns:xlink="http://www.w3.org/1999/xlink" width="44" height="38" viewBox="0 0 44 38"><defs><clipPath id="a"><rect width="44" height="38" fill="none"/></clipPath></defs><g clip-path="url(#a)"><path d="M40.1,22.519c.751.475.851,1.706.816,2.481a5.114,5.114,0,0,1-1.167,3.109c-2.921,3.13-7.667,4.765-11.788,5.5a36.779,36.779,0,0,1-10,.312,25.642,25.642,0,0,1-8.786-2.214,18.225,18.225,0,0,1-2.888-1.713A7.732,7.732,0,0,1,3.61,26.855a4.732,4.732,0,0,1,.6-3.786" fill="#f3c489"/><path d="M40.1,22.519c.751.475.851,1.706.816,2.481a5.114,5.114,0,0,1-1.167,3.109c-2.921,3.13-7.667,4.765-11.788,5.5a36.779,36.779,0,0,1-10,.312,25.642,25.642,0,0,1-8.786-2.214,18.225,18.225,0,0,1-2.888-1.713A7.732,7.732,0,0,1,3.61,26.855a4.732,4.732,0,0,1,.6-3.786" fill="none" stroke="#43414b" stroke-miterlimit="10" stroke-width="2"/><path d="M2.923,22.933a7.666,7.666,0,0,0,2.763,3.243,18.741,18.741,0,0,0,3.559,2,23.468,23.468,0,0,0,6.062,1.763l.04.006c7.644.892,14.932.043,21.875-3.572a11.189,11.189,0,0,0,3.027-2.147,5.363,5.363,0,0,0,1.206-3.213,3.626,3.626,0,0,0,0-.417c-.038-.711-.145-1.752-.839-2.146a113.5,113.5,0,0,1-37.072.569A9.648,9.648,0,0,0,2.8,20.887a3.334,3.334,0,0,0,.124,2.042" fill="#93583d"/><path d="M2.923,22.933a7.666,7.666,0,0,0,2.763,3.243,18.741,18.741,0,0,0,3.559,2,23.468,23.468,0,0,0,6.062,1.763l.04.006c7.644.892,14.932.043,21.875-3.572a11.189,11.189,0,0,0,3.027-2.147,5.363,5.363,0,0,0,1.206-3.213,3.626,3.626,0,0,0,0-.417c-.038-.711-.145-1.752-.839-2.146a113.5,113.5,0,0,1-37.072.569A9.648,9.648,0,0,0,2.8,20.887,3.331,3.331,0,0,0,2.923,22.933Z" fill="none" stroke="#43414b" stroke-miterlimit="10" stroke-width="1.4"/><path d="M2.686,20.976a8.827,8.827,0,0,0,2.4,1.9,16.161,16.161,0,0,1,3.66,3.936,6.27,6.27,0,0,0,2.637,1.957,9.737,9.737,0,0,0,5.118-.131,76.86,76.86,0,0,1,7.485-2.157c5.26-.938,10.541-1.61,15.3-3.845a4.732,4.732,0,0,0,2.046-1.507,2.338,2.338,0,0,0,.263-1.437,2.87,2.87,0,0,0-.279-.932l-.079.011A152.851,152.851,0,0,1,3.275,19a2.029,2.029,0,0,0-.554.834,2.1,2.1,0,0,0-.139.616.863.863,0,0,0,.1.522" fill="#f9af5f"/><path d="M2.686,20.976a8.827,8.827,0,0,0,2.4,1.9,16.161,16.161,0,0,1,3.66,3.936,6.27,6.27,0,0,0,2.637,1.957,9.737,9.737,0,0,0,5.118-.131A73.123,73.123,0,0,1,23.833,26.7,77.9,77.9,0,0,0,36.446,23.8q1.427-.51,2.809-1.136a4.4,4.4,0,0,0,2.077-1.531,2.338,2.338,0,0,0,.263-1.437,2.87,2.87,0,0,0-.279-.932l-.079.011A152.851,152.851,0,0,1,3.275,19a2.029,2.029,0,0,0-.554.834,2.1,2.1,0,0,0-.139.616A.863.863,0,0,0,2.686,20.976Z" fill="none" stroke="#43414b" stroke-miterlimit="10" stroke-width="1.2"/><path d="M2.4,17.5c.01.134.027.268.05.4A3.936,3.936,0,0,0,2.786,19,5.649,5.649,0,0,0,5.8,21.413a33,33,0,0,0,5.8,1.937,44.837,44.837,0,0,0,6.711,1.126q.76.068,1.52.108a41.646,41.646,0,0,0,15.653-2.17,21.5,21.5,0,0,0,3.24-1.362,5.538,5.538,0,0,0,1.817-1.6,4.353,4.353,0,0,0,.65-1.664,3.116,3.116,0,0,0,.043-.419,4.28,4.28,0,0,0-.01-.543A7.772,7.772,0,0,0,40.392,14c-12.2.5-24.423.535-36.632.357A3.622,3.622,0,0,0,2.4,17.5" fill="#c62722"/><path d="M2.39,17.5a3.818,3.818,0,0,0,.56,1.745,7.032,7.032,0,0,0,3.583,2.479A41.667,41.667,0,0,0,18.6,24.468a44.061,44.061,0,0,0,12.376-.805c1.284-.268,2.55-.615,3.8-1.007,2.554-.8,5.7-1.845,6.356-4.826a5.309,5.309,0,0,0-.769-3.818q-17.631.654-35.279.341a3.223,3.223,0,0,0-1.269.146,2.285,2.285,0,0,0-1.182,1.33A3.811,3.811,0,0,0,2.39,17.5Z" fill="none" stroke="#43414b" stroke-miterlimit="10" stroke-width="1.2"/><path d="M3.6,18.413c1.248.556,2.968,0,4.086.811,1.3.937,1.72,2.818,3.61,2.926,1.381.079,3.122-1.392,4.5-.619,1.208.68,1.85,2.252,3.2,2.643,2.018.583,3.317-2.483,5.238-2.4,1.288.057,2.18,1.512,3.5,1.578,1.869.092,2.9-2.171,4.706-2.416a5.139,5.139,0,0,1,2.071.388,2.388,2.388,0,0,0,2.042-.285c.644-.586.873-1.557,1.545-2.064a6.491,6.491,0,0,1,2.172-.55,2.575,2.575,0,0,0,1.658-2.562,2.769,2.769,0,0,0-.476-1.3,3.18,3.18,0,0,0-.534-.634,8.34,8.34,0,0,0-2.054-1.3c-11.007-.477-22.045-.675-33.058-.181a8.528,8.528,0,0,0-2.542.912,1.355,1.355,0,0,0-.168.125,2.552,2.552,0,0,0-.408.423,3.075,3.075,0,0,0,.615,4.3,2.98,2.98,0,0,0,.293.2" fill="#7db34e"/><path d="M2.86,14.82c.027,1.429,2.438,2.673,6.267,3.5a57.528,57.528,0,0,0,12.1,1.056c.277,0,.556,0,.835-.01,10.556-.2,19.072-2.549,19.022-5.255a6.574,6.574,0,0,0-.976-2.9c-1.969-3.458-7.236-7.535-18.339-7.327C11.632,4.076,6.505,7.563,4.286,10.94A7.547,7.547,0,0,0,2.86,14.82" fill="#f3c489"/><path d="M2.86,14.82c.027,1.429,2.438,2.673,6.267,3.5a57.528,57.528,0,0,0,12.1,1.056c.277,0,.556,0,.835-.01,10.556-.2,19.072-2.549,19.022-5.255a6.574,6.574,0,0,0-.976-2.9c-1.969-3.458-7.236-7.535-18.339-7.327C11.632,4.076,6.505,7.563,4.286,10.94A7.547,7.547,0,0,0,2.86,14.82Z" fill="none" stroke="#43414b" stroke-miterlimit="10" stroke-width="2"/></g></svg>