<svg xmlns="http://www.w3.org/2000/svg" xmlns:xlink="http://www.w3.org/1999/xlink" width="44" height="38" viewBox="0 0 44 38"><defs><clipPath id="a"><rect width="44" height="38" fill="none"/></clipPath></defs><g clip-path="url(#a)"><path d="M40.1,22.519c.751.475.851,1.706.816,2.481a5.114,5.114,0,0,1-1.167,3.109c-2.921,3.13-7.667,4.765-11.788,5.5a36.779,36.779,0,0,1-10,.312,25.642,25.642,0,0,1-8.786-2.214,18.225,18.225,0,0,1-2.888-1.713A7.732,7.732,0,0,1,3.61,26.855a4.732,4.732,0,0,1,.6-3.786" fill="#f3c489"/><path d="M40.1,22.519c.751.475.851,1.706.816,2.481a5.114,5.114,0,0,1-1.167,3.109c-2.921,3.13-7.667,4.765-11.788,5.5a36.779,36.779,0,0,1-10,.312,25.642,25.642,0,0,1-8.786-2.214,18.225,18.225,0,0,1-2.888-1.713A7.732,7.732,0,0,1,3.61,26.855a4.732,4.732,0,0,1,.6-3.786" fill="none" stroke="#43414b" stroke-miterlimit="10" stroke-width="2"/><path d="M2.923,22.933a7.666,7.666,0,0,0,2.763,3.243,18.741,18.741,0,0,0,3.559,2,23.468,23.468,0,0,0,6.062,1.763l.04.006c7.644.892,14.932.043,21.875-3.572a11.174,11.174,0,0,0,3.027-2.147,5.363,5.363,0,0,0,1.206-3.213,3.626,3.626,0,0,0,0-.417c-.038-.711-.145-1.752-.839-2.146a113.5,113.5,0,0,1-37.072.569A9.648,9.648,0,0,0,2.8,20.887a3.334,3.334,0,0,0,.124,2.042" fill="#93583d"/><path d="M2.923,22.933a7.666,7.666,0,0,0,2.763,3.243,18.741,18.741,0,0,0,3.559,2,23.468,23.468,0,0,0,6.062,1.763l.04.006c7.644.892,14.932.043,21.875-3.572a11.174,11.174,0,0,0,3.027-2.147,5.363,5.363,0,0,0,1.206-3.213,3.626,3.626,0,0,0,0-.417c-.038-.711-.145-1.752-.839-2.146a113.5,113.5,0,0,1-37.072.569A9.648,9.648,0,0,0,2.8,20.887,3.331,3.331,0,0,0,2.923,22.933Z" fill="none" stroke="#43414b" stroke-miterlimit="10" stroke-width="1.4"/><path d="M2.686,20.976a8.827,8.827,0,0,0,2.4,1.9,16.161,16.161,0,0,1,3.66,3.936,6.27,6.27,0,0,0,2.637,1.957,9.737,9.737,0,0,0,5.118-.131,76.86,76.86,0,0,1,7.485-2.157c5.26-.938,10.541-1.61,15.3-3.845a4.732,4.732,0,0,0,2.046-1.507,2.338,2.338,0,0,0,.263-1.437,2.87,2.87,0,0,0-.279-.932l-.079.011A152.851,152.851,0,0,1,3.275,19a2.029,2.029,0,0,0-.554.834,2.1,2.1,0,0,0-.139.616.863.863,0,0,0,.1.522" fill="#f9af5f"/><path d="M2.686,20.976a8.827,8.827,0,0,0,2.4,1.9,16.161,16.161,0,0,1,3.66,3.936,6.27,6.27,0,0,0,2.637,1.957,9.737,9.737,0,0,0,5.118-.131A73.123,73.123,0,0,1,23.833,26.7,77.9,77.9,0,0,0,36.446,23.8q1.427-.51,2.809-1.136a4.391,4.391,0,0,0,2.077-1.531,2.338,2.338,0,0,0,.263-1.437,2.87,2.87,0,0,0-.279-.932l-.079.011A152.851,152.851,0,0,1,3.275,19a2.029,2.029,0,0,0-.554.834,2.1,2.1,0,0,0-.139.616A.863.863,0,0,0,2.686,20.976Z" fill="none" stroke="#43414b" stroke-miterlimit="10" stroke-width="1.2"/><path d="M2.4,17.5c.01.134.027.268.05.4A3.936,3.936,0,0,0,2.786,19,5.649,5.649,0,0,0,5.8,21.413a33,33,0,0,0,5.8,1.937,44.837,44.837,0,0,0,6.711,1.126q.76.068,1.52.108a41.646,41.646,0,0,0,15.653-2.17,21.5,21.5,0,0,0,3.24-1.362,5.538,5.538,0,0,0,1.817-1.6,4.353,4.353,0,0,0,.65-1.664,3.116,3.116,0,0,0,.043-.419c.008-.181-.964-.195-.979-.376a8.771,8.771,0,0,0-1.042-2.949c-12.2.5-23.246.488-35.455.31A3.622,3.622,0,0,0,2.4,17.5" fill="#c62722"/><path d="M2.39,17.5a3.818,3.818,0,0,0,.56,1.745,7.032,7.032,0,0,0,3.583,2.479A41.667,41.667,0,0,0,18.6,24.468a44.061,44.061,0,0,0,12.376-.805c1.284-.268,2.55-.615,3.8-1.007,2.554-.8,5.7-1.845,6.356-4.826.284-1.3-1.233-2.649-1.923-3.787-11.754.437-22.365.519-34.125.31a3.223,3.223,0,0,0-1.269.146A2.284,2.284,0,0,0,2.639,15.83,3.8,3.8,0,0,0,2.39,17.5Z" fill="none" stroke="#43414b" stroke-miterlimit="10" stroke-width="1.2"/><path d="M3.6,18.413c1.248.556,2.968,0,4.086.811,1.3.937,1.72,2.818,3.61,2.926,1.381.079,3.122-1.392,4.5-.619,1.208.68,1.85,2.252,3.2,2.643,2.018.583,3.317-2.483,5.238-2.4,1.288.057,2.18,1.512,3.5,1.578,1.869.092,2.9-2.171,4.706-2.416a5.209,5.209,0,0,1,2.092.394,2.335,2.335,0,0,0,2.634-1.1c.1-.166.194-.335.3-.5A2.45,2.45,0,0,1,38.822,18.7a6.507,6.507,0,0,1,1.445-.275c1.054-.4,1-1.388.932-2.513a2.69,2.69,0,0,0-.485-1.274,3.051,3.051,0,0,0-.526-.624c-.487-.419-.293-.865-.861-1.161a2.341,2.341,0,0,0-.982-.246c-.642,0-1.288-.054-1.929-.079s-1.3-.05-1.949-.074q-1.95-.069-3.9-.125t-3.9-.093q-1.95-.039-3.9-.058t-3.9-.017c-2.224,0-4.491-.043-6.732-.035A34.716,34.716,0,0,0,5.67,12.5a7.689,7.689,0,0,0-2.013.648c-.134.067-.265.137-.4.209a1.355,1.355,0,0,0-.168.125,2.552,2.552,0,0,0-.408.423,3.075,3.075,0,0,0,.615,4.3,2.98,2.98,0,0,0,.293.2" fill="#7db34e"/><path d="M5.871,9.248c-.5,1.338,1.279,3.384,4.533,5.566A57.515,57.515,0,0,0,21.26,20.26c.258.1.517.206.78.3,9.885,3.71,18.667,4.669,19.619,2.136a6.571,6.571,0,0,0,.163-3.056c-.554-3.94-3.945-9.673-14.341-13.577C17.989,2.5,11.937,3.848,8.628,6.168a7.543,7.543,0,0,0-2.757,3.08" fill="#f3c489"/><path d="M5.871,9.248c-.5,1.338,1.279,3.384,4.533,5.566A57.515,57.515,0,0,0,21.26,20.26c.258.1.517.206.78.3,9.885,3.71,18.667,4.669,19.619,2.136a6.571,6.571,0,0,0,.163-3.056c-.554-3.94-3.945-9.673-14.341-13.577C17.989,2.5,11.937,3.848,8.628,6.168A7.543,7.543,0,0,0,5.871,9.248Z" fill="none" stroke="#43414b" stroke-miterlimit="10" stroke-width="2"/></g></svg>