<svg xmlns="http://www.w3.org/2000/svg" xmlns:xlink="http://www.w3.org/1999/xlink" width="98.283" height="57.043" viewBox="0 0 98.283 57.043"><defs><clipPath id="a"><rect width="98.283" height="57.043" fill="none"/></clipPath></defs><g clip-path="url(#a)"><path d="M48.478,0C58.834,0,67.664,5.749,70.894,13.713c.1.248-.025.416-.268.416-.5,0-10.691.128-10.691.128H37.023s-10.2-.128-10.691-.128c-.243,0-.369-.168-.268-.416C29.293,5.752,38.123,0,48.478,0m0,16.656c4.734,0,20.068.336,23.017.391a.317.317,0,0,0,.336-.371c-.045-.268-.341-1.324-.411-1.532a.331.331,0,0,0-.354-.268c-2.941.163-22.588,1.261-22.588,1.261s-19.645-1.1-22.581-1.261a.331.331,0,0,0-.356.268c-.075.211-.366,1.264-.411,1.532a.317.317,0,0,0,.336.371c2.949-.055,18.283-.391,23.012-.391m0,2.853c6.94-.033,20.622.529,23.453.6a.26.26,0,0,0,.306-.278c0-.336-.1-1.366-.135-1.58a.4.4,0,0,0-.441-.366c-.213,0-16.089.913-23.185.97-7.1-.06-22.969-.968-23.185-.97a.4.4,0,0,0-.441.366c-.038.213-.136,1.244-.136,1.58,0,.168.093.281.308.278,2.833-.075,16.513-.637,23.456-.6m0,21.673c10.355,0,19.186-5.752,22.415-13.715.1-.253-.025-.416-.268-.416l-10.691-.125H37.023l-10.691.125c-.243,0-.369.163-.268.416,3.229,7.963,12.06,13.715,22.415,13.715m0-16.661c4.734,0,20.068-.336,23.017-.391a.316.316,0,0,1,.336.374c-.045.263-.341,1.324-.411,1.529a.329.329,0,0,1-.354.268c-2.941-.165-22.588-1.261-22.588-1.261S28.834,26.136,25.9,26.3a.327.327,0,0,1-.356-.268c-.075-.205-.366-1.266-.411-1.529a.315.315,0,0,1,.336-.374c2.949.055,18.283.391,23.012.391m0-2.853c6.94.03,20.622-.534,23.453-.6.213,0,.306.105.306.276,0,.333-.1,1.361-.135,1.58a.406.406,0,0,1-.441.366c-.213-.008-16.089-.913-23.185-.97-7.1.058-22.969.963-23.185.97a.4.4,0,0,1-.441-.366c-.038-.218-.136-1.249-.136-1.58,0-.171.093-.281.308-.276,2.833.07,16.513.634,23.456.6M12.042,55.822c-.99,0-2.55-.735-2.55-3.1s1.554-3.124,2.55-3.124,2.545.755,2.545,3.124-1.552,3.1-2.545,3.1M12.035,48.4a4.324,4.324,0,0,0,0,8.64,4.323,4.323,0,0,0,0-8.64m63.851,7.419c-.99,0-2.55-.735-2.55-3.1S74.89,49.6,75.886,49.6s2.547.755,2.547,3.124-1.557,3.1-2.547,3.1M75.878,48.4a4.323,4.323,0,1,0,4.155,4.32,4.236,4.236,0,0,0-4.155-4.32M0,48.6H1.5v8.241H0Zm26.775,0h1.5v8.241h-1.5Zm32.883,0h1.5v8.241h-1.5ZM35.125,49.7h.657l.075-1.063a7.265,7.265,0,0,0-.908-.055c-3.189,0-5.243,1.7-5.243,4.135s2.054,4.135,5.243,4.135a8.4,8.4,0,0,0,.908-.05l-.075-1.066h-.657c-2.264,0-3.756-1.176-3.756-3.026s1.5-3.009,3.756-3.009M23.383,53.521c0,.018,0,.022-.012.008A14.742,14.742,0,0,0,18.511,48.6h-1.02v8.242H18.9s-.058-6.351-.058-6.364,0-.03.018-.025a13.835,13.835,0,0,1,4.721,6.389h1.158V48.6H23.328s.055,4.909.055,4.919m45.66,0c0,.018-.008.022-.015.008A14.713,14.713,0,0,0,64.172,48.6H63.146v8.242h1.412s-.058-6.351-.058-6.364.005-.03.02-.025a13.814,13.814,0,0,1,4.719,6.389H70.4V48.6H68.988s.055,4.909.055,4.919M36.318,56.843h1.419s2.219-5.258,2.3-5.436c.1.18,2.738,5.436,2.738,5.436h1.695l-4.41-8.4-3.743,8.4m57.552-8.4-3.743,8.4h1.419s2.219-5.258,2.3-5.436c.1.18,2.738,5.436,2.738,5.436h1.7l-4.413-8.4m-89.7,3.515c.87-.9,3.222-3.352,3.222-3.352h-1.8L2.159,52.209a9.914,9.914,0,0,1,3.869,4.633H7.6a10.276,10.276,0,0,0-3.435-4.889M82.833,48.6h-1.5v8.242H86.1V55.7H82.833V48.6m8.239,0H85.388v1.143h2.094v7.1h1.5v-7.1h2.094V48.6m-37.5,4.049a12.812,12.812,0,0,0-.5,1.219.014.014,0,0,1-.023,0,12.224,12.224,0,0,0-.5-1.211,22.748,22.748,0,0,0-2.527-4.26c-.4.73-1.966,7.066-2.294,8.445h1.5s1.181-5.4,1.186-5.418.013-.025.02-.013a24.333,24.333,0,0,1,2.121,4.7h1A25.109,25.109,0,0,1,55.664,51.4c.007,0,.015,0,.015.013s1.206,5.433,1.206,5.433h1.5c-.333-1.377-1.9-7.713-2.3-8.445a22.2,22.2,0,0,0-2.52,4.247" fill="#9693a3"/></g></svg>