<svg xmlns="http://www.w3.org/2000/svg" width="16.794" height="16.795" viewBox="0 0 16.794 16.795"><g transform="translate(0 0)"><path d="M388.985-4180.23H375.923a1.868,1.868,0,0,1-1.865-1.867v-13.062a1.868,1.868,0,0,1,1.865-1.867h13.062a1.869,1.869,0,0,1,1.866,1.867v13.062A1.869,1.869,0,0,1,388.985-4180.23Zm-4.3-8.392c.913,0,1.376.616,1.376,1.832v4.285h2.516v-5.168a3.362,3.362,0,0,0-.836-2.442,2.9,2.9,0,0,0-2.135-.8,2.848,2.848,0,0,0-2.461,1.348v-1.1H380.72v8.163h2.425v-4.285C383.144-4187.972,383.691-4188.623,384.684-4188.623Zm-8.108-2.046v8.163H379.1v-8.163Zm1.251-4.081a1.5,1.5,0,0,0-1.495,1.506,1.5,1.5,0,0,0,1.495,1.5,1.5,1.5,0,0,0,1.495-1.5A1.5,1.5,0,0,0,377.827-4194.75Z" transform="translate(-374.057 4197.025)" fill="#43414c"/></g></svg>