<svg xmlns="http://www.w3.org/2000/svg" viewBox="0 0 73 18"><defs><style>.a{fill:#9693a3;}</style></defs><path class="a" d="M72,3.52a2.52,2.52,0,0,0-.61-1.82c-.83-.87-2.45-.88-4.23.17a10.24,10.24,0,0,0-2.78,2.67,17,17,0,0,0-1.81,3.07c0-.22.08-.43.11-.63.14-.67.32-1.46.54-2.35a12.48,12.48,0,0,0,.52-2.5c0-1-1.2-1.24-2-1a4,4,0,0,0-2.2,2.35c-.89,2.14-.69,4.57-.93,6.82,0,.27-.17,1.69-.66,1.54-.24-.08-.3-.44-.35-.65a6.23,6.23,0,0,0-1.37-2.54c-.62-.76-1.37-1.42-1.94-2.22a3.11,3.11,0,0,1-.25-.38,2.07,2.07,0,0,1-.32-1,4.66,4.66,0,0,1,.58-1.93,5.39,5.39,0,0,0,.39-.93,2.2,2.2,0,0,0,.15-.72A.82.82,0,0,0,54.34.7,3.79,3.79,0,0,0,52.92.51,2.84,2.84,0,0,0,50,2.16c-.5,1.17-1,2.31-1.52,3.38s-1,2-1.34,2.59a20.79,20.79,0,0,1-1.69,2.37A6.85,6.85,0,0,1,42.89,13a1,1,0,0,1-.84,0c-.85-.51-.32-2.19-.15-2.92.26-1.11.52-2.22.77-3.34A32.48,32.48,0,0,0,43.52,2a1,1,0,0,0-.43-.91A2.44,2.44,0,0,0,41.87.88a3,3,0,0,0-1.83.5A3.25,3.25,0,0,0,39.12,3c-.68,2-1.1,3.68-1.66,5s-.92,3.06-2.28,3.79a.89.89,0,0,1-.53.13c-.83-.14-.34-2.06-.25-2.56.2-1,.42-2.09.63-3.13.14-.67.32-1.43.54-2.26A11.19,11.19,0,0,0,36,2.1a1.14,1.14,0,0,0-.38-.92,1.9,1.9,0,0,0-1.2-.3,3.59,3.59,0,0,0-2.08.49,2.82,2.82,0,0,0-1,1.61c-.46,1.59-.8,3.49-.8,3.49-.1.62-.63,3-.63,3a5.57,5.57,0,0,1-1.65,2.93c-.4.36-1.3,1.07-1.79.48a1,1,0,0,1-.2-.64,30.81,30.81,0,0,1,.49-4.59c.28-1.89.42-3.79.59-5.69a1.53,1.53,0,0,0,0-.67C27.16,1,26.89,1,26.61.9A10.29,10.29,0,0,0,25.38.76,16.31,16.31,0,0,0,23,.79a9.51,9.51,0,0,0-4.81,1.54A11.61,11.61,0,0,0,14.43,7c-.11.23-.24.6-.54.63s-.22-.64-.19-.85c.06-.41.15-.82.23-1.23a10,10,0,0,0,.26-3.32C13.94.77,12.37.76,11.25,1.13,8.56,2,6.86,4.51,5.6,6.9l-.26.51-.22.41a27.62,27.62,0,0,1,.73-3.27A9.62,9.62,0,0,0,6.46,2a1.06,1.06,0,0,0-1-1.08H5.29C3.14,1,2,3.45,1.66,5.23A31.67,31.67,0,0,0,1,10.54c0,1,0,2.08,0,3.12a5.5,5.5,0,0,0,.73,3.07,2,2,0,0,0,2.53.39c1-.5,1.25-1.66,1.48-2.65a23.24,23.24,0,0,1,1.48-4.3A24.85,24.85,0,0,1,9.91,5.74c.06-.08.18-.18.27-.11a.21.21,0,0,1,0,.19,17,17,0,0,0-.22,3,4.43,4.43,0,0,0,.81,2.36,1.71,1.71,0,0,0,2.38.51,1.84,1.84,0,0,0,.22-.17,8.08,8.08,0,0,0,1.37,4.16,4.39,4.39,0,0,0,3.55,1.61,5.19,5.19,0,0,0,4.37-2.53A4.72,4.72,0,0,0,24,16.5c1.52,1.24,3.46,1.05,5.38-.41.35-.27.7-.56,1.07-.9a5.54,5.54,0,0,0,.36.62,3.18,3.18,0,0,0,2.7,1.52,4.12,4.12,0,0,0,2.66-1.2A6.82,6.82,0,0,0,37.77,14a4.65,4.65,0,0,0,.43,1.94,2.87,2.87,0,0,0,2.62,1.43,6.79,6.79,0,0,0,4-1.2,21.76,21.76,0,0,0,5.73-6.5L50.91,9a5.55,5.55,0,0,1,1.08.7,13.75,13.75,0,0,1,1.47,1.28,2.69,2.69,0,0,1,.72,1.2A1.65,1.65,0,0,1,52.91,14a2.41,2.41,0,0,1-1.45-.18,5.34,5.34,0,0,0-.59-.28.9.9,0,0,0-.86.48,2.06,2.06,0,0,0,.1,2.51c1.2,1.24,3.29,1.07,4.77.52a5.86,5.86,0,0,0,2.36-1.88c.16-.2.37-.5.66-.5s.37.17.41.4c.13.75.13,1.39.78,1.9a2.36,2.36,0,0,0,3.06-.14A5.06,5.06,0,0,0,63,15c.38-1.29.68-2.55,1.18-3.8a12.92,12.92,0,0,1,3.07-4.89c.09-.09.41-.5.56-.29s-.13.64-.19.8a6,6,0,0,0-.59,2,1,1,0,0,0,.42,1,2.07,2.07,0,0,0,2.12-.34,6.56,6.56,0,0,0,1.69-2.84A9,9,0,0,0,72,3.52ZM18.59,13.7a1.33,1.33,0,0,1-1-.4,2.22,2.22,0,0,1-.5-1.51,9,9,0,0,1,.72-3.65,7.3,7.3,0,0,1,1.59-2.39,5.16,5.16,0,0,1,2.25-1.38A2.85,2.85,0,0,1,23,4.24c.54.15.33.88.27,1.25a18.48,18.48,0,0,1-1.84,6.18c-.1.17-.2.33-.31.49a5.4,5.4,0,0,1-.62.74,2.63,2.63,0,0,1-1.89.8Z"/></svg>