<svg xmlns="http://www.w3.org/2000/svg" xmlns:xlink="http://www.w3.org/1999/xlink" width="75.75" height="33.681" viewBox="0 0 75.75 33.681"><defs><clipPath id="a"><rect width="75.75" height="33.681" fill="none"/></clipPath></defs><g transform="translate(0 0)"><g transform="translate(0 0)" clip-path="url(#a)"><path d="M99.113,24.6a11.356,11.356,0,1,1-20.6-8.576l.008-.011c1.618-2.527,3.361-4.687,4.73-7.024,1.065-1.817,1.6-3.593,2.67-5.432l0,0c.068-.124.14-.244.217-.362l0,0A6.254,6.254,0,0,1,97.369,5.549v0q.028.194.05.385c.25,2.131.02,3.981.267,6.087.314,2.689,1.043,5.368,1.509,8.332l0,.014a11.334,11.334,0,0,1-.084,4.236" transform="translate(-34.909 -0.25)" fill="#4ee6e2"/><path d="M99.031,21.495l0-.029c-.2-1.264-.45-2.493-.693-3.681-.329-1.608-.639-3.128-.822-4.695a27.481,27.481,0,0,1-.139-3.146A25.731,25.731,0,0,0,97.245,7c0-.033-.008-.066-.012-.1l-.068-.427a5.145,5.145,0,0,0-9.141-1.747l-.013.02c-.035.053-.067.1-.1.155v0l-.082.142-.115.21-.009.007c-.448.8-.8,1.581-1.165,2.409A27.514,27.514,0,0,1,85.151,10.5c-.8,1.361-1.692,2.628-2.64,3.969-.7.99-1.423,2.014-2.113,3.092l-.015.023a10.237,10.237,0,1,0,18.648,3.913" transform="translate(-35.846 -1.188)" fill="#d4ffce"/><path d="M85.355,33.431a11.663,11.663,0,0,1-7.347-17.819l.009-.014c.7-1.1,1.436-2.137,2.145-3.14.929-1.316,1.808-2.559,2.574-3.868a26.309,26.309,0,0,0,1.319-2.682,27.484,27.484,0,0,1,1.35-2.747c.069-.125.143-.248.228-.378a6.555,6.555,0,0,1,11.78,2.458l0,.016c.019.132.035.263.05.393a26.913,26.913,0,0,1,.137,3.1,26.419,26.419,0,0,0,.13,2.987c.176,1.507.481,3,.8,4.576.246,1.2.5,2.448.7,3.745l0,.01A11.665,11.665,0,0,1,85.355,33.431M85.93,3.459l0,0a26.839,26.839,0,0,0-1.322,2.69,26.781,26.781,0,0,1-1.349,2.742c-.78,1.331-1.665,2.584-2.6,3.911-.705,1-1.434,2.029-2.134,3.123l-.006.009-.005.008a11.055,11.055,0,1,0,20.139,4.222l0-.017c-.2-1.283-.455-2.521-.7-3.718-.325-1.591-.632-3.094-.811-4.626A26.885,26.885,0,0,1,97,8.752a26.442,26.442,0,0,0-.133-3.032c-.014-.123-.029-.247-.047-.371h0a5.953,5.953,0,0,0-10.679-2.24h0l0,.007c-.075.115-.143.227-.2.339l0,.005" transform="translate(-34.658 0)" fill="#43414c"/><path d="M93.689,29.485a6.038,6.038,0,1,0,4.67,7.148,6.044,6.044,0,0,0-4.67-7.148" transform="translate(-39.359 -13.371)" fill="#f6c57c"/><path d="M75.749,19.152a2.7,2.7,0,0,0-.659-1.941c-.876-.931-2.607-.938-4.511.185a10.921,10.921,0,0,0-2.965,2.848,18.134,18.134,0,0,0-1.928,3.277q.057-.359.12-.672c.144-.719.337-1.563.573-2.506a13.69,13.69,0,0,0,.55-2.668c0-1.039-1.282-1.326-2.091-1.075a4.31,4.31,0,0,0-2.344,2.515c-.945,2.279-.731,4.873-.993,7.277-.03.283-.181,1.8-.7,1.635-.254-.08-.316-.467-.366-.686a6.8,6.8,0,0,0-1.466-2.717c-.666-.813-1.466-1.507-2.074-2.365-.094-.133-.184-.27-.266-.41a2.141,2.141,0,0,1-.34-1.048,4.886,4.886,0,0,1,.615-2.065,5.552,5.552,0,0,0,.418-.988,2.852,2.852,0,0,0,.157-.768.875.875,0,0,0-.562-.833,3.987,3.987,0,0,0-1.521-.2A3.042,3.042,0,0,0,52.286,17.7c-.531,1.252-1.075,2.468-1.618,3.612s-1.029,2.088-1.425,2.763a25.235,25.235,0,0,1-1.8,2.528c-.736.958-1.57,2.212-2.752,2.661a1.034,1.034,0,0,1-.886-.033c-.912-.544-.347-2.328-.167-3.109.274-1.189.556-2.376.822-3.567a34.515,34.515,0,0,0,.908-5,1.057,1.057,0,0,0-.46-.979,2.6,2.6,0,0,0-1.3-.239,3.127,3.127,0,0,0-1.958.529,3.5,3.5,0,0,0-.98,1.7c-.719,2.153-1.167,3.926-1.772,5.372-.583,1.394-.972,3.268-2.427,4.046a.919.919,0,0,1-.562.134c-.889-.142-.369-2.19-.267-2.727.212-1.117.449-2.23.672-3.344.143-.714.336-1.521.574-2.4a12.146,12.146,0,0,0,.4-2.012,1.2,1.2,0,0,0-.409-.974,2,2,0,0,0-1.277-.316,3.777,3.777,0,0,0-2.219.522,3.07,3.07,0,0,0-1.036,1.716c-.486,1.7-.855,3.717-.855,3.717-.107.666-.67,3.188-.671,3.191a5.893,5.893,0,0,1-1.763,3.126c-.427.391-1.387,1.144-1.91.518a1.029,1.029,0,0,1-.2-.686,32.958,32.958,0,0,1,.515-4.892c.3-2.016.452-4.046.628-6.075a1.541,1.541,0,0,0-.05-.713c-.13-.32-.415-.353-.714-.408a10.9,10.9,0,0,0-1.31-.149,19.351,19.351,0,0,0-2.581.034A10.16,10.16,0,0,0,18.3,17.884a12.273,12.273,0,0,0-3.968,4.946c-.114.241-.258.644-.574.67-.425.035-.234-.678-.2-.9.064-.442.157-.877.236-1.317a10.418,10.418,0,0,0,.283-3.536c-.266-1.532-1.941-1.539-3.138-1.142-2.868.95-4.686,3.6-6.031,6.152-.094.179-.182.36-.276.539a3.733,3.733,0,0,1-.234.439,29.706,29.706,0,0,1,.778-3.484,10.223,10.223,0,0,0,.655-2.715A1.131,1.131,0,0,0,4.575,16.39c-2.291.074-3.47,2.683-3.871,4.586a34.078,34.078,0,0,0-.675,5.666c-.044,1.108-.038,2.219.018,3.326a5.783,5.783,0,0,0,.77,3.276,2.182,2.182,0,0,0,2.7.418c1.039-.535,1.336-1.781,1.582-2.833a25.159,25.159,0,0,1,1.579-4.586A26.731,26.731,0,0,1,9.5,21.524c.071-.095.2-.2.289-.119a.22.22,0,0,1,.04.195,17.745,17.745,0,0,0-.242,3.239,4.73,4.73,0,0,0,.864,2.517,1.836,1.836,0,0,0,2.781.356,8.537,8.537,0,0,0,1.462,4.44,4.669,4.669,0,0,0,3.785,1.725,5.571,5.571,0,0,0,4.664-2.708A5.022,5.022,0,0,0,24.52,33c1.614,1.321,3.687,1.117,5.738-.445.371-.282.747-.6,1.14-.962a5.194,5.194,0,0,0,.387.663,3.375,3.375,0,0,0,2.88,1.618A4.346,4.346,0,0,0,37.5,32.6a7.221,7.221,0,0,0,1.727-2.321,4.88,4.88,0,0,0,.465,2.07,3.07,3.07,0,0,0,2.8,1.53A7.3,7.3,0,0,0,46.7,32.6a23.209,23.209,0,0,0,6.106-6.932q.224-.356.438-.718A5.841,5.841,0,0,1,54.4,25.7a12.959,12.959,0,0,1,1.562,1.367,2.81,2.81,0,0,1,.769,1.274,1.752,1.752,0,0,1-1.355,2.04,2.5,2.5,0,0,1-1.54-.186,4.766,4.766,0,0,0-.627-.3.96.96,0,0,0-.926.507,2.2,2.2,0,0,0,.115,2.687c1.271,1.314,3.506,1.136,5.085.555A6.37,6.37,0,0,0,60,31.626c.174-.211.4-.528.707-.528.274-.025.392.184.433.424.14.8.145,1.477.836,2.021a2.505,2.505,0,0,0,3.258-.149,5.118,5.118,0,0,0,.878-2.016c.405-1.374.731-2.72,1.261-4.054a16.908,16.908,0,0,1,1.916-3.629,16.693,16.693,0,0,1,1.361-1.581c.093-.1.441-.536.6-.309.133.2-.132.677-.206.846a6.438,6.438,0,0,0-.626,2.12,1.1,1.1,0,0,0,.449,1.046,2.231,2.231,0,0,0,2.262-.362,7.091,7.091,0,0,0,1.8-3.039,9.668,9.668,0,0,0,.822-3.263M18.782,30.007a1.47,1.47,0,0,1-1.033-.419,2.422,2.422,0,0,1-.531-1.613,9.62,9.62,0,0,1,.773-3.9,7.964,7.964,0,0,1,1.693-2.548,5.562,5.562,0,0,1,2.4-1.466,3.028,3.028,0,0,1,1.392-.138c.572.152.356.937.284,1.334A19.681,19.681,0,0,1,21.8,27.851c-.1.176-.217.347-.333.516a5.47,5.47,0,0,1-.662.791,2.763,2.763,0,0,1-2.025.849" transform="translate(0 -7.26)" fill="#43414c"/></g></g></svg>