<svg xmlns="http://www.w3.org/2000/svg" xmlns:xlink="http://www.w3.org/1999/xlink" width="134.347" height="37.526" viewBox="0 0 134.347 37.526"><defs><clipPath id="a"><rect width="134.347" height="37.526" transform="translate(0 -5)" fill="none"/></clipPath></defs><g transform="translate(0 5)"><g clip-path="url(#a)"><path d="M443.275,14.175l-4.953,4.953h-6.731l-4.952-4.953V7.444l4.952-4.953h6.731l4.953,4.953ZM439.336,0h-8.758l-6.43,6.43v8.758q3.215,3.214,6.43,6.43h8.758q3.214-3.216,6.43-6.43V6.43q-3.216-3.214-6.43-6.43" transform="translate(-331.666)" fill="#9693a3"/><path d="M453.8,19.275l-3.614-3.615h-5.966l-4.411,4.412V24.96L454.3,22.216l-4.738,3.47V24.17l-8.951,2.664,3.614,3.614h5.966l4.411-4.411V21.223L440.2,24l4.655-3.471v1.518Z" transform="translate(-343.913 -12.246)" fill="#9693a3"/><path d="M8.232,8.414A5.463,5.463,0,0,0,6.551,9.5,5.115,5.115,0,0,0,5.41,11.088a4.311,4.311,0,0,0-.4,1.815,5.8,5.8,0,0,0,.4,2.184,5.528,5.528,0,0,0,1.129,1.767A4.97,4.97,0,0,0,8.22,18.02a5.206,5.206,0,0,0,4.024,0,4.977,4.977,0,0,0,1.681-1.166,5.535,5.535,0,0,0,1.129-1.767,5.8,5.8,0,0,0,.4-2.184,4.4,4.4,0,0,0-.4-1.828,5.024,5.024,0,0,0-1.129-1.583,5.4,5.4,0,0,0-1.681-1.079,5.248,5.248,0,0,0-2.012-.393,5.155,5.155,0,0,0-2,.393m5.84-4.355a10.494,10.494,0,0,1,3.3,1.987,9.34,9.34,0,0,1,2.269,3.042,8.827,8.827,0,0,1,.822,3.791,10.877,10.877,0,0,1-.761,4.1,9.419,9.419,0,0,1-5.4,5.361,10.959,10.959,0,0,1-4.073.748,10.954,10.954,0,0,1-4.073-.748A9.5,9.5,0,0,1,2.9,20.215,9.678,9.678,0,0,1,.761,16.964,10.775,10.775,0,0,1,0,12.879,8.821,8.821,0,0,1,.822,9.088a9.331,9.331,0,0,1,2.27-3.042,10.487,10.487,0,0,1,3.3-1.987,10.893,10.893,0,0,1,7.68,0" transform="translate(0 -2.627)" fill="#9693a3"/><path d="M114.763,6.173h5.963l-7.361,8.759,8.024,9.741h-6.232l-6.208-8.023H108.9v8.023H104.09V6.173H108.9V13.8h.049Z" transform="translate(-81.394 -4.827)" fill="#9693a3"/><path d="M195.88,24.674h-4.809V10.246H187.1V6.174h12.759v4.073H195.88Z" transform="translate(-146.301 -4.828)" fill="#9693a3"/><path d="M248.939,11.89h-.049L246.9,17.78h4Zm-3.362,9.569L244.3,24.674h-5.1l7.116-18.5h5.251l6.968,18.5H253.4l-1.2-3.215Z" transform="translate(-187.043 -4.828)" fill="#9693a3"/><path d="M345.6,12.143a22.056,22.056,0,0,1-.405,4.073,8.626,8.626,0,0,1-1.484,3.239,8.208,8.208,0,0,1-3.288,2.735,10.338,10.338,0,0,1-4.343.9,10.973,10.973,0,0,1-3.975-.7,9.1,9.1,0,0,1-3.141-2,8.832,8.832,0,0,1-2.036-3.1,10.693,10.693,0,0,1-.712-3.963,11.04,11.04,0,0,1,.724-4.073,8.891,8.891,0,0,1,5.251-5.189,11.406,11.406,0,0,1,4.061-.7,9.48,9.48,0,0,1,5.03,1.3A8.536,8.536,0,0,1,344.6,8.536l-4.564,1.914a4.72,4.72,0,0,0-1.546-2.159,3.933,3.933,0,0,0-2.453-.785A4.213,4.213,0,0,0,334,8a4.5,4.5,0,0,0-1.521,1.337,6.358,6.358,0,0,0-.932,1.89,7.211,7.211,0,0,0,0,4.245,6.038,6.038,0,0,0,.945,1.877,4.511,4.511,0,0,0,1.546,1.313,4.426,4.426,0,0,0,2.073.479,4.18,4.18,0,0,0,2.675-.835,3.282,3.282,0,0,0,1.2-2.38h-3.926V12.143Z" transform="translate(-255.089 -2.627)" fill="#9693a3"/><path d="M531.414,6.173h4.809l8.809,11.311h.049V6.173h4.809v18.5h-4.809l-8.808-11.336h-.049V24.673h-4.809Z" transform="translate(-415.543 -4.827)" fill="#9693a3"/><path d="M239.2,110.346h2.167l1.718,4.524,1.819-4.524h2.19l1.28,8.466h-2.2l-.617-4.873h-.023l-2.032,4.873h-.876l-1.943-4.873h-.022l-.707,4.873h-2.19Z" transform="translate(-185.916 -86.286)" fill="#9693a3"/><path d="M289.815,110.346h2.167l1.718,4.524,1.819-4.524h2.19l1.28,8.466h-2.2l-.617-4.873h-.023l-2.032,4.873h-.876l-1.942-4.873h-.022l-.707,4.873h-2.189Z" transform="translate(-225.499 -86.286)" fill="#9693a3"/><path d="M342.268,112.963h-.023l-.909,2.694h1.83Zm-1.538,4.379-.584,1.471H337.81l3.257-8.466h2.4l3.189,8.466h-2.347l-.55-1.471Z" transform="translate(-264.153 -86.287)" fill="#9693a3"/></g></g></svg>