<svg xmlns="http://www.w3.org/2000/svg" width="72.312" height="31.161" viewBox="0 0 72.312 31.161"><g transform="translate(0)"><path d="M57.229,5.24c-1.169,0-1.423.613-1.989,1.476,0,0-6.4,11.031-6.475,11.14s-.129.1-.184,0C47.9,16.524,43.382,7.025,43.014,6.3A1.928,1.928,0,0,0,41.12,5.24H27.538L28.15.26A.217.217,0,0,0,27.906,0L23.833,0H23.8a3.28,3.28,0,0,0-3.023,2.826l-.3,2.413H15.809c-10.145,0-13.642,7.3-14.072,11.15l-1.719,14s-.177.773.558.773H5.246a2.023,2.023,0,0,0,1.961-1.895L8.7,17.193c.126-.865,1.041-4.947,7.112-4.947H19.62l-.755,6.16c-.148.911-.728,5.637,2.277,9.208,1.362,1.618,3.973,3.546,8.672,3.546h.105c2.181-.012,2.62-.023,3.081-.023s.557-.566.557-.566.047-.313.286-2.544c.23-2.146-.749-3.656-3.293-3.656-2.434,0-.782.016-.782.016a4.556,4.556,0,0,1-3.417-1.218c-.9-1.056-.667-3.048-.567-3.666l.893-7.258H37.924s7.823,15.448,8.814,17.376,1.944,2.086,3.073.211c1-1.659,11.444-19.7,13.79-23.775.488-.85-.266-.82-.266-.82ZM68.563,15.93a3.747,3.747,0,1,0-3.747-3.746,3.751,3.751,0,0,0,3.747,3.746m0,12.02A3.747,3.747,0,1,0,64.816,24.2a3.751,3.751,0,0,0,3.747,3.746" transform="translate(0.001)" fill="#9693a3"/></g></svg>