<svg xmlns="http://www.w3.org/2000/svg" xmlns:xlink="http://www.w3.org/1999/xlink" width="70.426" height="20.889" viewBox="0 0 70.426 20.889"><defs><clipPath id="a"><rect width="70.426" height="20.889" fill="none"/></clipPath></defs><g transform="translate(0 0)"><g transform="translate(0 0)" clip-path="url(#a)"><path d="M20.242,17.211c.01-.211,0-.418,0-.625s-.027-.383-.05-.572h0A8.226,8.226,0,0,1,16.4,13.881a2.014,2.014,0,0,0-1.47-.768C12.226,13.028,8.4,15.677,6.217,16c-.013.108-.023.215-.033.324-.014.184-.028.368-.028.555A7.046,7.046,0,0,0,13.2,23.924c.11,0,.222,0,.333-.008a7.1,7.1,0,0,0,6.706-6.706" transform="translate(-3.254 -6.929)" fill="#f5c583"/><path d="M17.145,3.078a9.949,9.949,0,1,0-7.2,16.82c.155,0,.31,0,.466-.011a10.015,10.015,0,0,0,9.472-9.472,9.871,9.871,0,0,0-2.743-7.337m-6.863,13.91c-.111.005-.223.008-.333.008A7,7,0,0,1,2.964,9.07C5.142,8.748,8.972,6.1,11.68,6.184a2.013,2.013,0,0,1,1.469.768,8.231,8.231,0,0,0,3.784,2.132,7.094,7.094,0,0,1,.054,1.2,7.1,7.1,0,0,1-6.706,6.706" transform="translate(0 0)" fill="#43414c"/><path d="M72.005,15.987c-.012-.11-.019-.222-.036-.331-.026-.159-.063-.314-.1-.469-.015-.062-.025-.126-.041-.187-.05-.186-.11-.367-.175-.546-.01-.027-.017-.056-.027-.083-.075-.2-.159-.391-.252-.58,0-.006-.005-.013-.008-.019a6.7,6.7,0,0,0-1.105-1.6h0a19.035,19.035,0,0,1-9.723-.045,6.772,6.772,0,0,0-.768.972v0q-.167.257-.311.531l-.019.039c-.088.171-.17.345-.244.524-.014.033-.024.067-.037.1-.063.161-.124.324-.174.491-.019.062-.032.127-.049.191-.039.142-.078.284-.108.429-.022.108-.034.219-.05.329s-.036.21-.047.317c-.022.22-.034.444-.034.67a6.68,6.68,0,0,0,6.68,6.68c.1,0,.21,0,.315-.007a6.731,6.731,0,0,0,6.357-6.357,6.848,6.848,0,0,0,0-.7c-.007-.118-.025-.234-.038-.351" transform="translate(-31.018 -6.41)" fill="#86705e"/><path d="M69.053,4.519a9.583,9.583,0,1,0-6.931,16.2c.149,0,.3,0,.449-.01a9.647,9.647,0,0,0,9.123-9.123,9.506,9.506,0,0,0-2.642-7.067M62.437,17.81c-.106,0-.211.007-.315.007A6.673,6.673,0,0,1,57.283,6.541a19.04,19.04,0,0,0,9.723.046,6.654,6.654,0,0,1,1.788,4.866,6.731,6.731,0,0,1-6.357,6.357" transform="translate(-27.764 -0.821)" fill="#43414c"/><path d="M120.594,16.508c-.163-1.224.019-2.474-.229-3.686a6.4,6.4,0,0,0-2.5-3.748A11.029,11.029,0,0,0,113.9,7.418a6.982,6.982,0,0,0-.755.392c-.069.041-.139.082-.207.126-.1.061-.19.124-.283.191-.07.05-.138.1-.206.154-.112.086-.222.174-.328.266s-.211.185-.311.283c-.071.069-.137.141-.205.213s-.14.15-.207.228-.124.145-.183.22c-.076.1-.148.193-.219.292-.044.061-.09.121-.132.184-.1.156-.2.317-.293.482-.036.064-.068.131-.1.2-.062.12-.121.241-.176.365-.03.067-.059.134-.088.2q-.1.237-.176.482c-.01.032-.023.063-.033.094-.06.195-.11.394-.153.6-.013.06-.023.122-.035.183-.028.154-.052.309-.071.465-.008.063-.016.125-.022.189-.019.213-.033.429-.033.647a7.046,7.046,0,0,0,7.046,7.046c.11,0,.222,0,.333-.008.212-.01.422-.031.63-.06.075-.01.149-.027.224-.04.13-.023.26-.045.387-.075.091-.021.181-.048.271-.073.106-.029.212-.059.316-.093s.2-.069.3-.107.178-.069.266-.106q.157-.067.31-.141c.075-.037.149-.075.223-.114.108-.058.216-.116.321-.18.06-.036.118-.074.177-.111.113-.073.225-.146.334-.224.041-.03.08-.062.12-.092.121-.091.24-.183.355-.282h0a18.584,18.584,0,0,1-.694-2.7" transform="translate(-57.96 -3.92)" fill="#f1dbc4"/><path d="M125.129,17.928A31.283,31.283,0,0,0,122.9,6.786,9.947,9.947,0,1,0,113.471,19.9c.155,0,.31,0,.466-.011a9.792,9.792,0,0,0,4.411-1.285c-.089.709-.12,1.457.6,1.851a5.025,5.025,0,0,0,2.827.4,5.67,5.67,0,0,0,2.449-.425,2.779,2.779,0,0,0,.9-2.5m-11.325-.94c-.111.005-.223.008-.333.008a7.045,7.045,0,0,1-2.828-13.5,11.025,11.025,0,0,1,3.971,1.656,6.4,6.4,0,0,1,2.5,3.748c.248,1.212.066,2.461.229,3.686a18.582,18.582,0,0,0,.694,2.7,6.992,6.992,0,0,1-4.23,1.7" transform="translate(-54.707 0)" fill="#43414c"/></g></g></svg>