<?xml version="1.0" encoding="UTF-8"?>
<svg xmlns="http://www.w3.org/2000/svg" width="18.5mm" height="5.5mm" xmlns:xlink="http://www.w3.org/1999/xlink" version="1.1" viewBox="0 0 52.5 15.6">
  <defs>
    <style>
      .cls-1 {
        fill: none;
      }

      .cls-2 {
        fill: #43414c;
      }

      .cls-3 {
        clip-path: url(#clippath);
      }
    </style>
    <clipPath id="clippath">
      <rect class="cls-1" width="52.5" height="15.6"/>
    </clipPath>
  </defs>
  <!-- Generator: Adobe Illustrator 28.7.1, SVG Export Plug-In . SVG Version: 1.2.0 Build 142)  -->
  <g>
    <g id="Layer_1">
      <g id="Group_328">
        <g class="cls-3">
          <g id="Group_291">
            <path id="Path_405" class="cls-2" d="M12.8,2.3c-2.8-3-7.5-3.1-10.5-.2-3,2.8-3.1,7.5-.2,10.5,1.4,1.5,3.3,2.3,5.4,2.3.1,0,.2,0,.3,0,3.8-.2,6.9-3.2,7.1-7.1.1-2-.6-4-2-5.5M7.7,12.7c0,0-.2,0-.2,0-2.9,0-5.2-2.3-5.3-5.2,0-.2,0-.5,0-.7,1.6-.2,4.5-2.2,6.5-2.2.4,0,.8.2,1.1.6.8.8,1.8,1.3,2.8,1.6,0,.3,0,.6,0,.9-.1,2.7-2.3,4.9-5,5"/>
            <path id="Path_407" class="cls-2" d="M30.8,2.8c-2.7-2.9-7.3-3-10.1-.2-2.9,2.7-3,7.3-.2,10.1,1.3,1.4,3.2,2.2,5.2,2.2.1,0,.2,0,.3,0,3.7-.2,6.6-3.1,6.8-6.8,0-2-.6-3.9-2-5.3M25.9,12.7c0,0-.2,0-.2,0-2.7,0-5-2.2-5-5,0-1.3.5-2.5,1.4-3.4,2.4.6,4.9.7,7.3,0,.9,1,1.4,2.3,1.3,3.6-.1,2.6-2.2,4.6-4.7,4.7"/>
            <path id="Path_409" class="cls-2" d="M52.5,13.4c0-2.8-.6-5.7-1.7-8.3-1.3-3.9-5.5-6-9.4-4.7-3.9,1.3-6,5.5-4.7,9.4,1,3,3.8,5.1,7,5.1.1,0,.2,0,.3,0,1.2,0,2.3-.4,3.3-1,0,.5,0,1.1.5,1.4.7.3,1.4.4,2.1.3.6,0,1.2,0,1.8-.3.5-.5.8-1.2.7-1.9M44.1,12.7c0,0-.2,0-.2,0-2.9,0-5.3-2.4-5.3-5.3,0-2.1,1.2-4,3.1-4.8,1.1.2,2.1.6,3,1.2.9.7,1.6,1.7,1.9,2.8.2.9,0,1.8.2,2.7.1.7.3,1.4.5,2-.9.8-2,1.2-3.2,1.3"/>
          </g>
        </g>
      </g>
    </g>
  </g>
</svg>