<svg xmlns="http://www.w3.org/2000/svg" xmlns:xlink="http://www.w3.org/1999/xlink" width="100" height="100" viewBox="0 0 100 100"><defs><clipPath id="a"><rect width="53.268" height="50" fill="#d4ffce"/></clipPath></defs><g transform="translate(-252 -3792)"><circle cx="50" cy="50" r="50" transform="translate(252 3792)" fill="#7355ff"/><g transform="translate(275.366 3817)"><g clip-path="url(#a)"><path d="M16.4,10.51s.264-5.342,7.843-6.557C12.988-7.718-8.549,8.689,3.609,24.2c.4.508.825.989,1.263,1.446a20.972,20.972,0,0,1,3.985,5.095c1.142,2.337.913,4.827,1.116,7.349.159,1.983.182,4.033.521,6a1.67,1.67,0,0,0,2.481,1.18c4.31-2.626,17.168-4.493,22.436-2-6.257,4.277-14.492,4.312-18.5,3.815,5.081,1.651,15.275.13,20.564-3.1.535.2,1.029.391,1.472.57C30.633,50.781,19.059,49.5,13.865,48.2c6.332,2.95,20.6,2.231,26.453-1.783a2.128,2.128,0,0,0,.92-1.922,28.375,28.375,0,0,1,.114-5.813,2.728,2.728,0,0,1,2.38-2.084C69.433,30.653,37.314-8.978,16.4,10.51" transform="translate(0 0)" fill="#d4ffce" fill-rule="evenodd"/></g></g></g></svg>