<svg xmlns="http://www.w3.org/2000/svg" viewBox="0 0 81.13 27.17"><defs><style>.a{fill:#9693a3;}</style></defs><path class="a" d="M40.46,0A52.77,52.77,0,0,0,0,18.76l5.75,3.88A27.88,27.88,0,0,1,8,18.41a6.19,6.19,0,0,0,.1,1.06c1,7.89,8.67,7.7,8.67,7.7H64.28s7.76.21,8.77-7.67a5.12,5.12,0,0,0,.09-1,28,28,0,0,1,2.25,4.11l5.74-3.84A53.47,53.47,0,0,0,40.46,0M71.88,19.38a7.54,7.54,0,0,1-7.7,6H16.78a7.41,7.41,0,0,1-7.6-6.08,4.77,4.77,0,0,1,.55-3.49C14.53,9.53,24,1,40.44,1S66.57,9.65,71.36,16a4.34,4.34,0,0,1,.52,3.41M26.62,12.81l.79-1.69H17.27l-.8,1.69H20.4l-4.07,8.27H19L23,12.81Zm36.61,5.53c-.75,1.06-1.82,1.6-2.38,1.2s-.41-1.59.34-2.65,1.83-1.6,2.39-1.2.41,1.59-.35,2.65m-8.87,0c-.76,1.06-1.83,1.6-2.39,1.2s-.41-1.59.34-2.65,1.83-1.6,2.39-1.2.41,1.59-.34,2.65m-11-.77a3.92,3.92,0,0,1,2.08-2.31s.45-.16.7,0c0,0,.34.33-.07.94A5.08,5.08,0,0,1,43.86,18s-.85.38-.53-.51m-15.48.77c-.76,1.06-1.83,1.6-2.39,1.2s-.41-1.59.34-2.65,1.83-1.6,2.39-1.2.41,1.59-.34,2.65m37.91,1.29s-.51.24-.73,0S65,19,65,19l2.14-4.51H65l-.33.6c-1.28-1.12-3.68-.54-5.16,1a4.82,4.82,0,0,0-1.41,2.89,6.84,6.84,0,0,1-1.18.61s-.51.24-.73,0,0-.66,0-.66l3.8-7.82H57.75l-2,3.92c-1.27-1.12-3.67-.54-5.16,1a7,7,0,0,0-.77,1h0a.56.56,0,0,1,0,.08l-.13.24A4.74,4.74,0,0,1,47,19.72c-3.12.93-3.48-.59-3.48-.59,3.49-1.3,4.81-2.83,4.69-4s-1.73-1.23-1.73-1.23A5.58,5.58,0,0,0,41,17.4,3.38,3.38,0,0,0,40.87,19a5.79,5.79,0,0,1-1.67.66c-.88.27-1-.14-1.09-.4s-.51-2.51-.51-2.51l3.71-2.43H39l-2.79,1.73c-.62.26-.38-.4-.38-.4l2.28-4.61H36l-3.69,7.49a17.38,17.38,0,0,1-1.9,1s-.51.24-.73,0,0-.66,0-.66l2.14-4.5H29.58l-.34.6c-1.27-1.12-3.67-.54-5.16,1s-1.87,3.61-.85,4.58c.81.78,2.28.64,3.59-.25,0,0,.33-.28.51.05s.94,1.13,2.68.45a12.83,12.83,0,0,0,1.48-.71l-.45.92h2.18l1.09-2.21.95-.61s.3-.23.41.26a15.14,15.14,0,0,0,.66,2.11c.18.24.54.79,2.08.35a25.81,25.81,0,0,0,2.85-1,3.62,3.62,0,0,0,3.12,1.19,7.6,7.6,0,0,0,4.8-1.73,1.93,1.93,0,0,0,.56,1.19c.81.78,2.28.64,3.59-.25,0,0,.33-.28.52.05s.93,1.13,2.67.45A9.71,9.71,0,0,0,58.2,20a1.62,1.62,0,0,0,.42.64c.81.78,2.27.64,3.59-.25,0,0,.33-.29.51.05s.94,1.13,2.67.45a5.69,5.69,0,0,0,2.24-1.3l-.44-.78a6.49,6.49,0,0,1-1.43.79"/></svg>