<svg xmlns="http://www.w3.org/2000/svg" xmlns:xlink="http://www.w3.org/1999/xlink" width="150.277" height="24.055" viewBox="0 0 150.277 24.055"><defs><clipPath id="a"><rect width="150.277" height="24.055" fill="none"/></clipPath></defs><g transform="translate(0 0)" clip-path="url(#a)"><path d="M33.144,4.127l6.435.006c3.092.011,5,.573,6.094,1.427a6.535,6.535,0,0,1,2.382,5.377,6.449,6.449,0,0,1-.992,3.56,5.633,5.633,0,0,1-2.559,2.1l4.065,7.242-5.192-.011-5.112-9.508.823,0a6.074,6.074,0,0,0,3.032-.523,2.975,2.975,0,0,0,1.127-2.42,2.664,2.664,0,0,0-1.168-2.285,4.058,4.058,0,0,0-2.053-.543l-1.862,0-.026,15.263-5.025,0ZM68.576,6.439a5.776,5.776,0,0,1-3.793,2.922,10.5,10.5,0,0,1,.787,3.966c-.106,2.788-2.318,6.068-5.965,6.06a5.767,5.767,0,0,1-6.06-5.658,17.283,17.283,0,0,1,.007-3.568A3.025,3.025,0,0,1,49.483,8.9a11.969,11.969,0,0,0-.665,4.128l-.023.11A10.73,10.73,0,0,0,59.468,23.923,10.842,10.842,0,0,0,70.3,12.867a11.9,11.9,0,0,0-1.72-6.428m-.431-5.357C67.107.367,65.3,1.29,64.117,3.145a1.257,1.257,0,0,0-.072.108c-.022.035-.046.067-.069.107-1.148,1.793-1.26,3.806-.254,4.5a1.663,1.663,0,0,0,1.5.1,5.039,5.039,0,0,0,2.667-2.229c1.186-1.852,1.3-3.936.259-4.646M63.191,3.393c.381-1.616-.134-3.126-1.155-3.362s-2.168.885-2.549,2.5a4.354,4.354,0,0,0-.095,1.558,1.955,1.955,0,0,0,1.225,1.926c.763.177,1.585-.419,2.093-1.411a4.174,4.174,0,0,0,.48-1.213m-4.452-.377C58.51,1.631,57.625.627,56.725.759c-.927.125-1.516,1.386-1.316,2.817a3.348,3.348,0,0,0,.834,1.846,1.435,1.435,0,0,0,1.277.622c.892-.126,1.464-1.342,1.271-2.724-.014-.105-.034-.2-.053-.3M54.8,4.085a1.816,1.816,0,0,0-2.233-.709c-.7.46-.726,1.639-.067,2.649a2.726,2.726,0,0,0,1.329,1.086,1.318,1.318,0,0,0,1.3.01c.677-.436.7-1.587.072-2.563a3.027,3.027,0,0,0-.4-.474M52.757,7.021a2.211,2.211,0,0,0-.727-.37,1.471,1.471,0,0,0-1.818.262A1.686,1.686,0,0,0,50.9,9.127a2.192,2.192,0,0,0,1.428.458,1.207,1.207,0,0,0,1.1-.427,1.626,1.626,0,0,0-.675-2.136M20.368,23.781l11.145.02.009-4.412-6.12-.013L25.4,16l5.94.013.008-4.417-5.937-.011.007-3.06,6.119.014.009-4.418L20.4,4.1ZM0,23.746l5.613.014,4.053-6.966,4.241,6.979,5.692.007L12.813,13.4,18.84,4.1,13.17,4.086,9.892,9.7,6.521,4.075.837,4.069l6.07,9.21Zm149.643-19.6c.018.248.011.271.041.322h-.154a.878.878,0,0,1-.036-.293c-.016-.14-.03-.256-.335-.257h-.315v.549h-.159l0-1.278.533.007c.134,0,.453.032.449.343a.324.324,0,0,1-.229.315.273.273,0,0,1,.2.291m-.482-.35c.084,0,.355,0,.355-.244s-.234-.238-.322-.238h-.35V3.8l.317,0M71.918,18.05a5.819,5.819,0,0,0,6.164,5.835,5.733,5.733,0,0,0,6.1-5.757c0-3.614-2.913-4.662-4.78-5.379-2.974-1.016-4.916-1.608-4.886-4a3.389,3.389,0,0,1,3.6-3.373c2.6,0,3.237,1.946,3.475,3.222l2.179,0A5.289,5.289,0,0,0,78.2,3.518c-3.007,0-5.912,1.925-5.863,5.409-.006,3.728,3.424,4.743,5.022,5.228,2.278.745,4.65,1.358,4.644,4.126a3.865,3.865,0,0,1-3.943,3.747,3.962,3.962,0,0,1-3.933-3.972ZM88.068,23.9l.012-8.985,9.5.011-.015,8.989,2.211.007.037-19.683-2.212,0-.015,8.751-9.5-.014L88.1,4.227l-2.178-.008L85.887,23.9Zm35.662.069,10.907.019,0-1.949-8.725-.014.011-7.016,8.672.012,0-1.938-8.668-.016.008-6.834,8.727.017,0-1.946-10.906-.02Zm12.143-5.807A5.815,5.815,0,0,0,142.026,24a5.739,5.739,0,0,0,6.1-5.758c0-3.618-2.915-4.664-4.779-5.381-2.975-1.018-4.917-1.609-4.885-4a3.38,3.38,0,0,1,3.6-3.371c2.6.007,3.245,1.949,3.48,3.224h2.184a5.3,5.3,0,0,0-5.584-5.083c-3,0-5.9,1.928-5.859,5.411-.005,3.724,3.43,4.743,5.022,5.222,2.282.748,4.649,1.359,4.649,4.132a3.855,3.855,0,0,1-3.945,3.741,3.947,3.947,0,0,1-3.93-3.967Zm13.3-15.457a1.117,1.117,0,1,1-1.13,1.119,1.106,1.106,0,0,1,1.13-1.119m-.014,2.11a.991.991,0,0,0,.014-1.981h-.014a.965.965,0,0,0-.974.986.966.966,0,0,0,.974.995m-45.3,9a8.075,8.075,0,1,1,16.146.057,8.075,8.075,0,1,1-16.146-.028Zm-2.205.1a10.266,10.266,0,0,0,20.531-.042,10.266,10.266,0,0,0-20.531.018Z" transform="translate(0 0)" fill="#9693a3"/></g></svg>