<svg xmlns="http://www.w3.org/2000/svg" width="20" height="20" viewBox="0 0 20 20"><path d="M2.222,20H17.778A2.222,2.222,0,0,0,20,17.778V2.222A2.222,2.222,0,0,0,17.778,0H2.222A2.222,2.222,0,0,0,0,2.222V17.778A2.222,2.222,0,0,0,2.222,20Z" fill="#007ebb" fill-rule="evenodd"/><path d="M24.581,24.581h-3v-5.1c0-1.4-.532-2.181-1.639-2.181-1.2,0-1.834.814-1.834,2.181v5.1H15.225V14.86h2.887V16.17a3.391,3.391,0,0,1,2.931-1.606c2.062,0,3.538,1.259,3.538,3.863ZM11.78,13.587a1.794,1.794,0,1,1,1.78-1.794A1.787,1.787,0,0,1,11.78,13.587ZM10.29,24.581H13.3V14.86H10.29Z" transform="translate(-7.29 -7.29)" fill="#fff" fill-rule="evenodd"/></svg>