<svg xmlns="http://www.w3.org/2000/svg" width="20" height="20" viewBox="0 0 20 20"><g transform="translate(-332 -336)"><path d="M2.222,20H17.778A2.222,2.222,0,0,0,20,17.778V2.222A2.222,2.222,0,0,0,17.778,0H2.222A2.222,2.222,0,0,0,0,2.222V17.778A2.222,2.222,0,0,0,2.222,20Z" transform="translate(332 336)" fill-rule="evenodd"/><path d="M20.549,1.826a7.705,7.705,0,1,0,7.4,8A7.711,7.711,0,0,0,20.549,1.826Zm3.257,11.287a.461.461,0,0,1-.628.173,9.338,9.338,0,0,0-6.789-.953.46.46,0,1,1-.217-.895,10.265,10.265,0,0,1,7.463,1.047.46.46,0,0,1,.173.628h0Zm1.014-2.023a.6.6,0,0,1-.812.241,11.469,11.469,0,0,0-7.879-1.106.6.6,0,1,1-.258-1.168,12.664,12.664,0,0,1,8.706,1.221.6.6,0,0,1,.242.811Zm1.124-2.28a.738.738,0,0,1-.994.313,13.87,13.87,0,0,0-9.116-1.279A.736.736,0,1,1,15.54,6.4,15.347,15.347,0,0,1,25.63,7.82a.735.735,0,0,1,.314.992Z" transform="matrix(1, 0, 0, 1, 321.757, 336.474)" fill="#1ed760"/></g></svg>