<svg xmlns="http://www.w3.org/2000/svg" width="20" height="20" viewBox="0 0 20 20"><g transform="translate(-302 -336)"><path d="M2.222,20H17.778A2.222,2.222,0,0,0,20,17.778V2.222A2.222,2.222,0,0,0,17.778,0H2.222A2.222,2.222,0,0,0,0,2.222V17.778A2.222,2.222,0,0,0,2.222,20Z" transform="translate(302 336)" fill-rule="evenodd"/><path d="M10.885,0h2.325L8.105,5.813,14.07,13.7H9.389L5.724,8.907,1.529,13.7H-.8L4.612,7.481-1.1,0H3.7L7.008,4.378Zm-.814,12.334h1.289L3.02,1.314H1.635Z" transform="translate(305.515 339.15)" fill="#fff"/></g></svg>